<svg width="2469" height="480" viewBox="0 0 2469 480" fill="none" xmlns="http://www.w3.org/2000/svg">
<path fill-rule="evenodd" clip-rule="evenodd" d="M312.516 69.2852C312.516 59.7388 304.777 52 295.23 52H17.2852C7.73883 52 0 59.7388 0 69.2852V69.2852C0 78.8315 7.73884 86.5703 17.2852 86.5703H40.0103C41.875 86.5703 43.7305 86.8311 45.523 87.3451L258.472 148.407C265.447 150.407 272.721 146.375 274.721 139.4V139.4C276.721 132.426 272.689 125.152 265.714 123.152L261.066 121.819C241.042 116.077 245.189 86.5703 266.02 86.5703H295.23C304.777 86.5703 312.516 78.8315 312.516 69.2852V69.2852ZM92.934 336.181C112.958 341.923 108.811 371.43 87.9802 371.43H58.7695C49.2232 371.43 41.4844 379.169 41.4844 388.715V388.715C41.4844 398.261 49.2232 406 58.7695 406H336.715C346.261 406 354 398.261 354 388.715V388.715C354 379.169 346.261 371.43 336.715 371.43H313.99C312.125 371.43 310.27 371.169 308.477 370.655L95.5276 309.593C88.5535 307.593 81.2786 311.625 79.2788 318.599V318.599C77.279 325.574 81.3115 332.848 88.2857 334.848L92.934 336.181ZM0 110.77C0 101.223 7.73883 93.4844 17.2852 93.4844V93.4844C26.8315 93.4844 34.5703 101.223 34.5703 110.77V139.98C34.5703 160.811 64.0769 164.958 69.8186 144.934L71.1515 140.285C73.1513 133.311 80.4261 129.279 87.4003 131.279V131.279C94.3745 133.278 98.407 140.553 96.4072 147.527L35.3451 360.476C34.8311 362.269 34.5703 364.124 34.5703 365.989V388.715C34.5703 398.261 26.8315 406 17.2852 406V406C7.73883 406 0 398.261 0 388.715V110.77ZM354 69.2852C354 59.7388 346.261 52 336.715 52V52C327.169 52 319.43 59.7388 319.43 69.2852V92.0102C319.43 93.875 319.169 95.7305 318.655 97.523L257.593 310.472C255.593 317.447 259.625 324.721 266.6 326.721V326.721C273.574 328.721 280.848 324.689 282.848 317.714L284.181 313.066C289.923 293.042 319.43 297.189 319.43 318.02V347.23C319.43 356.777 327.169 364.516 336.715 364.516V364.516C346.261 364.516 354 356.777 354 347.23V69.2852Z" fill="#8048F8"/>
<path d="M640.2 479C629.8 479 620.333 477 611.8 473C603.4 469 596.133 463.6 590 456.8C584 449.867 579.333 442.133 576 433.6C572.667 424.933 571 416.067 571 407C571 397.533 572.733 388.533 576.2 380C579.8 371.333 584.667 363.667 590.8 357C597.067 350.2 604.4 344.867 612.8 341C621.333 337 630.667 335 640.8 335C651.067 335 660.4 337.067 668.8 341.2C677.333 345.333 684.6 350.867 690.6 357.8C696.6 364.733 701.267 372.467 704.6 381C707.933 389.533 709.6 398.333 709.6 407.4C709.6 416.733 707.867 425.733 704.4 434.4C700.933 442.933 696.067 450.6 689.8 457.4C683.667 464.067 676.333 469.333 667.8 473.2C659.4 477.067 650.2 479 640.2 479ZM599 407C599 413.133 599.933 419.067 601.8 424.8C603.667 430.533 606.333 435.667 609.8 440.2C613.4 444.6 617.733 448.133 622.8 450.8C628 453.333 633.867 454.6 640.4 454.6C647.067 454.6 653 453.267 658.2 450.6C663.4 447.8 667.733 444.133 671.2 439.6C674.667 434.933 677.267 429.8 679 424.2C680.867 418.467 681.8 412.733 681.8 407C681.8 400.867 680.8 395 678.8 389.4C676.933 383.667 674.2 378.6 670.6 374.2C667.133 369.667 662.8 366.133 657.6 363.6C652.533 360.933 646.8 359.6 640.4 359.6C633.6 359.6 627.6 361 622.4 363.8C617.333 366.467 613.067 370.067 609.6 374.6C606.133 379.133 603.467 384.2 601.6 389.8C599.867 395.4 599 401.133 599 407Z" fill="black"/>
<path d="M824.595 478H797.795V419.2C797.795 410.8 796.329 404.667 793.395 400.8C790.462 396.933 786.395 395 781.195 395C777.595 395 773.929 395.933 770.195 397.8C766.595 399.667 763.329 402.267 760.395 405.6C757.462 408.8 755.329 412.533 753.995 416.8V478H727.195V373.2H751.395V392.6C754.062 388.067 757.462 384.267 761.595 381.2C765.729 378 770.462 375.6 775.795 374C781.262 372.267 786.995 371.4 792.995 371.4C799.529 371.4 804.862 372.6 808.995 375C813.262 377.267 816.462 380.4 818.595 384.4C820.862 388.267 822.395 392.667 823.195 397.6C824.129 402.533 824.595 407.533 824.595 412.6V478Z" fill="black"/>
<path d="M896.498 480C888.098 480 880.498 478.6 873.698 475.8C866.898 472.867 861.098 468.933 856.298 464C851.498 458.933 847.765 453.2 845.098 446.8C842.565 440.267 841.298 433.4 841.298 426.2C841.298 416.2 843.498 407.067 847.898 398.8C852.432 390.533 858.832 383.933 867.098 379C875.498 373.933 885.365 371.4 896.698 371.4C908.165 371.4 917.965 373.933 926.098 379C934.232 383.933 940.432 390.533 944.698 398.8C949.098 406.933 951.298 415.733 951.298 425.2C951.298 426.8 951.232 428.467 951.098 430.2C950.965 431.8 950.832 433.133 950.698 434.2H869.698C870.232 439.533 871.765 444.2 874.298 448.2C876.965 452.2 880.298 455.267 884.298 457.4C888.432 459.4 892.832 460.4 897.498 460.4C902.832 460.4 907.832 459.133 912.498 456.6C917.298 453.933 920.565 450.467 922.298 446.2L945.298 452.6C942.765 457.933 939.098 462.667 934.298 466.8C929.632 470.933 924.098 474.2 917.698 476.6C911.298 478.867 904.232 480 896.498 480ZM869.098 417.2H923.898C923.365 411.867 921.832 407.267 919.298 403.4C916.898 399.4 913.698 396.333 909.698 394.2C905.698 391.933 901.232 390.8 896.298 390.8C891.498 390.8 887.098 391.933 883.098 394.2C879.232 396.333 876.032 399.4 873.498 403.4C871.098 407.267 869.632 411.867 869.098 417.2Z" fill="black"/>
<path d="M1009.67 406C1009.67 397.333 1011.21 388.867 1014.27 380.6C1017.47 372.2 1022.07 364.6 1028.07 357.8C1034.07 350.867 1041.41 345.4 1050.07 341.4C1058.74 337.267 1068.61 335.2 1079.67 335.2C1092.74 335.2 1104.01 338.067 1113.47 343.8C1123.07 349.533 1130.21 357 1134.87 366.2L1113.67 380.8C1111.27 375.467 1108.14 371.267 1104.27 368.2C1100.41 365 1096.27 362.8 1091.87 361.6C1087.47 360.267 1083.14 359.6 1078.87 359.6C1071.94 359.6 1065.87 361 1060.67 363.8C1055.61 366.6 1051.34 370.267 1047.87 374.8C1044.41 379.333 1041.81 384.4 1040.07 390C1038.47 395.6 1037.67 401.2 1037.67 406.8C1037.67 413.067 1038.67 419.133 1040.67 425C1042.67 430.733 1045.47 435.867 1049.07 440.4C1052.81 444.8 1057.21 448.333 1062.27 451C1067.47 453.533 1073.14 454.8 1079.27 454.8C1083.67 454.8 1088.14 454.067 1092.67 452.6C1097.21 451.133 1101.41 448.8 1105.27 445.6C1109.14 442.4 1112.14 438.267 1114.27 433.2L1136.87 446.2C1134.07 453.267 1129.47 459.267 1123.07 464.2C1116.81 469.133 1109.74 472.867 1101.87 475.4C1094.01 477.933 1086.21 479.2 1078.47 479.2C1068.34 479.2 1059.07 477.133 1050.67 473C1042.27 468.733 1035.01 463.133 1028.87 456.2C1022.87 449.133 1018.14 441.267 1014.67 432.6C1011.34 423.8 1009.67 414.933 1009.67 406Z" fill="black"/>
<path d="M1200.79 480C1192.26 480 1184.59 478.6 1177.79 475.8C1170.99 472.867 1165.19 468.867 1160.39 463.8C1155.72 458.733 1152.12 452.933 1149.59 446.4C1147.06 439.867 1145.79 433 1145.79 425.8C1145.79 418.467 1147.06 411.533 1149.59 405C1152.12 398.467 1155.72 392.667 1160.39 387.6C1165.19 382.533 1170.99 378.6 1177.79 375.8C1184.59 372.867 1192.26 371.4 1200.79 371.4C1209.32 371.4 1216.92 372.867 1223.59 375.8C1230.39 378.6 1236.19 382.533 1240.99 387.6C1245.79 392.667 1249.39 398.467 1251.79 405C1254.32 411.533 1255.59 418.467 1255.59 425.8C1255.59 433 1254.32 439.867 1251.79 446.4C1249.39 452.933 1245.79 458.733 1240.99 463.8C1236.32 468.867 1230.59 472.867 1223.79 475.8C1216.99 478.6 1209.32 480 1200.79 480ZM1173.39 425.8C1173.39 431.933 1174.59 437.4 1176.99 442.2C1179.39 446.867 1182.66 450.533 1186.79 453.2C1190.92 455.867 1195.59 457.2 1200.79 457.2C1205.86 457.2 1210.46 455.867 1214.59 453.2C1218.72 450.4 1221.99 446.667 1224.39 442C1226.92 437.2 1228.19 431.733 1228.19 425.6C1228.19 419.6 1226.92 414.2 1224.39 409.4C1221.99 404.6 1218.72 400.867 1214.59 398.2C1210.46 395.533 1205.86 394.2 1200.79 394.2C1195.59 394.2 1190.92 395.6 1186.79 398.4C1182.66 401.067 1179.39 404.8 1176.99 409.6C1174.59 414.267 1173.39 419.667 1173.39 425.8Z" fill="black"/>
<path d="M1267.28 425.6C1267.28 415.467 1269.28 406.333 1273.28 398.2C1277.28 389.933 1282.81 383.4 1289.88 378.6C1296.95 373.8 1305.01 371.4 1314.08 371.4C1321.81 371.4 1328.75 373.333 1334.88 377.2C1341.15 380.933 1346.01 385.733 1349.48 391.6V332H1376.28V448C1376.28 450.8 1376.75 452.8 1377.68 454C1378.61 455.2 1380.21 455.933 1382.48 456.2V478C1377.81 478.933 1374.01 479.4 1371.08 479.4C1366.28 479.4 1362.28 478.2 1359.08 475.8C1356.01 473.4 1354.28 470.267 1353.88 466.4L1353.48 459.8C1349.61 466.333 1344.35 471.333 1337.68 474.8C1331.15 478.267 1324.28 480 1317.08 480C1309.88 480 1303.21 478.6 1297.08 475.8C1291.08 473 1285.81 469.133 1281.28 464.2C1276.88 459.267 1273.41 453.533 1270.88 447C1268.48 440.333 1267.28 433.2 1267.28 425.6ZM1349.48 439.6V414.6C1348.15 410.733 1346.01 407.267 1343.08 404.2C1340.15 401.133 1336.88 398.733 1333.28 397C1329.68 395.133 1326.08 394.2 1322.48 394.2C1318.35 394.2 1314.61 395.067 1311.28 396.8C1307.95 398.533 1305.01 400.867 1302.48 403.8C1300.08 406.733 1298.21 410.133 1296.88 414C1295.68 417.867 1295.08 421.933 1295.08 426.2C1295.08 430.467 1295.75 434.533 1297.08 438.4C1298.55 442.133 1300.61 445.4 1303.28 448.2C1305.95 451 1309.01 453.2 1312.48 454.8C1316.08 456.4 1319.95 457.2 1324.08 457.2C1326.61 457.2 1329.15 456.8 1331.68 456C1334.35 455.067 1336.81 453.867 1339.08 452.4C1341.48 450.8 1343.55 448.933 1345.28 446.8C1347.15 444.533 1348.55 442.133 1349.48 439.6Z" fill="black"/>
<path d="M1451.19 480C1442.79 480 1435.19 478.6 1428.39 475.8C1421.59 472.867 1415.79 468.933 1410.99 464C1406.19 458.933 1402.45 453.2 1399.79 446.8C1397.25 440.267 1395.99 433.4 1395.99 426.2C1395.99 416.2 1398.19 407.067 1402.59 398.8C1407.12 390.533 1413.52 383.933 1421.79 379C1430.19 373.933 1440.05 371.4 1451.39 371.4C1462.85 371.4 1472.65 373.933 1480.79 379C1488.92 383.933 1495.12 390.533 1499.39 398.8C1503.79 406.933 1505.99 415.733 1505.99 425.2C1505.99 426.8 1505.92 428.467 1505.79 430.2C1505.65 431.8 1505.52 433.133 1505.39 434.2H1424.39C1424.92 439.533 1426.45 444.2 1428.99 448.2C1431.65 452.2 1434.99 455.267 1438.99 457.4C1443.12 459.4 1447.52 460.4 1452.19 460.4C1457.52 460.4 1462.52 459.133 1467.19 456.6C1471.99 453.933 1475.25 450.467 1476.99 446.2L1499.99 452.6C1497.45 457.933 1493.79 462.667 1488.99 466.8C1484.32 470.933 1478.79 474.2 1472.39 476.6C1465.99 478.867 1458.92 480 1451.19 480ZM1423.79 417.2H1478.59C1478.05 411.867 1476.52 407.267 1473.99 403.4C1471.59 399.4 1468.39 396.333 1464.39 394.2C1460.39 391.933 1455.92 390.8 1450.99 390.8C1446.19 390.8 1441.79 391.933 1437.79 394.2C1433.92 396.333 1430.72 399.4 1428.19 403.4C1425.79 407.267 1424.32 411.867 1423.79 417.2Z" fill="black"/>
<path d="M1563.16 447C1563.16 440.2 1565.03 434.267 1568.76 429.2C1572.63 424 1577.96 420 1584.76 417.2C1591.56 414.4 1599.36 413 1608.16 413C1612.56 413 1617.03 413.333 1621.56 414C1626.09 414.667 1630.03 415.733 1633.36 417.2V411.6C1633.36 404.933 1631.36 399.8 1627.36 396.2C1623.49 392.6 1617.69 390.8 1609.96 390.8C1604.23 390.8 1598.76 391.8 1593.56 393.8C1588.36 395.8 1582.89 398.733 1577.16 402.6L1568.56 385C1575.49 380.467 1582.56 377.067 1589.76 374.8C1597.09 372.533 1604.76 371.4 1612.76 371.4C1627.69 371.4 1639.29 375.133 1647.56 382.6C1655.96 390.067 1660.16 400.733 1660.16 414.6V448C1660.16 450.8 1660.63 452.8 1661.56 454C1662.63 455.2 1664.29 455.933 1666.56 456.2V478C1664.16 478.4 1661.96 478.733 1659.96 479C1658.09 479.267 1656.49 479.4 1655.16 479.4C1649.83 479.4 1645.76 478.2 1642.96 475.8C1640.29 473.4 1638.63 470.467 1637.96 467L1637.36 461.6C1632.83 467.467 1627.16 472 1620.36 475.2C1613.56 478.4 1606.63 480 1599.56 480C1592.63 480 1586.36 478.6 1580.76 475.8C1575.29 472.867 1570.96 468.933 1567.76 464C1564.69 458.933 1563.16 453.267 1563.16 447ZM1628.36 452.4C1629.83 450.8 1631.03 449.2 1631.96 447.6C1632.89 446 1633.36 444.533 1633.36 443.2V432.6C1630.16 431.267 1626.69 430.267 1622.96 429.6C1619.23 428.8 1615.69 428.4 1612.36 428.4C1605.43 428.4 1599.69 429.933 1595.16 433C1590.76 435.933 1588.56 439.867 1588.56 444.8C1588.56 447.467 1589.29 450 1590.76 452.4C1592.23 454.8 1594.36 456.733 1597.16 458.2C1599.96 459.667 1603.29 460.4 1607.16 460.4C1611.16 460.4 1615.09 459.667 1618.96 458.2C1622.83 456.6 1625.96 454.667 1628.36 452.4Z" fill="black"/>
<path d="M1747.03 472.6C1744.76 473.533 1742.03 474.6 1738.83 475.8C1735.63 477 1732.16 477.933 1728.43 478.6C1724.83 479.4 1721.16 479.8 1717.43 479.8C1712.49 479.8 1707.96 478.933 1703.83 477.2C1699.69 475.467 1696.36 472.733 1693.83 469C1691.43 465.133 1690.23 460.133 1690.23 454V393.8H1676.43V373.2H1690.23V339.2H1717.03V373.2H1739.03V393.8H1717.03V445C1717.16 448.6 1718.16 451.2 1720.03 452.8C1721.89 454.4 1724.23 455.2 1727.03 455.2C1729.83 455.2 1732.56 454.733 1735.23 453.8C1737.89 452.867 1740.03 452.067 1741.63 451.4L1747.03 472.6Z" fill="black"/>
<path d="M1801.83 447C1801.83 440.2 1803.7 434.267 1807.43 429.2C1811.3 424 1816.63 420 1823.43 417.2C1830.23 414.4 1838.03 413 1846.83 413C1851.23 413 1855.7 413.333 1860.23 414C1864.76 414.667 1868.7 415.733 1872.03 417.2V411.6C1872.03 404.933 1870.03 399.8 1866.03 396.2C1862.16 392.6 1856.36 390.8 1848.63 390.8C1842.9 390.8 1837.43 391.8 1832.23 393.8C1827.03 395.8 1821.56 398.733 1815.83 402.6L1807.23 385C1814.16 380.467 1821.23 377.067 1828.43 374.8C1835.76 372.533 1843.43 371.4 1851.43 371.4C1866.36 371.4 1877.96 375.133 1886.23 382.6C1894.63 390.067 1898.83 400.733 1898.83 414.6V448C1898.83 450.8 1899.3 452.8 1900.23 454C1901.3 455.2 1902.96 455.933 1905.23 456.2V478C1902.83 478.4 1900.63 478.733 1898.63 479C1896.76 479.267 1895.16 479.4 1893.83 479.4C1888.5 479.4 1884.43 478.2 1881.63 475.8C1878.96 473.4 1877.3 470.467 1876.63 467L1876.03 461.6C1871.5 467.467 1865.83 472 1859.03 475.2C1852.23 478.4 1845.3 480 1838.23 480C1831.3 480 1825.03 478.6 1819.43 475.8C1813.96 472.867 1809.63 468.933 1806.43 464C1803.36 458.933 1801.83 453.267 1801.83 447ZM1867.03 452.4C1868.5 450.8 1869.7 449.2 1870.63 447.6C1871.56 446 1872.03 444.533 1872.03 443.2V432.6C1868.83 431.267 1865.36 430.267 1861.63 429.6C1857.9 428.8 1854.36 428.4 1851.03 428.4C1844.1 428.4 1838.36 429.933 1833.83 433C1829.43 435.933 1827.23 439.867 1827.23 444.8C1827.23 447.467 1827.96 450 1829.43 452.4C1830.9 454.8 1833.03 456.733 1835.83 458.2C1838.63 459.667 1841.96 460.4 1845.83 460.4C1849.83 460.4 1853.76 459.667 1857.63 458.2C1861.5 456.6 1864.63 454.667 1867.03 452.4Z" fill="black"/>
<path d="M2074.86 360.2H2029.46V478H2002.06V360.2H1956.66V336H2074.86V360.2Z" fill="black"/>
<path d="M2089.89 478V373.2H2116.69V478H2089.89ZM2089.89 358.6V332H2116.69V358.6H2089.89Z" fill="black"/>
<path d="M2303.67 478H2276.87V419.2C2276.87 410.933 2275.4 404.867 2272.47 401C2269.67 397 2265.73 395 2260.67 395C2255.47 395 2250.47 397.067 2245.67 401.2C2241 405.2 2237.67 410.467 2235.67 417V478H2208.87V419.2C2208.87 410.8 2207.4 404.667 2204.47 400.8C2201.67 396.933 2197.73 395 2192.67 395C2187.47 395 2182.47 397 2177.67 401C2173 405 2169.67 410.267 2167.67 416.8V478H2140.87V373.2H2165.07V392.6C2169.07 385.8 2174.4 380.6 2181.07 377C2187.73 373.267 2195.4 371.4 2204.07 371.4C2212.73 371.4 2219.47 373.533 2224.27 377.8C2229.2 382.067 2232.33 387.333 2233.67 393.6C2237.93 386.4 2243.33 380.933 2249.87 377.2C2256.53 373.333 2264 371.4 2272.27 371.4C2278.8 371.4 2284.07 372.6 2288.07 375C2292.2 377.267 2295.4 380.4 2297.67 384.4C2299.93 388.267 2301.47 392.667 2302.27 397.6C2303.2 402.533 2303.67 407.533 2303.67 412.6V478Z" fill="black"/>
<path d="M2375.6 480C2367.2 480 2359.6 478.6 2352.8 475.8C2346 472.867 2340.2 468.933 2335.4 464C2330.6 458.933 2326.87 453.2 2324.2 446.8C2321.67 440.267 2320.4 433.4 2320.4 426.2C2320.4 416.2 2322.6 407.067 2327 398.8C2331.53 390.533 2337.93 383.933 2346.2 379C2354.6 373.933 2364.47 371.4 2375.8 371.4C2387.27 371.4 2397.07 373.933 2405.2 379C2413.33 383.933 2419.53 390.533 2423.8 398.8C2428.2 406.933 2430.4 415.733 2430.4 425.2C2430.4 426.8 2430.33 428.467 2430.2 430.2C2430.07 431.8 2429.93 433.133 2429.8 434.2H2348.8C2349.33 439.533 2350.87 444.2 2353.4 448.2C2356.07 452.2 2359.4 455.267 2363.4 457.4C2367.53 459.4 2371.93 460.4 2376.6 460.4C2381.93 460.4 2386.93 459.133 2391.6 456.6C2396.4 453.933 2399.67 450.467 2401.4 446.2L2424.4 452.6C2421.87 457.933 2418.2 462.667 2413.4 466.8C2408.73 470.933 2403.2 474.2 2396.8 476.6C2390.4 478.867 2383.33 480 2375.6 480ZM2348.2 417.2H2403C2402.47 411.867 2400.93 407.267 2398.4 403.4C2396 399.4 2392.8 396.333 2388.8 394.2C2384.8 391.933 2380.33 390.8 2375.4 390.8C2370.6 390.8 2366.2 391.933 2362.2 394.2C2358.33 396.333 2355.13 399.4 2352.6 403.4C2350.2 407.267 2348.73 411.867 2348.2 417.2Z" fill="black"/>
<path d="M2446.13 478V449.2H2468.13V478H2446.13Z" fill="black"/>
<path d="M767.823 249.888V101.011L714.048 209.413H682.416L628.641 101.011V249.888H571V0H633.562L698.232 130.575L763.254 0H825.464V249.888H767.823Z" fill="#8048F8"/>
<path d="M873.387 249.888V0H931.028V249.888H873.387Z" fill="#8048F8"/>
<path d="M964.7 206.598L1091.93 50.6816H969.621V0H1161.17V43.2905L1039.91 199.207H1162.58V249.888H964.7V206.598Z" fill="#8048F8"/>
<path d="M1305.63 252C1285.71 252 1268.72 248.715 1254.66 242.145C1240.6 235.341 1229.12 226.19 1220.22 214.693C1211.55 202.961 1205.11 189.704 1200.89 174.922C1196.9 159.905 1194.91 144.184 1194.91 127.76V0H1252.55V127.76C1252.55 137.145 1253.49 146.296 1255.37 155.212C1257.24 163.894 1260.29 171.637 1264.5 178.441C1268.72 185.246 1274.11 190.642 1280.67 194.631C1287.47 198.62 1295.78 200.615 1305.63 200.615C1315.7 200.615 1324.14 198.62 1330.93 194.631C1337.73 190.408 1343.12 184.894 1347.1 178.089C1351.08 171.05 1354.01 163.19 1355.89 154.508C1357.76 145.827 1358.7 136.911 1358.7 127.76V0H1416.34V127.76C1416.34 145.123 1414.11 161.313 1409.66 176.33C1405.44 191.346 1398.88 204.603 1389.98 216.101C1381.07 227.363 1369.59 236.162 1355.53 242.497C1341.71 248.832 1325.07 252 1305.63 252Z" fill="#8048F8"/>
<path d="M1461 249.888V0H1573.47C1585.19 0 1595.96 2.46369 1605.8 7.39107C1615.88 12.0838 1624.55 18.5363 1631.81 26.7486C1639.08 34.7263 1644.7 43.7598 1648.68 53.8492C1652.9 63.9385 1655.01 74.1453 1655.01 84.4693C1655.01 94.7933 1653.37 104.648 1650.09 114.034C1646.81 123.184 1642.12 131.514 1636.03 139.022C1629.94 146.296 1622.68 152.279 1614.24 156.972L1669.07 249.888H1605.45L1557.65 169.29H1518.64V249.888H1461ZM1518.64 118.961H1571.36C1576.05 118.961 1580.15 117.553 1583.66 114.737C1587.41 111.687 1590.46 107.581 1592.8 102.419C1595.14 97.257 1596.32 91.2737 1596.32 84.4693C1596.32 77.6648 1594.91 71.7989 1592.1 66.8715C1589.52 61.7095 1586.24 57.7207 1582.26 54.905C1578.27 52.0894 1574.06 50.6816 1569.6 50.6816H1518.64V118.961Z" fill="#8048F8"/>
<path d="M1759.37 0H1821.58L1907.34 249.888H1848.29L1828.96 193.927H1751.29L1732.31 249.888H1673.26L1759.37 0ZM1819.47 154.156L1790.3 58.0726L1760.42 154.156H1819.47Z" fill="#8048F8"/>
<path d="M1926.99 249.888V192.52H1973.04V249.888H1926.99Z" fill="#8048F8"/>
<path d="M2016.01 249.888V0H2128.48C2140.19 0 2150.97 2.46369 2160.81 7.39107C2170.89 12.0838 2179.56 18.5363 2186.82 26.7486C2194.08 34.7263 2199.71 43.7598 2203.69 53.8492C2207.91 63.9385 2210.02 74.1453 2210.02 84.4693C2210.02 94.7933 2208.38 104.648 2205.1 114.034C2201.82 123.184 2197.13 131.514 2191.04 139.022C2184.94 146.296 2177.68 152.279 2169.25 156.972L2224.07 249.888H2160.46L2112.66 169.29H2073.65V249.888H2016.01ZM2073.65 118.961H2126.37C2131.05 118.961 2135.15 117.553 2138.67 114.737C2142.42 111.687 2145.46 107.581 2147.81 102.419C2150.15 97.257 2151.32 91.2737 2151.32 84.4693C2151.32 77.6648 2149.91 71.7989 2147.1 66.8715C2144.53 61.7095 2141.25 57.7207 2137.26 54.905C2133.28 52.0894 2129.06 50.6816 2124.61 50.6816H2073.65V118.961Z" fill="#8048F8"/>
<path d="M2357.29 252C2337.37 252 2320.38 248.715 2306.32 242.145C2292.27 235.341 2280.78 226.19 2271.88 214.693C2263.21 202.961 2256.77 189.704 2252.55 174.922C2248.57 159.905 2246.57 144.184 2246.57 127.76V0H2304.22V127.76C2304.22 137.145 2305.15 146.296 2307.03 155.212C2308.9 163.894 2311.95 171.637 2316.17 178.441C2320.38 185.246 2325.77 190.642 2332.33 194.631C2339.13 198.62 2347.45 200.615 2357.29 200.615C2367.36 200.615 2375.8 198.62 2382.59 194.631C2389.39 190.408 2394.78 184.894 2398.76 178.089C2402.74 171.05 2405.67 163.19 2407.55 154.508C2409.42 145.827 2410.36 136.911 2410.36 127.76V0H2468V127.76C2468 145.123 2465.77 161.313 2461.32 176.33C2457.1 191.346 2450.54 204.603 2441.64 216.101C2432.74 227.363 2421.25 236.162 2407.2 242.497C2393.37 248.832 2376.74 252 2357.29 252Z" fill="#8048F8"/>
</svg>
