<?xml version="1.0" encoding="utf-8"?>
<!-- Generator: Adobe Illustrator 27.2.0, SVG Export Plug-In . SVG Version: 6.00 Build 0)  -->
<svg version="1.1" id="Слой_1" xmlns="http://www.w3.org/2000/svg" xmlns:xlink="http://www.w3.org/1999/xlink" x="0px" y="0px"
	 width="500px" height="81.1px" viewBox="0 0 500 81.1" style="enable-background:new 0 0 500 81.1;" xml:space="preserve">
<style type="text/css">
	.st0{fill:#0077FF;}
	.st1{fill:#00D9ED;}
	.st2{fill:#FFFFFF;}
</style>
<g>
	<path class="st0" d="M81.1,38.6c0-18.2,0-27.3-5.6-32.9C69.8,0,60.8,0,42.6,0h-4C20.4,0,11.3,0,5.6,5.6C0,11.3,0,20.4,0,38.6v4
		c0,18.2,0,27.3,5.6,32.9c5.6,5.6,14.7,5.6,32.9,5.6h4c18.2,0,27.3,0,32.9-5.6c5.6-5.6,5.6-14.7,5.6-32.9V38.6z"/>
	<path class="st1" d="M64.9,0.9c-1.2,2.3-2.6,5.1-4.1,8.4L43.5,45.1c-5,10.4-7.5,15.7-5.2,19.5c2.4,3.8,8.2,3.8,19.8,3.8h21.4
		c1.6-5.7,1.6-13.8,1.6-25.8v-4c0-18.2,0-27.3-5.6-32.9C72.9,3,69.5,1.6,64.9,0.9z"/>
	<path class="st2" d="M50.8,29.9l-7.3,15.2c-3.2,6.7-5.4,11.2-5.9,14.6c-8.4,0-12.8-0.4-15-3.3c-0.4-0.5-0.7-1.1-1-1.7
		c-1.6-3.7,1.2-8.5,6.7-18.1c5.5-9.5,8.3-14.3,12.3-14.8c0.6-0.1,1.3-0.1,1.9,0C45.5,22.3,47.7,24.9,50.8,29.9z"/>
	<path d="M133.4,61.5h-9.8L109.7,22h7.2l11.1,32.5h1.1L140.7,22h7.1L133.4,61.5z"/>
	<path d="M166.5,41l18.1,20.4h-8.8L161,44.6h-1.7v16.9h-6.7V22h6.7v16.1h1.6l14-16.1h8.3L166.5,41z"/>
	<path d="M215.3,61.5h-10.2L195.3,22h6.9l7.9,32.5h0.9l8.3-32.5h7.4l8,32.5h0.9l8.6-32.5h6.8l-10.5,39.5h-10.4L223.4,33h-0.9
		L215.3,61.5z"/>
	<path d="M266.8,62c-3,0-5.7-0.6-8.1-1.9c-2.4-1.3-4.2-3.1-5.5-5.4c-1.3-2.3-2-4.9-2-7.8c0-2.9,0.7-5.5,2-7.8
		c1.3-2.3,3.2-4.1,5.5-5.4c2.4-1.3,5.1-2,8.1-2s5.7,0.7,8,2c2.4,1.3,4.2,3.1,5.5,5.4c1.3,2.3,2,4.9,2,7.8c0,2.9-0.7,5.5-2,7.8
		c-1.3,2.3-3.2,4.1-5.5,5.4C272.4,61.4,269.8,62,266.8,62z M266.8,56.1c2.6,0,4.7-0.8,6.4-2.5c1.6-1.7,2.5-4,2.5-6.7
		c0-2.8-0.8-5-2.5-6.7c-1.6-1.7-3.8-2.6-6.4-2.6s-4.7,0.9-6.4,2.6c-1.6,1.7-2.5,3.9-2.5,6.7c0,2.8,0.8,5,2.5,6.7
		C262.1,55.3,264.2,56.1,266.8,56.1z"/>
	<path d="M288,61.5V32.4h4.8l1.2,4.2c0.9-1.5,2-2.6,3.3-3.2c1.3-0.6,2.9-1,4.7-1h1.2l0.6,6.2h-3.7c-3.8,0-5.7,1.9-5.7,5.8v17.2H288z
		"/>
	<path d="M334.8,61.5h-8.5l-10.1-11.6h-1.6v11.6h-6.4V22h6.4v21.7h1.6l9.7-11.3h7.7l-12.3,14L334.8,61.5z"/>
	<path d="M351.7,62c-3.7,0-6.9-1-9.7-2.9c-2.8-2-4.6-4.6-5.5-8L343,50c1.1,2,2.3,3.5,3.6,4.4c1.3,0.9,3.1,1.4,5.2,1.4
		c1.9,0,3.5-0.4,4.8-1.3c1.3-0.9,1.9-2.1,1.9-3.6c0-1.1-0.4-2.1-1.1-2.8c-0.7-0.8-1.6-1.4-2.7-1.9c-1.1-0.5-2.5-1-4.3-1.6
		c-2.5-0.8-4.6-1.6-6.2-2.4c-1.6-0.8-3-2-4.1-3.5c-1.1-1.6-1.7-3.6-1.7-6c0-2.3,0.6-4.3,1.7-5.9c1.2-1.7,2.7-3,4.6-3.9
		c1.9-0.9,4.1-1.3,6.6-1.3c3.4,0,6.4,0.9,8.8,2.7c2.5,1.8,4.2,4.3,5.2,7.4l-6.4,1.1c-0.7-1.6-1.7-2.8-3-3.7
		c-1.3-0.9-2.8-1.3-4.5-1.3c-1.8,0-3.2,0.4-4.4,1.2c-1.2,0.8-1.8,2-1.8,3.5c0,1.1,0.3,2.1,1,2.8c0.7,0.7,1.6,1.4,2.7,1.8
		c1.1,0.5,2.5,1,4.4,1.7c2.5,0.9,4.6,1.7,6.2,2.5c1.6,0.8,3,2,4.1,3.6c1.2,1.6,1.7,3.6,1.7,6c0,2.3-0.6,4.3-1.8,6
		c-1.2,1.7-2.8,3-4.9,4C356.5,61.6,354.2,62,351.7,62z"/>
	<path d="M371.5,72.9V32.4h4.8l1.3,4.7c1.2-1.5,2.7-2.7,4.6-3.7c1.9-1,4-1.6,6.4-1.6c2.7,0,5.2,0.7,7.3,2c2.2,1.3,3.8,3.1,5,5.4
		c1.2,2.3,1.8,4.9,1.8,7.8c0,2.9-0.6,5.5-1.8,7.8c-1.2,2.3-2.9,4.1-5,5.4c-2.2,1.3-4.6,1.9-7.3,1.9c-2.4,0-4.4-0.5-6.3-1.4
		c-1.8-1-3.3-2.2-4.5-3.6v15.9H371.5z M387.1,56.3c2.7,0,4.9-0.9,6.6-2.6c1.7-1.8,2.5-4,2.5-6.8c0-2.8-0.8-5-2.5-6.7
		c-1.7-1.8-3.9-2.6-6.6-2.6c-2.7,0-4.9,0.9-6.7,2.6c-1.7,1.7-2.5,4-2.5,6.7c0,2.8,0.8,5,2.5,6.8C382.2,55.4,384.4,56.3,387.1,56.3z"
		/>
	<path d="M420.4,31.8c3.7,0,6.7,1.2,8.8,3.5c2.2,2.3,3.2,5.6,3.2,9.8v16.3h-4.8l-1.3-4.6c-0.8,1.4-2,2.6-3.6,3.6
		c-1.6,1-3.5,1.5-5.7,1.5c-1.9,0-3.7-0.4-5.3-1.2c-1.5-0.8-2.7-1.9-3.6-3.3c-0.9-1.4-1.3-3-1.3-4.8c0-2.8,1.1-5,3.2-6.6
		c2.2-1.7,5.4-2.5,9.6-2.5h6.3c-0.2-1.9-0.7-3.5-1.8-4.6c-1-1.2-2.4-1.7-4.1-1.7c-1.4,0-2.6,0.3-3.6,1c-1,0.7-1.8,1.5-2.2,2.5
		l-5.9-1c0.7-2.5,2.2-4.4,4.4-5.8C414.9,32.5,417.5,31.8,420.4,31.8z M418.5,56.6c2.2,0,4-0.7,5.4-2.2c1.4-1.5,2.1-3.4,2.1-5.8h-6.1
		c-4.4,0-6.5,1.3-6.5,3.8c0,1.3,0.5,2.3,1.4,3C415.7,56.2,416.9,56.6,418.5,56.6z"/>
	<path d="M452.9,62c-2.9,0-5.5-0.6-7.8-1.9c-2.3-1.3-4.1-3.1-5.4-5.4c-1.3-2.3-1.9-4.9-1.9-7.8c0-2.9,0.6-5.5,1.9-7.8
		c1.3-2.3,3.1-4.1,5.4-5.4c2.3-1.3,4.9-2,7.8-2c3.2,0,6,0.8,8.5,2.4c2.5,1.6,4.3,3.8,5.3,6.7l-6,1c-0.6-1.3-1.6-2.3-3-3.1
		c-1.3-0.8-2.8-1.2-4.4-1.2c-2.6,0-4.7,0.9-6.4,2.6c-1.6,1.7-2.5,3.9-2.5,6.7c0,2.7,0.8,4.9,2.5,6.7c1.6,1.7,3.8,2.6,6.4,2.6
		c1.7,0,3.2-0.4,4.6-1.2c1.3-0.8,2.4-1.9,3-3.2l6,1c-1,2.9-2.9,5.2-5.4,6.8C458.9,61.2,456.1,62,452.9,62z"/>
	<path d="M500,46.6c0,0.6,0,1.3-0.1,2.1h-23.4c0.3,2.3,1.2,4.1,2.8,5.5c1.6,1.3,3.6,2,6,2c1.6,0,3.1-0.3,4.4-1
		c1.3-0.6,2.4-1.5,3.1-2.6l6,1c-1,2.7-2.9,4.8-5.4,6.2c-2.5,1.5-5.4,2.2-8.5,2.2c-2.9,0-5.5-0.6-7.8-1.9c-2.3-1.3-4.1-3.1-5.4-5.4
		c-1.3-2.3-1.9-4.9-1.9-7.8c0-2.9,0.6-5.5,1.9-7.8c1.3-2.3,3.1-4.1,5.4-5.4c2.3-1.3,4.9-2,7.8-2c2.9,0,5.5,0.7,7.8,2
		c2.3,1.3,4.1,3,5.4,5.3C499.3,41.3,500,43.8,500,46.6z M484.9,37.4c-1.9,0-3.6,0.6-5.1,1.7c-1.4,1.1-2.4,2.6-2.9,4.5H493
		c-0.6-1.9-1.6-3.4-3-4.5C488.6,38,486.9,37.4,484.9,37.4z"/>
</g>
</svg>
