<?xml version="1.0" standalone="no"?>
  <!DOCTYPE svg PUBLIC "-//W3C//DTD SVG 1.1//EN" "http://www.w3.org/Graphics/SVG/1.1/DTD/svg11.dtd" >
  <svg>
  <metadata>
  Created by font-carrier
  </metadata>
  <defs>
  <font id="Raleway-Thin" horiz-adv-x="1335" vert-adv-y="1335" >
    <font-face
      
      font-family="Raleway"
      
      font-weight="400"
      
      font-stretch="normal"
      
      units-per-em="1000"
      
      ascent="940"
      
      descent="-234"
      
    />
      <missing-glyph />

      

      
      <glyph glyph-name="uni21" unicode="&#x21;" d="M104 200L104 717L124 717L124 200L104 200M104 0L104 84L124 84L124 0L104 0Z"  horiz-adv-x="228" vert-adv-y="1000"  />

      
      <glyph glyph-name="uni22" unicode="&#x22;" d="M73 570L73 710L93 710L93 570L73 570M123 570L123 710L143 710L143 570L123 570Z"  horiz-adv-x="216" vert-adv-y="1000"  />

      
      <glyph glyph-name="uni23" unicode="&#x23;" d="M612 481L494 481L436 241L572 241L572 221L431 221L378 0L357 0L411 221L171 221L118 0L97 0L151 221L38 221L38 241L156 241L214 481L78 481L78 501L219 501L270 710L291 710L239 501L479 501L530 710L551 710L499 501L612 501L612 481M416 241L474 481L234 481L176 241L416 241Z"  horiz-adv-x="650" vert-adv-y="1000"  />

      
      <glyph glyph-name="uni24" unicode="&#x24;" d="M516 616Q474 662 428.50 679Q383 696 320 696L320 363Q378 351 424.50 337.50Q471 324 504 303Q537 282 554.50 251Q572 220 572 174Q572 87 505.50 41Q439-5 322-5L320-5L320-93L300-93L300-4Q222-1 161 25.50Q100 52 46 105L61 118Q112 66 169.50 41Q227 16 300 12L300 349Q244 360 201.50 372.50Q159 385 129.50 404.50Q100 424 85 452.50Q70 481 70 524Q70 613 132 661.50Q194 710 300 714L300 815L320 815L320 715Q387 714 437 694.50Q487 675 529 630L516 616M552 171Q552 210 538 238Q524 266 495.50 285.50Q467 305 423.50 319Q380 333 320 345L320 12L323 12Q429 12 490.50 51.50Q552 91 552 171M90 526Q90 489 102 464Q114 439 139.50 421.50Q165 404 204.50 392Q244 380 300 368L300 695Q244 693 204.50 680Q165 667 139.50 645Q114 623 102 593Q90 563 90 526Z"  horiz-adv-x="613" vert-adv-y="1000"  />

      
      <glyph glyph-name="uni25" unicode="&#x25;" d="M186 444Q157 444 132 455Q107 466 88.50 484.50Q70 503 59 528Q48 553 48 582Q48 610 59 635.50Q70 661 88.50 679.50Q107 698 132 709Q157 720 186 720Q214 720 239.50 709Q265 698 283.50 679.50Q302 661 313 635.50Q324 610 324 582Q324 553 313 528Q302 503 283.50 484.50Q265 466 239.50 455Q214 444 186 444M186 464Q211 464 232.50 473.50Q254 483 270 499.50Q286 516 295 537.50Q304 559 304 582Q304 607 294.50 628.50Q285 650 268.50 666Q252 682 230.50 691Q209 700 186 700Q161 700 139.50 690.50Q118 681 102 664.50Q86 648 77 626.50Q68 605 68 582Q68 557 77.50 535.50Q87 514 103 498Q119 482 140.50 473Q162 464 186 464M485-10Q456-10 431 0.50Q406 11 387.50 30Q369 49 358 74Q347 99 347 128Q347 156 358 181.50Q369 207 387.50 225.50Q406 244 431 255Q456 266 485 266Q513 266 538.50 255Q564 244 582.50 225.50Q601 207 612 181.50Q623 156 623 128Q623 99 612 74Q601 49 582.50 30Q564 11 538.50 0.50Q513-10 485-10M485 10Q510 10 531.50 19.50Q553 29 569 45.50Q585 62 594 83Q603 104 603 128Q603 152 593.50 173.50Q584 195 567.50 211Q551 227 529.50 236.50Q508 246 485 246Q460 246 438.50 236.50Q417 227 401 210.50Q385 194 376 172.50Q367 151 367 128Q367 103 376.50 81.50Q386 60 402 44Q418 28 439.50 19Q461 10 485 10M48 11L606 711L622 699L64-1L48 11Z"  horiz-adv-x="670" vert-adv-y="1000"  />

      
      <glyph glyph-name="uni26" unicode="&#x26;" d="M598 0L492 110Q454 56 398 23Q342-10 270-10Q229-10 190.50 1.50Q152 13 121 36Q90 59 71.50 92.50Q53 126 53 170Q53 207 66.50 237Q80 267 103 293Q126 319 157 343Q188 367 223 391Q191 424 169.50 450Q148 476 135 497.50Q122 519 116 537.50Q110 556 110 574Q110 602 123 628.50Q136 655 158.50 675Q181 695 211.50 707Q242 719 277 719Q310 719 337 708.50Q364 698 384 680.50Q404 663 415 640Q426 617 426 591Q426 560 411 533.50Q396 507 371.50 482.50Q347 458 315.50 435Q284 412 250 389L490 140Q515 182 528.50 231.50Q542 281 542 333L562 333Q562 278 547 224.50Q532 171 503 126L625 0L598 0M273 8Q339 8 391.50 40Q444 72 479 124L235 379Q203 356 173.50 333.50Q144 311 121.50 285.50Q99 260 86 231Q73 202 73 168Q73 127 91.50 97Q110 67 138.50 47Q167 27 202.50 17.50Q238 8 273 8M130 573Q130 559 134 544Q138 529 150 509Q162 489 183 463Q204 437 238 401Q277 427 308 450Q339 473 360.50 495Q382 517 394 540Q406 563 406 589Q406 637 369.50 668Q333 699 276 699Q245 699 218.50 689Q192 679 172.50 662Q153 645 141.50 622Q130 599 130 573Z"  horiz-adv-x="635" vert-adv-y="1000"  />

      
      <glyph glyph-name="uni27" unicode="&#x27;" d="M73 569L73 710L93 710L93 569L73 569Z"  horiz-adv-x="166" vert-adv-y="1000"  />

      
      <glyph glyph-name="uni28" unicode="&#x28;" d="M50 345Q50 396 60.50 444.50Q71 493 89 540.50Q107 588 131.50 634Q156 680 183 726L199 714Q175 679 151.50 633.50Q128 588 110 538.50Q92 489 80.50 438Q69 387 69 342Q69 304 77.50 260Q86 216 102.50 170Q119 124 143.50 77Q168 30 199-14L183-26Q118 69 84 161.50Q50 254 50 345Z"  horiz-adv-x="234" vert-adv-y="1000"  />

      
      <glyph glyph-name="uni29" unicode="&#x29;" d="M184 345Q184 254 150 161.50Q116 69 51-26L35-14Q66 30 90.50 77Q115 124 131.50 170Q148 216 156.50 260Q165 304 165 342Q165 387 153.50 438Q142 489 124 538.50Q106 588 82.50 633.50Q59 679 35 714L51 726Q78 680 102.50 634Q127 588 145 540.50Q163 493 173.50 444.50Q184 396 184 345Z"  horiz-adv-x="233" vert-adv-y="1000"  />

      
      <glyph glyph-name="uni2a" unicode="&#x2a;" d="M94 564L135 621L68 643L74 662L141 640L141 710L161 710L161 640L228 662L234 643L167 621L209 564L192 552L151 609L110 552L94 564Z"  horiz-adv-x="302" vert-adv-y="1000"  />

      
      <glyph glyph-name="uni2b" unicode="&#x2b;" d="M356 365L356 345L216 345L216 195L196 195L196 345L56 345L56 365L196 365L196 515L216 515L216 365L356 365Z"  horiz-adv-x="412" vert-adv-y="1000"  />

      
      <glyph glyph-name="uni2c" unicode="&#x2c;" d="M116-81L126-10L117-10L117 64L143 64L143-10L130-81L116-81Z"  horiz-adv-x="260" vert-adv-y="1000"  />

      
      <glyph glyph-name="uni2d" unicode="&#x2d;" d="M69 261L69 281L352 281L352 261L69 261Z"  horiz-adv-x="421" vert-adv-y="1000"  />

      
      <glyph glyph-name="uni2e" unicode="&#x2e;" d="M69 0L69 64L89 64L89 0L69 0Z"  horiz-adv-x="158" vert-adv-y="1000"  />

      
      <glyph glyph-name="uni2f" unicode="&#x2f;" d="M508 710L52 0L27 0L482 710L508 710Z"  horiz-adv-x="536" vert-adv-y="1000"  />

      
      <glyph glyph-name="uni30" unicode="&#x30;" d="M549 293Q549 227 530.50 171.50Q512 116 479.50 75.50Q447 35 402 12.50Q357-10 304-10Q251-10 206 12.50Q161 35 128.50 75.50Q96 116 77.50 171.50Q59 227 59 293Q59 359 77.50 414.50Q96 470 128.50 510.50Q161 551 206 574Q251 597 304 597Q357 597 402 574Q447 551 479.50 510.50Q512 470 530.50 414.50Q549 359 549 293M529 293Q529 356 512.50 408Q496 460 466.50 497.50Q437 535 395.50 556Q354 577 304 577Q254 577 212.50 556Q171 535 141.50 497.50Q112 460 95.50 408Q79 356 79 293Q79 230 95.50 178Q112 126 141.50 88.50Q171 51 212.50 30.50Q254 10 304 10Q354 10 395.50 30.50Q437 51 466.50 88.50Q496 126 512.50 178Q529 230 529 293Z"  horiz-adv-x="608" vert-adv-y="1000"  />

      
      <glyph glyph-name="uni31" unicode="&#x31;" d="M357 20L357 0L68 0L68 20L210 20L210 538Q202 526 182.50 511.50Q163 497 139.50 483.50Q116 470 90.50 461Q65 452 45 452L45 476Q72 476 101 490.50Q130 505 154 522Q178 539 193.50 554Q209 569 210 571L230 571L230 20L357 20Z"  horiz-adv-x="375" vert-adv-y="1000"  />

      
      <glyph glyph-name="uni32" unicode="&#x32;" d="M47 0Q47 18 51 52Q55 86 72 124.50Q89 163 123.50 200.50Q158 238 218 263Q246 275 278.50 288Q311 301 339.50 320Q368 339 387 366.50Q406 394 406 433Q406 456 396 479Q386 502 366 520Q346 538 315.50 549.50Q285 561 244 561Q206 561 176 549Q146 537 124.50 522Q103 507 90 493Q77 479 73 474L57 486Q57 486 70 501Q83 516 107 534Q131 552 165.50 566.50Q200 581 244 581Q289 581 323 568Q357 555 380 534Q403 513 414.50 486.50Q426 460 426 433Q426 388 405.50 357Q385 326 354 305Q323 284 288 270Q253 256 225 244Q173 221 142 188.50Q111 156 94 123Q77 90 71.50 61.50Q66 33 66 20L437 20L437 0L47 0Z"  horiz-adv-x="486" vert-adv-y="1000"  />

      
      <glyph glyph-name="uni33" unicode="&#x33;" d="M308 236Q380 226 423 174.50Q466 123 466 48Q466 4 450.50-31.50Q435-67 406.50-93Q378-119 339-133Q300-147 254-147Q179-147 123-112.50Q67-78 46-19L65-12Q74-38 91.50-59Q109-80 134-95Q159-110 190-118.50Q221-127 256-127Q299-127 334-114.50Q369-102 394-78.50Q419-55 432.50-22.50Q446 10 446 51Q446 132 394 179.50Q342 227 251 227L229 227L229 247L252 247Q340 247 387 284.50Q434 322 434 390Q434 427 420.50 457.50Q407 488 383 510Q359 532 326 544Q293 556 254 556Q191 556 143 525Q95 494 75 443L57 450Q67 478 86 501.50Q105 525 131 541.50Q157 558 188 567Q219 576 254 576Q297 576 333.50 562.50Q370 549 397 524.50Q424 500 439 467Q454 434 454 395Q454 331 414.50 287.50Q375 244 308 236Z"  horiz-adv-x="521" vert-adv-y="1000"  />

      
      <glyph glyph-name="uni34" unicode="&#x34;" d="M384-127L384 72L19 72L19 89L390 571L404 571L404 92L492 92L492 72L404 72L404-127L384-127M47 92L384 92L384 534L47 92Z"  horiz-adv-x="518" vert-adv-y="1000"  />

      
      <glyph glyph-name="uni35" unicode="&#x35;" d="M268 306Q315 306 357 289.50Q399 273 430.50 243.50Q462 214 480 172.50Q498 131 498 82Q498 30 479-12.50Q460-55 427.50-85.50Q395-116 352.50-132.50Q310-149 263-149Q225-149 191-138.50Q157-128 128-108.50Q99-89 76.50-62.50Q54-36 39-3L61-3Q88-60 142-94.50Q196-129 263-129Q308-129 347-113.50Q386-98 415-70Q444-42 461-3.50Q478 35 478 82Q478 127 461.50 164.50Q445 202 416.50 229Q388 256 350 271Q312 286 268 286Q211 286 160 261Q109 236 76 188L52 188Q54 197 58.50 218Q63 239 69 267.50Q75 296 81.50 329.50Q88 363 95 397Q111 476 130 571L467 571L467 551L147 551L82 226Q118 265 166.50 285.50Q215 306 268 306Z"  horiz-adv-x="537" vert-adv-y="1000"  />

      
      <glyph glyph-name="uni36" unicode="&#x36;" d="M552 232Q552 182 533 138Q514 94 480.50 61Q447 28 402 9Q357-10 306-10Q253-10 207.50 9Q162 28 128 64Q94 100 75 151Q56 202 56 266Q56 383 74.50 467.50Q93 552 126.50 607Q160 662 206 688.50Q252 715 308 715Q381 715 436.50 675.50Q492 636 514 568L495 561Q486 591 467.50 615.50Q449 640 424.50 658Q400 676 370.50 685.50Q341 695 309 695Q257 695 214.50 669Q172 643 141.50 593.50Q111 544 94.50 472Q78 400 78 308Q90 345 112.50 376Q135 407 166 429Q197 451 233.50 463Q270 475 310 475Q360 475 404 456Q448 437 481 404Q514 371 533 326.50Q552 282 552 232M308 10Q354 10 395 27.50Q436 45 466.50 75Q497 105 514.50 145.50Q532 186 532 231Q532 277 514 317.50Q496 358 465 388.50Q434 419 393.50 437Q353 455 307 455Q261 455 220 437Q179 419 148.50 388.50Q118 358 100 317.50Q82 277 82 232Q82 187 100 146.50Q118 106 149 75.50Q180 45 221 27.50Q262 10 308 10Z"  horiz-adv-x="595" vert-adv-y="1000"  />

      
      <glyph glyph-name="uni37" unicode="&#x37;" d="M477 563L50 563L50 583L510 583L146-127L123-127L477 563Z"  horiz-adv-x="535" vert-adv-y="1000"  />

      
      <glyph glyph-name="uni38" unicode="&#x38;" d="M528 188Q528 143 508.50 107Q489 71 455.50 45.50Q422 20 378.50 6.50Q335-7 287-7Q233-7 190 9.50Q147 26 116.50 53Q86 80 69.50 115.50Q53 151 53 190Q53 227 67 258.50Q81 290 104.50 314.50Q128 339 157.50 356Q187 373 217 381Q189 391 164 406Q139 421 120 441Q101 461 90 486Q79 511 79 541Q79 582 97.50 613.50Q116 645 146 666.50Q176 688 214 699Q252 710 291 710Q330 710 368 699Q406 688 435.50 666.50Q465 645 483.50 613.50Q502 582 502 541Q502 511 490.50 486Q479 461 460 441Q441 421 416 406Q391 391 363 381Q398 371 428 353Q458 335 480.50 310Q503 285 515.50 254.50Q528 224 528 188M508 191Q508 234 488 267.50Q468 301 436 324Q404 347 365 359Q326 371 289 371Q250 371 211.50 358Q173 345 142 321Q111 297 92 263.50Q73 230 73 189Q73 146 93 113Q113 80 145 57Q177 34 215.50 22Q254 10 292 10Q331 10 369.50 22.50Q408 35 438.50 58.50Q469 82 488.50 115.50Q508 149 508 191M99 539Q99 503 116.50 475.50Q134 448 162 429.50Q190 411 223.50 401Q257 391 290 391Q323 391 357 401Q391 411 419 430.50Q447 450 464.50 477.50Q482 505 482 541Q482 577 465.50 604.50Q449 632 422 651Q395 670 360 680Q325 690 289 690Q253 690 218.50 680Q184 670 157.50 650.50Q131 631 115 603Q99 575 99 539Z"  horiz-adv-x="581" vert-adv-y="1000"  />

      
      <glyph glyph-name="uni39" unicode="&#x39;" d="M37 329Q37 379 56 423Q75 467 108.50 500Q142 533 187 552Q232 571 283 571Q336 571 381.50 552Q427 533 461 497Q495 461 514 410Q533 359 533 295Q533 178 514.50 93.50Q496 9 462.50-46Q429-101 382.50-127.50Q336-154 281-154Q208-154 152.50-114.50Q97-75 75-7L94 0Q103-30 121.50-54.50Q140-79 164.50-97Q189-115 218.50-124.50Q248-134 280-134Q332-134 374.50-108Q417-82 447.50-32.50Q478 17 494.50 89Q511 161 511 253Q499 216 476.50 185Q454 154 423 132Q392 110 355.50 98Q319 86 279 86Q229 86 185 105Q141 124 108 157Q75 190 56 234.50Q37 279 37 329M281 551Q235 551 194 533.50Q153 516 122.50 486Q92 456 74.50 415.50Q57 375 57 330Q57 284 75 243.50Q93 203 123.50 172.50Q154 142 195 124Q236 106 282 106Q328 106 369 124Q410 142 440.50 172.50Q471 203 489 243.50Q507 284 507 329Q507 374 489 414.50Q471 455 440 485.50Q409 516 368 533.50Q327 551 281 551Z"  horiz-adv-x="579" vert-adv-y="1000"  />

      
      <glyph glyph-name="uni3a" unicode="&#x3a;" d="M69 453L69 517L89 517L89 453L69 453M69 0L69 64L89 64L89 0L69 0Z"  horiz-adv-x="158" vert-adv-y="1000"  />

      
      <glyph glyph-name="uni3b" unicode="&#x3b;" d="M73 453L73 517L93 517L93 453L73 453M70-81L80-10L71-10L71 64L97 64L97-10L84-81L70-81Z"  horiz-adv-x="168" vert-adv-y="1000"  />

      
      <glyph glyph-name="uni3c" unicode="&#x3c;" d="M34 268L451 517L451 495L63 259L451 22L451 0L34 250L34 268Z"  horiz-adv-x="502" vert-adv-y="1000"  />

      
      <glyph glyph-name="uni3d" unicode="&#x3d;" d="M71 231L71 251L364 251L364 231L71 231M71 301L71 321L364 321L364 301L71 301Z"  horiz-adv-x="435" vert-adv-y="1000"  />

      
      <glyph glyph-name="uni3e" unicode="&#x3e;" d="M468 250L51 0L51 22L439 259L51 495L51 517L468 268L468 250Z"  horiz-adv-x="502" vert-adv-y="1000"  />

      
      <glyph glyph-name="uni3f" unicode="&#x3f;" d="M178 179Q178 227 184.50 258.50Q191 290 202.50 311Q214 332 230 344.50Q246 357 264 366Q288 378 313.50 390Q339 402 360.50 420Q382 438 396 465Q410 492 410 535Q410 578 396 609Q382 640 358.50 660Q335 680 305 689.50Q275 699 244 699Q214 699 185 691Q156 683 131 667.50Q106 652 86 630.50Q66 609 53 582L35 590Q49 621 71.50 645Q94 669 121.50 685.50Q149 702 180.50 710.50Q212 719 243 719Q279 719 313 707Q347 695 373 671.50Q399 648 414.50 613Q430 578 430 532Q430 487 415.50 457.50Q401 428 378 408.50Q355 389 327 375.50Q299 362 272 347Q256 338 242.50 327.50Q229 317 219 298.50Q209 280 203.50 251.50Q198 223 198 179L178 179M178 0L178 84L198 84L198 0L178 0Z"  horiz-adv-x="468" vert-adv-y="1000"  />

      
      <glyph glyph-name="uni40" unicode="&#x40;" d="M413 603Q487 603 552 573Q617 543 665 491.50Q713 440 741 370.50Q769 301 769 222Q769 208 767.50 184.50Q766 161 761 134.50Q756 108 747 81Q738 54 722.50 32.50Q707 11 684-2.50Q661-16 629-16Q605-16 591-8.50Q577-1 569.50 12.50Q562 26 559 44.50Q556 63 554 84Q528 55 483.50 33.50Q439 12 387 12Q354 12 327 21.50Q300 31 281 48Q262 65 251.50 88.50Q241 112 241 140Q241 176 257 200Q273 224 299 238.50Q325 253 357.50 259Q390 265 422 265Q467 265 504 256.50Q541 248 558 242Q558 283 552 317.50Q546 352 531 376.50Q516 401 490.50 415Q465 429 426 429Q388 429 351 416.50Q314 404 282 381L270 397Q305 420 343.50 434.50Q382 449 427 449Q476 449 505.50 431.50Q535 414 551 385.50Q567 357 572 321Q577 285 577 248L577 95Q577 50 586.50 27Q596 4 630 4Q664 4 687 26.50Q710 49 724 82Q738 115 743.50 153Q749 191 749 223Q749 298 722.50 363.50Q696 429 650.50 477.50Q605 526 543.50 554.50Q482 583 413 583Q346 583 284 556.50Q222 530 174.50 483Q127 436 98.50 371.50Q70 307 70 230Q70 156 97 91Q124 26 170.50-22Q217-70 279-98Q341-126 412-126Q451-126 489.50-117Q528-108 564-88L574-106Q497-146 412-146Q338-146 272-117Q206-88 156.50-37Q107 14 78.50 82.50Q50 151 50 230Q50 312 80.50 380.50Q111 449 161 498.50Q211 548 276.50 575.50Q342 603 413 603M484 55Q509 67 523.50 81Q538 95 545.50 110.50Q553 126 555 142.50Q557 159 557 174L557 221Q551 221 539 224.50Q527 228 509.50 232.50Q492 237 468.50 241Q445 245 417 245Q388 245 360.50 240Q333 235 310.50 223Q288 211 274.50 190.50Q261 170 261 140Q261 114 271.50 93.50Q282 73 299.50 59.50Q317 46 339.50 39Q362 32 387 32Q413 32 439 39Q465 46 484 55Z"  horiz-adv-x="830" vert-adv-y="1000"  />

      
      <glyph glyph-name="uni41" unicode="&#x41;" d="M328 710L346 710L655 0L633 0L522 254L151 254L40 0L18 0L328 710M513 274L337 681L159 274L513 274Z"  horiz-adv-x="674" vert-adv-y="1000"  />

      
      <glyph glyph-name="uni42" unicode="&#x42;" d="M605 184Q605 147 591 114Q577 81 553 55.50Q529 30 496.50 15Q464 0 428 0L99 0L99 710L413 710Q450 710 480 694Q510 678 531 652.50Q552 627 563.50 594.50Q575 562 575 529Q575 475 547.50 430Q520 385 473 364Q503 355 527.50 337Q552 319 569.50 295Q587 271 596 242.50Q605 214 605 184M585 184Q585 216 573.50 245.50Q562 275 542 298Q522 321 494.50 334.50Q467 348 435 348L119 348L119 20L428 20Q461 20 489.50 34Q518 48 539.50 71Q561 94 573 123.50Q585 153 585 184M119 690L119 368L407 368Q440 368 467 382Q494 396 513.50 419Q533 442 544 470.50Q555 499 555 529Q555 561 544.50 590Q534 619 515.50 641.50Q497 664 470.50 677Q444 690 413 690L119 690Z"  horiz-adv-x="655" vert-adv-y="1000"  />

      
      <glyph glyph-name="uni43" unicode="&#x43;" d="M48 360Q48 424 70.50 487Q93 550 135.50 600.50Q178 651 240.50 682.50Q303 714 383 714Q478 714 544 670.50Q610 627 642 559L623 553Q602 592 574.50 619Q547 646 514.50 662.50Q482 679 447.50 686.50Q413 694 379 694Q305 694 247 664.50Q189 635 149 587Q109 539 88.50 478.50Q68 418 68 357Q68 289 92.50 227Q117 165 159.50 117.50Q202 70 259 42Q316 14 382 14Q417 14 454 23Q491 32 525.50 50Q560 68 589.50 96.50Q619 125 640 164L659 159Q641 119 610 88Q579 57 541 36Q503 15 460.50 4.50Q418-6 378-6Q306-6 245 26Q184 58 140.50 109.50Q97 161 72.50 226.50Q48 292 48 360Z"  horiz-adv-x="697" vert-adv-y="1000"  />

      
      <glyph glyph-name="uni44" unicode="&#x44;" d="M99 0L99 710L327 710Q411 710 473.50 682Q536 654 577.50 606Q619 558 639.50 493.50Q660 429 660 356Q660 275 636.50 209.50Q613 144 570 97.50Q527 51 465 25.50Q403 0 327 0L99 0M640 356Q640 429 619.50 490Q599 551 559 595.50Q519 640 460.50 665Q402 690 327 690L119 690L119 20L327 20Q404 20 462.50 45.50Q521 71 560.50 116Q600 161 620 222.50Q640 284 640 356Z"  horiz-adv-x="711" vert-adv-y="1000"  />

      
      <glyph glyph-name="uni45" unicode="&#x45;" d="M565 20L565 0L99 0L99 710L556 710L556 690L119 690L119 373L502 373L502 353L119 353L119 20L565 20Z"  horiz-adv-x="617" vert-adv-y="1000"  />

      
      <glyph glyph-name="uni46" unicode="&#x46;" d="M99 0L99 710L556 710L556 690L119 690L119 374L492 374L492 354L119 354L119 0L99 0Z"  horiz-adv-x="602" vert-adv-y="1000"  />

      
      <glyph glyph-name="uni47" unicode="&#x47;" d="M639 121Q528-5 383-5Q309-5 247.50 26.50Q186 58 141.50 109Q97 160 72.50 224.50Q48 289 48 355Q48 424 72 489Q96 554 138.50 604.50Q181 655 240.50 685Q300 715 371 715Q426 715 469 703.50Q512 692 545 671.50Q578 651 601.50 622.50Q625 594 642 560L623 554Q582 629 518 662Q454 695 371 695Q301 695 245 665.50Q189 636 149.50 588Q110 540 89 479Q68 418 68 355Q68 288 92.50 226.50Q117 165 160 118Q203 71 260 43Q317 15 383 15Q453 15 516 47Q579 79 639 149L639 318L472 318L472 338L659 338L659 0L639 0L639 121Z"  horiz-adv-x="720" vert-adv-y="1000"  />

      
      <glyph glyph-name="uni48" unicode="&#x48;" d="M632 710L632 0L612 0L612 353L119 353L119 0L99 0L99 710L119 710L119 373L612 373L612 710L632 710Z"  horiz-adv-x="731" vert-adv-y="1000"  />

      
      <glyph glyph-name="uni49" unicode="&#x49;" d="M99 0L99 710L119 710L119 0L99 0Z"  horiz-adv-x="218" vert-adv-y="1000"  />

      
      <glyph glyph-name="uni4a" unicode="&#x4a;" d="M30 49Q88 9 173 9Q237 9 274.50 32.50Q312 56 331.50 99.50Q351 143 357 206Q363 269 363 349L363 710L383 710L383 349Q383 268 376.50 201.50Q370 135 348 88Q326 41 284.50 15Q243-11 173-11Q83-11 19 33L30 49Z"  horiz-adv-x="473" vert-adv-y="1000"  />

      
      <glyph glyph-name="uni4b" unicode="&#x4b;" d="M99 0L99 710L119 710L119 249L571 710L600 710L297 400L614 0L588 0L282 386L119 221L119 0L99 0Z"  horiz-adv-x="621" vert-adv-y="1000"  />

      
      <glyph glyph-name="uni4c" unicode="&#x4c;" d="M99 0L99 710L119 710L119 20L565 20L565 0L99 0Z"  horiz-adv-x="579" vert-adv-y="1000"  />

      
      <glyph glyph-name="uni4d" unicode="&#x4d;" d="M765 0L765 666L450 140L434 140L119 666L119 0L99 0L99 710L115 710L442 164L769 710L785 710L785 0L765 0Z"  horiz-adv-x="884" vert-adv-y="1000"  />

      
      <glyph glyph-name="uni4e" unicode="&#x4e;" d="M119 671L119 0L99 0L99 710L114 710L657 29L657 710L677 710L677 0L654 0L119 671Z"  horiz-adv-x="776" vert-adv-y="1000"  />

      
      <glyph glyph-name="uni4f" unicode="&#x4f;" d="M379-5Q305-5 244.50 26Q184 57 140 107Q96 157 72 222Q48 287 48 355Q48 426 73.50 491Q99 556 143.50 606Q188 656 248.50 685.50Q309 715 379 715Q452 715 513 683.50Q574 652 617.50 601Q661 550 685 485.50Q709 421 709 355Q709 283 683.50 218Q658 153 613.50 103.50Q569 54 509 24.50Q449-5 379-5M68 355Q68 289 91.50 227.50Q115 166 156 118.50Q197 71 254 43Q311 15 379 15Q448 15 505.50 44.50Q563 74 603.50 122Q644 170 666.50 231Q689 292 689 355Q689 421 665.50 482.50Q642 544 600 591.50Q558 639 501.50 667Q445 695 379 695Q310 695 252.50 665.50Q195 636 154 588Q113 540 90.50 479Q68 418 68 355Z"  horiz-adv-x="757" vert-adv-y="1000"  />

      
      <glyph glyph-name="uni50" unicode="&#x50;" d="M99 0L99 710L388 710Q431 710 468 691.50Q505 673 531.50 642.50Q558 612 573 573.50Q588 535 588 495Q588 453 574 414Q560 375 534.50 345Q509 315 473.50 297Q438 279 395 279L119 279L119 0L99 0M119 299L395 299Q435 299 467.50 316Q500 333 522 361Q544 389 556 424Q568 459 568 495Q568 533 554 568Q540 603 515.50 630Q491 657 458 673.50Q425 690 388 690L119 690L119 299Z"  horiz-adv-x="619" vert-adv-y="1000"  />

      
      <glyph glyph-name="uni51" unicode="&#x51;" d="M586 76Q544 38 491.50 16.50Q439-5 379-5Q305-5 244.50 26Q184 57 140 107Q96 157 72 222Q48 287 48 355Q48 426 73.50 491Q99 556 143.50 606Q188 656 248.50 685.50Q309 715 379 715Q452 715 513 683.50Q574 652 617.50 601Q661 550 685 485.50Q709 421 709 355Q709 277 680 208.50Q651 140 600 89L672 0L647 0L586 76M379 15Q437 15 486 36Q535 57 574 92L499 186L524 186L588 105Q636 155 662.50 220.50Q689 286 689 355Q689 421 665.50 482.50Q642 544 600 591.50Q558 639 501.50 667Q445 695 379 695Q310 695 252.50 665.50Q195 636 154 588Q113 540 90.50 479Q68 418 68 355Q68 289 91.50 227.50Q115 166 156 118.50Q197 71 254 43Q311 15 379 15Z"  horiz-adv-x="757" vert-adv-y="1000"  />

      
      <glyph glyph-name="uni52" unicode="&#x52;" d="M99 0L99 710L388 710Q431 710 468 691.50Q505 673 531.50 642.50Q558 612 573 573.50Q588 535 588 495Q588 454 575 416Q562 378 538 348.50Q514 319 480.50 300.50Q447 282 407 279L587 0L563 0L383 279L119 279L119 0L99 0M119 299L395 299Q435 299 467 316Q499 333 521.50 360.50Q544 388 556 423Q568 458 568 495Q568 533 554 568Q540 603 515.50 630Q491 657 458 673.50Q425 690 388 690L119 690L119 299Z"  horiz-adv-x="642" vert-adv-y="1000"  />

      
      <glyph glyph-name="uni53" unicode="&#x53;" d="M509 616Q467 662 421.50 679Q376 696 313 696Q252 696 208.50 684Q165 672 137 649.50Q109 627 96 596Q83 565 83 526Q83 488 96 462.50Q109 437 136 419.50Q163 402 205.50 389.50Q248 377 307 365Q366 353 414 339Q462 325 495.50 304Q529 283 547 252Q565 221 565 174Q565 87 498.50 41Q432-5 315-5Q229-5 162.50 21.50Q96 48 39 105L54 118Q108 62 171.50 37Q235 12 316 12Q422 12 483.50 51.50Q545 91 545 171Q545 211 531 238.50Q517 266 488 286Q459 306 414 320Q369 334 308 346Q249 357 203.50 369.50Q158 382 126.50 401.50Q95 421 79 450.50Q63 480 63 524Q63 570 80.50 605.50Q98 641 130.50 665.50Q163 690 208.50 702.50Q254 715 311 715Q379 715 429.50 695.50Q480 676 522 630L509 616Z"  horiz-adv-x="602" vert-adv-y="1000"  />

      
      <glyph glyph-name="uni54" unicode="&#x54;" d="M582 690L310 690L310 0L290 0L290 690L18 690L18 710L582 710L582 690Z"  horiz-adv-x="600" vert-adv-y="1000"  />

      
      <glyph glyph-name="uni55" unicode="&#x55;" d="M378 15Q458 15 510.50 45Q563 75 593.50 123Q624 171 636.50 232Q649 293 649 355L649 710L669 710L669 355Q669 284 654.50 219Q640 154 606 104.50Q572 55 516.50 25Q461-5 379-5Q295-5 239 26Q183 57 149.50 108Q116 159 102 223.50Q88 288 88 355L88 710L108 710L108 355Q108 291 120.50 230Q133 169 164 121Q195 73 247 44Q299 15 378 15Z"  horiz-adv-x="756" vert-adv-y="1000"  />

      
      <glyph glyph-name="uni56" unicode="&#x56;" d="M40 710L339 25L637 710L659 710L350 0L328 0L19 710L40 710Z"  horiz-adv-x="678" vert-adv-y="1000"  />

      
      <glyph glyph-name="uni57" unicode="&#x57;" d="M381 704L403 704L518 438L634 704L656 704L529 414L699 25L997 710L1019 710L710 0L688 0L519 389L350 0L328 0L19 710L41 710L339 25L508 414L381 704Z"  horiz-adv-x="1038" vert-adv-y="1000"  />

      
      <glyph glyph-name="uni58" unicode="&#x58;" d="M37 710L311 366L585 710L610 710L323 350L602 0L577 0L311 334L45 0L19 0L298 350L11 710L37 710Z"  horiz-adv-x="621" vert-adv-y="1000"  />

      
      <glyph glyph-name="uni59" unicode="&#x59;" d="M46 710L320 298L595 710L618 710L330 275L330 0L310 0L310 277L23 710L46 710Z"  horiz-adv-x="641" vert-adv-y="1000"  />

      
      <glyph glyph-name="uni5a" unicode="&#x5a;" d="M28 20L570 690L33 690L33 710L595 710L595 690L53 20L591 20L591 0L28 0L28 20Z"  horiz-adv-x="624" vert-adv-y="1000"  />

      
      <glyph glyph-name="uni5b" unicode="&#x5b;" d="M97-40L97 740L167 740L167 720L117 720L117-20L167-20L167-40L97-40Z"  horiz-adv-x="228" vert-adv-y="1000"  />

      
      <glyph glyph-name="uni5c" unicode="&#x5c;" d="M53 710L488 0L463 0L27 710L53 710Z"  horiz-adv-x="514" vert-adv-y="1000"  />

      
      <glyph glyph-name="uni5d" unicode="&#x5d;" d="M61-40L61-20L111-20L111 720L61 720L61 740L131 740L131-40L61-40Z"  horiz-adv-x="228" vert-adv-y="1000"  />

      
      <glyph glyph-name="uni5e" unicode="&#x5e;" d="M46 303L244 710L262 710L459 303L436 303L253 681L67 303L46 303Z"  horiz-adv-x="505" vert-adv-y="1000"  />

      
      <glyph glyph-name="uni5f" unicode="&#x5f;" d="M69-20L69 0L462 0L462-20L69-20Z"  horiz-adv-x="531" vert-adv-y="1000"  />

      
      <glyph glyph-name="uni60" unicode="&#x60;" d="M50 730L83 730L148 657L132 645L50 730Z"  horiz-adv-x="198" vert-adv-y="1000"  />

      
      <glyph glyph-name="uni61" unicode="&#x61;" d="M207-10Q172-10 141 2.50Q110 15 87.50 36.50Q65 58 52 87Q39 116 39 149Q39 182 54.50 209Q70 236 98.50 255.50Q127 275 166.50 286Q206 297 253 297Q298 297 344 289.50Q390 282 427 268L427 327Q427 367 415 400.50Q403 434 380.50 457.50Q358 481 326.50 494Q295 507 257 507Q219 507 176 490.50Q133 474 89 443L77 459Q177 527 257 527Q300 527 335.50 513Q371 499 395.50 473Q420 447 433.50 410Q447 373 447 327L447 40Q447 20 463 20L463 0Q452 0 449 2Q439 6 433 16.50Q427 27 427 40L427 88Q391 41 333 15.50Q275-10 207-10M207 10Q274 10 329.50 35Q385 60 412 102Q427 123 427 143L427 246Q347 277 253 277Q209 277 173.50 268Q138 259 112.50 242Q87 225 73 201.50Q59 178 59 149Q59 120 70.50 94.50Q82 69 102 50Q122 31 149 20.50Q176 10 207 10Z"  horiz-adv-x="524" vert-adv-y="1000"  />

      
      <glyph glyph-name="uni62" unicode="&#x62;" d="M307-10Q276-10 246.50-1Q217 8 190.50 24Q164 40 141.50 61.50Q119 83 104 108L104 0L84 0L84 730L104 730L104 398Q144 454 196 490.50Q248 527 316 527Q373 527 418 503Q463 479 493.50 440.50Q524 402 540.50 354Q557 306 557 258Q557 205 538 156.50Q519 108 485 71Q451 34 405.50 12Q360-10 307-10M307 10Q357 10 399.50 31.50Q442 53 472.50 88Q503 123 520 167.50Q537 212 537 258Q537 306 521 351Q505 396 475.50 430.50Q446 465 405.50 486Q365 507 316 507Q279 507 246.50 494.50Q214 482 187.50 461Q161 440 140 413Q119 386 104 356L104 167Q106 135 126.50 106.50Q147 78 177 56.50Q207 35 242 22.50Q277 10 307 10Z"  horiz-adv-x="603" vert-adv-y="1000"  />

      
      <glyph glyph-name="uni63" unicode="&#x63;" d="M46 262Q46 318 65 366.50Q84 415 118 450.50Q152 486 197.50 506.50Q243 527 296 527Q362 527 413.50 496.50Q465 466 491 411L471 404Q445 452 397.50 479.50Q350 507 293 507Q245 507 204 488Q163 469 132 436Q101 403 83.50 358Q66 313 66 262Q66 211 84 165Q102 119 133.50 84.50Q165 50 206 30Q247 10 294 10Q324 10 354.50 19Q385 28 410.50 43Q436 58 454 78Q472 98 478 119L498 113Q489 87 469.50 64.50Q450 42 423 25.50Q396 9 363.50-0.50Q331-10 297-10Q246-10 200 11.50Q154 33 120 70Q86 107 66 156.50Q46 206 46 262Z"  horiz-adv-x="538" vert-adv-y="1000"  />

      
      <glyph glyph-name="uni64" unicode="&#x64;" d="M296-10Q242-10 196 13Q150 36 116.50 74Q83 112 64.50 160Q46 208 46 258Q46 312 64 360.50Q82 409 114.50 446Q147 483 191 505Q235 527 287 527Q323 527 354.50 516.50Q386 506 413 488.50Q440 471 461.50 447.50Q483 424 499 398L499 730L519 730L519 40Q519 20 535 20L535 0Q526 0 522 2Q511 7 505 17.50Q499 28 499 40L499 108Q482 82 459.50 60.50Q437 39 410.50 23Q384 7 355-1.50Q326-10 296-10M296 10Q326 10 361 23Q396 36 426 57.50Q456 79 476.50 108Q497 137 499 169L499 356Q488 387 465 414.50Q442 442 413 462.50Q384 483 351 495Q318 507 287 507Q236 507 195.50 485.50Q155 464 126 429Q97 394 81.50 349Q66 304 66 258Q66 209 84 164.50Q102 120 133 85.50Q164 51 206 30.50Q248 10 296 10Z"  horiz-adv-x="604" vert-adv-y="1000"  />

      
      <glyph glyph-name="uni65" unicode="&#x65;" d="M296-10Q245-10 199.50 11.50Q154 33 120 70.50Q86 108 66 157.50Q46 207 46 263Q46 318 65 366Q84 414 117.50 450Q151 486 195.50 506.50Q240 527 291 527Q343 527 388.50 506Q434 485 467.50 449Q501 413 521 364Q541 315 541 259L541 248L66 248Q70 198 89.50 154.50Q109 111 140 79Q171 47 211.50 28.50Q252 10 297 10Q327 10 355.50 18Q384 26 409 40.50Q434 55 453 75Q472 95 483 119L502 114Q491 87 470.50 64.50Q450 42 422.50 25.50Q395 9 362.50-0.50Q330-10 296-10M520 268Q517 320 498 364Q479 408 448.50 439.50Q418 471 378 489Q338 507 292 507Q246 507 206 489Q166 471 135.50 439Q105 407 87 363Q69 319 66 268L520 268Z"  horiz-adv-x="576" vert-adv-y="1000"  />

      
      <glyph glyph-name="uni66" unicode="&#x66;" d="M103 0L103 499L28 499L28 519L103 519L103 540Q103 635 139 687.50Q175 740 240 740Q269 740 295 730.50Q321 721 335 706L319 694Q307 706 285.50 713.50Q264 721 241 721Q184 721 153.50 674.50Q123 628 123 540L123 519L278 519L278 499L123 499L123 0L103 0Z"  horiz-adv-x="299" vert-adv-y="1000"  />

      
      <glyph glyph-name="uni67" unicode="&#x67;" d="M296-10Q242-10 196 13Q150 36 116.50 74Q83 112 64.50 160Q46 208 46 258Q46 310 63.50 358.50Q81 407 113 444.50Q145 482 189.50 504.50Q234 527 287 527Q322 527 352.50 517Q383 507 409.50 489.50Q436 472 458 448.50Q480 425 499 398L499 519L519 519L519-22Q519-73 500-111Q481-149 449-174Q417-199 375.50-211Q334-223 290-223Q198-223 146-189Q94-155 65-99L84-93Q116-152 171.50-177.50Q227-203 290-203Q333-203 371-191.50Q409-180 437.50-157Q466-134 482.50-100.50Q499-67 499-22L499 108Q482 82 459.50 60.50Q437 39 410.50 23Q384 7 355-1.50Q326-10 296-10M296 10Q333 10 368.50 24.50Q404 39 432 62Q460 85 478.50 113Q497 141 499 169L499 356Q487 389 464.50 416.50Q442 444 414 464Q386 484 353 495.50Q320 507 287 507Q234 507 193 484.50Q152 462 124 426.50Q96 391 81 346.50Q66 302 66 258Q66 209 84 164.50Q102 120 133 85.50Q164 51 206 30.50Q248 10 296 10Z"  horiz-adv-x="603" vert-adv-y="1000"  />

      
      <glyph glyph-name="uni68" unicode="&#x68;" d="M487 0L467 0L467 289Q467 507 323 507Q287 507 252 493Q217 479 187.50 455Q158 431 136 398.50Q114 366 104 328L104 0L84 0L84 730L104 730L104 385Q120 417 143.50 443.50Q167 470 195.50 488.50Q224 507 256.50 517Q289 527 322 527Q403 527 445 467Q487 407 487 289L487 0Z"  horiz-adv-x="565" vert-adv-y="1000"  />

      
      <glyph glyph-name="uni69" unicode="&#x69;" d="M84 0L84 519L104 519L104 0L84 0M84 653L84 730L104 730L104 653L84 653Z"  horiz-adv-x="188" vert-adv-y="1000"  />

      
      <glyph glyph-name="uni6a" unicode="&#x6a;" d="M-21-170Q-50-170-75.50-163Q-101-156-121-136L-105-124Q-87-140-65-145Q-43-150-22-150Q-1-150 19-141Q39-132 55.50-117Q72-102 82-81Q92-60 92-36L92 519L112 519L112-36Q112-65 100-89.50Q88-114 69-132Q50-150 26-160Q2-170-21-170M92 653L92 730L112 730L112 653L92 653Z"  horiz-adv-x="196" vert-adv-y="1000"  />

      
      <glyph glyph-name="uni6b" unicode="&#x6b;" d="M466 0L245 297L104 169L104 0L84 0L84 730L104 730L104 196L458 517L485 517L260 311L490 0L466 0Z"  horiz-adv-x="508" vert-adv-y="1000"  />

      
      <glyph glyph-name="uni6c" unicode="&#x6c;" d="M90 730L110 730L110 77Q110 48 128 31Q146 14 176 14Q187 14 202.50 16.50Q218 19 231 23L238 7Q224 2 203.50-1.50Q183-5 169-5Q134-5 112 17.50Q90 40 90 77L90 730Z"  horiz-adv-x="238" vert-adv-y="1000"  />

      
      <glyph glyph-name="uni6d" unicode="&#x6d;" d="M830 0L810 0L810 289Q810 401 776.50 454Q743 507 671 507Q634 507 601.50 493.50Q569 480 542.50 456Q516 432 496.50 399Q477 366 467 327L467 0L447 0L447 289Q447 402 414 454.50Q381 507 309 507Q273 507 240.50 494Q208 481 181.50 457.50Q155 434 135 401Q115 368 104 328L104 0L84 0L84 519L104 519L104 385Q138 453 190.50 490Q243 527 305 527Q371 527 413 486Q455 445 463 376Q541 527 671 527Q752 527 791 468.50Q830 410 830 289L830 0Z"  horiz-adv-x="908" vert-adv-y="1000"  />

      
      <glyph glyph-name="uni6e" unicode="&#x6e;" d="M487 0L467 0L467 289Q467 403 435.50 455Q404 507 334 507Q296 507 259.50 493.50Q223 480 192 456Q161 432 138 399Q115 366 104 328L104 0L84 0L84 519L104 519L104 385Q120 416 145 442.50Q170 469 200 487.50Q230 506 264 516.50Q298 527 333 527Q413 527 450 469.50Q487 412 487 289L487 0Z"  horiz-adv-x="565" vert-adv-y="1000"  />

      
      <glyph glyph-name="uni6f" unicode="&#x6f;" d="M293-10Q242-10 197 11.50Q152 33 118.50 69.50Q85 106 65.50 155Q46 204 46 258Q46 313 65.50 361.50Q85 410 119 447Q153 484 198 505.50Q243 527 293 527Q343 527 388 505.50Q433 484 466.50 447Q500 410 520 361.50Q540 313 540 258Q540 204 520.50 155Q501 106 467.50 69.50Q434 33 389 11.50Q344-10 293-10M66 256Q66 206 84 161Q102 116 132.50 82.50Q163 49 204 29.50Q245 10 292 10Q338 10 379.50 30Q421 50 452.50 84Q484 118 502 163Q520 208 520 259Q520 309 502 354Q484 399 453 433Q422 467 380.50 487Q339 507 293 507Q247 507 205.50 487Q164 467 133 432.50Q102 398 84 352.50Q66 307 66 256Z"  horiz-adv-x="586" vert-adv-y="1000"  />

      
      <glyph glyph-name="uni70" unicode="&#x70;" d="M316-10Q281-10 250 0.50Q219 11 192 28.50Q165 46 143 69.50Q121 93 104 119L104-213L84-213L84 519L104 519L104 409Q120 435 143 456.50Q166 478 192.50 494Q219 510 248 518.50Q277 527 307 527Q362 527 408 503.50Q454 480 487 442Q520 404 538.50 356Q557 308 557 258Q557 205 539.50 156.50Q522 108 490.50 71Q459 34 414.50 12Q370-10 316-10M316 10Q367 10 407.50 31.50Q448 53 477 88Q506 123 521.50 167.50Q537 212 537 258Q537 307 519 352Q501 397 470 431.50Q439 466 397 486.50Q355 507 307 507Q277 507 242 494Q207 481 177 459Q147 437 126.50 408Q106 379 104 348L104 161Q118 129 140 101.50Q162 74 189.50 54Q217 34 249 22Q281 10 316 10Z"  horiz-adv-x="603" vert-adv-y="1000"  />

      
      <glyph glyph-name="uni71" unicode="&#x71;" d="M287-10Q232-10 187.50 13Q143 36 111.50 73.50Q80 111 63 159Q46 207 46 258Q46 311 65.50 359.50Q85 408 119 445.50Q153 483 198.50 505Q244 527 296 527Q327 527 356.50 518Q386 509 412.50 493Q439 477 461.50 455.50Q484 434 499 409L499 519L519 519L519-173Q519-193 535-193L535-213Q525-213 521-211Q510-206 504.50-195.50Q499-185 499-173L499 119Q455 56 401.50 23Q348-10 287-10M287 10Q324 10 356 22.50Q388 35 415 56Q442 77 463 104Q484 131 499 161L499 348Q496 379 476 408Q456 437 427 459Q398 481 363.50 494Q329 507 296 507Q245 507 203 485.50Q161 464 130.50 428.50Q100 393 83 348.50Q66 304 66 258Q66 209 82.50 164Q99 119 128.50 85Q158 51 198.50 30.50Q239 10 287 10Z"  horiz-adv-x="603" vert-adv-y="1000"  />

      
      <glyph glyph-name="uni72" unicode="&#x72;" d="M306 499Q232 496 178.50 451Q125 406 104 328L104 0L84 0L84 519L104 519L104 385Q131 440 176.50 475.50Q222 511 273 517Q283 518 291.50 518.50Q300 519 306 519L306 499Z"  horiz-adv-x="323" vert-adv-y="1000"  />

      
      <glyph glyph-name="uni73" unicode="&#x73;" d="M235-10Q114-10 37 74L52 87Q92 48 135.50 29Q179 10 235 10Q312 10 360 43Q408 76 408 136Q408 164 396 182.50Q384 201 361 214.50Q338 228 304 237.50Q270 247 227 257Q185 267 154 275.50Q123 284 102.50 297Q82 310 71.50 329.50Q61 349 61 380Q61 419 76 446.50Q91 474 116 492Q141 510 174 518.50Q207 527 244 527Q307 527 351.50 505.50Q396 484 413 452L395 444Q376 475 333 491Q290 507 240 507Q208 507 179 500Q150 493 128 478Q106 463 93.50 439.50Q81 416 81 383Q81 357 89.50 340.50Q98 324 116 313Q134 302 162 294Q190 286 228 277Q274 266 311.50 256Q349 246 374.50 231Q400 216 414 194.50Q428 173 428 139Q428 105 414 77.50Q400 50 375 30.50Q350 11 314 0.50Q278-10 235-10Z"  horiz-adv-x="471" vert-adv-y="1000"  />

      
      <glyph glyph-name="uni74" unicode="&#x74;" d="M286 24Q286 24 278.50 19Q271 14 258.50 9Q246 4 229-0.50Q212-5 191-5Q155-5 128 17Q101 39 101 75L101 499L26 499L26 519L101 519L101 700L121 700L121 519L246 519L246 499L121 499L121 75Q123 46 144 30.50Q165 15 191 15Q208 15 223 18.50Q238 22 249.50 26.50Q261 31 267.50 35Q274 39 275 40L286 24Z"  horiz-adv-x="295" vert-adv-y="1000"  />

      
      <glyph glyph-name="uni75" unicode="&#x75;" d="M245-10Q78-10 78 228L78 519L98 519L98 228Q98 10 245 10Q282 10 318 23.50Q354 37 384 60.50Q414 84 436.50 117Q459 150 471 189L471 519L491 519L491 40Q491 20 507 20L507 0Q496 0 493 2Q483 6 477 16.50Q471 27 471 40L471 132Q437 66 376 28Q315-10 245-10Z"  horiz-adv-x="576" vert-adv-y="1000"  />

      
      <glyph glyph-name="uni76" unicode="&#x76;" d="M251 0L25 519L47 519L260 29L473 519L495 519L269 0L251 0Z"  horiz-adv-x="520" vert-adv-y="1000"  />

      
      <glyph glyph-name="uni77" unicode="&#x77;" d="M747 519L769 519L542 0L524 0L397 291L270 0L252 0L25 519L47 519L261 29L386 316L299 518L320 518L397 342L474 518L495 518L408 316L533 29L747 519Z"  horiz-adv-x="794" vert-adv-y="1000"  />

      
      <glyph glyph-name="uni78" unicode="&#x78;" d="M46 519L233 285L241 273L249 285L436 519L462 519L254 258L460 0L434 0L249 232L241 244L233 232L48 0L22 0L228 258L20 519L46 519Z"  horiz-adv-x="482" vert-adv-y="1000"  />

      
      <glyph glyph-name="uni79" unicode="&#x79;" d="M128-203Q145-203 157.50-201.50Q170-200 175-193Q178-190 182-181.50Q186-173 195-152.50Q204-132 220-95.50Q236-59 262 0L21 519L43 519L272 25L489 519L511 519L202-186Q190-212 169-218Q149-223 128-223L128-203Z"  horiz-adv-x="536" vert-adv-y="1000"  />

      
      <glyph glyph-name="uni7a" unicode="&#x7a;" d="M33 20L429 499L38 499L38 519L454 519L454 499L59 20L450 20L450 0L33 0L33 20Z"  horiz-adv-x="488" vert-adv-y="1000"  />

      
      <glyph glyph-name="uni7b" unicode="&#x7b;" d="M118 720L118 416Q118 413 117.50 407Q117 401 115 392.50Q113 384 109 375.50Q105 367 97 360Q113 346 115.50 327.50Q118 309 118 304L118-11L173-11L173-31L121-31Q113-31 105.50-24.50Q98-18 98-1L98 304Q98 319 92 334Q86 349 68 351L68 371Q78 371 84 377Q90 383 93 390.50Q96 398 97 405.50Q98 413 98 416L98 710Q98 730 107.50 735Q117 740 121 740L173 740L173 720L118 720Z"  horiz-adv-x="229" vert-adv-y="1000"  />

      
      <glyph glyph-name="uni7c" unicode="&#x7c;" d="M95-130L95 775L115 775L115-130L95-130Z"  horiz-adv-x="210" vert-adv-y="1000"  />

      
      <glyph glyph-name="uni7d" unicode="&#x7d;" d="M56 720L56 740L108 740Q112 740 121.50 735Q131 730 131 710L131 416Q131 413 131.50 405.50Q132 398 135 390.50Q138 383 144 377Q150 371 161 371L161 351Q143 349 137 334Q131 319 131 304L131-1Q131-18 123.50-24.50Q116-31 108-31L56-31L56-11L111-11L111 304Q111 309 113.50 327.50Q116 346 132 360Q124 367 120 375.50Q116 384 114 392.50Q112 401 111.50 407Q111 413 111 416L111 720L56 720Z"  horiz-adv-x="229" vert-adv-y="1000"  />

      
      <glyph glyph-name="uni7e" unicode="&#x7e;" d="M70 251Q70 252 74.50 265Q79 278 89.50 293Q100 308 115.50 320Q131 332 154 332Q174 332 192.50 322.50Q211 313 229 301.50Q247 290 265 280.50Q283 271 303 271Q321 271 334 278.50Q347 286 356 296Q365 306 369 314.50Q373 323 373 325L393 324Q385 303 373 287Q362 273 345.50 262Q329 251 303 251Q279 251 259 260.50Q239 270 221 281.50Q203 293 186.50 302.50Q170 312 154 312Q139 312 127 302.50Q115 293 106.50 282Q98 271 94 261.50Q90 252 90 251L70 251L70 251Z"  horiz-adv-x="462" vert-adv-y="1000"  />

      
      <glyph glyph-name="unia1" unicode="&#xa1;" d="M124 517L124 0L104 0L104 517L124 517M124 717L124 633L104 633L104 717L124 717Z"  horiz-adv-x="228" vert-adv-y="1000"  />

      
      <glyph glyph-name="unia2" unicode="&#xa2;" d="M276-120L276-9Q225-5 183 19.50Q141 44 110.50 81Q80 118 63 164Q46 210 46 258Q46 309 63 356Q80 403 110 440.50Q140 478 182.50 501Q225 524 276 527L276 645L296 645L296 527Q374 525 419.50 493Q465 461 490 411L471 404Q442 456 397 480.50Q352 505 296 507L296 10Q320 10 349.50 17.50Q379 25 405 39.50Q431 54 451.50 74Q472 94 478 119L498 113Q488 83 466 60Q444 37 415.50 21.50Q387 6 355.50-2Q324-10 296-10L296-120L276-120M66 258Q66 212 82 169Q98 126 126.50 92.50Q155 59 193 37Q231 15 276 11L276 507Q226 504 187 481Q148 458 121 423Q94 388 80 344.50Q66 301 66 258Z"  horiz-adv-x="541" vert-adv-y="1000"  />

      
      <glyph glyph-name="unia3" unicode="&#xa3;" d="M48 366L157 366Q145 389 131 411Q117 433 105.50 455Q94 477 86.50 500Q79 523 79 550Q79 584 92 614Q105 644 127 666.50Q149 689 179 702Q209 715 242 715Q292 715 335 686.50Q378 658 404 610L387 598Q363 643 324 669Q285 695 240 695Q211 695 186 684Q161 673 142 653.50Q123 634 112 608Q101 582 101 552Q101 526 109 503.50Q117 481 129 458.50Q141 436 155 413.50Q169 391 181 366L354 366L354 346L190 346Q200 323 206.50 297Q213 271 213 242Q213 215 207 190Q201 165 187 139Q173 113 150.50 83.50Q128 54 95 18Q112 21 130 23Q148 25 166 25Q189 25 208 22Q227 19 244 15Q261 11 278 8Q295 5 314 5Q335 5 358.50 10Q382 15 413 26L419 7Q365-15 313-15Q291-15 273-12Q255-9 237.50-5Q220-1 201 2Q182 5 160 5Q138 5 112.50 1.50Q87-2 66-7L56 10Q96 53 122.50 85Q149 117 164.50 143Q180 169 186 192Q192 215 192 241Q192 271 185 297Q178 323 167 346L48 346L48 366Z"  horiz-adv-x="467" vert-adv-y="1000"  />

      
      <glyph glyph-name="unia4" unicode="&#xa4;" d="M146 467Q169 490 199.50 502.50Q230 515 265 515Q301 515 332.50 501.50Q364 488 387 465L457 534L472 520L401 450Q420 426 431 396.50Q442 367 442 335Q442 303 430.50 273Q419 243 399 219L472 148L457 134L385 205Q361 182 330.50 169.50Q300 157 265 157Q230 157 200.50 169Q171 181 148 202L79 134L64 148L134 217Q90 267 90 335Q90 368 101 398Q112 428 132 452L64 520L79 534L146 467M111 334Q111 301 123 272Q135 243 156 221.50Q177 200 205 187.50Q233 175 265 175Q297 175 325.50 188Q354 201 375 223Q396 245 408.50 274Q421 303 421 336Q421 369 408.50 398.50Q396 428 375 449.50Q354 471 325.50 483.50Q297 496 265 496Q234 496 206 483.50Q178 471 157 449Q136 427 123.50 397.50Q111 368 111 334Z"  horiz-adv-x="533" vert-adv-y="1000"  />

      
      <glyph glyph-name="unia5" unicode="&#xa5;" d="M379 341L472 341L472 321L366 321L335 275L335 251L472 251L472 231L335 231L335 0L315 0L315 231L179 231L179 251L315 251L315 277L286 321L179 321L179 341L273 341L28 710L51 710L325 298L600 710L623 710L379 341Z"  horiz-adv-x="651" vert-adv-y="1000"  />

      
      <glyph glyph-name="unia6" unicode="&#xa6;" d="M117 285L117-130L97-130L97 285L117 285M117 775L117 360L97 360L97 775L117 775Z"  horiz-adv-x="214" vert-adv-y="1000"  />

      
      <glyph glyph-name="unia7" unicode="&#xa7;" d="M385 181Q414 165 426.50 138.50Q439 112 439 74Q439 35 422 4.50Q405-26 378-46.50Q351-67 318-77.50Q285-88 253-88Q188-88 144-64Q100-40 66-6L81 7Q122-31 162.50-49.50Q203-68 253-68Q283-68 312.50-58.50Q342-49 365.50-30.50Q389-12 404 14.50Q419 41 419 74Q419 110 404.50 132.50Q390 155 367.50 167.50Q345 180 316 184.50Q287 189 259 190Q222 191 188 200Q154 209 128.50 227Q103 245 88 273.50Q73 302 73 341Q73 367 82 393Q91 419 105 435Q78 452 62 484Q46 516 46 557Q46 595 63 624.50Q80 654 106.50 674Q133 694 165.50 704.50Q198 715 230 715Q296 715 333 695.50Q370 676 395 640L377 632Q367 651 350 663.50Q333 676 313 683Q293 690 271 692.50Q249 695 230 695Q201 695 171.50 685.50Q142 676 118.50 658Q95 640 80.50 614.50Q66 589 66 557Q66 521 78.50 496Q91 471 113 455.50Q135 440 165.50 433Q196 426 232 426Q267 426 301 418Q335 410 362 392.50Q389 375 405.50 347Q422 319 422 280Q422 251 412 224.50Q402 198 385 181M93 341Q93 301 107 276.50Q121 252 144.50 238Q168 224 197 218Q226 212 256.50 208.50Q287 205 315.50 201.50Q344 198 365 190Q382 204 392 229Q402 254 402 280Q402 316 386 340.50Q370 365 345 379.50Q320 394 290 400Q260 406 232 406Q203 406 175 410.50Q147 415 124 425Q110 411 101.50 388Q93 365 93 341Z"  horiz-adv-x="481" vert-adv-y="1000"  />

      
      <glyph glyph-name="unia8" unicode="&#xa8;" d="M50 653L50 730L70 730L70 653L50 653M166 653L166 730L186 730L186 653L166 653Z"  horiz-adv-x="236" vert-adv-y="1000"  />

      
      <glyph glyph-name="unia9" unicode="&#xa9;" d="M412-7Q334-7 268 20.50Q202 48 154 96.50Q106 145 78.50 211Q51 277 51 355Q51 432 78.50 498Q106 564 154 612Q202 660 268 687.50Q334 715 412 715Q490 715 556 687.50Q622 660 670 612Q718 564 745.50 498Q773 432 773 355Q773 277 745.50 211Q718 145 670 96.50Q622 48 556 20.50Q490-7 412-7M413 13Q485 13 546.50 37.50Q608 62 654 107Q700 152 726 214.50Q752 277 752 352Q752 426 726.50 489Q701 552 655.50 597.50Q610 643 548 669Q486 695 413 695Q339 695 277 669.50Q215 644 169 598Q123 552 97.50 489.50Q72 427 72 354Q72 281 97.50 218.50Q123 156 168.50 110.50Q214 65 276.50 39Q339 13 413 13M419 127Q381 127 342 142Q303 157 271.50 186.50Q240 216 220 258.50Q200 301 200 355Q200 395 212.50 436Q225 477 250.50 510.50Q276 544 316 565Q356 586 411 586Q467 586 514 562Q561 538 581 487L562 480Q550 507 531.50 524Q513 541 491.50 550.50Q470 560 448.50 563Q427 566 411 566Q361 566 325 546.50Q289 527 266 496.50Q243 466 231.50 428.50Q220 391 220 355Q220 305 238.50 266.50Q257 228 285.50 201.50Q314 175 348.50 161Q383 147 415 147Q437 147 460.50 153.50Q484 160 506 171.50Q528 183 545.50 200Q563 217 572 238L591 233Q587 220 573 201.50Q559 183 536.50 166.50Q514 150 484 138.50Q454 127 419 127Z"  horiz-adv-x="824" vert-adv-y="1000"  />

      
      <glyph glyph-name="uniaa" unicode="&#xaa;" d="M170 351Q145 351 123.50 359.50Q102 368 86 382Q70 396 61 415.50Q52 435 52 458Q52 480 63 499Q74 518 94 531.50Q114 545 141 552.50Q168 560 201 560Q231 560 261.50 555Q292 550 316 541L316 576Q316 625 286 654.50Q256 684 205 684Q151 684 89 643L76 663Q146 709 207 709Q272 709 309.50 673Q347 637 347 573L347 402Q347 386 361 386L361 357Q348 357 343 358Q320 363 320 387L319 416Q294 385 254.50 368Q215 351 170 351M176 377Q218 377 252.50 391.50Q287 406 305 430Q316 444 316 457L316 518Q290 529 262 533Q234 537 205 537Q150 537 116 516Q82 495 82 459Q82 424 109 400.50Q136 377 176 377Z"  horiz-adv-x="425" vert-adv-y="1000"  />

      
      <glyph glyph-name="uniab" unicode="&#xab;" d="M42 268L279 437L279 415L61 259L279 102L279 80L42 250L42 268M212 268L449 437L449 415L231 259L449 102L449 80L212 250L212 268Z"  horiz-adv-x="518" vert-adv-y="1000"  />

      
      <glyph glyph-name="uniac" unicode="&#xac;" d="M490 338L490 140L470 140L470 318L87 318L87 338L490 338Z"  horiz-adv-x="561" vert-adv-y="1000"  />

      
      <glyph glyph-name="uniad" unicode="&#xad;" d="M69 261L69 281L472 281L472 261L69 261Z"  horiz-adv-x="541" vert-adv-y="1000"  />

      
      <glyph glyph-name="uniae" unicode="&#xae;" d="M412-7Q334-7 268 20.50Q202 48 154 96.50Q106 145 78.50 211Q51 277 51 355Q51 432 78.50 498Q106 564 154 612Q202 660 268 687.50Q334 715 412 715Q490 715 556 687.50Q622 660 670 612Q718 564 745.50 498Q773 432 773 355Q773 277 745.50 211Q718 145 670 96.50Q622 48 556 20.50Q490-7 412-7M412 13Q484 13 546 37.50Q608 62 654 107Q700 152 726 215Q752 278 752 355Q752 428 726.50 490Q701 552 655.50 597.50Q610 643 547.50 669Q485 695 412 695Q339 695 276.50 669Q214 643 168.50 597.50Q123 552 97.50 490Q72 428 72 355Q72 281 97.50 218.50Q123 156 168.50 110.50Q214 65 276 39Q338 13 412 13M267 583L455 583Q483 583 507 571Q531 559 548.50 539Q566 519 575.50 494Q585 469 585 443Q585 416 576.50 391.50Q568 367 552.50 348Q537 329 515 317Q493 305 467 303L584 121L560 121L444 303L288 303L288 121L267 121L267 583M460 323Q486 323 505.50 332.50Q525 342 538.50 358.50Q552 375 558.50 397Q565 419 565 443Q565 467 557 489Q549 511 534.50 527Q520 543 499.50 552.50Q479 562 455 562L288 562L288 323L460 323Z"  horiz-adv-x="824" vert-adv-y="1000"  />

      
      <glyph glyph-name="uniaf" unicode="&#xaf;" d="M50 686L50 706L330 706L330 686L50 686Z"  horiz-adv-x="380" vert-adv-y="1000"  />

      
      <glyph glyph-name="unib0" unicode="&#xb0;" d="M57 655Q57 684 77 704Q97 724 126 724Q155 724 175 704Q195 684 195 655Q195 626 175 606Q155 586 126 586Q97 586 77 606Q57 626 57 655M91 690Q77 676 77 655Q77 633 91 621Q106 606 126 606Q146 606 161 621Q175 635 175 655Q175 666 171 674.50Q167 683 161 690Q147 704 126 704Q105 704 91 690Z"  horiz-adv-x="252" vert-adv-y="1000"  />

      
      <glyph glyph-name="unib1" unicode="&#xb1;" d="M85 85L85 105L385 105L385 85L85 85M385 365L385 345L245 345L245 195L225 195L225 345L85 345L85 365L225 365L225 515L245 515L245 365L385 365Z"  horiz-adv-x="470" vert-adv-y="1000"  />

      
      <glyph glyph-name="unib2" unicode="&#xb2;" d="M40 423Q40 497 73 536Q106 575 163 596Q185 604 210 612Q235 620 255.50 631.50Q276 643 289.50 660Q303 677 303 703Q303 720 296 736Q289 752 275 764.50Q261 777 240 784.50Q219 792 190 792Q163 792 141.50 785.50Q120 779 104 770Q88 761 77 750.50Q66 740 60 732L45 744Q46 746 55.50 756.50Q65 767 83 779Q101 791 128.50 801Q156 811 192 811Q226 811 250.50 802Q275 793 291.50 778Q308 763 316 743Q324 723 324 702Q324 672 309 652.50Q294 633 272 620Q250 607 224.50 598.50Q199 590 178 583Q139 569 116 551Q93 533 82 514Q71 495 68 476Q65 457 65 442L325 442L325 423L40 423Z"  horiz-adv-x="369" vert-adv-y="1000"  />

      
      <glyph glyph-name="unib3" unicode="&#xb3;" d="M190 418Q159 418 132.50 425Q106 432 86 445Q66 458 54 475.50Q42 493 41 514L57 521Q58 504 68.50 489Q79 474 97 462.50Q115 451 139 444Q163 437 190 437Q217 437 240 443.50Q263 450 280.50 461Q298 472 307.50 488Q317 504 317 522Q317 562 276 585.50Q235 609 168 609L146 609L146 627L168 627Q234 627 269 646.50Q304 666 304 704Q304 743 269.50 768Q235 793 182 793Q140 793 108 776Q76 759 63 733L48 745Q63 775 99.50 793Q136 811 182 811Q213 811 239 803Q265 795 284 780.50Q303 766 314 746.50Q325 727 325 705Q325 638 236 618Q282 610 309.50 583.50Q337 557 337 520Q337 498 325.50 479Q314 460 294 446.50Q274 433 247.50 425.50Q221 418 190 418Z"  horiz-adv-x="380" vert-adv-y="1000"  />

      
      <glyph glyph-name="unib4" unicode="&#xb4;" d="M66 645L50 657L114 730L148 730L66 645Z"  horiz-adv-x="198" vert-adv-y="1000"  />

      
      <glyph glyph-name="unib5" unicode="&#xb5;" d="M91 519L111 519L111 228Q111 10 258 10Q295 10 331 23.50Q367 37 397 60.50Q427 84 449.50 117Q472 150 484 189L484 519L504 519L504 40Q504 20 520 20L520 0Q509 0 506 2Q496 6 490 16.50Q484 27 484 40L484 132Q450 66 389 28Q328-10 258-10Q149-10 111 94L111-212L91-212L91 519Z"  horiz-adv-x="602" vert-adv-y="1000"  />

      
      <glyph glyph-name="unib6" unicode="&#xb6;" d="M32 479Q32 533 51 575.50Q70 618 106.50 648Q143 678 195.50 694Q248 710 314 710L515 710L515 690L445 690L445-80L425-80L425 248L334 248L334-80L314-80L314 248Q248 249 196 265Q144 281 107.50 310.50Q71 340 51.50 382.50Q32 425 32 479M52 479Q52 424 73 385Q94 346 130 320.50Q166 295 213.50 282.50Q261 270 314 268L314 690Q186 690 119 634.50Q52 579 52 479M425 690L334 690L334 268L425 268L425 690Z"  horiz-adv-x="565" vert-adv-y="1000"  />

      
      <glyph glyph-name="unib7" unicode="&#xb7;" d="M69 250L69 333L89 333L89 250L69 250Z"  horiz-adv-x="158" vert-adv-y="1000"  />

      
      <glyph glyph-name="unib8" unicode="&#xb8;" d="M33-125Q48-132 71-137.50Q94-143 120-143Q178-143 178-105Q178-84 164.50-75.50Q151-67 130-67Q109-67 86-72.50Q63-78 49-83L103 11L121 0L88-57Q98-53 110-52Q122-51 130-51Q198-51 198-105Q198-135 176.50-148.50Q155-162 117-162Q91-162 66.50-156.50Q42-151 23-143L33-125Z"  horiz-adv-x="252" vert-adv-y="1000"  />

      
      <glyph glyph-name="unib9" unicode="&#xb9;" d="M230 441L230 422L49 422L49 441L132 441L132 785Q127 779 115.50 770.50Q104 762 90.50 755Q77 748 62 743Q47 738 35 738L35 757Q51 757 68 765Q85 773 99 783Q113 793 122 801.50Q131 810 132 811L152 811L152 441L230 441Z"  horiz-adv-x="252" vert-adv-y="1000"  />

      
      <glyph glyph-name="uniba" unicode="&#xba;" d="M224 351Q187 351 155 365.50Q123 380 99.50 404.50Q76 429 62.50 461Q49 493 49 529Q49 566 62.50 598.50Q76 631 99.50 655.50Q123 680 155 694.50Q187 709 224 709Q261 709 293.50 694.50Q326 680 350 655.50Q374 631 387.50 598.50Q401 566 401 529Q401 493 387.50 461Q374 429 350 404.50Q326 380 293.50 365.50Q261 351 224 351M71 528Q71 495 83 466.50Q95 438 116 416.50Q137 395 164.50 382.50Q192 370 224 370Q256 370 284 383Q312 396 333 417.50Q354 439 366.50 468Q379 497 379 530Q379 563 366.50 592Q354 621 333 642.50Q312 664 284 676.50Q256 689 224 689Q193 689 165 676.50Q137 664 116 642Q95 620 83 590.50Q71 561 71 528Z"  horiz-adv-x="450" vert-adv-y="1000"  />

      
      <glyph glyph-name="unibb" unicode="&#xbb;" d="M476 250L239 80L239 102L457 259L239 415L239 437L476 268L476 250M306 250L69 80L69 102L287 259L69 415L69 437L306 268L306 250Z"  horiz-adv-x="518" vert-adv-y="1000"  />

      
      <glyph glyph-name="unibc" unicode="&#xbc;" d="M98 11L656 711L672 699L114-1L98 11M241 361L241 342L60 342L60 361L143 361L143 705Q138 699 126.50 690.50Q115 682 101.50 675Q88 668 73 663Q58 658 46 658L46 677Q62 677 79 685Q96 693 110 703Q124 713 133 721.50Q142 730 143 731L163 731L163 361L241 361M634 0L634 110L401 110L401 127L640 383L654 383L654 129L709 129L709 110L654 110L654 0L634 0M429 129L634 129L634 348L429 129Z"  horiz-adv-x="745" vert-adv-y="1000"  />

      
      <glyph glyph-name="unibd" unicode="&#xbd;" d="M71 11L629 711L645 699L87-1L71 11M245 361L245 342L64 342L64 361L147 361L147 705Q142 699 130.50 690.50Q119 682 105.50 675Q92 668 77 663Q62 658 50 658L50 677Q66 677 83 685Q100 693 114 703Q128 713 137 721.50Q146 730 147 731L167 731L167 361L245 361M467 0Q467 74 500 113Q533 152 590 173Q612 181 637 189Q662 197 682.50 208.50Q703 220 716.50 237Q730 254 730 280Q730 297 723 313Q716 329 702 341.50Q688 354 667 361.50Q646 369 617 369Q590 369 568.50 362.50Q547 356 531 347Q515 338 504 327.50Q493 317 487 309L472 321Q473 323 482.50 333.50Q492 344 510 356Q528 368 555.50 378Q583 388 619 388Q653 388 677.50 379Q702 370 718.50 355Q735 340 743 320Q751 300 751 279Q751 249 736 229.50Q721 210 699 197Q677 184 651.50 175.50Q626 167 605 160Q566 146 543 128Q520 110 509 91Q498 72 495 53Q492 34 492 19L752 19L752 0L467 0Z"  horiz-adv-x="796" vert-adv-y="1000"  />

      
      <glyph glyph-name="unibe" unicode="&#xbe;" d="M137 11L695 711L711 699L153-1L137 11M649 0L649 110L416 110L416 127L655 383L669 383L669 129L724 129L724 110L669 110L669 0L649 0M444 129L649 129L649 348L444 129M194 338Q163 338 136.50 345Q110 352 90 365Q70 378 58 395.50Q46 413 45 434L61 441Q62 424 72.50 409Q83 394 101 382.50Q119 371 143 364Q167 357 194 357Q221 357 244 363.50Q267 370 284.50 381Q302 392 311.50 408Q321 424 321 442Q321 482 280 505.50Q239 529 172 529L150 529L150 547L172 547Q238 547 273 566.50Q308 586 308 624Q308 663 273.50 688Q239 713 186 713Q144 713 112 696Q80 679 67 653L52 665Q67 695 103.50 713Q140 731 186 731Q217 731 243 723Q269 715 288 700.50Q307 686 318 666.50Q329 647 329 625Q329 558 240 538Q286 530 313.50 503.50Q341 477 341 440Q341 418 329.50 399Q318 380 298 366.50Q278 353 251.50 345.50Q225 338 194 338Z"  horiz-adv-x="766" vert-adv-y="1000"  />

      
      <glyph glyph-name="unibf" unicode="&#xbf;" d="M286 327Q286 279 279.50 247.50Q273 216 261.50 195Q250 174 234 161.50Q218 149 200 140Q176 128 150.50 116Q125 104 103.50 86Q82 68 68 41Q54 14 54-29Q54-72 68-103Q82-134 105.50-154Q129-174 158.50-183.50Q188-193 220-193Q250-193 279-185Q308-177 333-161.50Q358-146 378-124.50Q398-103 411-76L429-84Q415-115 392.50-139Q370-163 342-179.50Q314-196 283-204.50Q252-213 221-213Q185-213 151-201Q117-189 91-165.50Q65-142 49.50-107Q34-72 34-26Q34 19 48.50 48.50Q63 78 86 97.50Q109 117 137 130.50Q165 144 192 159Q208 168 221.50 178.50Q235 189 245 207.50Q255 226 260.50 254.50Q266 283 266 327L286 327M286 506L286 422L266 422L266 506L286 506Z"  horiz-adv-x="461" vert-adv-y="1000"  />

      
      <glyph glyph-name="unic0" unicode="&#xc0;" d="M328 710L346 710L655 0L633 0L522 254L151 254L40 0L18 0L328 710M513 274L337 681L159 274L513 274M269 918L302 918L367 845L351 833L269 918Z"  horiz-adv-x="674" vert-adv-y="1000"  />

      
      <glyph glyph-name="unic1" unicode="&#xc1;" d="M328 710L346 710L655 0L633 0L522 254L151 254L40 0L18 0L328 710M513 274L337 681L159 274L513 274M323 833L307 845L371 918L405 918L323 833Z"  horiz-adv-x="674" vert-adv-y="1000"  />

      
      <glyph glyph-name="unic2" unicode="&#xc2;" d="M328 710L346 710L655 0L633 0L522 254L151 254L40 0L18 0L328 710M513 274L337 681L159 274L513 274M236 844L329 918L345 918L438 844L422 832L337 895L252 832L236 844Z"  horiz-adv-x="674" vert-adv-y="1000"  />

      
      <glyph glyph-name="unic3" unicode="&#xc3;" d="M328 710L346 710L655 0L633 0L522 254L151 254L40 0L18 0L328 710M513 274L337 681L159 274L513 274M398 851Q376 851 359.50 857Q343 863 329 870Q315 877 301.50 883Q288 889 273 889Q257 889 247 882.50Q237 876 231.50 867.50Q226 859 224 851Q222 843 222 841L202 841Q202 843 204 854Q206 865 213.50 877Q221 889 235.50 898.50Q250 908 275 908Q294 908 309 902Q324 896 338 889Q352 882 366.50 876Q381 870 400 870Q421 870 432.50 877Q444 884 450 892.50Q456 901 457.50 908.50Q459 916 459 918L479 918Q479 915 476.50 904Q474 893 466 881Q458 869 441.50 860Q425 851 398 851Z"  horiz-adv-x="674" vert-adv-y="1000"  />

      
      <glyph glyph-name="unic4" unicode="&#xc4;" d="M328 710L346 710L655 0L633 0L522 254L151 254L40 0L18 0L328 710M513 274L337 681L159 274L513 274M269 841L269 918L289 918L289 841L269 841M385 841L385 918L405 918L405 841L385 841Z"  horiz-adv-x="674" vert-adv-y="1000"  />

      
      <glyph glyph-name="unic5" unicode="&#xc5;" d="M328 710L346 710L655 0L633 0L522 254L151 254L40 0L18 0L328 710M513 274L337 681L159 274L513 274M280 861Q280 885 296.50 901.50Q313 918 337 918Q361 918 377.50 901.50Q394 885 394 861Q394 837 377.50 820.50Q361 804 337 804Q313 804 296.50 820.50Q280 837 280 861M337 902Q320 902 308 891Q296 880 296 861Q296 844 308 832Q320 820 337 820Q352 820 365 831.50Q378 843 378 861Q378 880 366 891Q354 902 337 902Z"  horiz-adv-x="674" vert-adv-y="1000"  />

      
      <glyph glyph-name="unic6" unicode="&#xc6;" d="M439 710L901 710L901 690L464 690L464 373L847 373L847 353L464 353L464 20L910 20L910 0L444 0L444 254L163 254L-4 0L-29 0L439 710M444 274L444 678L175 274L444 274Z"  horiz-adv-x="962" vert-adv-y="1000"  />

      
      <glyph glyph-name="unic7" unicode="&#xc7;" d="M306-125Q321-132 344-137.50Q367-143 393-143Q451-143 451-105Q451-84 437.50-75.50Q424-67 403-67Q382-67 359-72.50Q336-78 322-83L366-5Q295-4 236 28.50Q177 61 134 112.50Q91 164 67.50 228.50Q44 293 44 360Q44 424 66.50 487Q89 550 131.50 600.50Q174 651 236.50 682.50Q299 714 379 714Q474 714 540 670.50Q606 627 638 559L619 553Q598 592 570.50 619Q543 646 510.50 662.50Q478 679 443.50 686.50Q409 694 375 694Q301 694 243 664.50Q185 635 145 587Q105 539 84.50 478.50Q64 418 64 357Q64 289 88.50 227Q113 165 155.50 117.50Q198 70 255 42Q312 14 378 14Q413 14 450 23Q487 32 521.50 50Q556 68 585.50 96.50Q615 125 636 164L655 159Q637 121 608.50 91Q580 61 544.50 40.50Q509 20 469.50 8.50Q430-3 391-5L361-57Q371-53 383-52Q395-51 403-51Q471-51 471-105Q471-135 449.50-148.50Q428-162 390-162Q364-162 339.50-156.50Q315-151 296-143L306-125Z"  horiz-adv-x="693" vert-adv-y="1000"  />

      
      <glyph glyph-name="unic8" unicode="&#xc8;" d="M565 20L565 0L99 0L99 710L556 710L556 690L119 690L119 373L502 373L502 353L119 353L119 20L565 20M276 918L309 918L374 845L358 833L276 918Z"  horiz-adv-x="617" vert-adv-y="1000"  />

      
      <glyph glyph-name="unic9" unicode="&#xc9;" d="M565 20L565 0L99 0L99 710L556 710L556 690L119 690L119 373L502 373L502 353L119 353L119 20L565 20M330 833L314 845L378 918L412 918L330 833Z"  horiz-adv-x="617" vert-adv-y="1000"  />

      
      <glyph glyph-name="unica" unicode="&#xca;" d="M565 20L565 0L99 0L99 710L556 710L556 690L119 690L119 373L502 373L502 353L119 353L119 20L565 20M243 844L336 918L352 918L445 844L429 832L344 895L259 832L243 844Z"  horiz-adv-x="617" vert-adv-y="1000"  />

      
      <glyph glyph-name="unicb" unicode="&#xcb;" d="M565 20L565 0L99 0L99 710L556 710L556 690L119 690L119 373L502 373L502 353L119 353L119 20L565 20M276 841L276 918L296 918L296 841L276 841M392 841L392 918L412 918L412 841L392 841Z"  horiz-adv-x="617" vert-adv-y="1000"  />

      
      <glyph glyph-name="unicc" unicode="&#xcc;" d="M99 0L99 710L119 710L119 0L99 0M41 918L74 918L139 845L123 833L41 918Z"  horiz-adv-x="218" vert-adv-y="1000"  />

      
      <glyph glyph-name="unicd" unicode="&#xcd;" d="M99 0L99 710L119 710L119 0L99 0M95 833L79 845L143 918L177 918L95 833Z"  horiz-adv-x="218" vert-adv-y="1000"  />

      
      <glyph glyph-name="unice" unicode="&#xce;" d="M99 0L99 710L119 710L119 0L99 0M8 844L101 918L117 918L210 844L194 832L109 895L24 832L8 844Z"  horiz-adv-x="218" vert-adv-y="1000"  />

      
      <glyph glyph-name="unicf" unicode="&#xcf;" d="M99 0L99 710L119 710L119 0L99 0M41 841L41 918L61 918L61 841L41 841M157 841L157 918L177 918L177 841L157 841Z"  horiz-adv-x="218" vert-adv-y="1000"  />

      
      <glyph glyph-name="unid0" unicode="&#xd0;" d="M106 0L106 347L35 347L35 367L106 367L106 710L334 710Q418 710 480.50 682Q543 654 584.50 606Q626 558 646.50 493.50Q667 429 667 356Q667 275 643.50 209.50Q620 144 577 97.50Q534 51 472 25.50Q410 0 334 0L106 0M647 356Q647 429 626.50 490Q606 551 566 595.50Q526 640 467.50 665Q409 690 334 690L126 690L126 367L318 367L318 347L126 347L126 20L334 20Q411 20 469.50 45.50Q528 71 567.50 116Q607 161 627 222.50Q647 284 647 356Z"  horiz-adv-x="718" vert-adv-y="1000"  />

      
      <glyph glyph-name="unid1" unicode="&#xd1;" d="M119 671L119 0L99 0L99 710L114 710L657 29L657 710L677 710L677 0L654 0L119 671M454 851Q432 851 415.50 857Q399 863 385 870Q371 877 357.50 883Q344 889 329 889Q313 889 303 882.50Q293 876 287.50 867.50Q282 859 280 851Q278 843 278 841L258 841Q258 843 260 854Q262 865 269.50 877Q277 889 291.50 898.50Q306 908 331 908Q350 908 365 902Q380 896 394 889Q408 882 422.50 876Q437 870 456 870Q477 870 488.50 877Q500 884 506 892.50Q512 901 513.50 908.50Q515 916 515 918L535 918Q535 915 532.50 904Q530 893 522 881Q514 869 497.50 860Q481 851 454 851Z"  horiz-adv-x="776" vert-adv-y="1000"  />

      
      <glyph glyph-name="unid2" unicode="&#xd2;" d="M379-5Q305-5 244.50 26Q184 57 140 107Q96 157 72 222Q48 287 48 355Q48 426 73.50 491Q99 556 143.50 606Q188 656 248.50 685.50Q309 715 379 715Q452 715 513 683.50Q574 652 617.50 601Q661 550 685 485.50Q709 421 709 355Q709 283 683.50 218Q658 153 613.50 103.50Q569 54 509 24.50Q449-5 379-5M68 355Q68 289 91.50 227.50Q115 166 156 118.50Q197 71 254 43Q311 15 379 15Q448 15 505.50 44.50Q563 74 603.50 122Q644 170 666.50 231Q689 292 689 355Q689 421 665.50 482.50Q642 544 600 591.50Q558 639 501.50 667Q445 695 379 695Q310 695 252.50 665.50Q195 636 154 588Q113 540 90.50 479Q68 418 68 355M311 918L344 918L409 845L393 833L311 918Z"  horiz-adv-x="757" vert-adv-y="1000"  />

      
      <glyph glyph-name="unid3" unicode="&#xd3;" d="M379-5Q305-5 244.50 26Q184 57 140 107Q96 157 72 222Q48 287 48 355Q48 426 73.50 491Q99 556 143.50 606Q188 656 248.50 685.50Q309 715 379 715Q452 715 513 683.50Q574 652 617.50 601Q661 550 685 485.50Q709 421 709 355Q709 283 683.50 218Q658 153 613.50 103.50Q569 54 509 24.50Q449-5 379-5M68 355Q68 289 91.50 227.50Q115 166 156 118.50Q197 71 254 43Q311 15 379 15Q448 15 505.50 44.50Q563 74 603.50 122Q644 170 666.50 231Q689 292 689 355Q689 421 665.50 482.50Q642 544 600 591.50Q558 639 501.50 667Q445 695 379 695Q310 695 252.50 665.50Q195 636 154 588Q113 540 90.50 479Q68 418 68 355M365 833L349 845L413 918L447 918L365 833Z"  horiz-adv-x="757" vert-adv-y="1000"  />

      
      <glyph glyph-name="unid4" unicode="&#xd4;" d="M379-5Q305-5 244.50 26Q184 57 140 107Q96 157 72 222Q48 287 48 355Q48 426 73.50 491Q99 556 143.50 606Q188 656 248.50 685.50Q309 715 379 715Q452 715 513 683.50Q574 652 617.50 601Q661 550 685 485.50Q709 421 709 355Q709 283 683.50 218Q658 153 613.50 103.50Q569 54 509 24.50Q449-5 379-5M68 355Q68 289 91.50 227.50Q115 166 156 118.50Q197 71 254 43Q311 15 379 15Q448 15 505.50 44.50Q563 74 603.50 122Q644 170 666.50 231Q689 292 689 355Q689 421 665.50 482.50Q642 544 600 591.50Q558 639 501.50 667Q445 695 379 695Q310 695 252.50 665.50Q195 636 154 588Q113 540 90.50 479Q68 418 68 355M278 844L371 918L387 918L480 844L464 832L379 895L294 832L278 844Z"  horiz-adv-x="757" vert-adv-y="1000"  />

      
      <glyph glyph-name="unid5" unicode="&#xd5;" d="M379-5Q305-5 244.50 26Q184 57 140 107Q96 157 72 222Q48 287 48 355Q48 426 73.50 491Q99 556 143.50 606Q188 656 248.50 685.50Q309 715 379 715Q452 715 513 683.50Q574 652 617.50 601Q661 550 685 485.50Q709 421 709 355Q709 283 683.50 218Q658 153 613.50 103.50Q569 54 509 24.50Q449-5 379-5M68 355Q68 289 91.50 227.50Q115 166 156 118.50Q197 71 254 43Q311 15 379 15Q448 15 505.50 44.50Q563 74 603.50 122Q644 170 666.50 231Q689 292 689 355Q689 421 665.50 482.50Q642 544 600 591.50Q558 639 501.50 667Q445 695 379 695Q310 695 252.50 665.50Q195 636 154 588Q113 540 90.50 479Q68 418 68 355M440 851Q418 851 401.50 857Q385 863 371 870Q357 877 343.50 883Q330 889 315 889Q299 889 289 882.50Q279 876 273.50 867.50Q268 859 266 851Q264 843 264 841L244 841Q244 843 246 854Q248 865 255.50 877Q263 889 277.50 898.50Q292 908 317 908Q336 908 351 902Q366 896 380 889Q394 882 408.50 876Q423 870 442 870Q463 870 474.50 877Q486 884 492 892.50Q498 901 499.50 908.50Q501 916 501 918L521 918Q521 915 518.50 904Q516 893 508 881Q500 869 483.50 860Q467 851 440 851Z"  horiz-adv-x="757" vert-adv-y="1000"  />

      
      <glyph glyph-name="unid6" unicode="&#xd6;" d="M379-5Q305-5 244.50 26Q184 57 140 107Q96 157 72 222Q48 287 48 355Q48 426 73.50 491Q99 556 143.50 606Q188 656 248.50 685.50Q309 715 379 715Q452 715 513 683.50Q574 652 617.50 601Q661 550 685 485.50Q709 421 709 355Q709 283 683.50 218Q658 153 613.50 103.50Q569 54 509 24.50Q449-5 379-5M68 355Q68 289 91.50 227.50Q115 166 156 118.50Q197 71 254 43Q311 15 379 15Q448 15 505.50 44.50Q563 74 603.50 122Q644 170 666.50 231Q689 292 689 355Q689 421 665.50 482.50Q642 544 600 591.50Q558 639 501.50 667Q445 695 379 695Q310 695 252.50 665.50Q195 636 154 588Q113 540 90.50 479Q68 418 68 355M311 841L311 918L331 918L331 841L311 841M427 841L427 918L447 918L447 841L427 841Z"  horiz-adv-x="757" vert-adv-y="1000"  />

      
      <glyph glyph-name="unid7" unicode="&#xd7;" d="M370 135L355 121L220 256L85 121L71 136L205 270L70 406L85 420L220 285L356 421L370 406L234 270L370 135Z"  horiz-adv-x="440" vert-adv-y="1000"  />

      
      <glyph glyph-name="unid8" unicode="&#xd8;" d="M619 710L576 642Q607 616 631.50 583Q656 550 673.50 513Q691 476 700 435.50Q709 395 709 355Q709 283 683.50 218Q658 153 613.50 103.50Q569 54 509 24.50Q449-5 379-5Q327-4 281.50 11.50Q236 27 198 54L163 0L138 0L181 67Q118 118 83 194.50Q48 271 48 355Q48 426 73.50 491Q99 556 143.50 606Q188 656 248.50 685.50Q309 715 379 715Q430 715 475 699.50Q520 684 558 656L593 710L619 710M689 355Q689 434 655.50 505.50Q622 577 565 625L208 71Q244 45 287 30Q330 15 379 15Q448 15 505.50 44.50Q563 74 603.50 122Q644 170 666.50 231Q689 292 689 355M68 355Q68 275 101 203.50Q134 132 191 84L547 639Q511 665 469 680Q427 695 379 695Q310 695 252.50 665.50Q195 636 154 588Q113 540 90.50 479Q68 418 68 355Z"  horiz-adv-x="757" vert-adv-y="1000"  />

      
      <glyph glyph-name="unid9" unicode="&#xd9;" d="M378 15Q458 15 510.50 45Q563 75 593.50 123Q624 171 636.50 232Q649 293 649 355L649 710L669 710L669 355Q669 284 654.50 219Q640 154 606 104.50Q572 55 516.50 25Q461-5 379-5Q295-5 239 26Q183 57 149.50 108Q116 159 102 223.50Q88 288 88 355L88 710L108 710L108 355Q108 291 120.50 230Q133 169 164 121Q195 73 247 44Q299 15 378 15M311 918L344 918L409 845L393 833L311 918Z"  horiz-adv-x="756" vert-adv-y="1000"  />

      
      <glyph glyph-name="unida" unicode="&#xda;" d="M378 15Q458 15 510.50 45Q563 75 593.50 123Q624 171 636.50 232Q649 293 649 355L649 710L669 710L669 355Q669 284 654.50 219Q640 154 606 104.50Q572 55 516.50 25Q461-5 379-5Q295-5 239 26Q183 57 149.50 108Q116 159 102 223.50Q88 288 88 355L88 710L108 710L108 355Q108 291 120.50 230Q133 169 164 121Q195 73 247 44Q299 15 378 15M365 833L349 845L413 918L447 918L365 833Z"  horiz-adv-x="756" vert-adv-y="1000"  />

      
      <glyph glyph-name="unidb" unicode="&#xdb;" d="M378 15Q458 15 510.50 45Q563 75 593.50 123Q624 171 636.50 232Q649 293 649 355L649 710L669 710L669 355Q669 284 654.50 219Q640 154 606 104.50Q572 55 516.50 25Q461-5 379-5Q295-5 239 26Q183 57 149.50 108Q116 159 102 223.50Q88 288 88 355L88 710L108 710L108 355Q108 291 120.50 230Q133 169 164 121Q195 73 247 44Q299 15 378 15M278 844L371 918L387 918L480 844L464 832L379 895L294 832L278 844Z"  horiz-adv-x="756" vert-adv-y="1000"  />

      
      <glyph glyph-name="unidc" unicode="&#xdc;" d="M378 15Q458 15 510.50 45Q563 75 593.50 123Q624 171 636.50 232Q649 293 649 355L649 710L669 710L669 355Q669 284 654.50 219Q640 154 606 104.50Q572 55 516.50 25Q461-5 379-5Q295-5 239 26Q183 57 149.50 108Q116 159 102 223.50Q88 288 88 355L88 710L108 710L108 355Q108 291 120.50 230Q133 169 164 121Q195 73 247 44Q299 15 378 15M311 841L311 918L331 918L331 841L311 841M427 841L427 918L447 918L447 841L427 841Z"  horiz-adv-x="756" vert-adv-y="1000"  />

      
      <glyph glyph-name="unidd" unicode="&#xdd;" d="M46 710L320 298L595 710L618 710L330 275L330 0L310 0L310 277L23 710L46 710M306 833L290 845L354 918L388 918L306 833Z"  horiz-adv-x="641" vert-adv-y="1000"  />

      
      <glyph glyph-name="unide" unicode="&#xde;" d="M368 560Q411 560 448 541.50Q485 523 511.50 492.50Q538 462 553 423.50Q568 385 568 345Q568 303 554 264Q540 225 514.50 195Q489 165 453.50 147Q418 129 375 129L119 129L119 0L99 0L99 710L119 710L119 560L368 560M375 149Q415 149 447.50 166Q480 183 502 211Q524 239 536 274Q548 309 548 345Q548 383 534 418Q520 453 495.50 480Q471 507 438 523.50Q405 540 368 540L119 540L119 149L375 149Z"  horiz-adv-x="599" vert-adv-y="1000"  />

      
      <glyph glyph-name="unidf" unicode="&#xdf;" d="M230 13Q351 15 415.50 64Q480 113 480 202Q480 245 465 280Q450 315 423 340Q396 365 358.50 379Q321 393 275 393L258 393L258 413L274 413Q307 413 335 423.50Q363 434 384 453Q405 472 416.50 497Q428 522 428 552Q428 582 415.50 608Q403 634 381.50 653Q360 672 330.50 683Q301 694 267 694Q192 694 148 644Q104 594 104 509L104 0L84 0L84 509Q84 555 97.50 593Q111 631 135 658Q159 685 193 699.50Q227 714 268 714Q306 714 339 702Q372 690 396 669Q420 648 434 619Q448 590 448 557Q448 530 438.50 504.50Q429 479 413 458Q397 437 375 423Q353 409 328 404Q411 387 455.50 334.50Q500 282 500 203Q500 106 431 52.50Q362-1 230-6L230 13Z"  horiz-adv-x="546" vert-adv-y="1000"  />

      
      <glyph glyph-name="unie0" unicode="&#xe0;" d="M207-10Q172-10 141 2.50Q110 15 87.50 36.50Q65 58 52 87Q39 116 39 149Q39 182 54.50 209Q70 236 98.50 255.50Q127 275 166.50 286Q206 297 253 297Q298 297 344 289.50Q390 282 427 268L427 327Q427 367 415 400.50Q403 434 380.50 457.50Q358 481 326.50 494Q295 507 257 507Q219 507 176 490.50Q133 474 89 443L77 459Q177 527 257 527Q300 527 335.50 513Q371 499 395.50 473Q420 447 433.50 410Q447 373 447 327L447 40Q447 20 463 20L463 0Q452 0 449 2Q439 6 433 16.50Q427 27 427 40L427 88Q391 41 333 15.50Q275-10 207-10M207 10Q274 10 329.50 35Q385 60 412 102Q427 123 427 143L427 246Q347 277 253 277Q209 277 173.50 268Q138 259 112.50 242Q87 225 73 201.50Q59 178 59 149Q59 120 70.50 94.50Q82 69 102 50Q122 31 149 20.50Q176 10 207 10M189 730L222 730L287 657L271 645L189 730Z"  horiz-adv-x="524" vert-adv-y="1000"  />

      
      <glyph glyph-name="unie1" unicode="&#xe1;" d="M207-10Q172-10 141 2.50Q110 15 87.50 36.50Q65 58 52 87Q39 116 39 149Q39 182 54.50 209Q70 236 98.50 255.50Q127 275 166.50 286Q206 297 253 297Q298 297 344 289.50Q390 282 427 268L427 327Q427 367 415 400.50Q403 434 380.50 457.50Q358 481 326.50 494Q295 507 257 507Q219 507 176 490.50Q133 474 89 443L77 459Q177 527 257 527Q300 527 335.50 513Q371 499 395.50 473Q420 447 433.50 410Q447 373 447 327L447 40Q447 20 463 20L463 0Q452 0 449 2Q439 6 433 16.50Q427 27 427 40L427 88Q391 41 333 15.50Q275-10 207-10M207 10Q274 10 329.50 35Q385 60 412 102Q427 123 427 143L427 246Q347 277 253 277Q209 277 173.50 268Q138 259 112.50 242Q87 225 73 201.50Q59 178 59 149Q59 120 70.50 94.50Q82 69 102 50Q122 31 149 20.50Q176 10 207 10M243 645L227 657L291 730L325 730L243 645Z"  horiz-adv-x="524" vert-adv-y="1000"  />

      
      <glyph glyph-name="unie2" unicode="&#xe2;" d="M207-10Q172-10 141 2.50Q110 15 87.50 36.50Q65 58 52 87Q39 116 39 149Q39 182 54.50 209Q70 236 98.50 255.50Q127 275 166.50 286Q206 297 253 297Q298 297 344 289.50Q390 282 427 268L427 327Q427 367 415 400.50Q403 434 380.50 457.50Q358 481 326.50 494Q295 507 257 507Q219 507 176 490.50Q133 474 89 443L77 459Q177 527 257 527Q300 527 335.50 513Q371 499 395.50 473Q420 447 433.50 410Q447 373 447 327L447 40Q447 20 463 20L463 0Q452 0 449 2Q439 6 433 16.50Q427 27 427 40L427 88Q391 41 333 15.50Q275-10 207-10M207 10Q274 10 329.50 35Q385 60 412 102Q427 123 427 143L427 246Q347 277 253 277Q209 277 173.50 268Q138 259 112.50 242Q87 225 73 201.50Q59 178 59 149Q59 120 70.50 94.50Q82 69 102 50Q122 31 149 20.50Q176 10 207 10M156 656L249 730L265 730L358 656L342 644L257 707L172 644L156 656Z"  horiz-adv-x="524" vert-adv-y="1000"  />

      
      <glyph glyph-name="unie3" unicode="&#xe3;" d="M207-10Q172-10 141 2.50Q110 15 87.50 36.50Q65 58 52 87Q39 116 39 149Q39 182 54.50 209Q70 236 98.50 255.50Q127 275 166.50 286Q206 297 253 297Q298 297 344 289.50Q390 282 427 268L427 327Q427 367 415 400.50Q403 434 380.50 457.50Q358 481 326.50 494Q295 507 257 507Q219 507 176 490.50Q133 474 89 443L77 459Q177 527 257 527Q300 527 335.50 513Q371 499 395.50 473Q420 447 433.50 410Q447 373 447 327L447 40Q447 20 463 20L463 0Q452 0 449 2Q439 6 433 16.50Q427 27 427 40L427 88Q391 41 333 15.50Q275-10 207-10M207 10Q274 10 329.50 35Q385 60 412 102Q427 123 427 143L427 246Q347 277 253 277Q209 277 173.50 268Q138 259 112.50 242Q87 225 73 201.50Q59 178 59 149Q59 120 70.50 94.50Q82 69 102 50Q122 31 149 20.50Q176 10 207 10M318 663Q296 663 279.50 669Q263 675 249 682Q235 689 221.50 695Q208 701 193 701Q177 701 167 694.50Q157 688 151.50 679.50Q146 671 144 663Q142 655 142 653L122 653Q122 655 124 666Q126 677 133.50 689Q141 701 155.50 710.50Q170 720 195 720Q214 720 229 714Q244 708 258 701Q272 694 286.50 688Q301 682 320 682Q341 682 352.50 689Q364 696 370 704.50Q376 713 377.50 720.50Q379 728 379 730L399 730Q399 727 396.50 716Q394 705 386 693Q378 681 361.50 672Q345 663 318 663Z"  horiz-adv-x="524" vert-adv-y="1000"  />

      
      <glyph glyph-name="unie4" unicode="&#xe4;" d="M207-10Q172-10 141 2.50Q110 15 87.50 36.50Q65 58 52 87Q39 116 39 149Q39 182 54.50 209Q70 236 98.50 255.50Q127 275 166.50 286Q206 297 253 297Q298 297 344 289.50Q390 282 427 268L427 327Q427 367 415 400.50Q403 434 380.50 457.50Q358 481 326.50 494Q295 507 257 507Q219 507 176 490.50Q133 474 89 443L77 459Q177 527 257 527Q300 527 335.50 513Q371 499 395.50 473Q420 447 433.50 410Q447 373 447 327L447 40Q447 20 463 20L463 0Q452 0 449 2Q439 6 433 16.50Q427 27 427 40L427 88Q391 41 333 15.50Q275-10 207-10M207 10Q274 10 329.50 35Q385 60 412 102Q427 123 427 143L427 246Q347 277 253 277Q209 277 173.50 268Q138 259 112.50 242Q87 225 73 201.50Q59 178 59 149Q59 120 70.50 94.50Q82 69 102 50Q122 31 149 20.50Q176 10 207 10M189 653L189 730L209 730L209 653L189 653M305 653L305 730L325 730L325 653L305 653Z"  horiz-adv-x="524" vert-adv-y="1000"  />

      
      <glyph glyph-name="unie5" unicode="&#xe5;" d="M207-10Q172-10 141 2.50Q110 15 87.50 36.50Q65 58 52 87Q39 116 39 149Q39 182 54.50 209Q70 236 98.50 255.50Q127 275 166.50 286Q206 297 253 297Q298 297 344 289.50Q390 282 427 268L427 327Q427 367 415 400.50Q403 434 380.50 457.50Q358 481 326.50 494Q295 507 257 507Q219 507 176 490.50Q133 474 89 443L77 459Q177 527 257 527Q300 527 335.50 513Q371 499 395.50 473Q420 447 433.50 410Q447 373 447 327L447 40Q447 20 463 20L463 0Q452 0 449 2Q439 6 433 16.50Q427 27 427 40L427 88Q391 41 333 15.50Q275-10 207-10M207 10Q274 10 329.50 35Q385 60 412 102Q427 123 427 143L427 246Q347 277 253 277Q209 277 173.50 268Q138 259 112.50 242Q87 225 73 201.50Q59 178 59 149Q59 120 70.50 94.50Q82 69 102 50Q122 31 149 20.50Q176 10 207 10M200 673Q200 697 216.50 713.50Q233 730 257 730Q281 730 297.50 713.50Q314 697 314 673Q314 649 297.50 632.50Q281 616 257 616Q233 616 216.50 632.50Q200 649 200 673M257 714Q240 714 228 703Q216 692 216 673Q216 656 228 644Q240 632 257 632Q272 632 285 643.50Q298 655 298 673Q298 692 286 703Q274 714 257 714Z"  horiz-adv-x="524" vert-adv-y="1000"  />

      
      <glyph glyph-name="unie6" unicode="&#xe6;" d="M207-10Q172-10 141 2.50Q110 15 87.50 36.50Q65 58 52 87Q39 116 39 149Q39 182 54.50 209Q70 236 98.50 255.50Q127 275 166.50 286Q206 297 253 297Q289 297 327 291.50Q365 286 398 277Q401 328 421 376Q408 436 364.50 471.50Q321 507 257 507Q219 507 176 490.50Q133 474 89 443L77 459Q177 527 257 527Q324 527 370 494.50Q416 462 435 403Q467 459 522 493Q577 527 643 527Q695 527 740.50 506Q786 485 819.50 449Q853 413 873 364Q893 315 893 259L893 248L418 248Q422 198 441.50 154.50Q461 111 492 79Q523 47 563.50 28.50Q604 10 649 10Q679 10 707.50 18Q736 26 761 40.50Q786 55 805 75Q824 95 835 119L854 114Q843 87 822.50 64.50Q802 42 774.50 25.50Q747 9 714.50-0.50Q682-10 648-10Q583-10 529 23Q475 56 441 111Q425 79 398.50 56Q372 33 340 18.50Q308 4 273.50-3Q239-10 207-10M207 10Q274 10 329.50 35Q385 60 412 102Q424 120 427 137Q399 192 398 256Q329 277 253 277Q209 277 173.50 268Q138 259 112.50 242Q87 225 73 201.50Q59 178 59 149Q59 120 70.50 94.50Q82 69 102 50Q122 31 149 20.50Q176 10 207 10M872 268Q869 320 850 364Q831 408 800.50 439.50Q770 471 730 489Q690 507 644 507Q598 507 558 489Q518 471 487.50 439Q457 407 439 363Q421 319 418 268L872 268Z"  horiz-adv-x="928" vert-adv-y="1000"  />

      
      <glyph glyph-name="unie7" unicode="&#xe7;" d="M46 262Q46 318 65 366.50Q84 415 118 450.50Q152 486 197.50 506.50Q243 527 296 527Q362 527 413.50 496.50Q465 466 491 411L471 404Q445 452 397.50 479.50Q350 507 293 507Q245 507 204 488Q163 469 132 436Q101 403 83.50 358Q66 313 66 262Q66 211 84 165Q102 119 133.50 84.50Q165 50 206 30Q247 10 294 10Q324 10 354.50 19Q385 28 410.50 43Q436 58 454 78Q472 98 478 119L498 113Q489 87 470 65Q451 43 425 26.50Q399 10 367.50 0.50Q336-9 303-10L276-57Q286-53 298-52Q310-51 318-51Q386-51 386-105Q386-135 364.50-148.50Q343-162 305-162Q279-162 254.50-156.50Q230-151 211-143L221-125Q236-132 259-137.50Q282-143 308-143Q366-143 366-105Q366-84 352.50-75.50Q339-67 318-67Q297-67 274-72.50Q251-78 237-83L279-9Q231-6 188.50 17Q146 40 114.50 76.50Q83 113 64.50 160.50Q46 208 46 262Z"  horiz-adv-x="538" vert-adv-y="1000"  />

      
      <glyph glyph-name="unie8" unicode="&#xe8;" d="M296-10Q245-10 199.50 11.50Q154 33 120 70.50Q86 108 66 157.50Q46 207 46 263Q46 318 65 366Q84 414 117.50 450Q151 486 195.50 506.50Q240 527 291 527Q343 527 388.50 506Q434 485 467.50 449Q501 413 521 364Q541 315 541 259L541 248L66 248Q70 198 89.50 154.50Q109 111 140 79Q171 47 211.50 28.50Q252 10 297 10Q327 10 355.50 18Q384 26 409 40.50Q434 55 453 75Q472 95 483 119L502 114Q491 87 470.50 64.50Q450 42 422.50 25.50Q395 9 362.50-0.50Q330-10 296-10M520 268Q517 320 498 364Q479 408 448.50 439.50Q418 471 378 489Q338 507 292 507Q246 507 206 489Q166 471 135.50 439Q105 407 87 363Q69 319 66 268L520 268M224 730L257 730L322 657L306 645L224 730Z"  horiz-adv-x="576" vert-adv-y="1000"  />

      
      <glyph glyph-name="unie9" unicode="&#xe9;" d="M296-10Q245-10 199.50 11.50Q154 33 120 70.50Q86 108 66 157.50Q46 207 46 263Q46 318 65 366Q84 414 117.50 450Q151 486 195.50 506.50Q240 527 291 527Q343 527 388.50 506Q434 485 467.50 449Q501 413 521 364Q541 315 541 259L541 248L66 248Q70 198 89.50 154.50Q109 111 140 79Q171 47 211.50 28.50Q252 10 297 10Q327 10 355.50 18Q384 26 409 40.50Q434 55 453 75Q472 95 483 119L502 114Q491 87 470.50 64.50Q450 42 422.50 25.50Q395 9 362.50-0.50Q330-10 296-10M520 268Q517 320 498 364Q479 408 448.50 439.50Q418 471 378 489Q338 507 292 507Q246 507 206 489Q166 471 135.50 439Q105 407 87 363Q69 319 66 268L520 268M278 645L262 657L326 730L360 730L278 645Z"  horiz-adv-x="576" vert-adv-y="1000"  />

      
      <glyph glyph-name="uniea" unicode="&#xea;" d="M296-10Q245-10 199.50 11.50Q154 33 120 70.50Q86 108 66 157.50Q46 207 46 263Q46 318 65 366Q84 414 117.50 450Q151 486 195.50 506.50Q240 527 291 527Q343 527 388.50 506Q434 485 467.50 449Q501 413 521 364Q541 315 541 259L541 248L66 248Q70 198 89.50 154.50Q109 111 140 79Q171 47 211.50 28.50Q252 10 297 10Q327 10 355.50 18Q384 26 409 40.50Q434 55 453 75Q472 95 483 119L502 114Q491 87 470.50 64.50Q450 42 422.50 25.50Q395 9 362.50-0.50Q330-10 296-10M520 268Q517 320 498 364Q479 408 448.50 439.50Q418 471 378 489Q338 507 292 507Q246 507 206 489Q166 471 135.50 439Q105 407 87 363Q69 319 66 268L520 268M191 656L284 730L300 730L393 656L377 644L292 707L207 644L191 656Z"  horiz-adv-x="576" vert-adv-y="1000"  />

      
      <glyph glyph-name="unieb" unicode="&#xeb;" d="M296-10Q245-10 199.50 11.50Q154 33 120 70.50Q86 108 66 157.50Q46 207 46 263Q46 318 65 366Q84 414 117.50 450Q151 486 195.50 506.50Q240 527 291 527Q343 527 388.50 506Q434 485 467.50 449Q501 413 521 364Q541 315 541 259L541 248L66 248Q70 198 89.50 154.50Q109 111 140 79Q171 47 211.50 28.50Q252 10 297 10Q327 10 355.50 18Q384 26 409 40.50Q434 55 453 75Q472 95 483 119L502 114Q491 87 470.50 64.50Q450 42 422.50 25.50Q395 9 362.50-0.50Q330-10 296-10M520 268Q517 320 498 364Q479 408 448.50 439.50Q418 471 378 489Q338 507 292 507Q246 507 206 489Q166 471 135.50 439Q105 407 87 363Q69 319 66 268L520 268M224 653L224 730L244 730L244 653L224 653M340 653L340 730L360 730L360 653L340 653Z"  horiz-adv-x="576" vert-adv-y="1000"  />

      
      <glyph glyph-name="uniec" unicode="&#xec;" d="M84 0L84 519L104 519L104 0L84 0M26 730L59 730L124 657L108 645L26 730Z"  horiz-adv-x="188" vert-adv-y="1000"  />

      
      <glyph glyph-name="unied" unicode="&#xed;" d="M84 0L84 519L104 519L104 0L84 0M80 645L64 657L128 730L162 730L80 645Z"  horiz-adv-x="188" vert-adv-y="1000"  />

      
      <glyph glyph-name="uniee" unicode="&#xee;" d="M84 0L84 519L104 519L104 0L84 0M-7 656L86 730L102 730L195 656L179 644L94 707L9 644L-7 656Z"  horiz-adv-x="188" vert-adv-y="1000"  />

      
      <glyph glyph-name="unief" unicode="&#xef;" d="M84 0L84 519L104 519L104 0L84 0M26 653L26 730L46 730L46 653L26 653M142 653L142 730L162 730L162 653L142 653Z"  horiz-adv-x="188" vert-adv-y="1000"  />

      
      <glyph glyph-name="unif0" unicode="&#xf0;" d="M471 699L378 638Q432 591 464 543.50Q496 496 513.50 447Q531 398 536.50 348Q542 298 542 246Q542 194 522.50 147.50Q503 101 469.50 66Q436 31 391 10.50Q346-10 295-10Q244-10 199 9.50Q154 29 120.50 62Q87 95 67.50 139Q48 183 48 232Q48 281 67.50 325.50Q87 370 121 403Q155 436 200 455.50Q245 475 295 475Q334 475 369.50 464.50Q405 454 434.50 434.50Q464 415 486.50 388.50Q509 362 522 330Q518 366 509.50 402.50Q501 439 483 476.50Q465 514 436 552Q407 590 364 629L240 547L230 561L350 640Q296 686 220 730L249 730Q315 691 364 649L461 713L471 699M68 230Q68 185 86 145Q104 105 134.50 75Q165 45 206 27.50Q247 10 294 10Q340 10 381.50 29Q423 48 454.50 80.50Q486 113 504 156Q522 199 522 247Q522 289 504 327Q486 365 455 393.50Q424 422 382.50 438.50Q341 455 295 455Q249 455 207.50 437Q166 419 135 388Q104 357 86 316.50Q68 276 68 230Z"  horiz-adv-x="593" vert-adv-y="1000"  />

      
      <glyph glyph-name="unif1" unicode="&#xf1;" d="M487 0L467 0L467 289Q467 403 435.50 455Q404 507 334 507Q296 507 259.50 493.50Q223 480 192 456Q161 432 138 399Q115 366 104 328L104 0L84 0L84 519L104 519L104 385Q120 416 145 442.50Q170 469 200 487.50Q230 506 264 516.50Q298 527 333 527Q413 527 450 469.50Q487 412 487 289L487 0M341 663Q319 663 302.50 669Q286 675 272 682Q258 689 244.50 695Q231 701 216 701Q200 701 190 694.50Q180 688 174.50 679.50Q169 671 167 663Q165 655 165 653L145 653Q145 655 147 666Q149 677 156.50 689Q164 701 178.50 710.50Q193 720 218 720Q237 720 252 714Q267 708 281 701Q295 694 309.50 688Q324 682 343 682Q364 682 375.50 689Q387 696 393 704.50Q399 713 400.50 720.50Q402 728 402 730L422 730Q422 727 419.50 716Q417 705 409 693Q401 681 384.50 672Q368 663 341 663Z"  horiz-adv-x="565" vert-adv-y="1000"  />

      
      <glyph glyph-name="unif2" unicode="&#xf2;" d="M293-10Q242-10 197 11.50Q152 33 118.50 69.50Q85 106 65.50 155Q46 204 46 258Q46 313 65.50 361.50Q85 410 119 447Q153 484 198 505.50Q243 527 293 527Q343 527 388 505.50Q433 484 466.50 447Q500 410 520 361.50Q540 313 540 258Q540 204 520.50 155Q501 106 467.50 69.50Q434 33 389 11.50Q344-10 293-10M66 256Q66 206 84 161Q102 116 132.50 82.50Q163 49 204 29.50Q245 10 292 10Q338 10 379.50 30Q421 50 452.50 84Q484 118 502 163Q520 208 520 259Q520 309 502 354Q484 399 453 433Q422 467 380.50 487Q339 507 293 507Q247 507 205.50 487Q164 467 133 432.50Q102 398 84 352.50Q66 307 66 256M225 730L258 730L323 657L307 645L225 730Z"  horiz-adv-x="586" vert-adv-y="1000"  />

      
      <glyph glyph-name="unif3" unicode="&#xf3;" d="M293-10Q242-10 197 11.50Q152 33 118.50 69.50Q85 106 65.50 155Q46 204 46 258Q46 313 65.50 361.50Q85 410 119 447Q153 484 198 505.50Q243 527 293 527Q343 527 388 505.50Q433 484 466.50 447Q500 410 520 361.50Q540 313 540 258Q540 204 520.50 155Q501 106 467.50 69.50Q434 33 389 11.50Q344-10 293-10M66 256Q66 206 84 161Q102 116 132.50 82.50Q163 49 204 29.50Q245 10 292 10Q338 10 379.50 30Q421 50 452.50 84Q484 118 502 163Q520 208 520 259Q520 309 502 354Q484 399 453 433Q422 467 380.50 487Q339 507 293 507Q247 507 205.50 487Q164 467 133 432.50Q102 398 84 352.50Q66 307 66 256M279 645L263 657L327 730L361 730L279 645Z"  horiz-adv-x="586" vert-adv-y="1000"  />

      
      <glyph glyph-name="unif4" unicode="&#xf4;" d="M293-10Q242-10 197 11.50Q152 33 118.50 69.50Q85 106 65.50 155Q46 204 46 258Q46 313 65.50 361.50Q85 410 119 447Q153 484 198 505.50Q243 527 293 527Q343 527 388 505.50Q433 484 466.50 447Q500 410 520 361.50Q540 313 540 258Q540 204 520.50 155Q501 106 467.50 69.50Q434 33 389 11.50Q344-10 293-10M66 256Q66 206 84 161Q102 116 132.50 82.50Q163 49 204 29.50Q245 10 292 10Q338 10 379.50 30Q421 50 452.50 84Q484 118 502 163Q520 208 520 259Q520 309 502 354Q484 399 453 433Q422 467 380.50 487Q339 507 293 507Q247 507 205.50 487Q164 467 133 432.50Q102 398 84 352.50Q66 307 66 256M192 656L285 730L301 730L394 656L378 644L293 707L208 644L192 656Z"  horiz-adv-x="586" vert-adv-y="1000"  />

      
      <glyph glyph-name="unif5" unicode="&#xf5;" d="M293-10Q242-10 197 11.50Q152 33 118.50 69.50Q85 106 65.50 155Q46 204 46 258Q46 313 65.50 361.50Q85 410 119 447Q153 484 198 505.50Q243 527 293 527Q343 527 388 505.50Q433 484 466.50 447Q500 410 520 361.50Q540 313 540 258Q540 204 520.50 155Q501 106 467.50 69.50Q434 33 389 11.50Q344-10 293-10M66 256Q66 206 84 161Q102 116 132.50 82.50Q163 49 204 29.50Q245 10 292 10Q338 10 379.50 30Q421 50 452.50 84Q484 118 502 163Q520 208 520 259Q520 309 502 354Q484 399 453 433Q422 467 380.50 487Q339 507 293 507Q247 507 205.50 487Q164 467 133 432.50Q102 398 84 352.50Q66 307 66 256M354 663Q332 663 315.50 669Q299 675 285 682Q271 689 257.50 695Q244 701 229 701Q213 701 203 694.50Q193 688 187.50 679.50Q182 671 180 663Q178 655 178 653L158 653Q158 655 160 666Q162 677 169.50 689Q177 701 191.50 710.50Q206 720 231 720Q250 720 265 714Q280 708 294 701Q308 694 322.50 688Q337 682 356 682Q377 682 388.50 689Q400 696 406 704.50Q412 713 413.50 720.50Q415 728 415 730L435 730Q435 727 432.50 716Q430 705 422 693Q414 681 397.50 672Q381 663 354 663Z"  horiz-adv-x="586" vert-adv-y="1000"  />

      
      <glyph glyph-name="unif6" unicode="&#xf6;" d="M293-10Q242-10 197 11.50Q152 33 118.50 69.50Q85 106 65.50 155Q46 204 46 258Q46 313 65.50 361.50Q85 410 119 447Q153 484 198 505.50Q243 527 293 527Q343 527 388 505.50Q433 484 466.50 447Q500 410 520 361.50Q540 313 540 258Q540 204 520.50 155Q501 106 467.50 69.50Q434 33 389 11.50Q344-10 293-10M66 256Q66 206 84 161Q102 116 132.50 82.50Q163 49 204 29.50Q245 10 292 10Q338 10 379.50 30Q421 50 452.50 84Q484 118 502 163Q520 208 520 259Q520 309 502 354Q484 399 453 433Q422 467 380.50 487Q339 507 293 507Q247 507 205.50 487Q164 467 133 432.50Q102 398 84 352.50Q66 307 66 256M225 653L225 730L245 730L245 653L225 653M341 653L341 730L361 730L361 653L341 653Z"  horiz-adv-x="586" vert-adv-y="1000"  />

      
      <glyph glyph-name="unif7" unicode="&#xf7;" d="M263 385L263 449L283 449L283 385L263 385M263 92L263 156L283 156L283 92L263 92M72 261L72 281L475 281L475 261L72 261Z"  horiz-adv-x="546" vert-adv-y="1000"  />

      
      <glyph glyph-name="unif8" unicode="&#xf8;" d="M123 0L148 41Q101 79 73.50 135.50Q46 192 46 258Q46 313 65.50 361.50Q85 410 119 447Q153 484 198 505.50Q243 527 293 527Q328 527 360 516.50Q392 506 420 487L440 519L466 519L438 474Q484 436 512 380Q540 324 540 258Q540 204 520.50 155Q501 106 467.50 69.50Q434 33 389 11.50Q344-10 293-10Q258-10 225.50 0Q193 10 165 29L148 0L123 0M66 256Q66 196 91 144Q116 92 158 58L410 470Q384 487 354.50 497Q325 507 293 507Q247 507 205.50 487Q164 467 133 432.50Q102 398 84 352.50Q66 307 66 256M292 10Q338 10 379.50 30Q421 50 452.50 84Q484 118 502 163Q520 208 520 259Q520 319 495 370Q470 421 428 456L176 46Q229 10 292 10Z"  horiz-adv-x="586" vert-adv-y="1000"  />

      
      <glyph glyph-name="unif9" unicode="&#xf9;" d="M245-10Q78-10 78 228L78 519L98 519L98 228Q98 10 245 10Q282 10 318 23.50Q354 37 384 60.50Q414 84 436.50 117Q459 150 471 189L471 519L491 519L491 40Q491 20 507 20L507 0Q496 0 493 2Q483 6 477 16.50Q471 27 471 40L471 132Q437 66 376 28Q315-10 245-10M214 730L247 730L312 657L296 645L214 730Z"  horiz-adv-x="576" vert-adv-y="1000"  />

      
      <glyph glyph-name="unifa" unicode="&#xfa;" d="M245-10Q78-10 78 228L78 519L98 519L98 228Q98 10 245 10Q282 10 318 23.50Q354 37 384 60.50Q414 84 436.50 117Q459 150 471 189L471 519L491 519L491 40Q491 20 507 20L507 0Q496 0 493 2Q483 6 477 16.50Q471 27 471 40L471 132Q437 66 376 28Q315-10 245-10M268 645L252 657L316 730L350 730L268 645Z"  horiz-adv-x="576" vert-adv-y="1000"  />

      
      <glyph glyph-name="unifb" unicode="&#xfb;" d="M245-10Q78-10 78 228L78 519L98 519L98 228Q98 10 245 10Q282 10 318 23.50Q354 37 384 60.50Q414 84 436.50 117Q459 150 471 189L471 519L491 519L491 40Q491 20 507 20L507 0Q496 0 493 2Q483 6 477 16.50Q471 27 471 40L471 132Q437 66 376 28Q315-10 245-10M181 656L274 730L290 730L383 656L367 644L282 707L197 644L181 656Z"  horiz-adv-x="576" vert-adv-y="1000"  />

      
      <glyph glyph-name="unifc" unicode="&#xfc;" d="M245-10Q78-10 78 228L78 519L98 519L98 228Q98 10 245 10Q282 10 318 23.50Q354 37 384 60.50Q414 84 436.50 117Q459 150 471 189L471 519L491 519L491 40Q491 20 507 20L507 0Q496 0 493 2Q483 6 477 16.50Q471 27 471 40L471 132Q437 66 376 28Q315-10 245-10M214 653L214 730L234 730L234 653L214 653M330 653L330 730L350 730L350 653L330 653Z"  horiz-adv-x="576" vert-adv-y="1000"  />

      
      <glyph glyph-name="unifd" unicode="&#xfd;" d="M128-203Q145-203 157.50-201.50Q170-200 175-193Q178-190 182-181.50Q186-173 195-152.50Q204-132 220-95.50Q236-59 262 0L21 519L43 519L272 25L489 519L511 519L202-186Q190-212 169-218Q149-223 128-223L128-203M258 645L242 657L306 730L340 730L258 645Z"  horiz-adv-x="536" vert-adv-y="1000"  />

      
      <glyph glyph-name="unife" unicode="&#xfe;" d="M557 258Q555 205 536 156.50Q517 108 483.50 71Q450 34 405 12Q360-10 307-10Q276-10 246.50-1Q217 8 190.50 24Q164 40 141.50 61.50Q119 83 104 108L104-213L84-213L84 710L104 710L104 398Q144 454 196 490.50Q248 527 316 527Q373 527 418 503Q463 479 493.50 440.50Q524 402 540.50 354Q557 306 557 258M537 258Q537 306 521 351Q505 396 475.50 430.50Q446 465 405.50 486Q365 507 316 507Q279 507 246.50 494.50Q214 482 187.50 461Q161 440 140 413Q119 386 104 356L104 169Q104 137 124.50 108Q145 79 175.50 57.50Q206 36 241.50 23Q277 10 307 10Q357 10 399.50 31.50Q442 53 472.50 88Q503 123 520 167.50Q537 212 537 258Z"  horiz-adv-x="603" vert-adv-y="1000"  />

      
      <glyph glyph-name="uniff" unicode="&#xff;" d="M128-203Q145-203 157.50-201.50Q170-200 175-193Q178-190 182-181.50Q186-173 195-152.50Q204-132 220-95.50Q236-59 262 0L21 519L43 519L272 25L489 519L511 519L202-186Q190-212 169-218Q149-223 128-223L128-203M204 653L204 730L224 730L224 653L204 653M320 653L320 730L340 730L340 653L320 653Z"  horiz-adv-x="536" vert-adv-y="1000"  />

      
      <glyph glyph-name="uni0100" unicode="&#x0100;" d="M328 710L346 710L655 0L633 0L522 254L151 254L40 0L18 0L328 710M513 274L337 681L159 274L513 274M197 874L197 894L477 894L477 874L197 874Z"  horiz-adv-x="674" vert-adv-y="1000"  />

      
      <glyph glyph-name="uni0101" unicode="&#x0101;" d="M207-10Q172-10 141 2.50Q110 15 87.50 36.50Q65 58 52 87Q39 116 39 149Q39 182 54.50 209Q70 236 98.50 255.50Q127 275 166.50 286Q206 297 253 297Q298 297 344 289.50Q390 282 427 268L427 327Q427 367 415 400.50Q403 434 380.50 457.50Q358 481 326.50 494Q295 507 257 507Q219 507 176 490.50Q133 474 89 443L77 459Q177 527 257 527Q300 527 335.50 513Q371 499 395.50 473Q420 447 433.50 410Q447 373 447 327L447 40Q447 20 463 20L463 0Q452 0 449 2Q439 6 433 16.50Q427 27 427 40L427 88Q391 41 333 15.50Q275-10 207-10M207 10Q274 10 329.50 35Q385 60 412 102Q427 123 427 143L427 246Q347 277 253 277Q209 277 173.50 268Q138 259 112.50 242Q87 225 73 201.50Q59 178 59 149Q59 120 70.50 94.50Q82 69 102 50Q122 31 149 20.50Q176 10 207 10M117 686L117 706L397 706L397 686L117 686Z"  horiz-adv-x="524" vert-adv-y="1000"  />

      
      <glyph glyph-name="uni0102" unicode="&#x0102;" d="M328 710L346 710L655 0L633 0L522 254L151 254L40 0L18 0L328 710M513 274L337 681L159 274L513 274M337 858Q357 858 373.50 875.50Q390 893 393 918L411 918Q411 903 405 889Q399 875 388.50 864.50Q378 854 365 847.50Q352 841 337 841Q322 841 309 847.50Q296 854 285.50 864.50Q275 875 269 889Q263 903 263 918L282 918Q282 895 299 876.50Q316 858 337 858Z"  horiz-adv-x="674" vert-adv-y="1000"  />

      
      <glyph glyph-name="uni0103" unicode="&#x0103;" d="M207-10Q172-10 141 2.50Q110 15 87.50 36.50Q65 58 52 87Q39 116 39 149Q39 182 54.50 209Q70 236 98.50 255.50Q127 275 166.50 286Q206 297 253 297Q298 297 344 289.50Q390 282 427 268L427 327Q427 367 415 400.50Q403 434 380.50 457.50Q358 481 326.50 494Q295 507 257 507Q219 507 176 490.50Q133 474 89 443L77 459Q177 527 257 527Q300 527 335.50 513Q371 499 395.50 473Q420 447 433.50 410Q447 373 447 327L447 40Q447 20 463 20L463 0Q452 0 449 2Q439 6 433 16.50Q427 27 427 40L427 88Q391 41 333 15.50Q275-10 207-10M207 10Q274 10 329.50 35Q385 60 412 102Q427 123 427 143L427 246Q347 277 253 277Q209 277 173.50 268Q138 259 112.50 242Q87 225 73 201.50Q59 178 59 149Q59 120 70.50 94.50Q82 69 102 50Q122 31 149 20.50Q176 10 207 10M257 670Q277 670 293.50 687.50Q310 705 313 730L331 730Q331 715 325 701Q319 687 308.50 676.50Q298 666 285 659.50Q272 653 257 653Q242 653 229 659.50Q216 666 205.50 676.50Q195 687 189 701Q183 715 183 730L202 730Q202 707 219 688.50Q236 670 257 670Z"  horiz-adv-x="524" vert-adv-y="1000"  />

      
      <glyph glyph-name="uni0104" unicode="&#x0104;" d="M605-159Q580-153 566.50-137Q553-121 553-98Q553-73 570.50-49.50Q588-26 630 5L521 254L150 254L39 0L17 0L327 710L345 710L654 0Q609-31 591-51.50Q573-72 573-95Q573-133 617-142L605-159M512 274L336 681L158 274L512 274Z"  horiz-adv-x="673" vert-adv-y="1000"  />

      
      <glyph glyph-name="uni0105" unicode="&#x0105;" d="M414-159Q389-153 375.50-137Q362-121 362-98Q362-73 380-49Q398-25 441 6Q427 18 427 40L427 88Q391 41 333 15.50Q275-10 207-10Q172-10 141 2.50Q110 15 87.50 36.50Q65 58 52 87Q39 116 39 149Q39 182 54.50 209Q70 236 98.50 255.50Q127 275 166.50 286Q206 297 253 297Q298 297 344 289.50Q390 282 427 268L427 327Q427 367 415 400.50Q403 434 380.50 457.50Q358 481 326.50 494Q295 507 257 507Q219 507 176 490.50Q133 474 89 443L77 459Q177 527 257 527Q300 527 335.50 513Q371 499 395.50 473Q420 447 433.50 410Q447 373 447 327L447 40Q447 20 463 20L463 0Q418-31 400-51.50Q382-72 382-95Q382-133 426-142L414-159M207 10Q274 10 329.50 35Q385 60 412 102Q427 123 427 143L427 246Q347 277 253 277Q209 277 173.50 268Q138 259 112.50 242Q87 225 73 201.50Q59 178 59 149Q59 120 70.50 94.50Q82 69 102 50Q122 31 149 20.50Q176 10 207 10Z"  horiz-adv-x="524" vert-adv-y="1000"  />

      
      <glyph glyph-name="uni0106" unicode="&#x0106;" d="M48 360Q48 424 70.50 487Q93 550 135.50 600.50Q178 651 240.50 682.50Q303 714 383 714Q478 714 544 670.50Q610 627 642 559L623 553Q602 592 574.50 619Q547 646 514.50 662.50Q482 679 447.50 686.50Q413 694 379 694Q305 694 247 664.50Q189 635 149 587Q109 539 88.50 478.50Q68 418 68 357Q68 289 92.50 227Q117 165 159.50 117.50Q202 70 259 42Q316 14 382 14Q417 14 454 23Q491 32 525.50 50Q560 68 589.50 96.50Q619 125 640 164L659 159Q641 119 610 88Q579 57 541 36Q503 15 460.50 4.50Q418-6 378-6Q306-6 245 26Q184 58 140.50 109.50Q97 161 72.50 226.50Q48 292 48 360M367 833L351 845L415 918L449 918L367 833Z"  horiz-adv-x="697" vert-adv-y="1000"  />

      
      <glyph glyph-name="uni0107" unicode="&#x0107;" d="M46 262Q46 318 65 366.50Q84 415 118 450.50Q152 486 197.50 506.50Q243 527 296 527Q362 527 413.50 496.50Q465 466 491 411L471 404Q445 452 397.50 479.50Q350 507 293 507Q245 507 204 488Q163 469 132 436Q101 403 83.50 358Q66 313 66 262Q66 211 84 165Q102 119 133.50 84.50Q165 50 206 30Q247 10 294 10Q324 10 354.50 19Q385 28 410.50 43Q436 58 454 78Q472 98 478 119L498 113Q489 87 469.50 64.50Q450 42 423 25.50Q396 9 363.50-0.50Q331-10 297-10Q246-10 200 11.50Q154 33 120 70Q86 107 66 156.50Q46 206 46 262M279 645L263 657L327 730L361 730L279 645Z"  horiz-adv-x="538" vert-adv-y="1000"  />

      
      <glyph glyph-name="uni0108" unicode="&#x0108;" d="M48 360Q48 424 70.50 487Q93 550 135.50 600.50Q178 651 240.50 682.50Q303 714 383 714Q478 714 544 670.50Q610 627 642 559L623 553Q602 592 574.50 619Q547 646 514.50 662.50Q482 679 447.50 686.50Q413 694 379 694Q305 694 247 664.50Q189 635 149 587Q109 539 88.50 478.50Q68 418 68 357Q68 289 92.50 227Q117 165 159.50 117.50Q202 70 259 42Q316 14 382 14Q417 14 454 23Q491 32 525.50 50Q560 68 589.50 96.50Q619 125 640 164L659 159Q641 119 610 88Q579 57 541 36Q503 15 460.50 4.50Q418-6 378-6Q306-6 245 26Q184 58 140.50 109.50Q97 161 72.50 226.50Q48 292 48 360M280 844L373 918L389 918L482 844L466 832L381 895L296 832L280 844Z"  horiz-adv-x="697" vert-adv-y="1000"  />

      
      <glyph glyph-name="uni0109" unicode="&#x0109;" d="M46 262Q46 318 65 366.50Q84 415 118 450.50Q152 486 197.50 506.50Q243 527 296 527Q362 527 413.50 496.50Q465 466 491 411L471 404Q445 452 397.50 479.50Q350 507 293 507Q245 507 204 488Q163 469 132 436Q101 403 83.50 358Q66 313 66 262Q66 211 84 165Q102 119 133.50 84.50Q165 50 206 30Q247 10 294 10Q324 10 354.50 19Q385 28 410.50 43Q436 58 454 78Q472 98 478 119L498 113Q489 87 469.50 64.50Q450 42 423 25.50Q396 9 363.50-0.50Q331-10 297-10Q246-10 200 11.50Q154 33 120 70Q86 107 66 156.50Q46 206 46 262M192 656L285 730L301 730L394 656L378 644L293 707L208 644L192 656Z"  horiz-adv-x="538" vert-adv-y="1000"  />

      
      <glyph glyph-name="uni010A" unicode="&#x010A;" d="M48 360Q48 424 70.50 487Q93 550 135.50 600.50Q178 651 240.50 682.50Q303 714 383 714Q478 714 544 670.50Q610 627 642 559L623 553Q602 592 574.50 619Q547 646 514.50 662.50Q482 679 447.50 686.50Q413 694 379 694Q305 694 247 664.50Q189 635 149 587Q109 539 88.50 478.50Q68 418 68 357Q68 289 92.50 227Q117 165 159.50 117.50Q202 70 259 42Q316 14 382 14Q417 14 454 23Q491 32 525.50 50Q560 68 589.50 96.50Q619 125 640 164L659 159Q641 119 610 88Q579 57 541 36Q503 15 460.50 4.50Q418-6 378-6Q306-6 245 26Q184 58 140.50 109.50Q97 161 72.50 226.50Q48 292 48 360M371 841L371 918L391 918L391 841L371 841Z"  horiz-adv-x="697" vert-adv-y="1000"  />

      
      <glyph glyph-name="uni010B" unicode="&#x010B;" d="M46 262Q46 318 65 366.50Q84 415 118 450.50Q152 486 197.50 506.50Q243 527 296 527Q362 527 413.50 496.50Q465 466 491 411L471 404Q445 452 397.50 479.50Q350 507 293 507Q245 507 204 488Q163 469 132 436Q101 403 83.50 358Q66 313 66 262Q66 211 84 165Q102 119 133.50 84.50Q165 50 206 30Q247 10 294 10Q324 10 354.50 19Q385 28 410.50 43Q436 58 454 78Q472 98 478 119L498 113Q489 87 469.50 64.50Q450 42 423 25.50Q396 9 363.50-0.50Q331-10 297-10Q246-10 200 11.50Q154 33 120 70Q86 107 66 156.50Q46 206 46 262M283 653L283 730L303 730L303 653L283 653Z"  horiz-adv-x="538" vert-adv-y="1000"  />

      
      </font>
</defs>
</svg>
