<?xml version="1.0" standalone="no"?>
  <!DOCTYPE svg PUBLIC "-//W3C//DTD SVG 1.1//EN" "http://www.w3.org/Graphics/SVG/1.1/DTD/svg11.dtd" >
  <svg>
  <metadata>
  Created by font-carrier
  </metadata>
  <defs>
  <font id="Raleway-Light" horiz-adv-x="1340" vert-adv-y="1340" >
    <font-face
      
      font-family="Raleway"
      
      font-weight="400"
      
      font-stretch="normal"
      
      units-per-em="1000"
      
      ascent="940"
      
      descent="-234"
      
    />
      <missing-glyph />

      

      
      <glyph glyph-name="uni21" unicode="&#x21;" d="M96 218L96 717L147 717L147 218L96 218M96 0L96 102L147 102L147 0L96 0Z"  horiz-adv-x="243" vert-adv-y="1000"  />

      
      <glyph glyph-name="uni22" unicode="&#x22;" d="M70 540L70 714L115 714L115 540L70 540M149 540L149 714L193 714L193 540L149 540Z"  horiz-adv-x="264" vert-adv-y="1000"  />

      
      <glyph glyph-name="uni23" unicode="&#x23;" d="M631 466L506 466L455 253L589 253L589 212L445 212L393 0L349 0L402 212L194 212L142 0L98 0L151 212L38 212L38 253L160 253L212 466L79 466L79 505L222 505L271 710L315 710L265 505L473 505L522 710L566 710L516 505L631 505L631 466M412 253L463 466L255 466L203 253L412 253Z"  horiz-adv-x="669" vert-adv-y="1000"  />

      
      <glyph glyph-name="uni24" unicode="&#x24;" d="M513 592Q445 668 324 669L324 378L327 378Q384 366 430.50 351.50Q477 337 509.50 315Q542 293 559.50 261Q577 229 577 182Q577 135 559 100Q541 65 508 41.50Q475 18 429 6Q383-6 327-6L327-99L296-99L296-5Q147 3 42 100L69 141Q110 98 168 71Q226 44 298 39L298 334Q242 346 198.50 359.50Q155 373 126 393.50Q97 414 82 443Q67 472 67 516Q67 561 83.50 597Q100 633 130 658Q160 683 202.50 697.50Q245 712 296 714L296 815L327 815L327 715Q393 713 445 692.50Q497 672 539 632L513 592M523 176Q523 209 510.50 233Q498 257 473.50 274.50Q449 292 411.50 304.50Q374 317 324 329L324 39L325 39Q418 39 470.50 73Q523 107 523 176M119 523Q119 491 129 469.50Q139 448 161 432.50Q183 417 217 405.50Q251 394 298 384L298 668Q204 664 161.50 625Q119 586 119 523Z"  horiz-adv-x="617" vert-adv-y="1000"  />

      
      <glyph glyph-name="uni25" unicode="&#x25;" d="M188 437Q158 437 131.50 448Q105 459 85.50 478Q66 497 54.50 523Q43 549 43 578Q43 608 54.50 633.50Q66 659 85.50 678.50Q105 698 131.50 709Q158 720 188 720Q218 720 244.50 709Q271 698 290.50 678.50Q310 659 321.50 633.50Q333 608 333 578Q333 549 321.50 523Q310 497 290.50 478Q271 459 244.50 448Q218 437 188 437M188 469Q210 469 229.50 478Q249 487 263 502Q277 517 285.50 537Q294 557 294 578Q294 601 285.50 621Q277 641 262 656Q247 671 228 679.50Q209 688 188 688Q166 688 147 679Q128 670 113.50 655Q99 640 91 620Q83 600 83 578Q83 555 91.50 535.50Q100 516 114 501Q128 486 147.50 477.50Q167 469 188 469M510-10Q480-10 453.50 1Q427 12 407.50 31.50Q388 51 376.50 76.50Q365 102 365 132Q365 161 376.50 187Q388 213 407.50 232Q427 251 453.50 262Q480 273 510 273Q540 273 566.50 262Q593 251 612.50 232Q632 213 643.50 187Q655 161 655 132Q655 102 643.50 76.50Q632 51 612.50 31.50Q593 12 566.50 1Q540-10 510-10M510 22Q532 22 551.50 31Q571 40 585 55Q599 70 607.50 90Q616 110 616 132Q616 154 607.50 174Q599 194 584 209Q569 224 550 232.50Q531 241 510 241Q488 241 469 232Q450 223 435.50 208Q421 193 413 173Q405 153 405 132Q405 109 413 89Q421 69 435.50 54Q450 39 469 30.50Q488 22 510 22M59 21L338 365L612 713L640 690L361 345L86-3L59 21Z"  horiz-adv-x="698" vert-adv-y="1000"  />

      
      <glyph glyph-name="uni26" unicode="&#x26;" d="M581 0L490 95Q449 47 394 18.50Q339-10 272-10Q228-10 187.50 3Q147 16 116 40.50Q85 65 67 99.50Q49 134 49 178Q49 214 61.50 244.50Q74 275 95.50 300.50Q117 326 145.50 349Q174 372 206 393Q178 423 158.50 447.50Q139 472 127 492Q115 512 109.50 530.50Q104 549 104 567Q104 598 117.50 625.50Q131 653 154 674Q177 695 209 707Q241 719 278 719Q312 719 341 708.50Q370 698 391.50 680Q413 662 425 637Q437 612 437 583Q437 553 424 526.50Q411 500 388.50 476.50Q366 453 336.50 431.50Q307 410 275 388L489 166Q511 205 523 251.50Q535 298 535 348L579 348Q577 228 519 134L648 0L581 0M278 31Q335 31 381 56.50Q427 82 461 125L235 362Q206 342 181.50 322Q157 302 138 279.50Q119 257 108.50 231.50Q98 206 98 176Q98 140 114 113Q130 86 155.50 67.50Q181 49 213.50 40Q246 31 278 31M151 568Q151 555 154.50 542Q158 529 168.50 512Q179 495 197.50 472.50Q216 450 245 419Q311 462 351 498.50Q391 535 391 581Q391 623 359 650.50Q327 678 277 678Q250 678 227 669Q204 660 187 645Q170 630 160.50 610Q151 590 151 568Z"  horiz-adv-x="655" vert-adv-y="1000"  />

      
      <glyph glyph-name="uni27" unicode="&#x27;" d="M70 539L70 714L115 714L115 539L70 539Z"  horiz-adv-x="185" vert-adv-y="1000"  />

      
      <glyph glyph-name="uni28" unicode="&#x28;" d="M46 345Q46 396 57 445.50Q68 495 86.50 543Q105 591 130 638.50Q155 686 183 734L222 714Q200 682 177 637.50Q154 593 135.50 543Q117 493 105 441Q93 389 93 342Q93 264 127 171.50Q161 79 222-11L184-33Q120 61 83 156Q46 251 46 345Z"  horiz-adv-x="256" vert-adv-y="1000"  />

      
      <glyph glyph-name="uni29" unicode="&#x29;" d="M209 345Q209 251 172.50 156Q136 61 72-33L34-11Q94 79 128 171.50Q162 264 162 342Q162 389 150 441Q138 493 119 543Q100 593 77.50 637.50Q55 682 33 714L72 734Q100 686 125 638.50Q150 591 169 543Q188 495 198.50 445.50Q209 396 209 345Z"  horiz-adv-x="255" vert-adv-y="1000"  />

      
      <glyph glyph-name="uni2a" unicode="&#x2a;" d="M90 553L132 613L64 635L73 664L141 640L141 712L172 712L172 640L241 664L250 635L182 613L225 553L199 535L157 596L115 535L90 553Z"  horiz-adv-x="314" vert-adv-y="1000"  />

      
      <glyph glyph-name="uni2b" unicode="&#x2b;" d="M360 376L360 334L230 334L230 193L184 193L184 334L53 334L53 376L184 376L184 517L230 517L230 376L360 376Z"  horiz-adv-x="414" vert-adv-y="1000"  />

      
      <glyph glyph-name="uni2c" unicode="&#x2c;" d="M97-81L112-2L94-2L94 85L145 85L145-2L124-81L97-81Z"  horiz-adv-x="238" vert-adv-y="1000"  />

      
      <glyph glyph-name="uni2d" unicode="&#x2d;" d="M67 249L67 295L355 295L355 249L67 249Z"  horiz-adv-x="422" vert-adv-y="1000"  />

      
      <glyph glyph-name="uni2e" unicode="&#x2e;" d="M67 0L67 85L111 85L111 0L67 0Z"  horiz-adv-x="177" vert-adv-y="1000"  />

      
      <glyph glyph-name="uni2f" unicode="&#x2f;" d="M551 710L84 0L27 0L493 710L551 710Z"  horiz-adv-x="579" vert-adv-y="1000"  />

      
      <glyph glyph-name="uni30" unicode="&#x30;" d="M554 293Q554 227 535.50 171.50Q517 116 483.50 75.50Q450 35 404.50 12.50Q359-10 305-10Q251-10 205.50 12.50Q160 35 127 75.50Q94 116 75.50 171.50Q57 227 57 293Q57 359 75.50 414.50Q94 470 127 510.50Q160 551 205.50 574Q251 597 305 597Q359 597 404.50 574Q450 551 483.50 510.50Q517 470 535.50 414.50Q554 359 554 293M503 293Q503 350 488.50 397.50Q474 445 448 478.50Q422 512 385.50 531Q349 550 305 550Q261 550 224.50 531Q188 512 162 478.50Q136 445 121.50 397.50Q107 350 107 293Q107 236 121.50 189Q136 142 162 108Q188 74 224.50 55.50Q261 37 305 37Q349 37 385.50 55.50Q422 74 448 108Q474 142 488.50 189Q503 236 503 293Z"  horiz-adv-x="611" vert-adv-y="1000"  />

      
      <glyph glyph-name="uni31" unicode="&#x31;" d="M387 46L387 0L68 0L68 46L210 46L210 508Q201 496 182 482Q163 468 139 455.50Q115 443 90 434.50Q65 426 45 426L45 476Q70 476 98 489.50Q126 503 150.50 520Q175 537 191.50 552.50Q208 568 210 571L260 571L260 46L387 46Z"  horiz-adv-x="408" vert-adv-y="1000"  />

      
      <glyph glyph-name="uni32" unicode="&#x32;" d="M45 0Q45 28 50 62.50Q55 97 72.50 132.50Q90 168 123.50 201.50Q157 235 213 262Q241 276 273 290Q305 304 332 322.50Q359 341 377 365Q395 389 395 423Q395 443 386 463Q377 483 359.50 499Q342 515 315 525Q288 535 252 535Q217 535 189.50 525Q162 515 141.50 501Q121 487 107.50 473Q94 459 88 451L54 486Q58 490 73.50 505.50Q89 521 115 537.50Q141 554 177.50 567.50Q214 581 259 581Q304 581 339.50 568.50Q375 556 399.50 534.50Q424 513 436.50 484.50Q449 456 449 425Q449 384 429 354Q409 324 380 301.50Q351 279 319.50 264Q288 249 265 239Q187 206 145.50 160.50Q104 115 102 46L460 46L460 0L45 0Z"  horiz-adv-x="508" vert-adv-y="1000"  />

      
      <glyph glyph-name="uni33" unicode="&#x33;" d="M330 236Q398 225 439 175Q480 125 480 52Q480 7 463.50-29.50Q447-66 417.50-92Q388-118 347-132.50Q306-147 256-147Q181-147 124-115Q67-83 41-27L78 3Q98-45 144-73Q190-101 257-101Q336-101 382-60Q428-19 428 54Q428 127 380.50 170Q333 213 246 213L222 213L222 257L248 257Q329 257 372 293.50Q415 330 415 391Q415 424 403 449.50Q391 475 370 493Q349 511 320 520.50Q291 530 257 530Q197 530 152 502.50Q107 475 86 428L52 456Q64 483 84.50 505Q105 527 132.50 543Q160 559 192.50 567.50Q225 576 261 576Q306 576 343.50 563Q381 550 408.50 526Q436 502 451.50 469Q467 436 467 396Q467 365 457.50 338Q448 311 430 290Q412 269 386.50 254.50Q361 240 330 236Z"  horiz-adv-x="529" vert-adv-y="1000"  />

      
      <glyph glyph-name="uni34" unicode="&#x34;" d="M367-127L367 59L21 59L21 103L382 571L417 571L417 105L505 105L505 59L417 59L417-127L367-127M77 105L371 105L371 490L77 105Z"  horiz-adv-x="536" vert-adv-y="1000"  />

      
      <glyph glyph-name="uni35" unicode="&#x35;" d="M274 310Q322 310 364 293.50Q406 277 437.50 247Q469 217 487 175.50Q505 134 505 84Q505 31 485.50-11.50Q466-54 433-85Q400-116 356-132.50Q312-149 263-149Q187-149 126.50-110.50Q66-72 36-9L73 12Q100-40 151-71.50Q202-103 263-103Q303-103 338-89.50Q373-76 398.50-51Q424-26 439 8Q454 42 454 84Q454 124 439.50 157Q425 190 400 214Q375 238 341.50 251Q308 264 269 264Q218 264 173 241.50Q128 219 99 177L51 177Q52 184 56.50 205Q61 226 66.50 255Q72 284 79 319Q86 354 93 389Q110 471 130 571L470 571L470 524L168 524L112 243Q142 275 184 292.50Q226 310 274 310Z"  horiz-adv-x="542" vert-adv-y="1000"  />

      
      <glyph glyph-name="uni36" unicode="&#x36;" d="M556 233Q556 182 537 138Q518 94 484 61Q450 28 404.50 9Q359-10 307-10Q252-10 205.50 10Q159 30 125.50 67Q92 104 73 157.50Q54 211 54 279Q54 391 73 473Q92 555 126 609Q160 663 207.50 689Q255 715 312 715Q384 715 439.50 678Q495 641 522 577L487 550Q467 604 419 637Q371 670 312 670Q265 670 226.50 647.50Q188 625 161 581.50Q134 538 118.50 475Q103 412 103 331Q114 363 135 389.50Q156 416 183.50 435Q211 454 244 464.50Q277 475 313 475Q364 475 408 456Q452 437 485 404Q518 371 537 327Q556 283 556 233M308 35Q349 35 385.50 50.50Q422 66 449 93Q476 120 492 156Q508 192 508 233Q508 274 492 310Q476 346 449 373Q422 400 385.50 416Q349 432 308 432Q267 432 230.50 416Q194 400 167 373Q140 346 124 310Q108 274 108 233Q108 192 124 156Q140 120 167 93Q194 66 230.50 50.50Q267 35 308 35Z"  horiz-adv-x="600" vert-adv-y="1000"  />

      
      <glyph glyph-name="uni37" unicode="&#x37;" d="M439 536L40 536L40 583L519 583L158-127L101-127L439 536Z"  horiz-adv-x="535" vert-adv-y="1000"  />

      
      <glyph glyph-name="uni38" unicode="&#x38;" d="M537 194Q537 148 517 111Q497 74 463.50 47.50Q430 21 385 7Q340-7 291-7Q238-7 193.50 9.50Q149 26 117.50 53.50Q86 81 68.50 118Q51 155 51 197Q51 232 64 262Q77 292 98.50 315.50Q120 339 147 355.50Q174 372 202 381Q176 390 153.50 405Q131 420 113.50 439Q96 458 86 482Q76 506 76 533Q76 576 95.50 609Q115 642 146 664.50Q177 687 216.50 698.50Q256 710 295 710Q334 710 373 698.50Q412 687 443 664.50Q474 642 493.50 609.50Q513 577 513 534Q513 506 502.50 482.50Q492 459 475 439.50Q458 420 434.50 405Q411 390 386 381Q417 370 445 352.50Q473 335 493 311Q513 287 525 257.50Q537 228 537 194M487 198Q487 236 469.50 266Q452 296 424 316.50Q396 337 361.50 348Q327 359 293 359Q258 359 224 347.50Q190 336 163 315Q136 294 119 264Q102 234 102 197Q102 159 119.50 129.50Q137 100 165 79.50Q193 59 227.50 48Q262 37 296 37Q330 37 364.50 48.50Q399 60 426 81Q453 102 470 131.50Q487 161 487 198M127 531Q127 499 142.50 475Q158 451 182 434Q206 417 235.50 408.50Q265 400 294 400Q323 400 353 409Q383 418 407 435Q431 452 446.50 476.50Q462 501 462 533Q462 564 447.50 588.50Q433 613 409.50 629.50Q386 646 355.50 655Q325 664 293 664Q261 664 231 655Q201 646 178 628.50Q155 611 141 586.50Q127 562 127 531Z"  horiz-adv-x="589" vert-adv-y="1000"  />

      
      <glyph glyph-name="uni39" unicode="&#x39;" d="M37 328Q37 379 56 423Q75 467 109 500Q143 533 188 552Q233 571 286 571Q341 571 387 551Q433 531 467 494Q501 457 520 403Q539 349 539 282Q539 170 520 88Q501 6 467-48Q433-102 385.50-128Q338-154 281-154Q209-154 153.50-117Q98-80 71-16L106 11Q126-43 174-76Q222-109 281-109Q328-109 366.50-86.50Q405-64 432-20.50Q459 23 474.50 86Q490 149 490 230Q479 198 458 171.50Q437 145 409.50 126Q382 107 349 96.50Q316 86 280 86Q229 86 185 105Q141 124 108 157Q75 190 56 234Q37 278 37 328M285 526Q244 526 207.50 510.50Q171 495 144 468Q117 441 101 405Q85 369 85 328Q85 287 101 251Q117 215 144 188Q171 161 207.50 145Q244 129 285 129Q326 129 362.50 145Q399 161 426 188Q453 215 469 251Q485 287 485 328Q485 368 469 404Q453 440 426 467Q399 494 362.50 510Q326 526 285 526Z"  horiz-adv-x="583" vert-adv-y="1000"  />

      
      <glyph glyph-name="uni3a" unicode="&#x3a;" d="M67 432L67 517L110 517L110 432L67 432M67 0L67 85L110 85L110 0L67 0Z"  horiz-adv-x="177" vert-adv-y="1000"  />

      
      <glyph glyph-name="uni3b" unicode="&#x3b;" d="M71 432L71 517L115 517L115 432L71 432M74-81L88-2L70-2L70 85L121 85L121-2L101-81L74-81Z"  horiz-adv-x="191" vert-adv-y="1000"  />

      
      <glyph glyph-name="uni3c" unicode="&#x3c;" d="M34 273L452 524L452 470L106 259L452 48L452-7L34 243L34 273Z"  horiz-adv-x="506" vert-adv-y="1000"  />

      
      <glyph glyph-name="uni3d" unicode="&#x3d;" d="M69 208L69 246L368 246L368 208L69 208M69 306L69 344L368 344L368 306L69 306Z"  horiz-adv-x="437" vert-adv-y="1000"  />

      
      <glyph glyph-name="uni3e" unicode="&#x3e;" d="M472 243L54-7L54 48L399 259L54 470L54 524L472 273L472 243Z"  horiz-adv-x="506" vert-adv-y="1000"  />

      
      <glyph glyph-name="uni3f" unicode="&#x3f;" d="M163 193Q163 232 168.50 260Q174 288 185 308.50Q196 329 212 343.50Q228 358 248 370Q269 382 294 394.50Q319 407 340.50 424.50Q362 442 376 468Q390 494 390 533Q390 569 377.50 596Q365 623 344.50 641Q324 659 297.50 667.50Q271 676 243 676Q186 676 140 646Q94 616 71 568L35 590Q48 621 70.50 645Q93 669 120.50 685.50Q148 702 179.50 710.50Q211 719 243 719Q280 719 314.50 707Q349 695 376 671.50Q403 648 419 612.50Q435 577 435 530Q435 488 422.50 459Q410 430 389.50 410Q369 390 343 375.50Q317 361 291 349Q270 339 254.50 328.50Q239 318 228.50 301Q218 284 212.50 258Q207 232 207 193L163 193M164 0L164 98L208 98L208 0L164 0Z"  horiz-adv-x="473" vert-adv-y="1000"  />

      
      <glyph glyph-name="uni40" unicode="&#x40;" d="M416 603Q490 603 555.50 574.50Q621 546 670.50 495.50Q720 445 748.50 375Q777 305 777 222Q777 208 775.50 184.50Q774 161 769 134.50Q764 108 754.50 81Q745 54 729 32.50Q713 11 689.50-2.50Q666-16 633-16Q608-16 593-8.50Q578-1 569.50 12Q561 25 557.50 42.50Q554 60 552 79Q525 50 480.50 29Q436 8 384 8Q315 8 275 45Q235 82 235 139Q235 176 251.50 201.50Q268 227 294.50 242Q321 257 353.50 263.50Q386 270 419 270Q464 270 498 261.50Q532 253 549 247Q549 285 543 316.50Q537 348 523 370.50Q509 393 484 405.50Q459 418 422 418Q384 418 347.50 405.50Q311 393 281 370L265 401Q300 424 340.50 438.50Q381 453 426 453Q479 453 510.50 435Q542 417 558.50 387.50Q575 358 580 321.50Q585 285 585 249L585 111Q585 89 586.50 71Q588 53 593.50 40.50Q599 28 609.50 21.50Q620 15 637 15Q669 15 690.50 37Q712 59 724.50 90.50Q737 122 742 158Q747 194 747 223Q747 296 721.50 360.50Q696 425 651 472Q606 519 545.50 546.50Q485 574 415 574Q347 574 286 548.50Q225 523 178.50 477Q132 431 105 368Q78 305 78 230Q78 158 103.50 94.50Q129 31 174-16Q219-63 280-90Q341-117 411-117Q491-117 564-79L576-106Q497-146 411-146Q336-146 270-117.50Q204-89 154.50-38.50Q105 12 76.50 80.50Q48 149 48 230Q48 314 78.50 382.50Q109 451 160 500Q211 549 277.50 576Q344 603 416 603M480 64Q502 74 515.50 87Q529 100 536.50 114.50Q544 129 546 143.50Q548 158 548 173L548 215Q542 216 530 219.50Q518 223 501.50 227Q485 231 463 234.50Q441 238 416 238Q389 238 363 233Q337 228 316.50 217Q296 206 284 187.50Q272 169 272 141Q272 95 305 68.50Q338 42 386 42Q411 42 436 48.50Q461 55 480 64Z"  horiz-adv-x="834" vert-adv-y="1000"  />

      
      <glyph glyph-name="uni41" unicode="&#x41;" d="M316 710L360 710L660 0L606 0L507 234L168 234L69 0L14 0L316 710M493 276L338 648L180 276L493 276Z"  horiz-adv-x="675" vert-adv-y="1000"  />

      
      <glyph glyph-name="uni42" unicode="&#x42;" d="M616 184Q616 145 601 111.50Q586 78 560 53Q534 28 499 14Q464 0 425 0L93 0L93 710L424 710Q461 710 491 694Q521 678 542 652.50Q563 627 574.50 594.50Q586 562 586 529Q586 475 559 430Q532 385 484 364Q545 346 580.50 296.50Q616 247 616 184M565 191Q565 219 555 245.50Q545 272 527 292.50Q509 313 484.50 325Q460 337 432 337L144 337L144 46L425 46Q455 46 480.50 58Q506 70 524.50 90.50Q543 111 554 137Q565 163 565 191M144 664L144 380L404 380Q433 380 457 392Q481 404 498.50 423.50Q516 443 526 469Q536 495 536 522Q536 551 526.50 576.50Q517 602 500.50 621.50Q484 641 461 652.50Q438 664 410 664L144 664Z"  horiz-adv-x="662" vert-adv-y="1000"  />

      
      <glyph glyph-name="uni43" unicode="&#x43;" d="M44 360Q44 424 66.50 487.50Q89 551 132 601Q175 651 237.50 682.50Q300 714 380 714Q475 714 542 670.50Q609 627 642 559L600 535Q581 572 555.50 597Q530 622 500.50 637.50Q471 653 439 660Q407 667 376 667Q308 667 256 639.50Q204 612 168 568Q132 524 113.50 468.50Q95 413 95 357Q95 294 117 237Q139 180 177 136.50Q215 93 267 67Q319 41 379 41Q411 41 445 49Q479 57 510 74Q541 91 568 117.50Q595 144 613 180L657 159Q639 119 608 88Q577 57 539 36Q501 15 458.50 4.50Q416-6 375-6Q302-6 241.50 26Q181 58 137 109.50Q93 161 68.50 226.50Q44 292 44 360Z"  horiz-adv-x="690" vert-adv-y="1000"  />

      
      <glyph glyph-name="uni44" unicode="&#x44;" d="M93 0L93 710L329 710Q413 710 476.50 682Q540 654 582 606Q624 558 645 493.50Q666 429 666 356Q666 275 642.50 209.50Q619 144 575 97.50Q531 51 468.50 25.50Q406 0 329 0L93 0M615 356Q615 423 596 479.50Q577 536 540.50 577Q504 618 451 641Q398 664 329 664L144 664L144 46L329 46Q399 46 452.50 69.50Q506 93 542 135Q578 177 596.50 233.50Q615 290 615 356Z"  horiz-adv-x="713" vert-adv-y="1000"  />

      
      <glyph glyph-name="uni45" unicode="&#x45;" d="M566 46L566 0L93 0L93 710L557 710L557 664L144 664L144 385L505 385L505 341L144 341L144 46L566 46Z"  horiz-adv-x="612" vert-adv-y="1000"  />

      
      <glyph glyph-name="uni46" unicode="&#x46;" d="M93 0L93 710L555 710L555 664L144 664L144 382L493 382L493 338L144 338L144 0L93 0Z"  horiz-adv-x="594" vert-adv-y="1000"  />

      
      <glyph glyph-name="uni47" unicode="&#x47;" d="M616 111Q513-5 377-5Q305-5 243.50 26Q182 57 138 108Q94 159 69 224Q44 289 44 356Q44 426 68.50 491Q93 556 136.50 606Q180 656 240 685.50Q300 715 371 715Q424 715 466.50 703.50Q509 692 542.50 671.50Q576 651 600.50 622.50Q625 594 642 560L600 535Q564 605 504.50 636.50Q445 668 370 668Q307 668 256 641Q205 614 169 570Q133 526 114 470Q95 414 95 355Q95 292 117 235.50Q139 179 177.50 136Q216 93 268 67.50Q320 42 380 42Q445 42 503.50 72Q562 102 616 167L616 304L455 304L455 345L660 345L660 0L616 0L616 111Z"  horiz-adv-x="717" vert-adv-y="1000"  />

      
      <glyph glyph-name="uni48" unicode="&#x48;" d="M643 710L643 0L592 0L592 340L144 340L144 0L93 0L93 710L144 710L144 386L592 386L592 710L643 710Z"  horiz-adv-x="735" vert-adv-y="1000"  />

      
      <glyph glyph-name="uni49" unicode="&#x49;" d="M93 0L93 710L144 710L144 0L93 0Z"  horiz-adv-x="237" vert-adv-y="1000"  />

      
      <glyph glyph-name="uni4a" unicode="&#x4a;" d="M32 74Q57 57 92 46.50Q127 36 170 36Q228 36 262 57Q296 78 314 118Q332 158 337.50 216.50Q343 275 343 349L343 710L394 710L394 349Q394 268 387 201.50Q380 135 356.50 88Q333 41 289 15Q245-11 170-11Q80-11 16 33L32 74Z"  horiz-adv-x="478" vert-adv-y="1000"  />

      
      <glyph glyph-name="uni4b" unicode="&#x4b;" d="M93 0L93 710L144 710L144 279L558 710L617 710L322 399L632 0L574 0L289 368L144 219L144 0L93 0Z"  horiz-adv-x="635" vert-adv-y="1000"  />

      
      <glyph glyph-name="uni4c" unicode="&#x4c;" d="M93 0L93 710L144 710L144 46L568 46L568 0L93 0Z"  horiz-adv-x="581" vert-adv-y="1000"  />

      
      <glyph glyph-name="uni4d" unicode="&#x4d;" d="M736 0L736 614L456 135L424 135L144 614L144 0L93 0L93 710L144 710L440 202L736 710L787 710L787 0L736 0Z"  horiz-adv-x="880" vert-adv-y="1000"  />

      
      <glyph glyph-name="uni4e" unicode="&#x4e;" d="M144 614L144 0L93 0L93 710L132 710L630 85L630 710L681 710L681 0L634 0L144 614Z"  horiz-adv-x="773" vert-adv-y="1000"  />

      
      <glyph glyph-name="uni4f" unicode="&#x4f;" d="M376-5Q302-5 241 26Q180 57 136 107Q92 157 68 222Q44 287 44 355Q44 426 69.50 491Q95 556 139.50 606Q184 656 245 685.50Q306 715 377 715Q451 715 512.50 683.50Q574 652 617.50 601Q661 550 685 485.50Q709 421 709 355Q709 283 683.50 218Q658 153 613.50 103.50Q569 54 508 24.50Q447-5 376-5M95 355Q95 294 115.50 237.50Q136 181 173.50 137.50Q211 94 263 68Q315 42 377 42Q441 42 492.50 69Q544 96 580.50 140.50Q617 185 637 241Q657 297 657 355Q657 416 636 472.50Q615 529 577.50 572.50Q540 616 489 642Q438 668 377 668Q313 668 261 641Q209 614 172 569.50Q135 525 115 469Q95 413 95 355Z"  horiz-adv-x="753" vert-adv-y="1000"  />

      
      <glyph glyph-name="uni50" unicode="&#x50;" d="M93 0L93 710L385 710Q430 710 468 691Q506 672 533.50 640.50Q561 609 576.50 569.50Q592 530 592 490Q592 447 577.50 407Q563 367 536.50 336Q510 305 473 286.50Q436 268 391 268L144 268L144 0L93 0M144 315L389 315Q424 315 452 329.50Q480 344 499.50 368.50Q519 393 529.50 424.50Q540 456 540 490Q540 525 527.50 556.50Q515 588 493.50 612Q472 636 443.50 650Q415 664 383 664L144 664L144 315Z"  horiz-adv-x="621" vert-adv-y="1000"  />

      
      <glyph glyph-name="uni51" unicode="&#x51;" d="M576 67Q534 33 483.50 14Q433-5 376-5Q302-5 241 26Q180 57 136 107Q92 157 68 222Q44 287 44 355Q44 426 69.50 491Q95 556 139.50 606Q184 656 245 685.50Q306 715 377 715Q451 715 512.50 683.50Q574 652 617.50 601Q661 550 685 485.50Q709 421 709 355Q709 280 681.50 213Q654 146 606 95L685 0L632 0L576 67M377 42Q427 42 469 58.50Q511 75 545 104L461 206L514 206L574 133Q614 178 635.50 236Q657 294 657 355Q657 416 636 472.50Q615 529 577.50 572.50Q540 616 489 642Q438 668 377 668Q313 668 261 641Q209 614 172 569.50Q135 525 115 469Q95 413 95 355Q95 294 115.50 237.50Q136 181 173.50 137.50Q211 94 263 68Q315 42 377 42Z"  horiz-adv-x="752" vert-adv-y="1000"  />

      
      <glyph glyph-name="uni52" unicode="&#x52;" d="M93 0L93 710L388 710Q433 710 471 691Q509 672 536.50 640.50Q564 609 579.50 569.50Q595 530 595 490Q595 451 583 414.50Q571 378 549 349Q527 320 496 301Q465 282 428 276L605 0L546 0L374 268L144 268L144 0L93 0M144 315L393 315Q427 315 455 330Q483 345 503 369.50Q523 394 533.50 425.50Q544 457 544 490Q544 524 531.50 555.50Q519 587 497.50 611Q476 635 447.50 649.50Q419 664 386 664L144 664L144 315Z"  horiz-adv-x="649" vert-adv-y="1000"  />

      
      <glyph glyph-name="uni53" unicode="&#x53;" d="M506 592Q437 669 311 669Q207 669 159.50 629.50Q112 590 112 523Q112 489 124 466.50Q136 444 161.50 428Q187 412 226 401Q265 390 320 378Q377 366 423.50 351.50Q470 337 502.50 315Q535 293 552.50 261Q570 229 570 182Q570 135 551.50 100Q533 65 499.50 41.50Q466 18 419.50 6Q373-6 316-6Q150-6 35 100L62 141Q107 94 172 66.50Q237 39 318 39Q411 39 463.50 73Q516 107 516 176Q516 211 502 235.50Q488 260 460.50 278Q433 296 391 309Q349 322 293 334Q236 346 192.50 359.50Q149 373 119.50 393.50Q90 414 75 443Q60 472 60 516Q60 564 78.50 601Q97 638 130 663.50Q163 689 209 702Q255 715 311 715Q380 715 434 694.50Q488 674 532 632L506 592Z"  horiz-adv-x="605" vert-adv-y="1000"  />

      
      <glyph glyph-name="uni54" unicode="&#x54;" d="M589 664L329 664L329 0L278 0L278 664L18 664L18 710L589 710L589 664Z"  horiz-adv-x="606" vert-adv-y="1000"  />

      
      <glyph glyph-name="uni55" unicode="&#x55;" d="M378 42Q450 42 497.50 69Q545 96 572.50 140Q600 184 611.50 240Q623 296 623 353L623 710L674 710L674 353Q674 282 658.50 217Q643 152 608 102.50Q573 53 517 24Q461-5 379-5Q294-5 237 25.50Q180 56 145.50 106.50Q111 157 96.50 221Q82 285 82 353L82 710L133 710L133 353Q133 294 144.50 238Q156 182 184.50 138.50Q213 95 260 68.50Q307 42 378 42Z"  horiz-adv-x="756" vert-adv-y="1000"  />

      
      <glyph glyph-name="uni56" unicode="&#x56;" d="M69 710L339 64L609 710L663 710L363 0L316 0L15 710L69 710Z"  horiz-adv-x="679" vert-adv-y="1000"  />

      
      <glyph glyph-name="uni57" unicode="&#x57;" d="M365 705L415 705L521 447L627 705L677 705L552 406L701 60L973 710L1029 710L725 0L678 0L522 365L365 0L318 0L15 710L70 710L343 60L490 406L365 705Z"  horiz-adv-x="1043" vert-adv-y="1000"  />

      
      <glyph glyph-name="uni58" unicode="&#x58;" d="M66 710L315 387L563 710L621 710L342 350L613 0L555 0L315 313L74 0L15 0L286 350L7 710L66 710Z"  horiz-adv-x="628" vert-adv-y="1000"  />

      
      <glyph glyph-name="uni59" unicode="&#x59;" d="M75 710L323 317L572 710L629 710L349 268L349 0L298 0L298 270L19 710L75 710Z"  horiz-adv-x="647" vert-adv-y="1000"  />

      
      <glyph glyph-name="uni5a" unicode="&#x5a;" d="M30 42L535 664L37 664L37 710L595 710L595 668L94 46L593 46L593 0L30 0L30 42Z"  horiz-adv-x="627" vert-adv-y="1000"  />

      
      <glyph glyph-name="uni5b" unicode="&#x5b;" d="M91-40L91 740L192 740L192 697L139 697L139 3L192 3L192-40L91-40Z"  horiz-adv-x="247" vert-adv-y="1000"  />

      
      <glyph glyph-name="uni5c" unicode="&#x5c;" d="M86 710L521 0L463 0L27 710L86 710Z"  horiz-adv-x="548" vert-adv-y="1000"  />

      
      <glyph glyph-name="uni5d" unicode="&#x5d;" d="M54-40L54 3L108 3L108 697L54 697L54 740L155 740L155-40L54-40Z"  horiz-adv-x="247" vert-adv-y="1000"  />

      
      <glyph glyph-name="uni5e" unicode="&#x5e;" d="M44 303L242 710L285 710L482 303L436 303L264 659L88 303L44 303Z"  horiz-adv-x="526" vert-adv-y="1000"  />

      
      <glyph glyph-name="uni5f" unicode="&#x5f;" d="M66-46L66 0L452 0L452-46L66-46Z"  horiz-adv-x="519" vert-adv-y="1000"  />

      
      <glyph glyph-name="uni60" unicode="&#x60;" d="M49 730L106 730L168 645L134 629L49 730Z"  horiz-adv-x="213" vert-adv-y="1000"  />

      
      <glyph glyph-name="uni61" unicode="&#x61;" d="M206-10Q170-10 139 2.50Q108 15 84.50 36.50Q61 58 48 87.50Q35 117 35 151Q35 185 51 213Q67 241 95.50 261.50Q124 282 164 293.50Q204 305 252 305Q294 305 336.50 297.50Q379 290 413 277L413 328Q413 402 371 445.50Q329 489 257 489Q219 489 176.50 473Q134 457 90 427L71 461Q171 529 261 529Q355 529 409 474.50Q463 420 463 324L463 70Q463 45 485 45L485 0Q480-1 474.50-1.50Q469-2 465-2Q445-2 433 11.50Q421 25 419 44L419 87Q383 40 327 15Q271-10 206-10M216 30Q274 30 322.50 52Q371 74 397 110Q413 131 413 150L413 242Q377 256 338 263Q299 270 257 270Q218 270 186 261.50Q154 253 131 238Q108 223 95.50 201.50Q83 180 83 154Q83 128 93 105Q103 82 121 65.50Q139 49 163.50 39.50Q188 30 216 30Z"  horiz-adv-x="537" vert-adv-y="1000"  />

      
      <glyph glyph-name="uni62" unicode="&#x62;" d="M321-10Q260-10 207 22Q154 54 124 104L124 0L78 0L78 730L128 730L128 407Q165 461 215.50 495Q266 529 332 529Q387 529 431.50 505.50Q476 482 506.50 443.50Q537 405 553.50 356.50Q570 308 570 258Q570 204 551 155.50Q532 107 498.50 70.50Q465 34 419.50 12Q374-10 321-10M311 35Q357 35 395 54Q433 73 460.50 104.50Q488 136 503.50 176Q519 216 519 258Q519 302 504.50 342.50Q490 383 463.50 414.50Q437 446 400.50 465Q364 484 320 484Q287 484 258 472.50Q229 461 204.50 442Q180 423 160.50 398Q141 373 128 346L128 174Q131 145 150 119.50Q169 94 195.50 75.50Q222 57 253 46Q284 35 311 35Z"  horiz-adv-x="612" vert-adv-y="1000"  />

      
      <glyph glyph-name="uni63" unicode="&#x63;" d="M42 262Q42 317 61 366Q80 415 114 451Q148 487 195 508Q242 529 298 529Q369 529 423 497Q477 465 504 408L455 392Q432 435 389.50 459.50Q347 484 296 484Q253 484 216 467Q179 450 151.50 420Q124 390 108 349.50Q92 309 92 262Q92 215 108.50 173.50Q125 132 152.50 101.50Q180 71 217.50 53Q255 35 297 35Q324 35 350.50 43Q377 51 399.50 64Q422 77 438.50 94.50Q455 112 461 131L510 117Q500 90 479.50 66.50Q459 43 431 26Q403 9 369-0.50Q335-10 299-10Q244-10 197 11.50Q150 33 115.50 70.50Q81 108 61.50 157Q42 206 42 262Z"  horiz-adv-x="545" vert-adv-y="1000"  />

      
      <glyph glyph-name="uni64" unicode="&#x64;" d="M292-10Q238-10 192 12.50Q146 35 112.50 72.50Q79 110 60.50 158.50Q42 207 42 259Q42 313 60 362Q78 411 110 448Q142 485 185.50 507Q229 529 281 529Q315 529 345 519Q375 509 401 492.50Q427 476 448 454Q469 432 484 407L484 730L534 730L534 70Q534 45 555 45L555 0Q549-1 545-1.50Q541-2 537-2Q517-2 503 13.50Q489 29 489 46L489 104Q457 52 403.50 21Q350-10 292-10M301 35Q328 35 359 46Q390 57 416.50 76.50Q443 96 462 121Q481 146 484 175L484 346Q473 374 452.50 399.50Q432 425 406 443.50Q380 462 350 473Q320 484 292 484Q247 484 210 464.50Q173 445 147 413.50Q121 382 107 341.50Q93 301 93 258Q93 213 109 173Q125 133 153.50 102Q182 71 219.50 53Q257 35 301 35Z"  horiz-adv-x="615" vert-adv-y="1000"  />

      
      <glyph glyph-name="uni65" unicode="&#x65;" d="M299-10Q244-10 197 11.50Q150 33 115.50 70.50Q81 108 61.50 157Q42 206 42 262Q42 317 61.50 365.50Q81 414 115 450.50Q149 487 195.50 508Q242 529 296 529Q351 529 398 507.50Q445 486 479 449.50Q513 413 532 364.50Q551 316 551 262Q551 257 551 249.50Q551 242 550 240L94 240Q97 195 115 156.50Q133 118 160.50 90Q188 62 224 46Q260 30 301 30Q328 30 354 37.50Q380 45 402.50 58Q425 71 442.50 89.50Q460 108 470 130L514 118Q503 90 481.50 66.50Q460 43 431.50 26Q403 9 369-0.50Q335-10 299-10M503 280Q500 326 482.50 364Q465 402 437.50 429.50Q410 457 374 472.50Q338 488 297 488Q256 488 220 472.50Q184 457 156.50 429.50Q129 402 112.50 363.50Q96 325 93 280L503 280Z"  horiz-adv-x="583" vert-adv-y="1000"  />

      
      <glyph glyph-name="uni66" unicode="&#x66;" d="M101 0L101 479L28 479L28 520L101 520L101 537Q101 633 140 686.50Q179 740 248 740Q278 740 306 731Q334 722 352 707L334 671Q320 682 299.50 689Q279 696 257 696Q206 696 178.50 655.50Q151 615 151 538L151 520L299 520L299 479L151 479L151 0L101 0Z"  horiz-adv-x="318" vert-adv-y="1000"  />

      
      <glyph glyph-name="uni67" unicode="&#x67;" d="M288-8Q234-8 189 14.50Q144 37 111.50 74.50Q79 112 60.50 160Q42 208 42 259Q42 312 59.50 361Q77 410 109 447.50Q141 485 185.50 507Q230 529 284 529Q352 529 402.50 493.50Q453 458 488 407L488 520L534 520L534-10Q534-63 514-103Q494-143 460.50-169.50Q427-196 382.50-209.50Q338-223 289-223Q244-223 208-214.50Q172-206 144.50-190.50Q117-175 95.50-152.50Q74-130 58-103L92-80Q123-133 176-157.50Q229-182 289-182Q329-182 364.50-171Q400-160 426.50-138.50Q453-117 468.50-85Q484-53 484-10L484 104Q452 53 399 22.50Q346-8 288-8M300 35Q333 35 364.50 47.50Q396 60 421.50 80Q447 100 463.50 125Q480 150 484 175L484 346Q472 376 452 401.50Q432 427 406.50 445Q381 463 351.50 473.50Q322 484 292 484Q245 484 208 464Q171 444 145.50 412Q120 380 106.50 339.50Q93 299 93 258Q93 213 109 173Q125 133 153 102Q181 71 219 53Q257 35 300 35Z"  horiz-adv-x="612" vert-adv-y="1000"  />

      
      <glyph glyph-name="uni68" unicode="&#x68;" d="M503 0L453 0L453 290Q453 483 324 483Q292 483 261.50 471Q231 459 204.50 437Q178 415 158 385.50Q138 356 128 322L128 0L78 0L78 730L128 730L128 396Q160 457 216.50 493Q273 529 338 529Q381 529 412 513Q443 497 463.50 467Q484 437 493.50 394.50Q503 352 503 299L503 0Z"  horiz-adv-x="576" vert-adv-y="1000"  />

      
      <glyph glyph-name="uni69" unicode="&#x69;" d="M78 0L78 520L128 520L128 0L78 0M78 638L78 730L128 730L128 638L78 638Z"  horiz-adv-x="207" vert-adv-y="1000"  />

      
      <glyph glyph-name="uni6a" unicode="&#x6a;" d="M-10-177Q-42-177-69.50-168.50Q-97-160-119-140L-92-107Q-75-121-55-126Q-35-131-15-131Q4-131 22-123.50Q40-116 54-102.50Q68-89 77-70.50Q86-52 86-30L86 520L136 520L136-28Q136-61 123.50-88Q111-115 90-135Q69-155 43-166Q17-177-10-177M86 638L86 730L136 730L136 638L86 638Z"  horiz-adv-x="214" vert-adv-y="1000"  />

      
      <glyph glyph-name="uni6b" unicode="&#x6b;" d="M454 0L251 278L128 165L128 0L78 0L78 730L128 730L128 220L444 519L502 519L285 308L509 0L454 0Z"  horiz-adv-x="522" vert-adv-y="1000"  />

      
      <glyph glyph-name="uni6c" unicode="&#x6c;" d="M82 730L133 730L133 103Q133 74 149.50 57Q166 40 195 40Q206 40 221.50 42.50Q237 45 250 50L260 10Q243 3 218-1.50Q193-6 175-6Q133-6 107.50 19.50Q82 45 82 88L82 730Z"  horiz-adv-x="259" vert-adv-y="1000"  />

      
      <glyph glyph-name="uni6d" unicode="&#x6d;" d="M842 0L792 0L792 290Q792 389 761.50 436Q731 483 668 483Q636 483 607 471Q578 459 554 437.50Q530 416 512.50 386.50Q495 357 485 321L485 0L435 0L435 290Q435 390 405 436.50Q375 483 312 483Q280 483 251.50 471.50Q223 460 199 438.50Q175 417 156.50 387.50Q138 358 128 322L128 0L78 0L78 520L125 520L125 396Q157 459 209 494Q261 529 324 529Q390 529 431 490Q472 451 480 388Q554 529 684 529Q769 529 805.50 468.50Q842 408 842 299L842 0Z"  horiz-adv-x="915" vert-adv-y="1000"  />

      
      <glyph glyph-name="uni6e" unicode="&#x6e;" d="M503 0L453 0L453 290Q453 391 424.50 437Q396 483 334 483Q301 483 268.50 471Q236 459 208 437Q180 415 159 385.50Q138 356 128 322L128 0L78 0L78 520L125 520L125 396Q141 426 164.50 450.50Q188 475 217.50 492.50Q247 510 280 519.50Q313 529 348 529Q433 529 468 469.50Q503 410 503 299L503 0Z"  horiz-adv-x="576" vert-adv-y="1000"  />

      
      <glyph glyph-name="uni6f" unicode="&#x6f;" d="M296-10Q241-10 194.50 11.50Q148 33 114 70Q80 107 61 156Q42 205 42 259Q42 314 61.50 363Q81 412 115 449Q149 486 195.50 507.50Q242 529 296 529Q350 529 396 507.50Q442 486 476.50 449Q511 412 530.50 363Q550 314 550 259Q550 205 530.50 156Q511 107 477 70Q443 33 396.50 11.50Q350-10 296-10M92 257Q92 211 108 170.50Q124 130 151.50 100Q179 70 216 52.50Q253 35 295 35Q337 35 374 52.50Q411 70 439 101Q467 132 483 172.50Q499 213 499 260Q499 306 483 346.50Q467 387 439 417.50Q411 448 374.50 466Q338 484 296 484Q254 484 217 466Q180 448 152.50 417Q125 386 108.50 344.50Q92 303 92 257Z"  horiz-adv-x="592" vert-adv-y="1000"  />

      
      <glyph glyph-name="uni70" unicode="&#x70;" d="M332-10Q265-10 212.50 25.50Q160 61 128 112L128-213L78-213L78 520L124 520L124 416Q156 466 208.50 497.50Q261 529 321 529Q375 529 421 506Q467 483 500 445.50Q533 408 551.50 359Q570 310 570 259Q570 205 553 156Q536 107 504.50 70Q473 33 429 11.50Q385-10 332-10M320 35Q365 35 402 54Q439 73 465 104.50Q491 136 505 176.50Q519 217 519 259Q519 304 503 344.50Q487 385 458.50 416Q430 447 392 465.50Q354 484 311 484Q284 484 253.50 472.50Q223 461 196 441.50Q169 422 150 397Q131 372 128 344L128 173Q141 144 161 119Q181 94 206 75Q231 56 260 45.50Q289 35 320 35Z"  horiz-adv-x="612" vert-adv-y="1000"  />

      
      <glyph glyph-name="uni71" unicode="&#x71;" d="M280-10Q226-10 182.50 12.50Q139 35 107.50 72.50Q76 110 59 158.50Q42 207 42 259Q42 313 61.50 362Q81 411 114.50 448Q148 485 193.50 507Q239 529 291 529Q352 529 405 496.50Q458 464 488 415L488 520L534 520L534-141Q534-166 555-167L555-211Q550-212 546-212Q542-212 538-212Q515-212 499.50-197.50Q484-183 484-159L484 112Q402-10 280-10M293 35Q326 35 354.50 46Q383 57 407 75Q431 93 450.50 117.50Q470 142 484 169L484 339Q480 368 462 394Q444 420 417.50 440Q391 460 360 472Q329 484 299 484Q254 484 216 464.50Q178 445 150.50 413.50Q123 382 108 341Q93 300 93 258Q93 213 108 173Q123 133 149.50 102Q176 71 212.50 53Q249 35 293 35Z"  horiz-adv-x="612" vert-adv-y="1000"  />

      
      <glyph glyph-name="uni72" unicode="&#x72;" d="M324 475Q254 473 201.50 433.50Q149 394 128 325L128 0L78 0L78 520L126 520L126 392Q153 447 197.50 481.50Q242 516 293 521Q303 522 311 522Q319 522 324 522L324 475Z"  horiz-adv-x="341" vert-adv-y="1000"  />

      
      <glyph glyph-name="uni73" unicode="&#x73;" d="M243-10Q183-10 128 10Q73 30 32 70L57 104Q99 66 144 48Q189 30 243 30Q311 30 352.50 58.50Q394 87 394 138Q394 162 383.50 178.50Q373 195 352 206.50Q331 218 300 227Q269 236 228 246Q184 256 151.50 266Q119 276 98 290Q77 304 66.50 324Q56 344 56 375Q56 414 71 443Q86 472 112.50 491Q139 510 173.50 519.50Q208 529 247 529Q308 529 355 508.50Q402 488 428 456L400 429Q374 459 332.50 474Q291 489 244 489Q215 489 189.50 483Q164 477 145 464Q126 451 115 430.50Q104 410 104 382Q104 359 111.50 345Q119 331 135.50 321Q152 311 178 303.50Q204 296 240 287Q289 275 327 264Q365 253 390.50 237Q416 221 429.50 199Q443 177 443 143Q443 73 388.50 31.50Q334-10 243-10Z"  horiz-adv-x="481" vert-adv-y="1000"  />

      
      <glyph glyph-name="uni74" unicode="&#x74;" d="M310 25Q306 23 296.50 17.50Q287 12 272.50 7Q258 2 240-2Q222-6 201-6Q180-6 161.50 0Q143 6 129 18Q115 30 107 47Q99 64 99 87L99 479L26 479L26 520L99 520L99 698L149 698L149 520L270 520L270 479L149 479L149 99Q149 70 169 55.50Q189 41 214 41Q245 41 267.50 51.50Q290 62 295 65L310 25Z"  horiz-adv-x="320" vert-adv-y="1000"  />

      
      <glyph glyph-name="uni75" unicode="&#x75;" d="M239-10Q73-10 73 220L73 520L123 520L123 227Q123 35 254 35Q287 35 318 46.50Q349 58 376 78.50Q403 99 423.50 128Q444 157 456 192L456 520L506 520L506 70Q506 45 527 45L527 0Q522-1 518-1Q514-1 512-1Q492-1 476.50 11.50Q461 24 461 45L461 123Q427 60 367.50 25Q308-10 239-10Z"  horiz-adv-x="587" vert-adv-y="1000"  />

      
      <glyph glyph-name="uni76" unicode="&#x76;" d="M238 0L21 520L73 520L265 50L458 520L507 520L290 0L238 0Z"  horiz-adv-x="528" vert-adv-y="1000"  />

      
      <glyph glyph-name="uni77" unicode="&#x77;" d="M737 520L787 520L562 0L520 0L403 275L286 0L244 0L19 520L68 520L267 55L376 311L288 519L331 519L403 347L474 519L518 519L430 311L539 55L737 520Z"  horiz-adv-x="806" vert-adv-y="1000"  />

      
      <glyph glyph-name="uni78" unicode="&#x78;" d="M72 520L240 305L248 291L256 305L423 520L479 520L277 259L478 0L423 0L256 214L248 227L240 214L73 0L18 0L219 259L17 520L72 520Z"  horiz-adv-x="496" vert-adv-y="1000"  />

      
      <glyph glyph-name="uni79" unicode="&#x79;" d="M113-176Q118-177 128-177Q138-177 146.50-176Q155-175 163-171Q169-168 174-162.50Q179-157 188-140Q197-123 211-90Q225-57 249 0L17 520L69 520L276 49L469 520L518 520L233-164Q222-192 197.50-207.50Q173-223 131-223Q127-223 122.50-223Q118-223 113-222L113-176Z"  horiz-adv-x="540" vert-adv-y="1000"  />

      
      <glyph glyph-name="uni7a" unicode="&#x7a;" d="M32 36L400 481L38 481L38 520L456 520L456 484L89 39L454 39L454 0L32 0L32 36Z"  horiz-adv-x="490" vert-adv-y="1000"  />

      
      <glyph glyph-name="uni7b" unicode="&#x7b;" d="M141 697L141 420Q141 410 136.50 392Q132 374 116 360Q132 346 136.50 327.50Q141 309 141 300L141 12L196 12L196-31L117-31Q109-31 101.50-24.50Q94-18 94-1L94 289Q94 307 85.50 323Q77 339 59 341L59 381Q69 381 76 387Q83 393 87 401Q91 409 92.50 417.50Q94 426 94 431L94 710Q94 730 103 735Q112 740 117 740L196 740L196 697L141 697Z"  horiz-adv-x="248" vert-adv-y="1000"  />

      
      <glyph glyph-name="uni7c" unicode="&#x7c;" d="M89-130L89 775L134 775L134-130L89-130Z"  horiz-adv-x="223" vert-adv-y="1000"  />

      
      <glyph glyph-name="uni7d" unicode="&#x7d;" d="M52 697L52 740L131 740Q135 740 144.50 735Q154 730 154 710L154 431Q154 426 155.50 417.50Q157 409 161 401Q165 393 171.50 387Q178 381 189 381L189 341Q170 339 162 323Q154 307 154 289L154-1Q154-18 146.50-24.50Q139-31 131-31L52-31L52 12L107 12L107 300Q107 309 111.50 327.50Q116 346 132 360Q116 374 111.50 392Q107 410 107 420L107 697L52 697Z"  horiz-adv-x="248" vert-adv-y="1000"  />

      
      <glyph glyph-name="uni7e" unicode="&#x7e;" d="M68 245Q68 248 73 263.50Q78 279 90 296Q102 313 120.50 326.50Q139 340 166 340Q188 340 207.50 330.50Q227 321 246 310Q265 299 283.50 289.50Q302 280 322 280Q341 280 354 287.50Q367 295 375.50 304.50Q384 314 388 322.50Q392 331 392 333L426 333Q426 331 421 317.50Q416 304 404 287.50Q392 271 372 258Q352 245 322 245Q298 245 277 254Q256 263 237 274.50Q218 286 200.50 295Q183 304 166 304Q149 304 137 295Q125 286 117 275Q109 264 105.50 255Q102 246 102 245L68 245L68 245Z"  horiz-adv-x="493" vert-adv-y="1000"  />

      
      <glyph glyph-name="unia1" unicode="&#xa1;" d="M146 498L146-1L96-1L96 498L146 498M146 716L146 614L96 614L96 716L146 716Z"  horiz-adv-x="242" vert-adv-y="1000"  />

      
      <glyph glyph-name="unia2" unicode="&#xa2;" d="M276-120L276-9Q225-5 182.50 19.50Q140 44 109 81Q78 118 61 164Q44 210 44 258Q44 309 60.50 356Q77 403 107.50 439.50Q138 476 180.50 500Q223 524 276 528L276 645L307 645L307 528Q383 526 431.50 494Q480 462 506 408L458 392Q433 437 394 459Q355 481 307 483L307 36Q328 36 353 43Q378 50 400.50 62.50Q423 75 440.50 92.50Q458 110 464 131L513 117Q502 85 478.50 61.50Q455 38 426 22Q397 6 365.50-2Q334-10 307-10L307-120L276-120M95 258Q95 217 108.50 179.50Q122 142 146.50 112Q171 82 204 62.50Q237 43 276 38L276 481Q233 478 199.50 457.50Q166 437 142.50 405.50Q119 374 107 335.50Q95 297 95 258Z"  horiz-adv-x="554" vert-adv-y="1000"  />

      
      <glyph glyph-name="unia3" unicode="&#xa3;" d="M50 370L150 370Q138 392 125.50 413Q113 434 102.50 455Q92 476 85 498.50Q78 521 78 546Q78 581 92 611.50Q106 642 129.50 665Q153 688 185 701.50Q217 715 253 715Q306 715 352 686.50Q398 658 427 610L395 579Q371 622 332 647Q293 672 251 672Q225 672 202.50 662Q180 652 163 634.50Q146 617 136 594Q126 571 126 544Q126 521 133 499.50Q140 478 151 457Q162 436 175 414.50Q188 393 199 370L375 370L375 329L216 329Q222 311 225.50 292Q229 273 229 252Q229 226 223.50 202Q218 178 205 153Q192 128 171 101Q150 74 120 41Q157 49 192 49Q214 49 232.50 46Q251 43 268 39.50Q285 36 301.50 33Q318 30 337 30Q357 30 378.50 34.50Q400 39 429 49L442 9Q389-15 334-15Q312-15 292.50-11.50Q273-8 254-4Q235 0 215.50 3.50Q196 7 173 7Q150 7 122 3Q94-1 70-7L55 30Q92 67 116.50 97Q141 127 156 152.50Q171 178 177 201Q183 224 183 249Q183 271 179 291Q175 311 168 329L50 329L50 370Z"  horiz-adv-x="487" vert-adv-y="1000"  />

      
      <glyph glyph-name="unia4" unicode="&#xa4;" d="M152 475Q175 495 204 506.50Q233 518 267 518Q301 518 330.50 506Q360 494 383 474L453 545L480 519L409 448Q426 425 436 396.50Q446 368 446 336Q446 273 407 223L480 152L456 128L383 198Q360 178 330.50 167Q301 156 267 156Q233 156 204 166.50Q175 177 152 197L81 128L57 152L128 222Q89 272 89 336Q89 401 126 449L57 519L83 545L152 475M132 335Q132 305 142.50 279.50Q153 254 171.50 234.50Q190 215 214.50 204Q239 193 267 193Q295 193 319.50 204.50Q344 216 362.50 235.50Q381 255 391.50 281Q402 307 402 337Q402 367 391.50 393Q381 419 362.50 438.50Q344 458 319.50 469Q295 480 267 480Q239 480 214.50 468.50Q190 457 171.50 437.50Q153 418 142.50 391.50Q132 365 132 335Z"  horiz-adv-x="535" vert-adv-y="1000"  />

      
      <glyph glyph-name="unia5" unicode="&#xa5;" d="M412 357L500 357L500 319L390 319L358 268L358 242L500 242L500 205L358 205L358 0L307 0L307 205L166 205L166 242L307 242L307 270L277 319L166 319L166 357L255 357L28 710L85 710L333 317L582 710L638 710L412 357Z"  horiz-adv-x="667" vert-adv-y="1000"  />

      
      <glyph glyph-name="unia6" unicode="&#xa6;" d="M136 280L136-130L91-130L91 280L136 280M136 775L136 365L91 365L91 775L136 775Z"  horiz-adv-x="226" vert-adv-y="1000"  />

      
      <glyph glyph-name="unia7" unicode="&#xa7;" d="M405 190Q454 160 454 84Q454 41 435.50 8.50Q417-24 388.50-45.50Q360-67 325.50-77.50Q291-88 258-88Q224-88 195.50-80.50Q167-73 143-60.50Q119-48 99.50-32Q80-16 64 0L97 31Q135-5 173.50-22.50Q212-40 257-40Q283-40 309-31.50Q335-23 356-7.50Q377 8 390 31Q403 54 403 83Q403 114 390.50 133.50Q378 153 358 163.50Q338 174 313 178Q288 182 264 183Q223 185 188 195Q153 205 127.50 224.50Q102 244 87 273Q72 302 72 341Q72 368 80.50 392Q89 416 101 430Q77 446 61.50 477Q46 508 46 549Q46 587 63 617.50Q80 648 107 670Q134 692 168.50 703.50Q203 715 238 715Q309 715 349.50 689.50Q390 664 415 627L375 609Q366 627 350.50 638.50Q335 650 316.50 656.50Q298 663 278 666Q258 669 240 669Q214 669 188 661Q162 653 142 637.50Q122 622 109.50 599.50Q97 577 97 549Q97 518 108 496.50Q119 475 138 461.50Q157 448 183.50 442Q210 436 241 436Q277 436 312.50 428Q348 420 375.50 402Q403 384 420.50 355Q438 326 438 284Q438 255 428.50 230Q419 205 405 190M121 336Q121 301 133.50 280Q146 259 166 247Q186 235 211.50 230Q237 225 263.50 222Q290 219 314.50 215.50Q339 212 357 205Q372 218 381 239.50Q390 261 390 284Q390 315 376 336Q362 357 340.50 370Q319 383 293 388Q267 393 243 393Q188 393 148 410Q136 398 128.50 377.50Q121 357 121 336Z"  horiz-adv-x="497" vert-adv-y="1000"  />

      
      <glyph glyph-name="unia8" unicode="&#xa8;" d="M57 640L57 728L101 728L101 640L57 640M193 640L193 728L237 728L237 640L193 640Z"  horiz-adv-x="294" vert-adv-y="1000"  />

      
      <glyph glyph-name="unia9" unicode="&#xa9;" d="M414-7Q336-7 269 20.50Q202 48 153 96.50Q104 145 76.50 211Q49 277 49 355Q49 432 76.50 498Q104 564 153 612Q202 660 269 687.50Q336 715 414 715Q493 715 560 687.50Q627 660 676 612Q725 564 752.50 498Q780 432 780 355Q780 277 752.50 211Q725 145 676 96.50Q627 48 560 20.50Q493-7 414-7M414 21Q485 21 546.50 45Q608 69 653 113Q698 157 724 217.50Q750 278 750 352Q750 424 725 485.50Q700 547 655 592Q610 637 548.50 662Q487 687 414 687Q342 687 280.50 662Q219 637 174.50 592.50Q130 548 104.50 487Q79 426 79 354Q79 283 104 222Q129 161 174 116.50Q219 72 280.50 46.50Q342 21 414 21M421 124Q378 124 337 140Q296 156 264 186Q232 216 212.50 259Q193 302 193 355Q193 396 206.50 437.50Q220 479 247 512.50Q274 546 316 567Q358 588 415 588Q477 588 527 561Q577 534 598 481L550 465Q539 489 522.50 504.50Q506 520 487 528.50Q468 537 449 540Q430 543 415 543Q371 543 339 526Q307 509 286 482Q265 455 254.50 421.50Q244 388 244 355Q244 310 260.50 275.50Q277 241 302.50 217.50Q328 194 358.50 181.50Q389 169 418 169Q437 169 458.50 174.50Q480 180 499.50 190.50Q519 201 534.50 216.50Q550 232 558 251L606 237Q600 220 584.50 200.50Q569 181 545 164Q521 147 489.50 135.50Q458 124 421 124Z"  horiz-adv-x="829" vert-adv-y="1000"  />

      
      <glyph glyph-name="uniaa" unicode="&#xaa;" d="M168 348Q143 348 121 356.50Q99 365 83 379.50Q67 394 58 414Q49 434 49 457Q49 504 90.50 533.50Q132 563 198 563Q227 563 255 558.50Q283 554 305 545L305 576Q305 621 278.50 647.50Q252 674 204 674Q151 674 89 633L72 664Q142 710 207 710Q276 710 315 673.50Q354 637 354 570L354 417Q354 398 371 397L371 354Q363 353 357.50 353Q352 353 347 353Q315 356 312 387L311 413Q286 381 248.50 364.50Q211 348 168 348M180 386Q215 386 246 398.50Q277 411 293 432Q305 445 305 459L305 514Q282 524 257 527.50Q232 531 206 531Q156 531 126 511.50Q96 492 96 460Q96 428 120 407Q144 386 180 386Z"  horiz-adv-x="431" vert-adv-y="1000"  />

      
      <glyph glyph-name="uniab" unicode="&#xab;" d="M41 273L285 448L285 403L83 259L285 116L285 71L41 243L41 273M243 273L487 448L487 403L285 259L487 116L487 71L243 243L243 273Z"  horiz-adv-x="552" vert-adv-y="1000"  />

      
      <glyph glyph-name="uniac" unicode="&#xac;" d="M504 354L504 131L459 131L459 308L78 308L78 354L504 354Z"  horiz-adv-x="574" vert-adv-y="1000"  />

      
      <glyph glyph-name="uniad" unicode="&#xad;" d="M67 249L67 295L492 295L492 249L67 249Z"  horiz-adv-x="559" vert-adv-y="1000"  />

      
      <glyph glyph-name="uniae" unicode="&#xae;" d="M414-7Q336-7 269 20.50Q202 48 153 96.50Q104 145 76.50 211Q49 277 49 355Q49 432 76.50 498Q104 564 153 612Q202 660 269 687.50Q336 715 414 715Q493 715 560 687.50Q627 660 676 612Q725 564 752.50 498Q780 432 780 355Q780 277 752.50 211Q725 145 676 96.50Q627 48 560 20.50Q493-7 414-7M414 21Q485 21 546.50 45Q608 69 653 113Q698 157 724 218.50Q750 280 750 355Q750 426 725 486.50Q700 547 655 591.50Q610 636 548.50 661.50Q487 687 414 687Q342 687 280.50 661.50Q219 636 174.50 591.50Q130 547 105 486.50Q80 426 80 355Q80 283 105 222Q130 161 174.50 116.50Q219 72 280.50 46.50Q342 21 414 21M265 581L455 581Q484 581 508 568.50Q532 556 549.50 536Q567 516 577 490.50Q587 465 587 439Q587 414 579 391Q571 368 557 349.50Q543 331 523 318.50Q503 306 479 303L592 125L547 125L437 298L305 298L305 125L265 125L265 581M456 334Q501 334 524.50 365Q548 396 548 439Q548 484 521 513.50Q494 543 452 543L305 543L305 334L456 334Z"  horiz-adv-x="829" vert-adv-y="1000"  />

      
      <glyph glyph-name="uniaf" unicode="&#xaf;" d="M53 672L53 709L338 709L338 672L53 672Z"  horiz-adv-x="390" vert-adv-y="1000"  />

      
      <glyph glyph-name="unib0" unicode="&#xb0;" d="M53 647Q53 679 75.50 701.50Q98 724 130 724Q163 724 185.50 701.50Q208 679 208 647Q208 613 185.50 590.50Q163 568 130 568Q98 568 75.50 591Q53 614 53 647M98 679Q85 664 85 646Q85 627 98 614Q104 608 112 604Q120 600 130 600Q140 600 148.50 604Q157 608 163 614Q176 627 176 646Q176 664 163 679Q151 692 130 692Q110 692 98 679Z"  horiz-adv-x="261" vert-adv-y="1000"  />

      
      <glyph glyph-name="unib1" unicode="&#xb1;" d="M77 70L77 113L391 113L391 70L77 70M391 382L391 339L257 339L257 195L211 195L211 339L77 339L77 382L211 382L211 526L257 526L257 382L391 382Z"  horiz-adv-x="468" vert-adv-y="1000"  />

      
      <glyph glyph-name="unib2" unicode="&#xb2;" d="M37 413Q37 451 45 479.50Q53 508 69 529Q85 550 108.50 565Q132 580 162 592Q185 601 209.50 609Q234 617 254 628.50Q274 640 287 656.50Q300 673 300 697Q300 729 274 753Q248 777 194 777Q168 777 147.50 771Q127 765 111 756.50Q95 748 84 738Q73 728 66 720L42 744Q45 748 56 759Q67 770 86.50 781.50Q106 793 134 802Q162 811 199 811Q234 811 260.50 802Q287 793 304.50 777Q322 761 330.50 740.50Q339 720 339 696Q339 665 324.50 643.50Q310 622 288.50 607.50Q267 593 242.50 583.50Q218 574 197 568Q160 556 139 541Q118 526 107 510Q96 494 93 477.50Q90 461 90 447L337 447L337 413L37 413Z"  horiz-adv-x="381" vert-adv-y="1000"  />

      
      <glyph glyph-name="unib3" unicode="&#xb3;" d="M190 407Q127 407 85 432Q43 457 37 499L60 520Q61 506 71.50 492Q82 478 99 467Q116 456 139.50 449.50Q163 443 190 443Q215 443 237 448.50Q259 454 275 464Q291 474 300.50 488Q310 502 310 519Q310 556 269.50 577Q229 598 161 598L138 598L138 630L161 630Q225 630 260.50 647.50Q296 665 296 700Q296 718 287 732Q278 746 263 756.50Q248 767 227.50 772.50Q207 778 184 778Q142 778 111.50 762.50Q81 747 67 721L42 747Q59 776 98 793.50Q137 811 184 811Q216 811 243.50 802.50Q271 794 291 779.50Q311 765 322.50 745Q334 725 334 702Q334 633 244 615Q291 607 318.50 579.50Q346 552 346 514Q346 490 333.50 470Q321 450 300 436Q279 422 250.50 414.50Q222 407 190 407Z"  horiz-adv-x="386" vert-adv-y="1000"  />

      
      <glyph glyph-name="unib4" unicode="&#xb4;" d="M84 629L49 645L110 730L168 730L84 629Z"  horiz-adv-x="213" vert-adv-y="1000"  />

      
      <glyph glyph-name="unib5" unicode="&#xb5;" d="M85 520L135 520L135 227Q135 35 267 35Q300 35 331 46.50Q362 58 389 78.50Q416 99 436.50 128Q457 157 469 192L469 520L519 520L519 70Q519 45 540 45L540 0Q535-1 531.50-1Q528-1 525-1Q503-1 488.50 12.50Q474 26 474 48L474 123Q459 94 437 69.50Q415 45 387.50 27.50Q360 10 329 0Q298-10 265-10Q214-10 181.50 14.50Q149 39 133 82L133-212L85-212L85 520Z"  horiz-adv-x="613" vert-adv-y="1000"  />

      
      <glyph glyph-name="unib6" unicode="&#xb6;" d="M33 473Q33 585 107 647.50Q181 710 315 710L541 710L541 669L471 669L471-80L426-80L426 237L346 237L346-80L301-80L301 237Q239 238 189.50 254.50Q140 271 105 301.50Q70 332 51.50 375Q33 418 33 473M78 474Q78 424 96 388Q114 352 144.50 328.50Q175 305 215.50 293Q256 281 301 279L301 669Q192 668 135 616.50Q78 565 78 474M426 669L346 669L346 279L426 279L426 669Z"  horiz-adv-x="588" vert-adv-y="1000"  />

      
      <glyph glyph-name="unib7" unicode="&#xb7;" d="M67 248L67 349L111 349L111 248L67 248Z"  horiz-adv-x="177" vert-adv-y="1000"  />

      
      <glyph glyph-name="unib8" unicode="&#xb8;" d="M37-125Q51-132 74.50-138Q98-144 124-144Q182-144 182-107Q182-87 168.50-79Q155-71 133-71Q112-71 89-76Q66-81 52-85L108 15L135 3L101-53Q110-49 121.50-48Q133-47 141-47Q175-47 194-62Q213-77 213-106Q213-138 189-154.50Q165-171 120-171Q91-171 66.50-165.50Q42-160 23-152L37-125Z"  horiz-adv-x="271" vert-adv-y="1000"  />

      
      <glyph glyph-name="unib9" unicode="&#xb9;" d="M243 447L243 412L49 412L49 447L131 447L131 769Q126 763 114.50 754.50Q103 746 89.50 738.50Q76 731 61.50 726Q47 721 35 721L35 756Q51 756 67.50 764Q84 772 98 782Q112 792 121 801Q130 810 131 811L167 811L167 447L243 447Z"  horiz-adv-x="264" vert-adv-y="1000"  />

      
      <glyph glyph-name="uniba" unicode="&#xba;" d="M224 348Q185 348 152.50 362.50Q120 377 96 402Q72 427 59 459.50Q46 492 46 528Q46 565 59.50 598Q73 631 96.50 656Q120 681 152.50 695.50Q185 710 224 710Q263 710 295.50 695.50Q328 681 352 656Q376 631 389.50 598Q403 565 403 528Q403 492 389.50 459.50Q376 427 352.50 402Q329 377 296 362.50Q263 348 224 348M90 527Q90 498 100.50 472Q111 446 129 426.50Q147 407 171.50 396Q196 385 224 385Q252 385 276.50 396.50Q301 408 319.50 427.50Q338 447 348.50 473Q359 499 359 529Q359 559 348.50 585Q338 611 319.50 630Q301 649 276.50 660Q252 671 224 671Q197 671 172.50 660Q148 649 129.50 629.50Q111 610 100.50 583.50Q90 557 90 527Z"  horiz-adv-x="449" vert-adv-y="1000"  />

      
      <glyph glyph-name="unibb" unicode="&#xbb;" d="M511 243L267 71L267 116L469 259L267 403L267 448L511 273L511 243M310 243L65 71L65 116L268 259L65 403L65 448L310 273L310 243Z"  horiz-adv-x="552" vert-adv-y="1000"  />

      
      <glyph glyph-name="unibc" unicode="&#xbc;" d="M668 0L668 106L438 106L438 138L678 393L703 393L703 140L760 140L760 106L703 106L703 0L668 0M478 140L668 140L668 342L478 140M120 21L399 365L673 713L701 690L422 345L147-3L120 21M254 367L254 332L60 332L60 367L142 367L142 689Q137 683 125.50 674.50Q114 666 100.50 658.50Q87 651 72.50 646Q58 641 46 641L46 676Q62 676 78.50 684Q95 692 109 702Q123 712 132 721Q141 730 142 731L178 731L178 367L254 367Z"  horiz-adv-x="795" vert-adv-y="1000"  />

      
      <glyph glyph-name="unibd" unicode="&#xbd;" d="M497 0Q497 76 529 116.50Q561 157 621 180Q643 189 667 197Q691 205 710.50 216Q730 227 742.50 243.50Q755 260 755 284Q755 316 730.50 338.50Q706 361 652 361Q626 361 606.50 355Q587 349 572 340.50Q557 332 546 322Q535 312 528 303L502 331Q505 335 516 346Q527 357 546 368.50Q565 380 593 389Q621 398 657 398Q726 398 760.50 364.50Q795 331 795 283Q795 252 781 231Q767 210 746 195.50Q725 181 701 171.50Q677 162 656 156Q620 145 599 131.50Q578 118 567 102Q556 86 553 69Q550 52 550 34L796 34L796 0L497 0M89 21L368 365L642 713L670 690L391 345L116-3L89 21M256 367L256 332L62 332L62 367L144 367L144 689Q139 683 127.50 674.50Q116 666 102.50 658.50Q89 651 74.50 646Q60 641 48 641L48 676Q64 676 80.50 684Q97 692 111 702Q125 712 134 721Q143 730 144 731L180 731L180 367L256 367Z"  horiz-adv-x="838" vert-adv-y="1000"  />

      
      <glyph glyph-name="unibe" unicode="&#xbe;" d="M196 327Q133 327 91 352Q49 377 43 419L66 440Q67 426 77.50 412Q88 398 105 387Q122 376 145.50 369.50Q169 363 196 363Q221 363 243 368.50Q265 374 281 384Q297 394 306.50 408Q316 422 316 439Q316 476 275.50 497Q235 518 167 518L144 518L144 550L167 550Q231 550 266.50 567.50Q302 585 302 620Q302 638 293 652Q284 666 269 676.50Q254 687 233.50 692.50Q213 698 190 698Q148 698 117.50 682.50Q87 667 73 641L48 667Q65 696 104 713.50Q143 731 190 731Q222 731 249.50 722.50Q277 714 297 699.50Q317 685 328.50 665Q340 645 340 622Q340 553 250 535Q297 527 324.50 499.50Q352 472 352 434Q352 410 339.50 390Q327 370 306 356Q285 342 256.50 334.50Q228 327 196 327M679 0L679 106L449 106L449 138L689 393L714 393L714 140L771 140L771 106L714 106L714 0L679 0M489 140L679 140L679 342L489 140M155 21L434 365L708 713L736 690L457 345L182-3L155 21Z"  horiz-adv-x="810" vert-adv-y="1000"  />

      
      <glyph glyph-name="unibf" unicode="&#xbf;" d="M306 313Q306 274 300.50 246Q295 218 284 197.50Q273 177 257 162.50Q241 148 221 136Q200 124 175 111.50Q150 99 128.50 81.50Q107 64 93 38Q79 12 79-27Q79-63 91.50-90Q104-117 124.50-135Q145-153 171.50-161.50Q198-170 226-170Q283-170 329-140Q375-110 398-62L434-84Q420-115 398-139Q376-163 348.50-179.50Q321-196 289.50-204.50Q258-213 226-213Q189-213 154.50-201Q120-189 93-165.50Q66-142 50-106.50Q34-71 34-24Q34 18 46.50 47Q59 76 79.50 96Q100 116 126 130.50Q152 145 178 157Q199 167 214.50 177.50Q230 188 240.50 205Q251 222 256.50 248Q262 274 262 313L306 313M305 506L305 408L261 408L261 506L305 506Z"  horiz-adv-x="466" vert-adv-y="1000"  />

      
      <glyph glyph-name="unic0" unicode="&#xc0;" d="M316 710L360 710L660 0L606 0L507 234L168 234L69 0L14 0L316 710M493 276L338 648L180 276L493 276M254 918L311 918L373 833L339 817L254 918Z"  horiz-adv-x="675" vert-adv-y="1000"  />

      
      <glyph glyph-name="unic1" unicode="&#xc1;" d="M316 710L360 710L660 0L606 0L507 234L168 234L69 0L14 0L316 710M493 276L338 648L180 276L493 276M337 816L302 832L363 917L421 917L337 816Z"  horiz-adv-x="675" vert-adv-y="1000"  />

      
      <glyph glyph-name="unic2" unicode="&#xc2;" d="M316 710L360 710L660 0L606 0L507 234L168 234L69 0L14 0L316 710M493 276L338 648L180 276L493 276M223 836L319 917L356 917L453 836L423 819L338 882L253 819L223 836Z"  horiz-adv-x="675" vert-adv-y="1000"  />

      
      <glyph glyph-name="unic3" unicode="&#xc3;" d="M316 710L360 710L660 0L606 0L507 234L168 234L69 0L14 0L316 710M493 276L338 648L180 276L493 276M399 834Q377 834 360 840Q343 846 329 853.50Q315 861 301.50 867.50Q288 874 273 874Q256 874 246 867Q236 860 231 851.50Q226 843 224 835.50Q222 828 222 826L188 826Q188 830 191 843.50Q194 857 203.50 871.50Q213 886 229.50 897.50Q246 909 273 909Q293 909 308.50 902.50Q324 896 338 888.50Q352 881 366.50 875Q381 869 400 869Q420 869 431.50 876Q443 883 448.50 891.50Q454 900 455.50 907.50Q457 915 457 917L491 917Q491 912 487.50 898.50Q484 885 474.50 871Q465 857 447 845.50Q429 834 399 834Z"  horiz-adv-x="675" vert-adv-y="1000"  />

      
      <glyph glyph-name="unic4" unicode="&#xc4;" d="M316 710L360 710L660 0L606 0L507 234L168 234L69 0L14 0L316 710M493 276L338 648L180 276L493 276M248 828L248 916L292 916L292 828L248 828M384 828L384 916L428 916L428 828L384 828Z"  horiz-adv-x="675" vert-adv-y="1000"  />

      
      <glyph glyph-name="unic5" unicode="&#xc5;" d="M316 710L360 710L660 0L606 0L507 234L168 234L69 0L14 0L316 710M493 276L338 648L180 276L493 276M269 855Q269 882 288.50 899.50Q308 917 337 917Q366 917 385.50 899.50Q405 882 405 855Q405 827 385.50 809.50Q366 792 337 792Q308 792 288.50 809.50Q269 827 269 855M337 894Q320 894 308.50 883.50Q297 873 297 855Q297 838 308.50 826.50Q320 815 337 815Q353 815 365.50 826.50Q378 838 378 855Q378 873 366 883.50Q354 894 337 894Z"  horiz-adv-x="675" vert-adv-y="1000"  />

      
      <glyph glyph-name="unic6" unicode="&#xc6;" d="M434 710L908 710L908 664L498 664L498 386L854 386L854 339L498 339L498 46L917 46L917 0L448 0L448 234L181 234L30 0L-27 0L434 710M445 280L445 646L205 280L445 280Z"  horiz-adv-x="962" vert-adv-y="1000"  />

      
      <glyph glyph-name="unic7" unicode="&#xc7;" d="M296-125Q310-132 333.50-138Q357-144 383-144Q441-144 441-107Q441-87 427.50-79Q414-71 392-71Q371-71 348-76Q325-81 311-85L355-5Q285-2 227 31Q169 64 127.50 115Q86 166 63 230Q40 294 40 360Q40 424 62.50 487.50Q85 551 128 601Q171 651 233.50 682.50Q296 714 376 714Q471 714 538 670.50Q605 627 638 559L596 535Q577 572 551.50 597Q526 622 496.50 637.50Q467 653 435 660Q403 667 372 667Q304 667 252 639.50Q200 612 164 568Q128 524 109.50 468.50Q91 413 91 357Q91 294 113 237Q135 180 173 136.50Q211 93 263 67Q315 41 375 41Q407 41 441 49Q475 57 506 74Q537 91 564 117.50Q591 144 609 180L653 159Q636 121 607.50 91.50Q579 62 543.50 41Q508 20 468 8.50Q428-3 389-5L360-53Q369-49 380.50-48Q392-47 400-47Q434-47 453-62Q472-77 472-106Q472-138 448-154.50Q424-171 379-171Q350-171 325.50-165.50Q301-160 282-152L296-125Z"  horiz-adv-x="687" vert-adv-y="1000"  />

      
      <glyph glyph-name="unic8" unicode="&#xc8;" d="M566 46L566 0L93 0L93 710L557 710L557 664L144 664L144 385L505 385L505 341L144 341L144 46L566 46M256 918L313 918L375 833L341 817L256 918Z"  horiz-adv-x="612" vert-adv-y="1000"  />

      
      <glyph glyph-name="unic9" unicode="&#xc9;" d="M339 816L304 832L365 917L423 917L339 816M566 46L566 0L93 0L93 710L557 710L557 664L144 664L144 385L505 385L505 341L144 341L144 46L566 46Z"  horiz-adv-x="612" vert-adv-y="1000"  />

      
      <glyph glyph-name="unica" unicode="&#xca;" d="M225 836L321 917L358 917L455 836L425 819L340 882L255 819L225 836M566 46L566 0L93 0L93 710L557 710L557 664L144 664L144 385L505 385L505 341L144 341L144 46L566 46Z"  horiz-adv-x="612" vert-adv-y="1000"  />

      
      <glyph glyph-name="unicb" unicode="&#xcb;" d="M249 828L249 916L293 916L293 828L249 828M385 828L385 916L429 916L429 828L385 828M566 46L566 0L93 0L93 710L557 710L557 664L144 664L144 385L505 385L505 341L144 341L144 46L566 46Z"  horiz-adv-x="612" vert-adv-y="1000"  />

      
      <glyph glyph-name="unicc" unicode="&#xcc;" d="M93 0L93 710L144 710L144 0L93 0M34 918L91 918L153 833L119 817L34 918Z"  horiz-adv-x="237" vert-adv-y="1000"  />

      
      <glyph glyph-name="unicd" unicode="&#xcd;" d="M93 0L93 710L144 710L144 0L93 0M117 816L82 832L143 917L201 917L117 816Z"  horiz-adv-x="237" vert-adv-y="1000"  />

      
      <glyph glyph-name="unice" unicode="&#xce;" d="M93 0L93 710L144 710L144 0L93 0M3 836L99 917L136 917L233 836L203 819L118 882L33 819L3 836Z"  horiz-adv-x="237" vert-adv-y="1000"  />

      
      <glyph glyph-name="unicf" unicode="&#xcf;" d="M93 0L93 710L144 710L144 0L93 0M28 828L28 916L72 916L72 828L28 828M164 828L164 916L208 916L208 828L164 828Z"  horiz-adv-x="237" vert-adv-y="1000"  />

      
      <glyph glyph-name="unid0" unicode="&#xd0;" d="M100 0L100 336L35 336L35 378L100 378L100 710L336 710Q420 710 483.50 682Q547 654 589 606Q631 558 652 493.50Q673 429 673 356Q673 275 649.50 209.50Q626 144 582 97.50Q538 51 475.50 25.50Q413 0 336 0L100 0M622 356Q622 423 603 479.50Q584 536 547.50 577Q511 618 458 641Q405 664 336 664L151 664L151 378L329 378L329 336L151 336L151 46L336 46Q406 46 459.50 69.50Q513 93 549 135Q585 177 603.50 233.50Q622 290 622 356Z"  horiz-adv-x="720" vert-adv-y="1000"  />

      
      <glyph glyph-name="unid1" unicode="&#xd1;" d="M144 614L144 0L93 0L93 710L132 710L630 85L630 710L681 710L681 0L634 0L144 614M452 834Q430 834 413 840Q396 846 382 853.50Q368 861 354.50 867.50Q341 874 326 874Q309 874 299 867Q289 860 284 851.50Q279 843 277 835.50Q275 828 275 826L241 826Q241 830 244 843.50Q247 857 256.50 871.50Q266 886 282.50 897.50Q299 909 326 909Q346 909 361.50 902.50Q377 896 391 888.50Q405 881 419.50 875Q434 869 453 869Q473 869 484.50 876Q496 883 501.50 891.50Q507 900 508.50 907.50Q510 915 510 917L544 917Q544 912 540.50 898.50Q537 885 527.50 871Q518 857 500 845.50Q482 834 452 834Z"  horiz-adv-x="773" vert-adv-y="1000"  />

      
      <glyph glyph-name="unid2" unicode="&#xd2;" d="M376-5Q302-5 241 26Q180 57 136 107Q92 157 68 222Q44 287 44 355Q44 426 69.50 491Q95 556 139.50 606Q184 656 245 685.50Q306 715 377 715Q451 715 512.50 683.50Q574 652 617.50 601Q661 550 685 485.50Q709 421 709 355Q709 283 683.50 218Q658 153 613.50 103.50Q569 54 508 24.50Q447-5 376-5M95 355Q95 294 115.50 237.50Q136 181 173.50 137.50Q211 94 263 68Q315 42 377 42Q441 42 492.50 69Q544 96 580.50 140.50Q617 185 637 241Q657 297 657 355Q657 416 636 472.50Q615 529 577.50 572.50Q540 616 489 642Q438 668 377 668Q313 668 261 641Q209 614 172 569.50Q135 525 115 469Q95 413 95 355M293 918L350 918L412 833L378 817L293 918Z"  horiz-adv-x="753" vert-adv-y="1000"  />

      
      <glyph glyph-name="unid3" unicode="&#xd3;" d="M376 816L341 832L402 917L460 917L376 816M376-5Q302-5 241 26Q180 57 136 107Q92 157 68 222Q44 287 44 355Q44 426 69.50 491Q95 556 139.50 606Q184 656 245 685.50Q306 715 377 715Q451 715 512.50 683.50Q574 652 617.50 601Q661 550 685 485.50Q709 421 709 355Q709 283 683.50 218Q658 153 613.50 103.50Q569 54 508 24.50Q447-5 376-5M95 355Q95 294 115.50 237.50Q136 181 173.50 137.50Q211 94 263 68Q315 42 377 42Q441 42 492.50 69Q544 96 580.50 140.50Q617 185 637 241Q657 297 657 355Q657 416 636 472.50Q615 529 577.50 572.50Q540 616 489 642Q438 668 377 668Q313 668 261 641Q209 614 172 569.50Q135 525 115 469Q95 413 95 355Z"  horiz-adv-x="753" vert-adv-y="1000"  />

      
      <glyph glyph-name="unid4" unicode="&#xd4;" d="M262 836L358 917L395 917L492 836L462 819L377 882L292 819L262 836M376-5Q302-5 241 26Q180 57 136 107Q92 157 68 222Q44 287 44 355Q44 426 69.50 491Q95 556 139.50 606Q184 656 245 685.50Q306 715 377 715Q451 715 512.50 683.50Q574 652 617.50 601Q661 550 685 485.50Q709 421 709 355Q709 283 683.50 218Q658 153 613.50 103.50Q569 54 508 24.50Q447-5 376-5M95 355Q95 294 115.50 237.50Q136 181 173.50 137.50Q211 94 263 68Q315 42 377 42Q441 42 492.50 69Q544 96 580.50 140.50Q617 185 637 241Q657 297 657 355Q657 416 636 472.50Q615 529 577.50 572.50Q540 616 489 642Q438 668 377 668Q313 668 261 641Q209 614 172 569.50Q135 525 115 469Q95 413 95 355Z"  horiz-adv-x="753" vert-adv-y="1000"  />

      
      <glyph glyph-name="unid5" unicode="&#xd5;" d="M376-5Q302-5 241 26Q180 57 136 107Q92 157 68 222Q44 287 44 355Q44 426 69.50 491Q95 556 139.50 606Q184 656 245 685.50Q306 715 377 715Q451 715 512.50 683.50Q574 652 617.50 601Q661 550 685 485.50Q709 421 709 355Q709 283 683.50 218Q658 153 613.50 103.50Q569 54 508 24.50Q447-5 376-5M95 355Q95 294 115.50 237.50Q136 181 173.50 137.50Q211 94 263 68Q315 42 377 42Q441 42 492.50 69Q544 96 580.50 140.50Q617 185 637 241Q657 297 657 355Q657 416 636 472.50Q615 529 577.50 572.50Q540 616 489 642Q438 668 377 668Q313 668 261 641Q209 614 172 569.50Q135 525 115 469Q95 413 95 355M438 834Q416 834 399 840Q382 846 368 853.50Q354 861 340.50 867.50Q327 874 312 874Q295 874 285 867Q275 860 270 851.50Q265 843 263 835.50Q261 828 261 826L227 826Q227 830 230 843.50Q233 857 242.50 871.50Q252 886 268.50 897.50Q285 909 312 909Q332 909 347.50 902.50Q363 896 377 888.50Q391 881 405.50 875Q420 869 439 869Q459 869 470.50 876Q482 883 487.50 891.50Q493 900 494.50 907.50Q496 915 496 917L530 917Q530 912 526.50 898.50Q523 885 513.50 871Q504 857 486 845.50Q468 834 438 834Z"  horiz-adv-x="753" vert-adv-y="1000"  />

      
      <glyph glyph-name="unid6" unicode="&#xd6;" d="M287 828L287 916L331 916L331 828L287 828M423 828L423 916L467 916L467 828L423 828M376-5Q302-5 241 26Q180 57 136 107Q92 157 68 222Q44 287 44 355Q44 426 69.50 491Q95 556 139.50 606Q184 656 245 685.50Q306 715 377 715Q451 715 512.50 683.50Q574 652 617.50 601Q661 550 685 485.50Q709 421 709 355Q709 283 683.50 218Q658 153 613.50 103.50Q569 54 508 24.50Q447-5 376-5M95 355Q95 294 115.50 237.50Q136 181 173.50 137.50Q211 94 263 68Q315 42 377 42Q441 42 492.50 69Q544 96 580.50 140.50Q617 185 637 241Q657 297 657 355Q657 416 636 472.50Q615 529 577.50 572.50Q540 616 489 642Q438 668 377 668Q313 668 261 641Q209 614 172 569.50Q135 525 115 469Q95 413 95 355Z"  horiz-adv-x="753" vert-adv-y="1000"  />

      
      <glyph glyph-name="unid7" unicode="&#xd7;" d="M385 145L352 113L225 239L99 113L67 146L192 271L67 398L100 430L225 304L352 431L384 398L258 271L385 145Z"  horiz-adv-x="451" vert-adv-y="1000"  />

      
      <glyph glyph-name="unid8" unicode="&#xd8;" d="M639 710L587 632Q645 579 677 505.50Q709 432 709 355Q709 283 683.50 218Q658 153 613.50 103.50Q569 54 508 24.50Q447-5 376-5Q327-5 283 9Q239 23 203 48L172 0L115 0L165 77Q108 129 76 202Q44 275 44 355Q44 426 69.50 491Q95 556 139.50 606Q184 656 245 685.50Q306 715 377 715Q426 715 469 701Q512 687 549 662L581 710L639 710M95 355Q95 286 120.50 224.50Q146 163 192 118L523 622Q491 644 454.50 656Q418 668 377 668Q313 668 261 641Q209 614 172 569.50Q135 525 115 469Q95 413 95 355M657 355Q657 423 631 484.50Q605 546 560 591L229 87Q261 66 298 54Q335 42 377 42Q441 42 492.50 69Q544 96 580.50 140.50Q617 185 637 241Q657 297 657 355Z"  horiz-adv-x="753" vert-adv-y="1000"  />

      
      <glyph glyph-name="unid9" unicode="&#xd9;" d="M378 42Q450 42 497.50 69Q545 96 572.50 140Q600 184 611.50 240Q623 296 623 353L623 710L674 710L674 353Q674 282 658.50 217Q643 152 608 102.50Q573 53 517 24Q461-5 379-5Q294-5 237 25.50Q180 56 145.50 106.50Q111 157 96.50 221Q82 285 82 353L82 710L133 710L133 353Q133 294 144.50 238Q156 182 184.50 138.50Q213 95 260 68.50Q307 42 378 42M295 918L352 918L414 833L380 817L295 918Z"  horiz-adv-x="756" vert-adv-y="1000"  />

      
      <glyph glyph-name="unida" unicode="&#xda;" d="M378 816L343 832L404 917L462 917L378 816M378 42Q450 42 497.50 69Q545 96 572.50 140Q600 184 611.50 240Q623 296 623 353L623 710L674 710L674 353Q674 282 658.50 217Q643 152 608 102.50Q573 53 517 24Q461-5 379-5Q294-5 237 25.50Q180 56 145.50 106.50Q111 157 96.50 221Q82 285 82 353L82 710L133 710L133 353Q133 294 144.50 238Q156 182 184.50 138.50Q213 95 260 68.50Q307 42 378 42Z"  horiz-adv-x="756" vert-adv-y="1000"  />

      
      <glyph glyph-name="unidb" unicode="&#xdb;" d="M264 836L360 917L397 917L494 836L464 819L379 882L294 819L264 836M378 42Q450 42 497.50 69Q545 96 572.50 140Q600 184 611.50 240Q623 296 623 353L623 710L674 710L674 353Q674 282 658.50 217Q643 152 608 102.50Q573 53 517 24Q461-5 379-5Q294-5 237 25.50Q180 56 145.50 106.50Q111 157 96.50 221Q82 285 82 353L82 710L133 710L133 353Q133 294 144.50 238Q156 182 184.50 138.50Q213 95 260 68.50Q307 42 378 42Z"  horiz-adv-x="756" vert-adv-y="1000"  />

      
      <glyph glyph-name="unidc" unicode="&#xdc;" d="M288 828L288 916L332 916L332 828L288 828M424 828L424 916L468 916L468 828L424 828M378 42Q450 42 497.50 69Q545 96 572.50 140Q600 184 611.50 240Q623 296 623 353L623 710L674 710L674 353Q674 282 658.50 217Q643 152 608 102.50Q573 53 517 24Q461-5 379-5Q294-5 237 25.50Q180 56 145.50 106.50Q111 157 96.50 221Q82 285 82 353L82 710L133 710L133 353Q133 294 144.50 238Q156 182 184.50 138.50Q213 95 260 68.50Q307 42 378 42Z"  horiz-adv-x="756" vert-adv-y="1000"  />

      
      <glyph glyph-name="unidd" unicode="&#xdd;" d="M75 710L323 317L572 710L629 710L349 268L349 0L298 0L298 270L19 710L75 710M322 816L287 832L348 917L406 917L322 816Z"  horiz-adv-x="647" vert-adv-y="1000"  />

      
      <glyph glyph-name="unide" unicode="&#xde;" d="M366 566Q411 566 449 547Q487 528 514 496.50Q541 465 556.50 425.50Q572 386 572 345Q572 302 557.50 262Q543 222 517 191.50Q491 161 454 142.50Q417 124 372 124L144 124L144 0L93 0L93 710L144 710L144 566L366 566M371 171Q406 171 434 186Q462 201 481.50 225.50Q501 250 511.50 281Q522 312 522 345Q522 379 509.50 410.50Q497 442 475.50 466Q454 490 425.50 504.50Q397 519 364 519L144 519L144 171L371 171Z"  horiz-adv-x="601" vert-adv-y="1000"  />

      
      <glyph glyph-name="unidf" unicode="&#xdf;" d="M235 40Q338 42 397.50 84Q457 126 457 208Q457 246 443.50 277Q430 308 406 330.50Q382 353 348.50 365Q315 377 275 377L258 377L258 424L274 424Q303 424 327.50 433Q352 442 370 458.50Q388 475 398 497.50Q408 520 408 547Q408 575 397.50 597.50Q387 620 368 636Q349 652 324 660.50Q299 669 271 669Q236 669 209.50 656.50Q183 644 164.50 622.50Q146 601 136.50 571Q127 541 127 506L127 0L78 0L78 513Q78 558 92.50 595Q107 632 132.50 658.50Q158 685 194 699.50Q230 714 272 714Q311 714 345 702Q379 690 403.50 669Q428 648 442 618.50Q456 589 456 555Q456 528 447.50 503Q439 478 424 457.50Q409 437 388.50 422.50Q368 408 345 403Q423 386 465.50 333.50Q508 281 508 205Q508 106 435 52Q362-2 235-6L235 40Z"  horiz-adv-x="549" vert-adv-y="1000"  />

      
      <glyph glyph-name="unie0" unicode="&#xe0;" d="M206-10Q170-10 139 2.50Q108 15 84.50 36.50Q61 58 48 87.50Q35 117 35 151Q35 185 51 213Q67 241 95.50 261.50Q124 282 164 293.50Q204 305 252 305Q294 305 336.50 297.50Q379 290 413 277L413 328Q413 402 371 445.50Q329 489 257 489Q219 489 176.50 473Q134 457 90 427L71 461Q171 529 261 529Q355 529 409 474.50Q463 420 463 324L463 70Q463 45 485 45L485 0Q480-1 474.50-1.50Q469-2 465-2Q445-2 433 11.50Q421 25 419 44L419 87Q383 40 327 15Q271-10 206-10M216 30Q274 30 322.50 52Q371 74 397 110Q413 131 413 150L413 242Q377 256 338 263Q299 270 257 270Q218 270 186 261.50Q154 253 131 238Q108 223 95.50 201.50Q83 180 83 154Q83 128 93 105Q103 82 121 65.50Q139 49 163.50 39.50Q188 30 216 30M177 730L234 730L296 645L262 629L177 730Z"  horiz-adv-x="537" vert-adv-y="1000"  />

      
      <glyph glyph-name="unie1" unicode="&#xe1;" d="M206-10Q170-10 139 2.50Q108 15 84.50 36.50Q61 58 48 87.50Q35 117 35 151Q35 185 51 213Q67 241 95.50 261.50Q124 282 164 293.50Q204 305 252 305Q294 305 336.50 297.50Q379 290 413 277L413 328Q413 402 371 445.50Q329 489 257 489Q219 489 176.50 473Q134 457 90 427L71 461Q171 529 261 529Q355 529 409 474.50Q463 420 463 324L463 70Q463 45 485 45L485 0Q480-1 474.50-1.50Q469-2 465-2Q445-2 433 11.50Q421 25 419 44L419 87Q383 40 327 15Q271-10 206-10M216 30Q274 30 322.50 52Q371 74 397 110Q413 131 413 150L413 242Q377 256 338 263Q299 270 257 270Q218 270 186 261.50Q154 253 131 238Q108 223 95.50 201.50Q83 180 83 154Q83 128 93 105Q103 82 121 65.50Q139 49 163.50 39.50Q188 30 216 30M260 629L225 645L286 730L344 730L260 629Z"  horiz-adv-x="537" vert-adv-y="1000"  />

      
      <glyph glyph-name="unie2" unicode="&#xe2;" d="M206-10Q170-10 139 2.50Q108 15 84.50 36.50Q61 58 48 87.50Q35 117 35 151Q35 185 51 213Q67 241 95.50 261.50Q124 282 164 293.50Q204 305 252 305Q294 305 336.50 297.50Q379 290 413 277L413 328Q413 402 371 445.50Q329 489 257 489Q219 489 176.50 473Q134 457 90 427L71 461Q171 529 261 529Q355 529 409 474.50Q463 420 463 324L463 70Q463 45 485 45L485 0Q480-1 474.50-1.50Q469-2 465-2Q445-2 433 11.50Q421 25 419 44L419 87Q383 40 327 15Q271-10 206-10M216 30Q274 30 322.50 52Q371 74 397 110Q413 131 413 150L413 242Q377 256 338 263Q299 270 257 270Q218 270 186 261.50Q154 253 131 238Q108 223 95.50 201.50Q83 180 83 154Q83 128 93 105Q103 82 121 65.50Q139 49 163.50 39.50Q188 30 216 30M146 649L242 730L279 730L376 649L346 632L261 695L176 632L146 649Z"  horiz-adv-x="537" vert-adv-y="1000"  />

      
      <glyph glyph-name="unie3" unicode="&#xe3;" d="M206-10Q170-10 139 2.50Q108 15 84.50 36.50Q61 58 48 87.50Q35 117 35 151Q35 185 51 213Q67 241 95.50 261.50Q124 282 164 293.50Q204 305 252 305Q294 305 336.50 297.50Q379 290 413 277L413 328Q413 402 371 445.50Q329 489 257 489Q219 489 176.50 473Q134 457 90 427L71 461Q171 529 261 529Q355 529 409 474.50Q463 420 463 324L463 70Q463 45 485 45L485 0Q480-1 474.50-1.50Q469-2 465-2Q445-2 433 11.50Q421 25 419 44L419 87Q383 40 327 15Q271-10 206-10M216 30Q274 30 322.50 52Q371 74 397 110Q413 131 413 150L413 242Q377 256 338 263Q299 270 257 270Q218 270 186 261.50Q154 253 131 238Q108 223 95.50 201.50Q83 180 83 154Q83 128 93 105Q103 82 121 65.50Q139 49 163.50 39.50Q188 30 216 30M322 647Q300 647 283 653Q266 659 252 666.50Q238 674 224.50 680.50Q211 687 196 687Q179 687 169 680Q159 673 154 664.50Q149 656 147 648.50Q145 641 145 639L111 639Q111 643 114 656.50Q117 670 126.50 684.50Q136 699 152.50 710.50Q169 722 196 722Q216 722 231.50 715.50Q247 709 261 701.50Q275 694 289.50 688Q304 682 323 682Q343 682 354.50 689Q366 696 371.50 704.50Q377 713 378.50 720.50Q380 728 380 730L414 730Q414 725 410.50 711.50Q407 698 397.50 684Q388 670 370 658.50Q352 647 322 647Z"  horiz-adv-x="537" vert-adv-y="1000"  />

      
      <glyph glyph-name="unie4" unicode="&#xe4;" d="M206-10Q170-10 139 2.50Q108 15 84.50 36.50Q61 58 48 87.50Q35 117 35 151Q35 185 51 213Q67 241 95.50 261.50Q124 282 164 293.50Q204 305 252 305Q294 305 336.50 297.50Q379 290 413 277L413 328Q413 402 371 445.50Q329 489 257 489Q219 489 176.50 473Q134 457 90 427L71 461Q171 529 261 529Q355 529 409 474.50Q463 420 463 324L463 70Q463 45 485 45L485 0Q480-1 474.50-1.50Q469-2 465-2Q445-2 433 11.50Q421 25 419 44L419 87Q383 40 327 15Q271-10 206-10M216 30Q274 30 322.50 52Q371 74 397 110Q413 131 413 150L413 242Q377 256 338 263Q299 270 257 270Q218 270 186 261.50Q154 253 131 238Q108 223 95.50 201.50Q83 180 83 154Q83 128 93 105Q103 82 121 65.50Q139 49 163.50 39.50Q188 30 216 30M171 640L171 728L215 728L215 640L171 640M307 640L307 728L351 728L351 640L307 640Z"  horiz-adv-x="537" vert-adv-y="1000"  />

      
      <glyph glyph-name="unie5" unicode="&#xe5;" d="M206-10Q170-10 139 2.50Q108 15 84.50 36.50Q61 58 48 87.50Q35 117 35 151Q35 185 51 213Q67 241 95.50 261.50Q124 282 164 293.50Q204 305 252 305Q294 305 336.50 297.50Q379 290 413 277L413 328Q413 402 371 445.50Q329 489 257 489Q219 489 176.50 473Q134 457 90 427L71 461Q171 529 261 529Q355 529 409 474.50Q463 420 463 324L463 70Q463 45 485 45L485 0Q480-1 474.50-1.50Q469-2 465-2Q445-2 433 11.50Q421 25 419 44L419 87Q383 40 327 15Q271-10 206-10M216 30Q274 30 322.50 52Q371 74 397 110Q413 131 413 150L413 242Q377 256 338 263Q299 270 257 270Q218 270 186 261.50Q154 253 131 238Q108 223 95.50 201.50Q83 180 83 154Q83 128 93 105Q103 82 121 65.50Q139 49 163.50 39.50Q188 30 216 30M192 668Q192 695 211.50 712.50Q231 730 260 730Q289 730 308.50 712.50Q328 695 328 668Q328 640 308.50 622.50Q289 605 260 605Q231 605 211.50 622.50Q192 640 192 668M260 707Q243 707 231.50 696.50Q220 686 220 668Q220 651 231.50 639.50Q243 628 260 628Q276 628 288.50 639.50Q301 651 301 668Q301 686 289 696.50Q277 707 260 707Z"  horiz-adv-x="537" vert-adv-y="1000"  />

      
      <glyph glyph-name="unie6" unicode="&#xe6;" d="M206-10Q170-10 139 2.50Q108 15 84.50 36.50Q61 58 48 87.50Q35 117 35 151Q35 185 51 213Q67 241 95.50 261.50Q124 282 163.50 293.50Q203 305 251 305Q286 305 322 299.50Q358 294 389 285Q391 306 395.50 327.50Q400 349 408 369Q397 425 357.50 457Q318 489 257 489Q219 489 176.50 473Q134 457 90 427L70 461Q171 529 261 529Q327 529 372.50 500Q418 471 440 418Q472 468 525 498.50Q578 529 642 529Q697 529 744 508Q791 487 825.50 450Q860 413 879.50 364Q899 315 899 260Q899 257 898.50 249.50Q898 242 898 240L437 240Q440 195 458 156.50Q476 118 504.50 90Q533 62 570 46Q607 30 648 30Q675 30 701.50 37.50Q728 45 750.50 58Q773 71 790.50 89.50Q808 108 818 130L862 118Q850 90 828.50 66.50Q807 43 778.50 26Q750 9 716-0.50Q682-10 646-10Q579-10 524 22Q469 54 434 107Q418 76 392 54Q366 32 335 17.50Q304 3 270.50-3.50Q237-10 206-10M216 30Q274 30 323 51.50Q372 73 397 110Q412 129 413 145Q402 168 396 196Q390 224 389 250Q326 270 257 270Q179 270 131 238Q83 206 83 154Q83 128 93 105Q103 82 121 65.50Q139 49 163.50 39.50Q188 30 216 30M850 277Q847 323 830 362Q813 401 785 429Q757 457 720.50 472.50Q684 488 642 488Q600 488 563.50 472Q527 456 499.50 428Q472 400 455.50 361.50Q439 323 437 277L850 277Z"  horiz-adv-x="930" vert-adv-y="1000"  />

      
      <glyph glyph-name="unie7" unicode="&#xe7;" d="M222-125Q236-132 259.50-138Q283-144 309-144Q367-144 367-107Q367-87 353.50-79Q340-71 318-71Q297-71 274-76Q251-81 237-85L279-9Q228-5 184.50 17.50Q141 40 109.50 77Q78 114 60 161.50Q42 209 42 262Q42 317 61 366Q80 415 114 451Q148 487 195 508Q242 529 298 529Q369 529 423 497Q477 465 504 408L455 392Q432 435 389.50 459.50Q347 484 296 484Q253 484 216 467Q179 450 151.50 420Q124 390 108 349.50Q92 309 92 262Q92 215 108.50 173.50Q125 132 152.50 101.50Q180 71 217.50 53Q255 35 297 35Q324 35 350.50 43Q377 51 399.50 64Q422 77 438.50 94.50Q455 112 461 131L510 117Q500 91 481 68.50Q462 46 436 29.50Q410 13 378 2.50Q346-8 312-9L286-53Q295-49 306.50-48Q318-47 326-47Q360-47 379-62Q398-77 398-106Q398-138 374-154.50Q350-171 305-171Q276-171 251.50-165.50Q227-160 208-152L222-125Z"  horiz-adv-x="545" vert-adv-y="1000"  />

      
      <glyph glyph-name="unie8" unicode="&#xe8;" d="M299-10Q244-10 197 11.50Q150 33 115.50 70.50Q81 108 61.50 157Q42 206 42 262Q42 317 61.50 365.50Q81 414 115 450.50Q149 487 195.50 508Q242 529 296 529Q351 529 398 507.50Q445 486 479 449.50Q513 413 532 364.50Q551 316 551 262Q551 257 551 249.50Q551 242 550 240L94 240Q97 195 115 156.50Q133 118 160.50 90Q188 62 224 46Q260 30 301 30Q328 30 354 37.50Q380 45 402.50 58Q425 71 442.50 89.50Q460 108 470 130L514 118Q503 90 481.50 66.50Q460 43 431.50 26Q403 9 369-0.50Q335-10 299-10M503 280Q500 326 482.50 364Q465 402 437.50 429.50Q410 457 374 472.50Q338 488 297 488Q256 488 220 472.50Q184 457 156.50 429.50Q129 402 112.50 363.50Q96 325 93 280L503 280M211 730L268 730L330 645L296 629L211 730Z"  horiz-adv-x="583" vert-adv-y="1000"  />

      
      <glyph glyph-name="unie9" unicode="&#xe9;" d="M294 629L259 645L320 730L378 730L294 629M299-10Q244-10 197 11.50Q150 33 115.50 70.50Q81 108 61.50 157Q42 206 42 262Q42 317 61.50 365.50Q81 414 115 450.50Q149 487 195.50 508Q242 529 296 529Q351 529 398 507.50Q445 486 479 449.50Q513 413 532 364.50Q551 316 551 262Q551 257 551 249.50Q551 242 550 240L94 240Q97 195 115 156.50Q133 118 160.50 90Q188 62 224 46Q260 30 301 30Q328 30 354 37.50Q380 45 402.50 58Q425 71 442.50 89.50Q460 108 470 130L514 118Q503 90 481.50 66.50Q460 43 431.50 26Q403 9 369-0.50Q335-10 299-10M503 280Q500 326 482.50 364Q465 402 437.50 429.50Q410 457 374 472.50Q338 488 297 488Q256 488 220 472.50Q184 457 156.50 429.50Q129 402 112.50 363.50Q96 325 93 280L503 280Z"  horiz-adv-x="583" vert-adv-y="1000"  />

      
      <glyph glyph-name="uniea" unicode="&#xea;" d="M180 649L276 730L313 730L410 649L380 632L295 695L210 632L180 649M299-10Q244-10 197 11.50Q150 33 115.50 70.50Q81 108 61.50 157Q42 206 42 262Q42 317 61.50 365.50Q81 414 115 450.50Q149 487 195.50 508Q242 529 296 529Q351 529 398 507.50Q445 486 479 449.50Q513 413 532 364.50Q551 316 551 262Q551 257 551 249.50Q551 242 550 240L94 240Q97 195 115 156.50Q133 118 160.50 90Q188 62 224 46Q260 30 301 30Q328 30 354 37.50Q380 45 402.50 58Q425 71 442.50 89.50Q460 108 470 130L514 118Q503 90 481.50 66.50Q460 43 431.50 26Q403 9 369-0.50Q335-10 299-10M503 280Q500 326 482.50 364Q465 402 437.50 429.50Q410 457 374 472.50Q338 488 297 488Q256 488 220 472.50Q184 457 156.50 429.50Q129 402 112.50 363.50Q96 325 93 280L503 280Z"  horiz-adv-x="583" vert-adv-y="1000"  />

      
      <glyph glyph-name="unieb" unicode="&#xeb;" d="M205 640L205 728L249 728L249 640L205 640M341 640L341 728L385 728L385 640L341 640M299-10Q244-10 197 11.50Q150 33 115.50 70.50Q81 108 61.50 157Q42 206 42 262Q42 317 61.50 365.50Q81 414 115 450.50Q149 487 195.50 508Q242 529 296 529Q351 529 398 507.50Q445 486 479 449.50Q513 413 532 364.50Q551 316 551 262Q551 257 551 249.50Q551 242 550 240L94 240Q97 195 115 156.50Q133 118 160.50 90Q188 62 224 46Q260 30 301 30Q328 30 354 37.50Q380 45 402.50 58Q425 71 442.50 89.50Q460 108 470 130L514 118Q503 90 481.50 66.50Q460 43 431.50 26Q403 9 369-0.50Q335-10 299-10M503 280Q500 326 482.50 364Q465 402 437.50 429.50Q410 457 374 472.50Q338 488 297 488Q256 488 220 472.50Q184 457 156.50 429.50Q129 402 112.50 363.50Q96 325 93 280L503 280Z"  horiz-adv-x="583" vert-adv-y="1000"  />

      
      <glyph glyph-name="uniec" unicode="&#xec;" d="M78 0L78 520L128 520L128 0L78 0M19 730L76 730L138 645L104 629L19 730Z"  horiz-adv-x="207" vert-adv-y="1000"  />

      
      <glyph glyph-name="unied" unicode="&#xed;" d="M102 629L67 645L128 730L186 730L102 629M78 0L78 520L128 520L128 0L78 0Z"  horiz-adv-x="207" vert-adv-y="1000"  />

      
      <glyph glyph-name="uniee" unicode="&#xee;" d="M-12 649L84 730L121 730L218 649L188 632L103 695L18 632L-12 649M78 0L78 520L128 520L128 0L78 0Z"  horiz-adv-x="207" vert-adv-y="1000"  />

      
      <glyph glyph-name="unief" unicode="&#xef;" d="M13 640L13 728L57 728L57 640L13 640M149 640L149 728L193 728L193 640L149 640M78 0L78 520L128 520L128 0L78 0Z"  horiz-adv-x="207" vert-adv-y="1000"  />

      
      <glyph glyph-name="unif0" unicode="&#xf0;" d="M486 689L400 635Q446 591 476 544.50Q506 498 523 451.50Q540 405 546.50 358Q553 311 553 265Q553 205 532.50 155Q512 105 477 68Q442 31 395 10.50Q348-10 296-10Q244-10 198 9Q152 28 118 61Q84 94 64 138Q44 182 44 232Q44 281 63.50 325Q83 369 116.50 402Q150 435 194.50 454.50Q239 474 290 474Q361 474 418 439Q475 404 502 347Q493 413 463 480Q433 547 362 614L246 540L228 565L340 634Q311 658 277 682Q243 706 201 730L272 730Q302 712 328.50 693.50Q355 675 378 655L469 713L486 689M95 231Q95 190 111 154.50Q127 119 154 92.50Q181 66 218 50.50Q255 35 297 35Q339 35 376.50 51.50Q414 68 442 96.50Q470 125 486 163Q502 201 502 243Q502 282 486 316Q470 350 442 375.50Q414 401 377.50 416Q341 431 299 431Q257 431 220 415Q183 399 155 372Q127 345 111 308.50Q95 272 95 231Z"  horiz-adv-x="599" vert-adv-y="1000"  />

      
      <glyph glyph-name="unif1" unicode="&#xf1;" d="M503 0L453 0L453 290Q453 391 424.50 437Q396 483 334 483Q301 483 268.50 471Q236 459 208 437Q180 415 159 385.50Q138 356 128 322L128 0L78 0L78 520L125 520L125 396Q141 426 164.50 450.50Q188 475 217.50 492.50Q247 510 280 519.50Q313 529 348 529Q433 529 468 469.50Q503 410 503 299L503 0M351 647Q329 647 312 653Q295 659 281 666.50Q267 674 253.50 680.50Q240 687 225 687Q208 687 198 680Q188 673 183 664.50Q178 656 176 648.50Q174 641 174 639L140 639Q140 643 143 656.50Q146 670 155.50 684.50Q165 699 181.50 710.50Q198 722 225 722Q245 722 260.50 715.50Q276 709 290 701.50Q304 694 318.50 688Q333 682 352 682Q372 682 383.50 689Q395 696 400.50 704.50Q406 713 407.50 720.50Q409 728 409 730L443 730Q443 725 439.50 711.50Q436 698 426.50 684Q417 670 399 658.50Q381 647 351 647Z"  horiz-adv-x="576" vert-adv-y="1000"  />

      
      <glyph glyph-name="unif2" unicode="&#xf2;" d="M296-10Q241-10 194.50 11.50Q148 33 114 70Q80 107 61 156Q42 205 42 259Q42 314 61.50 363Q81 412 115 449Q149 486 195.50 507.50Q242 529 296 529Q350 529 396 507.50Q442 486 476.50 449Q511 412 530.50 363Q550 314 550 259Q550 205 530.50 156Q511 107 477 70Q443 33 396.50 11.50Q350-10 296-10M92 257Q92 211 108 170.50Q124 130 151.50 100Q179 70 216 52.50Q253 35 295 35Q337 35 374 52.50Q411 70 439 101Q467 132 483 172.50Q499 213 499 260Q499 306 483 346.50Q467 387 439 417.50Q411 448 374.50 466Q338 484 296 484Q254 484 217 466Q180 448 152.50 417Q125 386 108.50 344.50Q92 303 92 257M212 730L269 730L331 645L297 629L212 730Z"  horiz-adv-x="592" vert-adv-y="1000"  />

      
      <glyph glyph-name="unif3" unicode="&#xf3;" d="M295 629L260 645L321 730L379 730L295 629M296-10Q241-10 194.50 11.50Q148 33 114 70Q80 107 61 156Q42 205 42 259Q42 314 61.50 363Q81 412 115 449Q149 486 195.50 507.50Q242 529 296 529Q350 529 396 507.50Q442 486 476.50 449Q511 412 530.50 363Q550 314 550 259Q550 205 530.50 156Q511 107 477 70Q443 33 396.50 11.50Q350-10 296-10M92 257Q92 211 108 170.50Q124 130 151.50 100Q179 70 216 52.50Q253 35 295 35Q337 35 374 52.50Q411 70 439 101Q467 132 483 172.50Q499 213 499 260Q499 306 483 346.50Q467 387 439 417.50Q411 448 374.50 466Q338 484 296 484Q254 484 217 466Q180 448 152.50 417Q125 386 108.50 344.50Q92 303 92 257Z"  horiz-adv-x="592" vert-adv-y="1000"  />

      
      <glyph glyph-name="unif4" unicode="&#xf4;" d="M181 649L277 730L314 730L411 649L381 632L296 695L211 632L181 649M296-10Q241-10 194.50 11.50Q148 33 114 70Q80 107 61 156Q42 205 42 259Q42 314 61.50 363Q81 412 115 449Q149 486 195.50 507.50Q242 529 296 529Q350 529 396 507.50Q442 486 476.50 449Q511 412 530.50 363Q550 314 550 259Q550 205 530.50 156Q511 107 477 70Q443 33 396.50 11.50Q350-10 296-10M92 257Q92 211 108 170.50Q124 130 151.50 100Q179 70 216 52.50Q253 35 295 35Q337 35 374 52.50Q411 70 439 101Q467 132 483 172.50Q499 213 499 260Q499 306 483 346.50Q467 387 439 417.50Q411 448 374.50 466Q338 484 296 484Q254 484 217 466Q180 448 152.50 417Q125 386 108.50 344.50Q92 303 92 257Z"  horiz-adv-x="592" vert-adv-y="1000"  />

      
      <glyph glyph-name="unif5" unicode="&#xf5;" d="M296-10Q241-10 194.50 11.50Q148 33 114 70Q80 107 61 156Q42 205 42 259Q42 314 61.50 363Q81 412 115 449Q149 486 195.50 507.50Q242 529 296 529Q350 529 396 507.50Q442 486 476.50 449Q511 412 530.50 363Q550 314 550 259Q550 205 530.50 156Q511 107 477 70Q443 33 396.50 11.50Q350-10 296-10M92 257Q92 211 108 170.50Q124 130 151.50 100Q179 70 216 52.50Q253 35 295 35Q337 35 374 52.50Q411 70 439 101Q467 132 483 172.50Q499 213 499 260Q499 306 483 346.50Q467 387 439 417.50Q411 448 374.50 466Q338 484 296 484Q254 484 217 466Q180 448 152.50 417Q125 386 108.50 344.50Q92 303 92 257M357 647Q335 647 318 653Q301 659 287 666.50Q273 674 259.50 680.50Q246 687 231 687Q214 687 204 680Q194 673 189 664.50Q184 656 182 648.50Q180 641 180 639L146 639Q146 643 149 656.50Q152 670 161.50 684.50Q171 699 187.50 710.50Q204 722 231 722Q251 722 266.50 715.50Q282 709 296 701.50Q310 694 324.50 688Q339 682 358 682Q378 682 389.50 689Q401 696 406.50 704.50Q412 713 413.50 720.50Q415 728 415 730L449 730Q449 725 445.50 711.50Q442 698 432.50 684Q423 670 405 658.50Q387 647 357 647Z"  horiz-adv-x="592" vert-adv-y="1000"  />

      
      <glyph glyph-name="unif6" unicode="&#xf6;" d="M206 640L206 728L250 728L250 640L206 640M342 640L342 728L386 728L386 640L342 640M296-10Q241-10 194.50 11.50Q148 33 114 70Q80 107 61 156Q42 205 42 259Q42 314 61.50 363Q81 412 115 449Q149 486 195.50 507.50Q242 529 296 529Q350 529 396 507.50Q442 486 476.50 449Q511 412 530.50 363Q550 314 550 259Q550 205 530.50 156Q511 107 477 70Q443 33 396.50 11.50Q350-10 296-10M92 257Q92 211 108 170.50Q124 130 151.50 100Q179 70 216 52.50Q253 35 295 35Q337 35 374 52.50Q411 70 439 101Q467 132 483 172.50Q499 213 499 260Q499 306 483 346.50Q467 387 439 417.50Q411 448 374.50 466Q338 484 296 484Q254 484 217 466Q180 448 152.50 417Q125 386 108.50 344.50Q92 303 92 257Z"  horiz-adv-x="592" vert-adv-y="1000"  />

      
      <glyph glyph-name="unif7" unicode="&#xf7;" d="M248 394L248 475L292 475L292 394L248 394M248 81L248 161L292 161L292 81L248 81M69 257L69 300L472 300L472 257L69 257Z"  horiz-adv-x="540" vert-adv-y="1000"  />

      
      <glyph glyph-name="unif8" unicode="&#xf8;" d="M104-1L138 47Q93 85 67.50 140Q42 195 42 259Q42 314 61.50 363Q81 412 115 449Q149 486 195.50 507.50Q242 529 296 529Q332 529 365 518.50Q398 508 427 490L449 521L489 521L453 471Q498 433 524 378Q550 323 550 259Q550 205 530.50 156Q511 107 477 70Q443 33 396.50 11.50Q350-10 296-10Q258-10 225.50 0Q193 10 164 28L142-1L104-1M92 257Q92 204 112 160Q132 116 166 85L401 451Q378 467 351.50 475.50Q325 484 296 484Q254 484 217 466Q180 448 152.50 417Q125 386 108.50 344.50Q92 303 92 257M295 35Q337 35 374 52.50Q411 70 439 101Q467 132 483 172.50Q499 213 499 260Q499 311 479 355.50Q459 400 425 431L189 67Q236 35 295 35Z"  horiz-adv-x="592" vert-adv-y="1000"  />

      
      <glyph glyph-name="unif9" unicode="&#xf9;" d="M239-10Q73-10 73 220L73 520L123 520L123 227Q123 35 254 35Q287 35 318 46.50Q349 58 376 78.50Q403 99 423.50 128Q444 157 456 192L456 520L506 520L506 70Q506 45 527 45L527 0Q522-1 518-1Q514-1 512-1Q492-1 476.50 11.50Q461 24 461 45L461 123Q427 60 367.50 25Q308-10 239-10M204 730L261 730L323 645L289 629L204 730Z"  horiz-adv-x="587" vert-adv-y="1000"  />

      
      <glyph glyph-name="unifa" unicode="&#xfa;" d="M286 629L251 645L312 730L370 730L286 629M239-10Q73-10 73 220L73 520L123 520L123 227Q123 35 254 35Q287 35 318 46.50Q349 58 376 78.50Q403 99 423.50 128Q444 157 456 192L456 520L506 520L506 70Q506 45 527 45L527 0Q522-1 518-1Q514-1 512-1Q492-1 476.50 11.50Q461 24 461 45L461 123Q427 60 367.50 25Q308-10 239-10Z"  horiz-adv-x="587" vert-adv-y="1000"  />

      
      <glyph glyph-name="unifb" unicode="&#xfb;" d="M172 649L268 730L305 730L402 649L372 632L287 695L202 632L172 649M239-10Q73-10 73 220L73 520L123 520L123 227Q123 35 254 35Q287 35 318 46.50Q349 58 376 78.50Q403 99 423.50 128Q444 157 456 192L456 520L506 520L506 70Q506 45 527 45L527 0Q522-1 518-1Q514-1 512-1Q492-1 476.50 11.50Q461 24 461 45L461 123Q427 60 367.50 25Q308-10 239-10Z"  horiz-adv-x="587" vert-adv-y="1000"  />

      
      <glyph glyph-name="unifc" unicode="&#xfc;" d="M197 640L197 728L241 728L241 640L197 640M333 640L333 728L377 728L377 640L333 640M239-10Q73-10 73 220L73 520L123 520L123 227Q123 35 254 35Q287 35 318 46.50Q349 58 376 78.50Q403 99 423.50 128Q444 157 456 192L456 520L506 520L506 70Q506 45 527 45L527 0Q522-1 518-1Q514-1 512-1Q492-1 476.50 11.50Q461 24 461 45L461 123Q427 60 367.50 25Q308-10 239-10Z"  horiz-adv-x="587" vert-adv-y="1000"  />

      
      <glyph glyph-name="unifd" unicode="&#xfd;" d="M113-176Q118-177 128-177Q138-177 146.50-176Q155-175 163-171Q169-168 174-162.50Q179-157 188-140Q197-123 211-90Q225-57 249 0L17 520L69 520L276 49L469 520L518 520L233-164Q222-192 197.50-207.50Q173-223 131-223Q127-223 122.50-223Q118-223 113-222L113-176M275 629L240 645L301 730L359 730L275 629Z"  horiz-adv-x="540" vert-adv-y="1000"  />

      
      <glyph glyph-name="unife" unicode="&#xfe;" d="M562 258Q561 204 541 155Q521 106 487 68.50Q453 31 407 8.50Q361-14 308-14Q279-14 252.50-6Q226 2 202.50 16Q179 30 160.50 48Q142 66 129 87L129-213L78-213L78 710L129 710L129 421Q162 467 207.50 498.50Q253 530 317 530Q374 530 419.50 505.50Q465 481 496.50 442Q528 403 545 354.50Q562 306 562 258M511 258Q511 302 497 342.50Q483 383 457 414.50Q431 446 395 465Q359 484 315 484Q282 484 254 473Q226 462 202.50 443.50Q179 425 160.50 401Q142 377 129 351L129 171Q129 144 146.50 119Q164 94 190.50 75Q217 56 248.50 44.50Q280 33 307 33Q352 33 389.50 52Q427 71 454 102.50Q481 134 496 174.50Q511 215 511 258Z"  horiz-adv-x="603" vert-adv-y="1000"  />

      
      <glyph glyph-name="uniff" unicode="&#xff;" d="M113-176Q118-177 128-177Q138-177 146.50-176Q155-175 163-171Q169-168 174-162.50Q179-157 188-140Q197-123 211-90Q225-57 249 0L17 520L69 520L276 49L469 520L518 520L233-164Q222-192 197.50-207.50Q173-223 131-223Q127-223 122.50-223Q118-223 113-222L113-176M186 640L186 728L230 728L230 640L186 640M322 640L322 728L366 728L366 640L322 640Z"  horiz-adv-x="540" vert-adv-y="1000"  />

      
      <glyph glyph-name="uni0100" unicode="&#x0100;" d="M316 710L360 710L660 0L606 0L507 234L168 234L69 0L14 0L316 710M493 276L338 648L180 276L493 276M196 859L196 896L481 896L481 859L196 859Z"  horiz-adv-x="675" vert-adv-y="1000"  />

      
      <glyph glyph-name="uni0101" unicode="&#x0101;" d="M206-10Q170-10 139 2.50Q108 15 84.50 36.50Q61 58 48 87.50Q35 117 35 151Q35 185 51 213Q67 241 95.50 261.50Q124 282 164 293.50Q204 305 252 305Q294 305 336.50 297.50Q379 290 413 277L413 328Q413 402 371 445.50Q329 489 257 489Q219 489 176.50 473Q134 457 90 427L71 461Q171 529 261 529Q355 529 409 474.50Q463 420 463 324L463 70Q463 45 485 45L485 0Q480-1 474.50-1.50Q469-2 465-2Q445-2 433 11.50Q421 25 419 44L419 87Q383 40 327 15Q271-10 206-10M216 30Q274 30 322.50 52Q371 74 397 110Q413 131 413 150L413 242Q377 256 338 263Q299 270 257 270Q218 270 186 261.50Q154 253 131 238Q108 223 95.50 201.50Q83 180 83 154Q83 128 93 105Q103 82 121 65.50Q139 49 163.50 39.50Q188 30 216 30M119 672L119 709L404 709L404 672L119 672Z"  horiz-adv-x="537" vert-adv-y="1000"  />

      
      <glyph glyph-name="uni0102" unicode="&#x0102;" d="M316 710L360 710L660 0L606 0L507 234L168 234L69 0L14 0L316 710M493 276L338 648L180 276L493 276M338 853Q358 853 374.50 871.50Q391 890 394 917L427 917Q427 898 420 881Q413 864 400.50 851.50Q388 839 372 832Q356 825 338 825Q320 825 303.50 832Q287 839 275 851.50Q263 864 256 881Q249 898 249 917L282 917Q282 892 299 872.50Q316 853 338 853Z"  horiz-adv-x="675" vert-adv-y="1000"  />

      
      <glyph glyph-name="uni0103" unicode="&#x0103;" d="M206-10Q170-10 139 2.50Q108 15 84.50 36.50Q61 58 48 87.50Q35 117 35 151Q35 185 51 213Q67 241 95.50 261.50Q124 282 164 293.50Q204 305 252 305Q294 305 336.50 297.50Q379 290 413 277L413 328Q413 402 371 445.50Q329 489 257 489Q219 489 176.50 473Q134 457 90 427L71 461Q171 529 261 529Q355 529 409 474.50Q463 420 463 324L463 70Q463 45 485 45L485 0Q480-1 474.50-1.50Q469-2 465-2Q445-2 433 11.50Q421 25 419 44L419 87Q383 40 327 15Q271-10 206-10M216 30Q274 30 322.50 52Q371 74 397 110Q413 131 413 150L413 242Q377 256 338 263Q299 270 257 270Q218 270 186 261.50Q154 253 131 238Q108 223 95.50 201.50Q83 180 83 154Q83 128 93 105Q103 82 121 65.50Q139 49 163.50 39.50Q188 30 216 30M261 666Q281 666 297.50 684.50Q314 703 317 730L350 730Q350 711 343 694Q336 677 323.50 664.50Q311 652 295 645Q279 638 261 638Q243 638 226.50 645Q210 652 198 664.50Q186 677 179 694Q172 711 172 730L205 730Q205 705 222 685.50Q239 666 261 666Z"  horiz-adv-x="537" vert-adv-y="1000"  />

      
      <glyph glyph-name="uni0104" unicode="&#x0104;" d="M610-169Q578-162 560.50-144Q543-126 543-101Q543-76 560.50-51.50Q578-27 616 0L605 0L506 234L167 234L68 0L13 0L315 710L359 710L659 0Q614-29 595.50-50Q577-71 577-94Q577-132 626-139L610-169M492 276L337 648L179 276L492 276Z"  horiz-adv-x="674" vert-adv-y="1000"  />

      
      <glyph glyph-name="uni0105" unicode="&#x0105;" d="M436-169Q404-162 386.50-144Q369-126 369-101Q369-75 387-50.50Q405-26 445 2Q434 7 427 18.50Q420 30 419 44L419 87Q383 40 327 15Q271-10 206-10Q170-10 139 2.50Q108 15 84.50 36.50Q61 58 48 87.50Q35 117 35 151Q35 185 51 213Q67 241 95.50 261.50Q124 282 164 293.50Q204 305 252 305Q294 305 336.50 297.50Q379 290 413 277L413 328Q413 402 371 445.50Q329 489 257 489Q219 489 176.50 473Q134 457 90 427L71 461Q171 529 261 529Q355 529 409 474.50Q463 420 463 324L463 70Q463 45 485 45L485 0Q440-29 421.50-50Q403-71 403-94Q403-132 452-139L436-169M216 30Q274 30 322.50 52Q371 74 397 110Q413 131 413 150L413 242Q377 256 338 263Q299 270 257 270Q218 270 186 261.50Q154 253 131 238Q108 223 95.50 201.50Q83 180 83 154Q83 128 93 105Q103 82 121 65.50Q139 49 163.50 39.50Q188 30 216 30Z"  horiz-adv-x="537" vert-adv-y="1000"  />

      
      <glyph glyph-name="uni0106" unicode="&#x0106;" d="M378 816L343 832L404 917L462 917L378 816M44 360Q44 424 66.50 487.50Q89 551 132 601Q175 651 237.50 682.50Q300 714 380 714Q475 714 542 670.50Q609 627 642 559L600 535Q581 572 555.50 597Q530 622 500.50 637.50Q471 653 439 660Q407 667 376 667Q308 667 256 639.50Q204 612 168 568Q132 524 113.50 468.50Q95 413 95 357Q95 294 117 237Q139 180 177 136.50Q215 93 267 67Q319 41 379 41Q411 41 445 49Q479 57 510 74Q541 91 568 117.50Q595 144 613 180L657 159Q639 119 608 88Q577 57 539 36Q501 15 458.50 4.50Q416-6 375-6Q302-6 241.50 26Q181 58 137 109.50Q93 161 68.50 226.50Q44 292 44 360Z"  horiz-adv-x="690" vert-adv-y="1000"  />

      
      <glyph glyph-name="uni0107" unicode="&#x0107;" d="M295 629L260 645L321 730L379 730L295 629M42 262Q42 317 61 366Q80 415 114 451Q148 487 195 508Q242 529 298 529Q369 529 423 497Q477 465 504 408L455 392Q432 435 389.50 459.50Q347 484 296 484Q253 484 216 467Q179 450 151.50 420Q124 390 108 349.50Q92 309 92 262Q92 215 108.50 173.50Q125 132 152.50 101.50Q180 71 217.50 53Q255 35 297 35Q324 35 350.50 43Q377 51 399.50 64Q422 77 438.50 94.50Q455 112 461 131L510 117Q500 90 479.50 66.50Q459 43 431 26Q403 9 369-0.50Q335-10 299-10Q244-10 197 11.50Q150 33 115.50 70.50Q81 108 61.50 157Q42 206 42 262Z"  horiz-adv-x="545" vert-adv-y="1000"  />

      
      <glyph glyph-name="uni0108" unicode="&#x0108;" d="M264 836L360 917L397 917L494 836L464 819L379 882L294 819L264 836M44 360Q44 424 66.50 487.50Q89 551 132 601Q175 651 237.50 682.50Q300 714 380 714Q475 714 542 670.50Q609 627 642 559L600 535Q581 572 555.50 597Q530 622 500.50 637.50Q471 653 439 660Q407 667 376 667Q308 667 256 639.50Q204 612 168 568Q132 524 113.50 468.50Q95 413 95 357Q95 294 117 237Q139 180 177 136.50Q215 93 267 67Q319 41 379 41Q411 41 445 49Q479 57 510 74Q541 91 568 117.50Q595 144 613 180L657 159Q639 119 608 88Q577 57 539 36Q501 15 458.50 4.50Q416-6 375-6Q302-6 241.50 26Q181 58 137 109.50Q93 161 68.50 226.50Q44 292 44 360Z"  horiz-adv-x="690" vert-adv-y="1000"  />

      
      <glyph glyph-name="uni0109" unicode="&#x0109;" d="M181 649L277 730L314 730L411 649L381 632L296 695L211 632L181 649M42 262Q42 317 61 366Q80 415 114 451Q148 487 195 508Q242 529 298 529Q369 529 423 497Q477 465 504 408L455 392Q432 435 389.50 459.50Q347 484 296 484Q253 484 216 467Q179 450 151.50 420Q124 390 108 349.50Q92 309 92 262Q92 215 108.50 173.50Q125 132 152.50 101.50Q180 71 217.50 53Q255 35 297 35Q324 35 350.50 43Q377 51 399.50 64Q422 77 438.50 94.50Q455 112 461 131L510 117Q500 90 479.50 66.50Q459 43 431 26Q403 9 369-0.50Q335-10 299-10Q244-10 197 11.50Q150 33 115.50 70.50Q81 108 61.50 157Q42 206 42 262Z"  horiz-adv-x="545" vert-adv-y="1000"  />

      
      <glyph glyph-name="uni010A" unicode="&#x010A;" d="M44 360Q44 424 66.50 487.50Q89 551 132 601Q175 651 237.50 682.50Q300 714 380 714Q475 714 542 670.50Q609 627 642 559L600 535Q581 572 555.50 597Q530 622 500.50 637.50Q471 653 439 660Q407 667 376 667Q308 667 256 639.50Q204 612 168 568Q132 524 113.50 468.50Q95 413 95 357Q95 294 117 237Q139 180 177 136.50Q215 93 267 67Q319 41 379 41Q411 41 445 49Q479 57 510 74Q541 91 568 117.50Q595 144 613 180L657 159Q639 119 608 88Q577 57 539 36Q501 15 458.50 4.50Q416-6 375-6Q302-6 241.50 26Q181 58 137 109.50Q93 161 68.50 226.50Q44 292 44 360M356 827L356 917L402 917L402 827L356 827Z"  horiz-adv-x="690" vert-adv-y="1000"  />

      
      <glyph glyph-name="uni010B" unicode="&#x010B;" d="M42 262Q42 317 61 366Q80 415 114 451Q148 487 195 508Q242 529 298 529Q369 529 423 497Q477 465 504 408L455 392Q432 435 389.50 459.50Q347 484 296 484Q253 484 216 467Q179 450 151.50 420Q124 390 108 349.50Q92 309 92 262Q92 215 108.50 173.50Q125 132 152.50 101.50Q180 71 217.50 53Q255 35 297 35Q324 35 350.50 43Q377 51 399.50 64Q422 77 438.50 94.50Q455 112 461 131L510 117Q500 90 479.50 66.50Q459 43 431 26Q403 9 369-0.50Q335-10 299-10Q244-10 197 11.50Q150 33 115.50 70.50Q81 108 61.50 157Q42 206 42 262M273 640L273 730L319 730L319 640L273 640Z"  horiz-adv-x="545" vert-adv-y="1000"  />

      
      <glyph glyph-name="uni010C" unicode="&#x010C;" d="M294 917L379 854L464 917L494 900L397 819L360 819L264 900L294 917M44 360Q44 424 66.50 487.50Q89 551 132 601Q175 651 237.50 682.50Q300 714 380 714Q475 714 542 670.50Q609 627 642 559L600 535Q581 572 555.50 597Q530 622 500.50 637.50Q471 653 439 660Q407 667 376 667Q308 667 256 639.50Q204 612 168 568Q132 524 113.50 468.50Q95 413 95 357Q95 294 117 237Q139 180 177 136.50Q215 93 267 67Q319 41 379 41Q411 41 445 49Q479 57 510 74Q541 91 568 117.50Q595 144 613 180L657 159Q639 119 608 88Q577 57 539 36Q501 15 458.50 4.50Q416-6 375-6Q302-6 241.50 26Q181 58 137 109.50Q93 161 68.50 226.50Q44 292 44 360Z"  horiz-adv-x="690" vert-adv-y="1000"  />

      
      </font>
</defs>
</svg>
