<?xml version="1.0" standalone="no"?>
  <!DOCTYPE svg PUBLIC "-//W3C//DTD SVG 1.1//EN" "http://www.w3.org/Graphics/SVG/1.1/DTD/svg11.dtd" >
  <svg>
  <metadata>
  Created by font-carrier
  </metadata>
  <defs>
  <font id="Raleway-SemiBoldItalic" horiz-adv-x="1291" vert-adv-y="1291" >
    <font-face
      
      font-family="Raleway"
      
      font-weight="400"
      
      font-stretch="normal"
      
      units-per-em="1000"
      
      ascent="940"
      
      descent="-234"
      
    />
      <missing-glyph />

      

      
      <glyph glyph-name="uni41" unicode="&#x41;" d="M365 710L464 710L578 0L460 0L432 193L177 193L68 0L-50 0L365 710M428 276L388 581L214 276L428 276Z"  horiz-adv-x="649" vert-adv-y="1000"  />

      
      <glyph glyph-name="unic6" unicode="&#xc6;" d="M495 710L970 710L948 611L616 611L574 411L855 411L834 312L553 312L507 99L848 99L827 0L374 0L416 193L191 193L41 0L-80 0L495 710M428 293L490 581L261 293L428 293Z"  horiz-adv-x="926" vert-adv-y="1000"  />

      
      <glyph glyph-name="uni01FC" unicode="&#x01FC;" d="M605 788L535 806L611 916L716 916L605 788M495 710L970 710L948 611L616 611L574 411L855 411L834 312L553 312L507 99L848 99L827 0L374 0L416 193L191 193L41 0L-80 0L495 710M428 293L490 581L261 293L428 293Z"  horiz-adv-x="926" vert-adv-y="1000"  />

      
      <glyph glyph-name="unib4" unicode="&#xb4;" d="M96 602L26 620L102 730L207 730L96 602Z"  horiz-adv-x="233" vert-adv-y="1000"  />

      
      <glyph glyph-name="unic1" unicode="&#xc1;" d="M365 710L464 710L578 0L460 0L432 193L177 193L68 0L-50 0L365 710M428 276L388 581L214 276L428 276M438 788L368 806L444 916L549 916L438 788Z"  horiz-adv-x="649" vert-adv-y="1000"  />

      
      <glyph glyph-name="uni0102" unicode="&#x0102;" d="M365 710L464 710L578 0L460 0L432 193L177 193L68 0L-50 0L365 710M428 276L388 581L214 276L428 276M435 845Q456 845 476 865Q496 885 505 916L566 916Q560 890 546.50 867.50Q533 845 514 828.50Q495 812 472 803Q449 794 424 794Q381 794 355.50 819.50Q330 845 330 887Q330 895 331 902Q332 909 334 916L395 916Q394 911 393.50 907Q393 903 393 898Q393 876 404.50 860.50Q416 845 435 845Z"  horiz-adv-x="649" vert-adv-y="1000"  />

      
      <glyph glyph-name="uni02D8" unicode="&#x02D8;" d="M160 659Q181 659 201 679Q221 699 230 730L291 730Q285 704 271.50 681.50Q258 659 239 642.50Q220 626 197 617Q174 608 149 608Q106 608 80.50 633.50Q55 659 55 701Q55 709 56 716Q57 723 59 730L120 730Q119 725 118.50 721Q118 717 118 712Q118 690 129.50 674.50Q141 659 160 659Z"  horiz-adv-x="300" vert-adv-y="1000"  />

      
      <glyph glyph-name="unic2" unicode="&#xc2;" d="M365 710L464 710L578 0L460 0L432 193L177 193L68 0L-50 0L365 710M428 276L388 581L214 276L428 276M300 821L419 916L499 916L577 821L513 793L446 856L352 793L300 821Z"  horiz-adv-x="649" vert-adv-y="1000"  />

      
      <glyph glyph-name="uni02C6" unicode="&#x02C6;" d="M52 635L171 730L251 730L329 635L265 607L198 670L104 607L52 635Z"  horiz-adv-x="340" vert-adv-y="1000"  />

      
      <glyph glyph-name="unic4" unicode="&#xc4;" d="M365 710L464 710L578 0L460 0L432 193L177 193L68 0L-50 0L365 710M428 276L388 581L214 276L428 276M291 802L315 912L406 912L383 802L291 802M463 802L486 912L577 912L554 802L463 802Z"  horiz-adv-x="649" vert-adv-y="1000"  />

      
      <glyph glyph-name="unia8" unicode="&#xa8;" d="M73 615L97 725L188 725L165 615L73 615M245 615L268 725L359 725L336 615L245 615Z"  horiz-adv-x="400" vert-adv-y="1000"  />

      
      <glyph glyph-name="unic0" unicode="&#xc0;" d="M365 710L464 710L578 0L460 0L432 193L177 193L68 0L-50 0L365 710M428 276L388 581L214 276L428 276M332 917L436 917L466 807L390 788L332 917Z"  horiz-adv-x="649" vert-adv-y="1000"  />

      
      <glyph glyph-name="uni60" unicode="&#x60;" d="M66 730L170 730L200 620L124 601L66 730Z"  horiz-adv-x="234" vert-adv-y="1000"  />

      
      <glyph glyph-name="uni0100" unicode="&#x0100;" d="M365 710L464 710L578 0L460 0L432 193L177 193L68 0L-50 0L365 710M428 276L388 581L214 276L428 276M295 828L309 898L592 898L577 828L295 828Z"  horiz-adv-x="649" vert-adv-y="1000"  />

      
      <glyph glyph-name="uniaf" unicode="&#xaf;" d="M76 642L90 712L373 712L358 642L76 642Z"  horiz-adv-x="393" vert-adv-y="1000"  />

      
      <glyph glyph-name="uni0104" unicode="&#x0104;" d="M495-188Q453-181 433-162Q413-143 413-118Q413-89 437-59.50Q461-30 512 0L460 0L432 193L177 193L68 0L-50 0L365 710L464 710L578 0Q527-29 505-51.50Q483-74 483-95Q483-127 531-130L495-188M428 276L388 581L214 276L428 276Z"  horiz-adv-x="649" vert-adv-y="1000"  />

      
      <glyph glyph-name="uni02DB" unicode="&#x02DB;" d="M117-188Q75-181 55-162Q35-143 35-118Q35-84 68-49.50Q101-15 171 20L200 0Q149-29 127-51.50Q105-74 105-95Q105-127 153-130L117-188L117-188Z"  horiz-adv-x="262" vert-adv-y="1000"  />

      
      <glyph glyph-name="unic5" unicode="&#xc5;" d="M365 710L464 710L578 0L460 0L432 193L177 193L68 0L-50 0L365 710M428 276L388 581L214 276L428 276M352 829Q352 869 382 892.50Q412 916 456 916Q491 916 509.50 900.50Q528 885 528 857Q528 818 499 794Q470 770 425 770Q391 770 371.50 786Q352 802 352 829M448 880Q430 880 416 868Q402 856 402 837Q402 824 410.50 815Q419 806 433 806Q450 806 465 818.50Q480 831 480 850Q480 864 471 872Q462 880 448 880Z"  horiz-adv-x="649" vert-adv-y="1000"  />

      
      <glyph glyph-name="uni02DA" unicode="&#x02DA;" d="M57 643Q57 683 87 706.50Q117 730 161 730Q196 730 214.50 714.50Q233 699 233 671Q233 632 204 608Q175 584 130 584Q96 584 76.50 600Q57 616 57 643M153 694Q135 694 121 682Q107 670 107 651Q107 638 115.50 629Q124 620 138 620Q155 620 170 632.50Q185 645 185 664Q185 678 176 686Q167 694 153 694Z"  horiz-adv-x="245" vert-adv-y="1000"  />

      
      <glyph glyph-name="uni01FA" unicode="&#x01FA;" d="M484 809Q509 793 509 761Q509 738 498 719Q487 700 467 689L578 0L460 0L432 193L177 193L68 0L-50 0L353 689Q333 706 333 733Q333 765 353 786.50Q373 808 405 816L481 920L586 920L484 809M428 276L388 581L214 276L428 276M429 784Q411 784 397 772Q383 760 383 741Q383 728 391.50 719Q400 710 414 710Q431 710 446 722.50Q461 735 461 754Q461 768 452 776Q443 784 429 784Z"  horiz-adv-x="649" vert-adv-y="1000"  />

      
      <glyph glyph-name="unic3" unicode="&#xc3;" d="M365 710L464 710L578 0L460 0L432 193L177 193L68 0L-50 0L365 710M428 276L388 581L214 276L428 276M492 801Q471 801 456 807.50Q441 814 429 822.50Q417 831 405 837.50Q393 844 377 844Q361 844 350.50 837Q340 830 333.50 821.50Q327 813 324.50 805Q322 797 322 796L259 796Q261 804 270 823Q279 842 295.50 861.50Q312 881 335 896Q358 911 388 911Q409 911 423 904Q437 897 449 889Q461 881 473 874Q485 867 502 867Q520 867 531.50 874Q543 881 550.50 890Q558 899 561.50 906.50Q565 914 565 916L627 916Q625 910 616 891Q607 872 590 852Q573 832 548.50 816.50Q524 801 492 801Z"  horiz-adv-x="649" vert-adv-y="1000"  />

      
      <glyph glyph-name="uni02DC" unicode="&#x02DC;" d="M268 615Q247 615 232 621.50Q217 628 205 636.50Q193 645 181 651.50Q169 658 153 658Q137 658 126.50 651Q116 644 109.50 635.50Q103 627 100.50 619Q98 611 98 610L35 610Q37 618 46 637Q55 656 71.50 675.50Q88 695 111 710Q134 725 164 725Q185 725 199 718Q213 711 225 703Q237 695 249 688Q261 681 278 681Q296 681 307.50 688Q319 695 326.50 704Q334 713 337.50 720.50Q341 728 341 730L403 730Q401 724 392 705Q383 686 366 666Q349 646 324.50 630.50Q300 615 268 615Z"  horiz-adv-x="407" vert-adv-y="1000"  />

      
      <glyph glyph-name="uni42" unicode="&#x42;" d="M166 710L517 710Q547 710 569.50 697.50Q592 685 607 665Q622 645 629.50 619Q637 593 637 565Q637 534 627.50 503.50Q618 473 600 446.50Q582 420 556.50 398.50Q531 377 500 364Q545 349 568.50 311.50Q592 274 592 222Q592 170 570.50 129Q549 88 514 59.50Q479 31 433.50 15.50Q388 0 339 0L15 0L166 710M359 97Q382 97 404 107.50Q426 118 443 136Q460 154 470.50 177.50Q481 201 481 227Q481 262 462.50 288Q444 314 412 314L194 314L149 97L359 97M404 404Q426 404 447 414Q468 424 484 441Q500 458 509.50 481.50Q519 505 519 532Q519 567 501.50 590Q484 613 455 613L258 613L213 404L404 404Z"  horiz-adv-x="651" vert-adv-y="1000"  />

      
      <glyph glyph-name="uni43" unicode="&#x43;" d="M294-6Q234-6 186.50 19.50Q139 45 107 87Q75 129 58 183Q41 237 41 295Q41 368 72 442.50Q103 517 158 577.50Q213 638 288.50 676Q364 714 453 714Q545 714 602 671Q659 628 677 559L577 500Q570 532 555 554Q540 576 519.50 589Q499 602 475 607.50Q451 613 427 613Q366 613 316 584Q266 555 230.50 509.50Q195 464 175.50 409Q156 354 156 302Q156 260 167 222.50Q178 185 199 156.50Q220 128 250.50 111.50Q281 95 320 95Q344 95 371.50 101.50Q399 108 425.50 122.50Q452 137 476.50 159Q501 181 521 212L603 159Q579 119 543 88.50Q507 58 465 37Q423 16 378.50 5Q334-6 294-6Z"  horiz-adv-x="655" vert-adv-y="1000"  />

      
      <glyph glyph-name="uni0106" unicode="&#x0106;" d="M484 788L414 806L490 916L595 916L484 788M294-6Q234-6 186.50 19.50Q139 45 107 87Q75 129 58 183Q41 237 41 295Q41 368 72 442.50Q103 517 158 577.50Q213 638 288.50 676Q364 714 453 714Q545 714 602 671Q659 628 677 559L577 500Q570 532 555 554Q540 576 519.50 589Q499 602 475 607.50Q451 613 427 613Q366 613 316 584Q266 555 230.50 509.50Q195 464 175.50 409Q156 354 156 302Q156 260 167 222.50Q178 185 199 156.50Q220 128 250.50 111.50Q281 95 320 95Q344 95 371.50 101.50Q399 108 425.50 122.50Q452 137 476.50 159Q501 181 521 212L603 159Q579 119 543 88.50Q507 58 465 37Q423 16 378.50 5Q334-6 294-6Z"  horiz-adv-x="655" vert-adv-y="1000"  />

      
      <glyph glyph-name="uni010C" unicode="&#x010C;" d="M355 888L419 916L486 853L580 916L632 888L513 793L433 793L355 888M294-6Q234-6 186.50 19.50Q139 45 107 87Q75 129 58 183Q41 237 41 295Q41 368 72 442.50Q103 517 158 577.50Q213 638 288.50 676Q364 714 453 714Q545 714 602 671Q659 628 677 559L577 500Q570 532 555 554Q540 576 519.50 589Q499 602 475 607.50Q451 613 427 613Q366 613 316 584Q266 555 230.50 509.50Q195 464 175.50 409Q156 354 156 302Q156 260 167 222.50Q178 185 199 156.50Q220 128 250.50 111.50Q281 95 320 95Q344 95 371.50 101.50Q399 108 425.50 122.50Q452 137 476.50 159Q501 181 521 212L603 159Q579 119 543 88.50Q507 58 465 37Q423 16 378.50 5Q334-6 294-6Z"  horiz-adv-x="655" vert-adv-y="1000"  />

      
      <glyph glyph-name="uni02C7" unicode="&#x02C7;" d="M63 702L127 730L194 667L288 730L340 702L221 607L141 607L63 702Z"  horiz-adv-x="340" vert-adv-y="1000"  />

      
      <glyph glyph-name="unic7" unicode="&#xc7;" d="M182-126Q192-133 214-139.50Q236-146 261-146Q290-146 307-136.50Q324-127 324-105Q324-90 312-84Q300-78 281-78Q261-78 238-82Q215-86 202-90L263-4Q209 2 167 29Q125 56 96.50 97Q68 138 53 189.50Q38 241 38 295Q38 368 69 442.50Q100 517 155 577.50Q210 638 285.50 676Q361 714 450 714Q542 714 599 671Q656 628 674 559L574 500Q567 532 552 554Q537 576 516.50 589Q496 602 472 607.50Q448 613 424 613Q363 613 313 584Q263 555 227.50 509.50Q192 464 172.50 409Q153 354 153 302Q153 260 164 222.50Q175 185 196 156.50Q217 128 247.50 111.50Q278 95 317 95Q341 95 368.50 101.50Q396 108 422.50 122.50Q449 137 473.50 159Q498 181 518 212L600 159Q577 122 544 92.50Q511 63 473 42.50Q435 22 393.50 10Q352-2 313-5L280-45Q288-43 296.50-42Q305-41 312-41Q341-41 359.50-54Q378-67 378-94Q378-135 344.50-162Q311-189 244-189Q214-189 190-183Q166-177 149-169L182-126Z"  horiz-adv-x="652" vert-adv-y="1000"  />

      
      <glyph glyph-name="unib8" unicode="&#xb8;" d="M17-126Q27-133 49-139.50Q71-146 96-146Q125-146 142-136.50Q159-127 159-105Q159-90 147-84Q135-78 116-78Q96-78 73-82Q50-86 37-90L118 24L160 9L115-45Q123-43 131.50-42Q140-41 147-41Q176-41 194.50-54Q213-67 213-94Q213-135 179.50-162Q146-189 79-189Q49-189 25-183Q1-177-16-169L17-126Z"  horiz-adv-x="297" vert-adv-y="1000"  />

      
      <glyph glyph-name="uni0108" unicode="&#x0108;" d="M345 821L464 916L544 916L622 821L558 793L491 856L397 793L345 821M294-6Q234-6 186.50 19.50Q139 45 107 87Q75 129 58 183Q41 237 41 295Q41 368 72 442.50Q103 517 158 577.50Q213 638 288.50 676Q364 714 453 714Q545 714 602 671Q659 628 677 559L577 500Q570 532 555 554Q540 576 519.50 589Q499 602 475 607.50Q451 613 427 613Q366 613 316 584Q266 555 230.50 509.50Q195 464 175.50 409Q156 354 156 302Q156 260 167 222.50Q178 185 199 156.50Q220 128 250.50 111.50Q281 95 320 95Q344 95 371.50 101.50Q399 108 425.50 122.50Q452 137 476.50 159Q501 181 521 212L603 159Q579 119 543 88.50Q507 58 465 37Q423 16 378.50 5Q334-6 294-6Z"  horiz-adv-x="655" vert-adv-y="1000"  />

      
      <glyph glyph-name="uni010A" unicode="&#x010A;" d="M294-6Q234-6 186.50 19.50Q139 45 107 87Q75 129 58 183Q41 237 41 295Q41 368 72 442.50Q103 517 158 577.50Q213 638 288.50 676Q364 714 453 714Q545 714 602 671Q659 628 677 559L577 500Q570 532 555 554Q540 576 519.50 589Q499 602 475 607.50Q451 613 427 613Q366 613 316 584Q266 555 230.50 509.50Q195 464 175.50 409Q156 354 156 302Q156 260 167 222.50Q178 185 199 156.50Q220 128 250.50 111.50Q281 95 320 95Q344 95 371.50 101.50Q399 108 425.50 122.50Q452 137 476.50 159Q501 181 521 212L603 159Q579 119 543 88.50Q507 58 465 37Q423 16 378.50 5Q334-6 294-6M429 801L454 916L552 916L528 801L429 801Z"  horiz-adv-x="655" vert-adv-y="1000"  />

      
      <glyph glyph-name="uni02D9" unicode="&#x02D9;" d="M51 615L76 730L174 730L150 615L51 615Z"  horiz-adv-x="194" vert-adv-y="1000"  />

      
      <glyph glyph-name="uni44" unicode="&#x44;" d="M166 710L407 710Q475 710 525 689Q575 668 607.50 631Q640 594 656 544Q672 494 672 436Q672 342 640.50 262Q609 182 553.50 124Q498 66 421.50 33Q345 0 256 0L15 0L166 710M277 99Q341 99 392.50 125Q444 151 480.50 195.50Q517 240 536.50 298Q556 356 556 419Q556 461 545 496Q534 531 513 556.50Q492 582 460 596.50Q428 611 386 611L258 611L149 99L277 99Z"  horiz-adv-x="692" vert-adv-y="1000"  />

      
      <glyph glyph-name="uni010E" unicode="&#x010E;" d="M297 888L361 916L428 853L522 916L574 888L455 793L375 793L297 888M166 710L407 710Q475 710 525 689Q575 668 607.50 631Q640 594 656 544Q672 494 672 436Q672 342 640.50 262Q609 182 553.50 124Q498 66 421.50 33Q345 0 256 0L15 0L166 710M277 99Q341 99 392.50 125Q444 151 480.50 195.50Q517 240 536.50 298Q556 356 556 419Q556 461 545 496Q534 531 513 556.50Q492 582 460 596.50Q428 611 386 611L258 611L149 99L277 99Z"  horiz-adv-x="692" vert-adv-y="1000"  />

      
      <glyph glyph-name="uni0110" unicode="&#x0110;" d="M57 399L106 399L172 710L413 710Q481 710 531 689Q581 668 613.50 631Q646 594 662 544Q678 494 678 436Q678 342 646.50 262Q615 182 559.50 124Q504 66 427.50 33Q351 0 262 0L21 0L88 315L39 315L57 399M283 99Q347 99 398.50 125Q450 151 486.50 195.50Q523 240 542.50 298Q562 356 562 419Q562 461 551 496Q540 531 519 556.50Q498 582 466 596.50Q434 611 392 611L264 611L219 399L359 399L342 315L201 315L155 99L283 99Z"  horiz-adv-x="698" vert-adv-y="1000"  />

      
      <glyph glyph-name="uni45" unicode="&#x45;" d="M166 710L621 710L600 611L258 611L215 409L511 409L492 316L195 316L149 99L500 99L479 0L15 0L166 710Z"  horiz-adv-x="579" vert-adv-y="1000"  />

      
      <glyph glyph-name="unic9" unicode="&#xc9;" d="M432 788L362 806L438 916L543 916L432 788M166 710L621 710L600 611L258 611L215 409L511 409L492 316L195 316L149 99L500 99L479 0L15 0L166 710Z"  horiz-adv-x="579" vert-adv-y="1000"  />

      
      <glyph glyph-name="uni0114" unicode="&#x0114;" d="M166 710L621 710L600 611L258 611L215 409L511 409L492 316L195 316L149 99L500 99L479 0L15 0L166 710M413 845Q434 845 454 865Q474 885 483 916L544 916Q538 890 524.50 867.50Q511 845 492 828.50Q473 812 450 803Q427 794 402 794Q359 794 333.50 819.50Q308 845 308 887Q308 895 309 902Q310 909 312 916L373 916Q372 911 371.50 907Q371 903 371 898Q371 876 382.50 860.50Q394 845 413 845Z"  horiz-adv-x="579" vert-adv-y="1000"  />

      
      <glyph glyph-name="uni011A" unicode="&#x011A;" d="M288 888L352 916L419 853L513 916L565 888L446 793L366 793L288 888M166 710L621 710L600 611L258 611L215 409L511 409L492 316L195 316L149 99L500 99L479 0L15 0L166 710Z"  horiz-adv-x="579" vert-adv-y="1000"  />

      
      <glyph glyph-name="unica" unicode="&#xca;" d="M285 821L404 916L484 916L562 821L498 793L431 856L337 793L285 821M166 710L621 710L600 611L258 611L215 409L511 409L492 316L195 316L149 99L500 99L479 0L15 0L166 710Z"  horiz-adv-x="579" vert-adv-y="1000"  />

      
      <glyph glyph-name="unicb" unicode="&#xcb;" d="M282 802L306 912L397 912L374 802L282 802M454 802L477 912L568 912L545 802L454 802M166 710L621 710L600 611L258 611L215 409L511 409L492 316L195 316L149 99L500 99L479 0L15 0L166 710Z"  horiz-adv-x="579" vert-adv-y="1000"  />

      
      <glyph glyph-name="uni0116" unicode="&#x0116;" d="M166 710L621 710L600 611L258 611L215 409L511 409L492 316L195 316L149 99L500 99L479 0L15 0L166 710M364 801L389 916L487 916L463 801L364 801Z"  horiz-adv-x="579" vert-adv-y="1000"  />

      
      <glyph glyph-name="unic8" unicode="&#xc8;" d="M166 710L621 710L600 611L258 611L215 409L511 409L492 316L195 316L149 99L500 99L479 0L15 0L166 710M338 917L442 917L472 807L396 788L338 917Z"  horiz-adv-x="579" vert-adv-y="1000"  />

      
      <glyph glyph-name="uni0112" unicode="&#x0112;" d="M166 710L621 710L600 611L258 611L215 409L511 409L492 316L195 316L149 99L500 99L479 0L15 0L166 710M277 828L291 898L574 898L559 828L277 828Z"  horiz-adv-x="579" vert-adv-y="1000"  />

      
      <glyph glyph-name="uni014A" unicode="&#x014A;" d="M376-191Q342-191 313.50-180Q285-169 265-146L329-72Q338-84 352.50-89.50Q367-95 383-95Q411-95 436-73.50Q461-52 468-19L477 21L234 498L128 0L15 0L166 710L253 710L513 204L621 709L733 709L579-15Q571-54 550.50-86.50Q530-119 502-142.50Q474-166 441.50-178.50Q409-191 376-191Z"  horiz-adv-x="726" vert-adv-y="1000"  />

      
      <glyph glyph-name="uni0118" unicode="&#x0118;" d="M166 710L621 710L600 611L258 611L215 409L511 409L492 316L195 316L149 99L500 99L479 0L286 0Q235-29 213-51.50Q191-74 191-95Q191-127 239-130L203-188Q161-181 141-162Q121-143 121-118Q121-89 145-59.50Q169-30 220 0L15 0L166 710Z"  horiz-adv-x="579" vert-adv-y="1000"  />

      
      <glyph glyph-name="unid0" unicode="&#xd0;" d="M57 399L106 399L172 710L413 710Q481 710 531 689Q581 668 613.50 631Q646 594 662 544Q678 494 678 436Q678 342 646.50 262Q615 182 559.50 124Q504 66 427.50 33Q351 0 262 0L21 0L88 315L39 315L57 399M283 99Q347 99 398.50 125Q450 151 486.50 195.50Q523 240 542.50 298Q562 356 562 419Q562 461 551 496Q540 531 519 556.50Q498 582 466 596.50Q434 611 392 611L264 611L219 399L359 399L342 315L201 315L155 99L283 99Z"  horiz-adv-x="698" vert-adv-y="1000"  />

      
      <glyph glyph-name="uni1EBC" unicode="&#x1EBC;" d="M166 710L621 710L600 611L258 611L215 409L511 409L492 316L195 316L149 99L500 99L479 0L15 0L166 710M468 801Q447 801 432 807.50Q417 814 405 822.50Q393 831 381 837.50Q369 844 353 844Q337 844 326.50 837Q316 830 309.50 821.50Q303 813 300.50 805Q298 797 298 796L235 796Q237 804 246 823Q255 842 271.50 861.50Q288 881 311 896Q334 911 364 911Q385 911 399 904Q413 897 425 889Q437 881 449 874Q461 867 478 867Q496 867 507.50 874Q519 881 526.50 890Q534 899 537.50 906.50Q541 914 541 916L603 916Q601 910 592 891Q583 872 566 852Q549 832 524.50 816.50Q500 801 468 801Z"  horiz-adv-x="579" vert-adv-y="1000"  />

      
      <glyph glyph-name="uni20AC" unicode="&#x20AC;" d="M149 431Q171 487 208 538.50Q245 590 295 629Q345 668 405.50 691Q466 714 534 714Q627 714 684 671Q741 628 759 559L659 500Q652 532 636.50 554Q621 576 600.50 589Q580 602 556.50 607.50Q533 613 509 613Q467 613 429.50 598.50Q392 584 360.50 559Q329 534 305 501Q281 468 265 431L536 431L497 369L245 369Q237 339 237 313L479 313L440 251L241 251Q247 218 260.50 189.50Q274 161 294.50 140Q315 119 341.50 107Q368 95 401 95Q425 95 452.50 101.50Q480 108 507 122.50Q534 137 558.50 159Q583 181 603 212L685 159Q661 119 625 88.50Q589 58 547 37Q505 16 460.50 5Q416-6 376-6Q321-6 277.50 15Q234 36 202 71Q170 106 150.50 153Q131 200 125 251L23 251L63 313L123 313Q124 327 126 341Q128 355 131 369L65 369L104 431L149 431Z"  horiz-adv-x="759" vert-adv-y="1000"  />

      
      <glyph glyph-name="uni46" unicode="&#x46;" d="M166 710L616 710L595 611L258 611L213 399L495 399L475 306L193 306L128 0L15 0L166 710Z"  horiz-adv-x="561" vert-adv-y="1000"  />

      
      <glyph glyph-name="uni47" unicode="&#x47;" d="M505 87Q401-5 292-5Q235-5 188.50 18.50Q142 42 109 82Q76 122 58.50 176Q41 230 41 290Q41 373 75 450Q109 527 166 586Q223 645 296.50 680Q370 715 449 715Q546 715 602.50 672.50Q659 630 679 560L581 498Q565 556 523.50 585Q482 614 424 614Q370 614 321 587Q272 560 235.50 515.50Q199 471 177.50 414.50Q156 358 156 299Q156 257 167.50 220Q179 183 200.50 155.50Q222 128 253 112Q284 96 322 96Q426 96 530 201L546 276L406 276L424 359L657 359L581 0L487 0L505 87Z"  horiz-adv-x="691" vert-adv-y="1000"  />

      
      <glyph glyph-name="uni011E" unicode="&#x011E;" d="M505 87Q401-5 292-5Q235-5 188.50 18.50Q142 42 109 82Q76 122 58.50 176Q41 230 41 290Q41 373 75 450Q109 527 166 586Q223 645 296.50 680Q370 715 449 715Q546 715 602.50 672.50Q659 630 679 560L581 498Q565 556 523.50 585Q482 614 424 614Q370 614 321 587Q272 560 235.50 515.50Q199 471 177.50 414.50Q156 358 156 299Q156 257 167.50 220Q179 183 200.50 155.50Q222 128 253 112Q284 96 322 96Q426 96 530 201L546 276L406 276L424 359L657 359L581 0L487 0L505 87M470 845Q491 845 511 865Q531 885 540 916L601 916Q595 890 581.50 867.50Q568 845 549 828.50Q530 812 507 803Q484 794 459 794Q416 794 390.50 819.50Q365 845 365 887Q365 895 366 902Q367 909 369 916L430 916Q429 911 428.50 907Q428 903 428 898Q428 876 439.50 860.50Q451 845 470 845Z"  horiz-adv-x="691" vert-adv-y="1000"  />

      
      <glyph glyph-name="uni011C" unicode="&#x011C;" d="M333 821L452 916L532 916L610 821L546 793L479 856L385 793L333 821M505 87Q401-5 292-5Q235-5 188.50 18.50Q142 42 109 82Q76 122 58.50 176Q41 230 41 290Q41 373 75 450Q109 527 166 586Q223 645 296.50 680Q370 715 449 715Q546 715 602.50 672.50Q659 630 679 560L581 498Q565 556 523.50 585Q482 614 424 614Q370 614 321 587Q272 560 235.50 515.50Q199 471 177.50 414.50Q156 358 156 299Q156 257 167.50 220Q179 183 200.50 155.50Q222 128 253 112Q284 96 322 96Q426 96 530 201L546 276L406 276L424 359L657 359L581 0L487 0L505 87Z"  horiz-adv-x="691" vert-adv-y="1000"  />

      
      <glyph glyph-name="uni0122" unicode="&#x0122;" d="M215-213L254-136L222-136L241-48L335-48L316-136L266-213L215-213M505 87Q401-5 292-5Q235-5 188.50 18.50Q142 42 109 82Q76 122 58.50 176Q41 230 41 290Q41 373 75 450Q109 527 166 586Q223 645 296.50 680Q370 715 449 715Q546 715 602.50 672.50Q659 630 679 560L581 498Q565 556 523.50 585Q482 614 424 614Q370 614 321 587Q272 560 235.50 515.50Q199 471 177.50 414.50Q156 358 156 299Q156 257 167.50 220Q179 183 200.50 155.50Q222 128 253 112Q284 96 322 96Q426 96 530 201L546 276L406 276L424 359L657 359L581 0L487 0L505 87Z"  horiz-adv-x="691" vert-adv-y="1000"  />

      
      <glyph glyph-name="uniF6C3" unicode="&#xF6C3;" d="M21-213L60-136L28-136L47-48L141-48L122-136L72-213L21-213Z"  horiz-adv-x="179" vert-adv-y="1000"  />

      
      <glyph glyph-name="uni0120" unicode="&#x0120;" d="M505 87Q401-5 292-5Q235-5 188.50 18.50Q142 42 109 82Q76 122 58.50 176Q41 230 41 290Q41 373 75 450Q109 527 166 586Q223 645 296.50 680Q370 715 449 715Q546 715 602.50 672.50Q659 630 679 560L581 498Q565 556 523.50 585Q482 614 424 614Q370 614 321 587Q272 560 235.50 515.50Q199 471 177.50 414.50Q156 358 156 299Q156 257 167.50 220Q179 183 200.50 155.50Q222 128 253 112Q284 96 322 96Q426 96 530 201L546 276L406 276L424 359L657 359L581 0L487 0L505 87M422 801L447 916L545 916L521 801L422 801Z"  horiz-adv-x="691" vert-adv-y="1000"  />

      
      <glyph glyph-name="uni48" unicode="&#x48;" d="M166 710L279 710L216 413L548 413L611 710L723 710L572 0L460 0L527 313L195 313L128 0L15 0L166 710Z"  horiz-adv-x="715" vert-adv-y="1000"  />

      
      <glyph glyph-name="uni0126" unicode="&#x0126;" d="M101 602L148 602L171 710L284 710L261 602L593 602L616 710L729 710L706 602L753 602L741 546L694 546L578 0L465 0L532 313L200 313L133 0L20 0L136 546L89 546L101 602M553 413L581 546L249 546L221 413L553 413Z"  horiz-adv-x="724" vert-adv-y="1000"  />

      
      <glyph glyph-name="uni0124" unicode="&#x0124;" d="M327 821L446 916L526 916L604 821L540 793L473 856L379 793L327 821M166 710L279 710L216 413L548 413L611 710L723 710L572 0L460 0L527 313L195 313L128 0L15 0L166 710Z"  horiz-adv-x="715" vert-adv-y="1000"  />

      
      <glyph glyph-name="uni49" unicode="&#x49;" d="M166 709L279 709L128 0L15 0L166 709Z"  horiz-adv-x="271" vert-adv-y="1000"  />

      
      <glyph glyph-name="uni0132" unicode="&#x0132;" d="M166 709L279 709L128 0L15 0L166 709M367-11Q282-11 230 33L276 125Q289 113 318 101.50Q347 90 388 90Q431 90 460 106.50Q489 123 509.50 155.50Q530 188 544.50 236.50Q559 285 573 349L650 709L762 709L685 349Q668 268 646.50 201.50Q625 135 589.50 88Q554 41 501 15Q448-11 367-11Z"  horiz-adv-x="746" vert-adv-y="1000"  />

      
      <glyph glyph-name="uni4a" unicode="&#x4a;" d="M96-11Q11-11-41 33L5 125Q18 113 47 101.50Q76 90 117 90Q160 90 189 106.50Q218 123 238.50 155.50Q259 188 273.50 236.50Q288 285 302 349L379 709L491 709L414 349Q397 268 375.50 201.50Q354 135 318.50 88Q283 41 230 15Q177-11 96-11Z"  horiz-adv-x="475" vert-adv-y="1000"  />

      
      <glyph glyph-name="unicd" unicode="&#xcd;" d="M166 709L279 709L128 0L15 0L166 709M242 788L172 806L248 916L353 916L242 788Z"  horiz-adv-x="271" vert-adv-y="1000"  />

      
      <glyph glyph-name="uni012C" unicode="&#x012C;" d="M166 709L279 709L128 0L15 0L166 709M241 845Q262 845 282 865Q302 885 311 916L372 916Q366 890 352.50 867.50Q339 845 320 828.50Q301 812 278 803Q255 794 230 794Q187 794 161.50 819.50Q136 845 136 887Q136 895 137 902Q138 909 140 916L201 916Q200 911 199.50 907Q199 903 199 898Q199 876 210.50 860.50Q222 845 241 845Z"  horiz-adv-x="271" vert-adv-y="1000"  />

      
      <glyph glyph-name="unice" unicode="&#xce;" d="M166 709L279 709L128 0L15 0L166 709M106 821L225 916L305 916L383 821L319 793L252 856L158 793L106 821Z"  horiz-adv-x="271" vert-adv-y="1000"  />

      
      <glyph glyph-name="unicf" unicode="&#xcf;" d="M166 709L279 709L128 0L15 0L166 709M110 802L134 912L225 912L202 802L110 802M282 802L305 912L396 912L373 802L282 802Z"  horiz-adv-x="271" vert-adv-y="1000"  />

      
      <glyph glyph-name="uni0130" unicode="&#x0130;" d="M166 709L279 709L128 0L15 0L166 709M192 801L217 916L315 916L291 801L192 801Z"  horiz-adv-x="271" vert-adv-y="1000"  />

      
      <glyph glyph-name="unicc" unicode="&#xcc;" d="M166 709L279 709L128 0L15 0L166 709M162 917L266 917L296 807L220 788L162 917Z"  horiz-adv-x="271" vert-adv-y="1000"  />

      
      <glyph glyph-name="uni012A" unicode="&#x012A;" d="M166 709L279 709L128 0L15 0L166 709M107 828L121 898L404 898L389 828L107 828Z"  horiz-adv-x="271" vert-adv-y="1000"  />

      
      <glyph glyph-name="uni012E" unicode="&#x012E;" d="M166 709L279 709L128 0Q77-29 54.50-51.50Q32-74 32-95Q32-127 80-130L44-188Q2-181-18-162Q-38-143-38-118Q-38-59 61 0L15 0L166 709Z"  horiz-adv-x="271" vert-adv-y="1000"  />

      
      <glyph glyph-name="uni0128" unicode="&#x0128;" d="M166 709L279 709L128 0L15 0L166 709M305 801Q284 801 269 807.50Q254 814 242 822.50Q230 831 218 837.50Q206 844 190 844Q174 844 163.50 837Q153 830 146.50 821.50Q140 813 137.50 805Q135 797 135 796L72 796Q74 804 83 823Q92 842 108.50 861.50Q125 881 148 896Q171 911 201 911Q222 911 236 904Q250 897 262 889Q274 881 286 874Q298 867 315 867Q333 867 344.50 874Q356 881 363.50 890Q371 899 374.50 906.50Q378 914 378 916L440 916Q438 910 429 891Q420 872 403 852Q386 832 361.50 816.50Q337 801 305 801Z"  horiz-adv-x="271" vert-adv-y="1000"  />

      
      <glyph glyph-name="uni0134" unicode="&#x0134;" d="M319 821L438 916L518 916L596 821L532 793L465 856L371 793L319 821M96-11Q11-11-41 33L5 125Q18 113 47 101.50Q76 90 117 90Q160 90 189 106.50Q218 123 238.50 155.50Q259 188 273.50 236.50Q288 285 302 349L379 709L491 709L414 349Q397 268 375.50 201.50Q354 135 318.50 88Q283 41 230 15Q177-11 96-11Z"  horiz-adv-x="475" vert-adv-y="1000"  />

      
      <glyph glyph-name="uni4b" unicode="&#x4b;" d="M166 709L279 709L201 344L587 710L712 710L381 396L576 0L450 0L296 327L173 214L128 0L15 0L166 709Z"  horiz-adv-x="634" vert-adv-y="1000"  />

      
      <glyph glyph-name="uni0136" unicode="&#x0136;" d="M200-213L239-136L207-136L226-48L320-48L301-136L251-213L200-213M166 709L279 709L201 344L587 710L712 710L381 396L576 0L450 0L296 327L173 214L128 0L15 0L166 709Z"  horiz-adv-x="634" vert-adv-y="1000"  />

      
      <glyph glyph-name="uni4c" unicode="&#x4c;" d="M166 710L279 710L149 99L506 99L485 0L15 0L166 710Z"  horiz-adv-x="560" vert-adv-y="1000"  />

      
      <glyph glyph-name="uni0139" unicode="&#x0139;" d="M255 788L185 806L261 916L366 916L255 788M166 710L279 710L149 99L506 99L485 0L15 0L166 710Z"  horiz-adv-x="560" vert-adv-y="1000"  />

      
      <glyph glyph-name="uni013D" unicode="&#x013D;" d="M330 620L406 730L510 730L396 598L330 620M166 710L279 710L149 99L506 99L485 0L15 0L166 710Z"  horiz-adv-x="560" vert-adv-y="1000"  />

      
      <glyph glyph-name="uni013B" unicode="&#x013B;" d="M172-213L211-136L179-136L198-48L292-48L273-136L223-213L172-213M166 710L279 710L149 99L506 99L485 0L15 0L166 710Z"  horiz-adv-x="560" vert-adv-y="1000"  />

      
      <glyph glyph-name="uni013F" unicode="&#x013F;" d="M166 710L279 710L149 99L506 99L485 0L15 0L166 710M331 341L360 478L451 478L422 341L331 341Z"  horiz-adv-x="560" vert-adv-y="1000"  />

      
      <glyph glyph-name="unib7" unicode="&#xb7;" d="M47 243L76 380L167 380L138 243L47 243Z"  horiz-adv-x="211" vert-adv-y="1000"  />

      
      <glyph glyph-name="uni0141" unicode="&#x0141;" d="M6 298L99 357L174 710L286 710L228 439L363 524L379 464L211 357L156 99L513 99L492 0L23 0L81 275L22 237L6 298Z"  horiz-adv-x="567" vert-adv-y="1000"  />

      
      <glyph glyph-name="uni4d" unicode="&#x4d;" d="M166 710L286 710L412 276L723 710L842 710L691 0L578 0L687 511L411 124L349 124L237 511L128 0L15 0L166 710Z"  horiz-adv-x="834" vert-adv-y="1000"  />

      
      <glyph glyph-name="uni4e" unicode="&#x4e;" d="M166 710L254 710L523 198L631 709L744 709L593 0L501 0L234 500L128 0L15 0L166 710Z"  horiz-adv-x="736" vert-adv-y="1000"  />

      
      <glyph glyph-name="uni0143" unicode="&#x0143;" d="M485 788L415 806L491 916L596 916L485 788M166 710L254 710L523 198L631 709L744 709L593 0L501 0L234 500L128 0L15 0L166 710Z"  horiz-adv-x="736" vert-adv-y="1000"  />

      
      <glyph glyph-name="uni0147" unicode="&#x0147;" d="M344 888L408 916L475 853L569 916L621 888L502 793L422 793L344 888M166 710L254 710L523 198L631 709L744 709L593 0L501 0L234 500L128 0L15 0L166 710Z"  horiz-adv-x="736" vert-adv-y="1000"  />

      
      <glyph glyph-name="uni0145" unicode="&#x0145;" d="M224-213L263-136L231-136L250-48L344-48L325-136L275-213L224-213M166 710L254 710L523 198L631 709L744 709L593 0L501 0L234 500L128 0L15 0L166 710Z"  horiz-adv-x="736" vert-adv-y="1000"  />

      
      <glyph glyph-name="uni1E44" unicode="&#x1E44;" d="M420 801L445 916L543 916L519 801L420 801M166 710L254 710L523 198L631 709L744 709L593 0L501 0L234 500L128 0L15 0L166 710Z"  horiz-adv-x="736" vert-adv-y="1000"  />

      
      <glyph glyph-name="unid1" unicode="&#xd1;" d="M166 710L254 710L523 198L631 709L744 709L593 0L501 0L234 500L128 0L15 0L166 710M535 801Q514 801 499 807.50Q484 814 472 822.50Q460 831 448 837.50Q436 844 420 844Q404 844 393.50 837Q383 830 376.50 821.50Q370 813 367.50 805Q365 797 365 796L302 796Q304 804 313 823Q322 842 338.50 861.50Q355 881 378 896Q401 911 431 911Q452 911 466 904Q480 897 492 889Q504 881 516 874Q528 867 545 867Q563 867 574.50 874Q586 881 593.50 890Q601 899 604.50 906.50Q608 914 608 916L670 916Q668 910 659 891Q650 872 633 852Q616 832 591.50 816.50Q567 801 535 801Z"  horiz-adv-x="736" vert-adv-y="1000"  />

      
      <glyph glyph-name="uni4f" unicode="&#x4f;" d="M297-5Q235-5 187.50 19.50Q140 44 107.50 84.50Q75 125 58 178Q41 231 41 289Q41 370 75.50 446.50Q110 523 167 583Q224 643 298 679Q372 715 452 715Q514 715 561.50 690Q609 665 641 624Q673 583 689.50 529.50Q706 476 706 419Q706 339 672 262.50Q638 186 581.50 126.50Q525 67 451 31Q377-5 297-5M319 96Q377 96 427 124.50Q477 153 513.50 198.50Q550 244 570.50 300Q591 356 591 411Q591 451 580.50 488Q570 525 549.50 552.50Q529 580 499 596.50Q469 613 429 613Q370 613 320.50 584.50Q271 556 234 511Q197 466 176.50 409.50Q156 353 156 298Q156 257 166.50 220.50Q177 184 197 156.50Q217 129 247.50 112.50Q278 96 319 96Z"  horiz-adv-x="725" vert-adv-y="1000"  />

      
      <glyph glyph-name="uni0152" unicode="&#x0152;" d="M292-5Q232-5 185 19.50Q138 44 106 84.50Q74 125 57.50 178Q41 231 41 288Q41 369 75 446Q109 523 165 583Q221 643 294.50 679Q368 715 447 715Q481 715 510 704.50Q539 694 561.50 675.50Q584 657 600 632Q616 607 626 578L653 710L1099 710L1078 611L745 611L703 411L984 411L963 312L682 312L636 99L977 99L956 0L502 0L531 132Q508 103 480.50 78Q453 53 422.50 34.50Q392 16 359 5.50Q326-5 292-5M314 96Q371 96 420 125Q469 154 505 199.50Q541 245 561.50 301.50Q582 358 582 413Q582 453 571.50 489.50Q561 526 541 553.50Q521 581 491.50 597.50Q462 614 424 614Q367 614 318 585.50Q269 557 233 511Q197 465 176.50 408.50Q156 352 156 297Q156 256 166 220Q176 184 196 156Q216 128 245.50 112Q275 96 314 96Z"  horiz-adv-x="1055" vert-adv-y="1000"  />

      
      <glyph glyph-name="unid3" unicode="&#xd3;" d="M484 788L414 806L490 916L595 916L484 788M297-5Q235-5 187.50 19.50Q140 44 107.50 84.50Q75 125 58 178Q41 231 41 289Q41 370 75.50 446.50Q110 523 167 583Q224 643 298 679Q372 715 452 715Q514 715 561.50 690Q609 665 641 624Q673 583 689.50 529.50Q706 476 706 419Q706 339 672 262.50Q638 186 581.50 126.50Q525 67 451 31Q377-5 297-5M319 96Q377 96 427 124.50Q477 153 513.50 198.50Q550 244 570.50 300Q591 356 591 411Q591 451 580.50 488Q570 525 549.50 552.50Q529 580 499 596.50Q469 613 429 613Q370 613 320.50 584.50Q271 556 234 511Q197 466 176.50 409.50Q156 353 156 298Q156 257 166.50 220.50Q177 184 197 156.50Q217 129 247.50 112.50Q278 96 319 96Z"  horiz-adv-x="725" vert-adv-y="1000"  />

      
      <glyph glyph-name="uni014E" unicode="&#x014E;" d="M297-5Q235-5 187.50 19.50Q140 44 107.50 84.50Q75 125 58 178Q41 231 41 289Q41 370 75.50 446.50Q110 523 167 583Q224 643 298 679Q372 715 452 715Q514 715 561.50 690Q609 665 641 624Q673 583 689.50 529.50Q706 476 706 419Q706 339 672 262.50Q638 186 581.50 126.50Q525 67 451 31Q377-5 297-5M319 96Q377 96 427 124.50Q477 153 513.50 198.50Q550 244 570.50 300Q591 356 591 411Q591 451 580.50 488Q570 525 549.50 552.50Q529 580 499 596.50Q469 613 429 613Q370 613 320.50 584.50Q271 556 234 511Q197 466 176.50 409.50Q156 353 156 298Q156 257 166.50 220.50Q177 184 197 156.50Q217 129 247.50 112.50Q278 96 319 96M475 845Q496 845 516 865Q536 885 545 916L606 916Q600 890 586.50 867.50Q573 845 554 828.50Q535 812 512 803Q489 794 464 794Q421 794 395.50 819.50Q370 845 370 887Q370 895 371 902Q372 909 374 916L435 916Q434 911 433.50 907Q433 903 433 898Q433 876 444.50 860.50Q456 845 475 845Z"  horiz-adv-x="725" vert-adv-y="1000"  />

      
      <glyph glyph-name="unid4" unicode="&#xd4;" d="M341 821L460 916L540 916L618 821L554 793L487 856L393 793L341 821M297-5Q235-5 187.50 19.50Q140 44 107.50 84.50Q75 125 58 178Q41 231 41 289Q41 370 75.50 446.50Q110 523 167 583Q224 643 298 679Q372 715 452 715Q514 715 561.50 690Q609 665 641 624Q673 583 689.50 529.50Q706 476 706 419Q706 339 672 262.50Q638 186 581.50 126.50Q525 67 451 31Q377-5 297-5M319 96Q377 96 427 124.50Q477 153 513.50 198.50Q550 244 570.50 300Q591 356 591 411Q591 451 580.50 488Q570 525 549.50 552.50Q529 580 499 596.50Q469 613 429 613Q370 613 320.50 584.50Q271 556 234 511Q197 466 176.50 409.50Q156 353 156 298Q156 257 166.50 220.50Q177 184 197 156.50Q217 129 247.50 112.50Q278 96 319 96Z"  horiz-adv-x="725" vert-adv-y="1000"  />

      
      <glyph glyph-name="unid6" unicode="&#xd6;" d="M339 802L363 912L454 912L431 802L339 802M511 802L534 912L625 912L602 802L511 802M297-5Q235-5 187.50 19.50Q140 44 107.50 84.50Q75 125 58 178Q41 231 41 289Q41 370 75.50 446.50Q110 523 167 583Q224 643 298 679Q372 715 452 715Q514 715 561.50 690Q609 665 641 624Q673 583 689.50 529.50Q706 476 706 419Q706 339 672 262.50Q638 186 581.50 126.50Q525 67 451 31Q377-5 297-5M319 96Q377 96 427 124.50Q477 153 513.50 198.50Q550 244 570.50 300Q591 356 591 411Q591 451 580.50 488Q570 525 549.50 552.50Q529 580 499 596.50Q469 613 429 613Q370 613 320.50 584.50Q271 556 234 511Q197 466 176.50 409.50Q156 353 156 298Q156 257 166.50 220.50Q177 184 197 156.50Q217 129 247.50 112.50Q278 96 319 96Z"  horiz-adv-x="725" vert-adv-y="1000"  />

      
      <glyph glyph-name="unid2" unicode="&#xd2;" d="M297-5Q235-5 187.50 19.50Q140 44 107.50 84.50Q75 125 58 178Q41 231 41 289Q41 370 75.50 446.50Q110 523 167 583Q224 643 298 679Q372 715 452 715Q514 715 561.50 690Q609 665 641 624Q673 583 689.50 529.50Q706 476 706 419Q706 339 672 262.50Q638 186 581.50 126.50Q525 67 451 31Q377-5 297-5M319 96Q377 96 427 124.50Q477 153 513.50 198.50Q550 244 570.50 300Q591 356 591 411Q591 451 580.50 488Q570 525 549.50 552.50Q529 580 499 596.50Q469 613 429 613Q370 613 320.50 584.50Q271 556 234 511Q197 466 176.50 409.50Q156 353 156 298Q156 257 166.50 220.50Q177 184 197 156.50Q217 129 247.50 112.50Q278 96 319 96M408 917L512 917L542 807L466 788L408 917Z"  horiz-adv-x="725" vert-adv-y="1000"  />

      
      <glyph glyph-name="uni0150" unicode="&#x0150;" d="M405 785L351 802L422 912L511 912L405 785M548 785L495 802L565 912L654 912L548 785M297-5Q235-5 187.50 19.50Q140 44 107.50 84.50Q75 125 58 178Q41 231 41 289Q41 370 75.50 446.50Q110 523 167 583Q224 643 298 679Q372 715 452 715Q514 715 561.50 690Q609 665 641 624Q673 583 689.50 529.50Q706 476 706 419Q706 339 672 262.50Q638 186 581.50 126.50Q525 67 451 31Q377-5 297-5M319 96Q377 96 427 124.50Q477 153 513.50 198.50Q550 244 570.50 300Q591 356 591 411Q591 451 580.50 488Q570 525 549.50 552.50Q529 580 499 596.50Q469 613 429 613Q370 613 320.50 584.50Q271 556 234 511Q197 466 176.50 409.50Q156 353 156 298Q156 257 166.50 220.50Q177 184 197 156.50Q217 129 247.50 112.50Q278 96 319 96Z"  horiz-adv-x="725" vert-adv-y="1000"  />

      
      <glyph glyph-name="uni02DD" unicode="&#x02DD;" d="M87 603L33 620L104 730L193 730L87 603M230 603L177 620L247 730L336 730L230 603Z"  horiz-adv-x="337" vert-adv-y="1000"  />

      
      <glyph glyph-name="uni014C" unicode="&#x014C;" d="M337 828L351 898L634 898L619 828L337 828M297-5Q235-5 187.50 19.50Q140 44 107.50 84.50Q75 125 58 178Q41 231 41 289Q41 370 75.50 446.50Q110 523 167 583Q224 643 298 679Q372 715 452 715Q514 715 561.50 690Q609 665 641 624Q673 583 689.50 529.50Q706 476 706 419Q706 339 672 262.50Q638 186 581.50 126.50Q525 67 451 31Q377-5 297-5M319 96Q377 96 427 124.50Q477 153 513.50 198.50Q550 244 570.50 300Q591 356 591 411Q591 451 580.50 488Q570 525 549.50 552.50Q529 580 499 596.50Q469 613 429 613Q370 613 320.50 584.50Q271 556 234 511Q197 466 176.50 409.50Q156 353 156 298Q156 257 166.50 220.50Q177 184 197 156.50Q217 129 247.50 112.50Q278 96 319 96Z"  horiz-adv-x="725" vert-adv-y="1000"  />

      
      <glyph glyph-name="uni01EA" unicode="&#x01EA;" d="M250-188Q208-181 188-162Q168-143 168-118Q168-59 262-2Q208 4 167 30.50Q126 57 98 96.50Q70 136 55.50 185.50Q41 235 41 289Q41 370 75.50 446.50Q110 523 167 583Q224 643 298 679Q372 715 452 715Q514 715 561.50 690Q609 665 641 624Q673 583 689.50 529.50Q706 476 706 419Q706 342 675 269Q644 196 591.50 137.50Q539 79 470.50 41Q402 3 326-3Q279-30 258.50-52.50Q238-75 238-95Q238-127 286-130L250-188M319 96Q377 96 427 124.50Q477 153 513.50 198.50Q550 244 570.50 300Q591 356 591 411Q591 451 580.50 488Q570 525 549.50 552.50Q529 580 499 596.50Q469 613 429 613Q370 613 320.50 584.50Q271 556 234 511Q197 466 176.50 409.50Q156 353 156 298Q156 257 166.50 220.50Q177 184 197 156.50Q217 129 247.50 112.50Q278 96 319 96Z"  horiz-adv-x="724" vert-adv-y="1000"  />

      
      <glyph glyph-name="unid8" unicode="&#xd8;" d="M745 710L654 605Q680 565 693 517.50Q706 470 706 419Q706 339 672 262.50Q638 186 581.50 126.50Q525 67 451 31Q377-5 297-5Q256-5 222 5.50Q188 16 160 35L130 0L8 0L95 100Q68 139 54.50 187.50Q41 236 41 289Q41 370 75.50 446.50Q110 523 167 583Q224 643 298 679Q372 715 452 715Q493 715 527.50 703.50Q562 692 590 672L623 710L745 710M156 298Q156 269 160.50 242.50Q165 216 175 193L516 586Q478 613 429 613Q370 613 320.50 584.50Q271 556 234 511Q197 466 176.50 409.50Q156 353 156 298M319 96Q377 96 427 124.50Q477 153 513.50 198.50Q550 244 570.50 300Q591 356 591 411Q591 438 586 463Q581 488 572 511L234 120Q251 109 272 102.50Q293 96 319 96Z"  horiz-adv-x="725" vert-adv-y="1000"  />

      
      <glyph glyph-name="uni2f" unicode="&#x2f;" d="M711 710L96 0L-26 0L589 710L711 710Z"  horiz-adv-x="659" vert-adv-y="1000"  />

      
      <glyph glyph-name="uni01FE" unicode="&#x01FE;" d="M744 710L654 606Q680 566 693 518Q706 470 706 419Q706 339 672 262.50Q638 186 581.50 126.50Q525 67 451 31Q377-5 297-5Q256-5 222 5.50Q188 16 159 35L129 0L7 0L94 101Q68 140 54.50 188Q41 236 41 289Q41 370 75.50 446.50Q110 523 167 583Q224 643 298 679Q372 715 452 715Q493 715 527 704Q561 693 590 673L622 710L744 710M156 298Q156 270 160.50 243.50Q165 217 175 194L515 587Q498 599 476.50 606Q455 613 429 613Q370 613 320.50 584.50Q271 556 234 511Q197 466 176.50 409.50Q156 353 156 298M319 96Q377 96 427 124.50Q477 153 513.50 198.50Q550 244 570.50 300Q591 356 591 411Q591 438 586.50 463.50Q582 489 572 512L233 121Q270 96 319 96M489 788L419 806L495 916L600 916L489 788Z"  horiz-adv-x="725" vert-adv-y="1000"  />

      
      <glyph glyph-name="unid5" unicode="&#xd5;" d="M297-5Q235-5 187.50 19.50Q140 44 107.50 84.50Q75 125 58 178Q41 231 41 289Q41 370 75.50 446.50Q110 523 167 583Q224 643 298 679Q372 715 452 715Q514 715 561.50 690Q609 665 641 624Q673 583 689.50 529.50Q706 476 706 419Q706 339 672 262.50Q638 186 581.50 126.50Q525 67 451 31Q377-5 297-5M319 96Q377 96 427 124.50Q477 153 513.50 198.50Q550 244 570.50 300Q591 356 591 411Q591 451 580.50 488Q570 525 549.50 552.50Q529 580 499 596.50Q469 613 429 613Q370 613 320.50 584.50Q271 556 234 511Q197 466 176.50 409.50Q156 353 156 298Q156 257 166.50 220.50Q177 184 197 156.50Q217 129 247.50 112.50Q278 96 319 96M533 801Q512 801 497 807.50Q482 814 470 822.50Q458 831 446 837.50Q434 844 418 844Q402 844 391.50 837Q381 830 374.50 821.50Q368 813 365.50 805Q363 797 363 796L300 796Q302 804 311 823Q320 842 336.50 861.50Q353 881 376 896Q399 911 429 911Q450 911 464 904Q478 897 490 889Q502 881 514 874Q526 867 543 867Q561 867 572.50 874Q584 881 591.50 890Q599 899 602.50 906.50Q606 914 606 916L668 916Q666 910 657 891Q648 872 631 852Q614 832 589.50 816.50Q565 801 533 801Z"  horiz-adv-x="725" vert-adv-y="1000"  />

      
      <glyph glyph-name="uni50" unicode="&#x50;" d="M166 710L450 710Q489 710 520 694Q551 678 572.50 651Q594 624 605.50 589.50Q617 555 617 518Q617 469 596 420.50Q575 372 539.50 333.50Q504 295 456.50 271Q409 247 356 247L180 247L128 0L15 0L166 710M371 346Q397 346 420.50 359Q444 372 462 394.50Q480 417 490.50 446.50Q501 476 501 509Q501 555 478.50 583Q456 611 421 611L258 611L201 346L371 346Z"  horiz-adv-x="601" vert-adv-y="1000"  />

      
      <glyph glyph-name="uni51" unicode="&#x51;" d="M483 48Q440 23 393 9Q346-5 297-5Q235-5 187 19.50Q139 44 106.50 84.50Q74 125 57 178Q40 231 40 289Q40 370 74.50 446.50Q109 523 166 583Q223 643 297.50 679Q372 715 452 715Q513 715 560.50 690Q608 665 640.50 624Q673 583 689.50 529.50Q706 476 706 419Q706 330 665 247Q624 164 557 103L623 0L514 0L483 48M319 96Q350 96 378.50 104.50Q407 113 433 128L358 247L465 247L503 187Q545 234 568 293Q591 352 591 411Q591 451 580.50 488Q570 525 549.50 553Q529 581 498.50 597.50Q468 614 428 614Q370 614 320 585.50Q270 557 233.50 511.50Q197 466 176.50 409.50Q156 353 156 298Q156 257 166.50 220.50Q177 184 197 156.50Q217 129 247.50 112.50Q278 96 319 96Z"  horiz-adv-x="724" vert-adv-y="1000"  />

      
      <glyph glyph-name="uni52" unicode="&#x52;" d="M15 0L166 710L461 710Q500 710 531 694Q562 678 583.50 651Q605 624 616 589.50Q627 555 627 518Q627 478 613 439Q599 400 575 366.50Q551 333 518.50 307.50Q486 282 448 270L548 0L421 0L329 247L180 247L128 0L15 0M382 346Q407 346 430.50 359.50Q454 373 472 395.50Q490 418 500.50 447Q511 476 511 506Q511 551 489 581Q467 611 433 611L258 611L201 346L382 346Z"  horiz-adv-x="637" vert-adv-y="1000"  />

      
      <glyph glyph-name="uni0154" unicode="&#x0154;" d="M422 790L352 808L428 918L533 918L422 790M15 0L166 710L461 710Q500 710 531 694Q562 678 583.50 651Q605 624 616 589.50Q627 555 627 518Q627 478 613 439Q599 400 575 366.50Q551 333 518.50 307.50Q486 282 448 270L548 0L421 0L329 247L180 247L128 0L15 0M382 346Q407 346 430.50 359.50Q454 373 472 395.50Q490 418 500.50 447Q511 476 511 506Q511 551 489 581Q467 611 433 611L258 611L201 346L382 346Z"  horiz-adv-x="637" vert-adv-y="1000"  />

      
      <glyph glyph-name="uni0158" unicode="&#x0158;" d="M296 890L360 918L427 855L521 918L573 890L454 795L374 795L296 890M15 0L166 710L461 710Q500 710 531 694Q562 678 583.50 651Q605 624 616 589.50Q627 555 627 518Q627 478 613 439Q599 400 575 366.50Q551 333 518.50 307.50Q486 282 448 270L548 0L421 0L329 247L180 247L128 0L15 0M382 346Q407 346 430.50 359.50Q454 373 472 395.50Q490 418 500.50 447Q511 476 511 506Q511 551 489 581Q467 611 433 611L258 611L201 346L382 346Z"  horiz-adv-x="637" vert-adv-y="1000"  />

      
      <glyph glyph-name="uni0156" unicode="&#x0156;" d="M174-213L213-136L181-136L200-48L294-48L275-136L225-213L174-213M15 0L166 710L461 710Q500 710 531 694Q562 678 583.50 651Q605 624 616 589.50Q627 555 627 518Q627 478 613 439Q599 400 575 366.50Q551 333 518.50 307.50Q486 282 448 270L548 0L421 0L329 247L180 247L128 0L15 0M382 346Q407 346 430.50 359.50Q454 373 472 395.50Q490 418 500.50 447Q511 476 511 506Q511 551 489 581Q467 611 433 611L258 611L201 346L382 346Z"  horiz-adv-x="637" vert-adv-y="1000"  />

      
      <glyph glyph-name="uni53" unicode="&#x53;" d="M243-7Q166-7 98.50 17.50Q31 42-17 89L56 185Q64 172 83.50 156Q103 140 130.50 126.50Q158 113 192.50 103.50Q227 94 266 94Q338 94 376 122.50Q414 151 414 202Q414 224 402.50 239.50Q391 255 370.50 267Q350 279 320.50 288.50Q291 298 255 309Q175 332 133.50 365.50Q92 399 92 461Q92 521 116 568Q140 615 180.50 648Q221 681 274.50 698Q328 715 388 715Q457 715 511 692Q565 669 601 635L531 543Q525 554 509 566.50Q493 579 471 590Q449 601 421.50 608Q394 615 364 615Q288 615 251.50 582.50Q215 550 215 499Q215 479 224 465Q233 451 251 440.50Q269 430 295.50 421Q322 412 357 403Q399 392 432.50 378Q466 364 490 345Q514 326 527 299.50Q540 273 540 236Q540 173 515.50 127Q491 81 449.50 51Q408 21 354.50 7Q301-7 243-7Z"  horiz-adv-x="590" vert-adv-y="1000"  />

      
      <glyph glyph-name="uni015A" unicode="&#x015A;" d="M422 802L352 820L428 930L533 930L422 802M243-7Q166-7 98.50 17.50Q31 42-17 89L56 185Q64 172 83.50 156Q103 140 130.50 126.50Q158 113 192.50 103.50Q227 94 266 94Q338 94 376 122.50Q414 151 414 202Q414 224 402.50 239.50Q391 255 370.50 267Q350 279 320.50 288.50Q291 298 255 309Q175 332 133.50 365.50Q92 399 92 461Q92 521 116 568Q140 615 180.50 648Q221 681 274.50 698Q328 715 388 715Q457 715 511 692Q565 669 601 635L531 543Q525 554 509 566.50Q493 579 471 590Q449 601 421.50 608Q394 615 364 615Q288 615 251.50 582.50Q215 550 215 499Q215 479 224 465Q233 451 251 440.50Q269 430 295.50 421Q322 412 357 403Q399 392 432.50 378Q466 364 490 345Q514 326 527 299.50Q540 273 540 236Q540 173 515.50 127Q491 81 449.50 51Q408 21 354.50 7Q301-7 243-7Z"  horiz-adv-x="590" vert-adv-y="1000"  />

      
      <glyph glyph-name="uni0160" unicode="&#x0160;" d="M283 902L347 930L414 867L508 930L560 902L441 807L361 807L283 902M243-7Q166-7 98.50 17.50Q31 42-17 89L56 185Q64 172 83.50 156Q103 140 130.50 126.50Q158 113 192.50 103.50Q227 94 266 94Q338 94 376 122.50Q414 151 414 202Q414 224 402.50 239.50Q391 255 370.50 267Q350 279 320.50 288.50Q291 298 255 309Q175 332 133.50 365.50Q92 399 92 461Q92 521 116 568Q140 615 180.50 648Q221 681 274.50 698Q328 715 388 715Q457 715 511 692Q565 669 601 635L531 543Q525 554 509 566.50Q493 579 471 590Q449 601 421.50 608Q394 615 364 615Q288 615 251.50 582.50Q215 550 215 499Q215 479 224 465Q233 451 251 440.50Q269 430 295.50 421Q322 412 357 403Q399 392 432.50 378Q466 364 490 345Q514 326 527 299.50Q540 273 540 236Q540 173 515.50 127Q491 81 449.50 51Q408 21 354.50 7Q301-7 243-7Z"  horiz-adv-x="590" vert-adv-y="1000"  />

      
      <glyph glyph-name="uni015C" unicode="&#x015C;" d="M277 835L396 930L476 930L554 835L490 807L423 870L329 807L277 835M243-7Q166-7 98.50 17.50Q31 42-17 89L56 185Q64 172 83.50 156Q103 140 130.50 126.50Q158 113 192.50 103.50Q227 94 266 94Q338 94 376 122.50Q414 151 414 202Q414 224 402.50 239.50Q391 255 370.50 267Q350 279 320.50 288.50Q291 298 255 309Q175 332 133.50 365.50Q92 399 92 461Q92 521 116 568Q140 615 180.50 648Q221 681 274.50 698Q328 715 388 715Q457 715 511 692Q565 669 601 635L531 543Q525 554 509 566.50Q493 579 471 590Q449 601 421.50 608Q394 615 364 615Q288 615 251.50 582.50Q215 550 215 499Q215 479 224 465Q233 451 251 440.50Q269 430 295.50 421Q322 412 357 403Q399 392 432.50 378Q466 364 490 345Q514 326 527 299.50Q540 273 540 236Q540 173 515.50 127Q491 81 449.50 51Q408 21 354.50 7Q301-7 243-7Z"  horiz-adv-x="590" vert-adv-y="1000"  />

      
      <glyph glyph-name="uni54" unicode="&#x54;" d="M303 611L81 611L102 710L659 710L638 611L416 611L286 0L174 0L303 611Z"  horiz-adv-x="589" vert-adv-y="1000"  />

      
      <glyph glyph-name="uni0166" unicode="&#x0166;" d="M81 388L269 388L317 611L95 611L116 710L673 710L652 611L430 611L382 388L571 388L559 332L370 332L300 0L187 0L257 332L69 332L81 388Z"  horiz-adv-x="618" vert-adv-y="1000"  />

      
      <glyph glyph-name="uni0164" unicode="&#x0164;" d="M275 888L339 916L406 853L500 916L552 888L433 793L353 793L275 888M303 611L81 611L102 710L659 710L638 611L416 611L286 0L174 0L303 611Z"  horiz-adv-x="589" vert-adv-y="1000"  />

      
      <glyph glyph-name="unide" unicode="&#xde;" d="M166 710L279 710L251 577L405 577Q444 577 475 561Q506 545 527.50 518Q549 491 560.50 456.50Q572 422 572 386Q572 336 551 287.50Q530 239 494.50 200.50Q459 162 412 138Q365 114 312 114L152 114L128 0L15 0L166 710M328 214Q354 214 377.50 228Q401 242 418.50 264.50Q436 287 446.50 315.50Q457 344 457 374Q457 419 435 448.50Q413 478 378 478L229 478L173 214L328 214Z"  horiz-adv-x="582" vert-adv-y="1000"  />

      
      <glyph glyph-name="uni55" unicode="&#x55;" d="M296-5Q233-5 189 13.50Q145 32 118 64Q91 96 78.50 139.50Q66 183 66 233Q66 288 80 350L156 710L269 710L192 350Q181 297 181 253Q181 220 188 191Q195 162 211 141Q227 120 253 108Q279 96 317 96Q369 96 408 118Q447 140 475.50 175.50Q504 211 522.50 256.50Q541 302 551 350L627 710L740 710L663 350Q648 277 618 212.50Q588 148 542.50 99.50Q497 51 435.50 23Q374-5 296-5Z"  horiz-adv-x="722" vert-adv-y="1000"  />

      
      <glyph glyph-name="unida" unicode="&#xda;" d="M472 788L402 806L478 916L583 916L472 788M296-5Q233-5 189 13.50Q145 32 118 64Q91 96 78.50 139.50Q66 183 66 233Q66 288 80 350L156 710L269 710L192 350Q181 297 181 253Q181 220 188 191Q195 162 211 141Q227 120 253 108Q279 96 317 96Q369 96 408 118Q447 140 475.50 175.50Q504 211 522.50 256.50Q541 302 551 350L627 710L740 710L663 350Q648 277 618 212.50Q588 148 542.50 99.50Q497 51 435.50 23Q374-5 296-5Z"  horiz-adv-x="721" vert-adv-y="1000"  />

      
      <glyph glyph-name="uni016C" unicode="&#x016C;" d="M296-5Q233-5 189 13.50Q145 32 118 64Q91 96 78.50 139.50Q66 183 66 233Q66 288 80 350L156 710L269 710L192 350Q181 297 181 253Q181 220 188 191Q195 162 211 141Q227 120 253 108Q279 96 317 96Q369 96 408 118Q447 140 475.50 175.50Q504 211 522.50 256.50Q541 302 551 350L627 710L740 710L663 350Q648 277 618 212.50Q588 148 542.50 99.50Q497 51 435.50 23Q374-5 296-5M462 845Q483 845 503 865Q523 885 532 916L593 916Q587 890 573.50 867.50Q560 845 541 828.50Q522 812 499 803Q476 794 451 794Q408 794 382.50 819.50Q357 845 357 887Q357 895 358 902Q359 909 361 916L422 916Q421 911 420.50 907Q420 903 420 898Q420 876 431.50 860.50Q443 845 462 845Z"  horiz-adv-x="721" vert-adv-y="1000"  />

      
      <glyph glyph-name="unidb" unicode="&#xdb;" d="M327 821L446 916L526 916L604 821L540 793L473 856L379 793L327 821M296-5Q233-5 189 13.50Q145 32 118 64Q91 96 78.50 139.50Q66 183 66 233Q66 288 80 350L156 710L269 710L192 350Q181 297 181 253Q181 220 188 191Q195 162 211 141Q227 120 253 108Q279 96 317 96Q369 96 408 118Q447 140 475.50 175.50Q504 211 522.50 256.50Q541 302 551 350L627 710L740 710L663 350Q648 277 618 212.50Q588 148 542.50 99.50Q497 51 435.50 23Q374-5 296-5Z"  horiz-adv-x="721" vert-adv-y="1000"  />

      
      <glyph glyph-name="unidc" unicode="&#xdc;" d="M329 802L353 912L444 912L421 802L329 802M501 802L524 912L615 912L592 802L501 802M296-5Q233-5 189 13.50Q145 32 118 64Q91 96 78.50 139.50Q66 183 66 233Q66 288 80 350L156 710L269 710L192 350Q181 297 181 253Q181 220 188 191Q195 162 211 141Q227 120 253 108Q279 96 317 96Q369 96 408 118Q447 140 475.50 175.50Q504 211 522.50 256.50Q541 302 551 350L627 710L740 710L663 350Q648 277 618 212.50Q588 148 542.50 99.50Q497 51 435.50 23Q374-5 296-5Z"  horiz-adv-x="721" vert-adv-y="1000"  />

      
      <glyph glyph-name="unid9" unicode="&#xd9;" d="M296-5Q233-5 189 13.50Q145 32 118 64Q91 96 78.50 139.50Q66 183 66 233Q66 288 80 350L156 710L269 710L192 350Q181 297 181 253Q181 220 188 191Q195 162 211 141Q227 120 253 108Q279 96 317 96Q369 96 408 118Q447 140 475.50 175.50Q504 211 522.50 256.50Q541 302 551 350L627 710L740 710L663 350Q648 277 618 212.50Q588 148 542.50 99.50Q497 51 435.50 23Q374-5 296-5M390 917L494 917L524 807L448 788L390 917Z"  horiz-adv-x="721" vert-adv-y="1000"  />

      
      <glyph glyph-name="uni0170" unicode="&#x0170;" d="M296-5Q233-5 189 13.50Q145 32 118 64Q91 96 78.50 139.50Q66 183 66 233Q66 288 80 350L156 710L269 710L192 350Q181 297 181 253Q181 220 188 191Q195 162 211 141Q227 120 253 108Q279 96 317 96Q369 96 408 118Q447 140 475.50 175.50Q504 211 522.50 256.50Q541 302 551 350L627 710L740 710L663 350Q648 277 618 212.50Q588 148 542.50 99.50Q497 51 435.50 23Q374-5 296-5M384 790L330 807L401 917L490 917L384 790M527 790L474 807L544 917L633 917L527 790Z"  horiz-adv-x="721" vert-adv-y="1000"  />

      
      <glyph glyph-name="uni016A" unicode="&#x016A;" d="M296-5Q233-5 189 13.50Q145 32 118 64Q91 96 78.50 139.50Q66 183 66 233Q66 288 80 350L156 710L269 710L192 350Q181 297 181 253Q181 220 188 191Q195 162 211 141Q227 120 253 108Q279 96 317 96Q369 96 408 118Q447 140 475.50 175.50Q504 211 522.50 256.50Q541 302 551 350L627 710L740 710L663 350Q648 277 618 212.50Q588 148 542.50 99.50Q497 51 435.50 23Q374-5 296-5M326 828L340 898L623 898L608 828L326 828Z"  horiz-adv-x="721" vert-adv-y="1000"  />

      
      <glyph glyph-name="uni0172" unicode="&#x0172;" d="M250-188Q208-181 188-162Q168-143 168-118Q168-89 190.50-60.50Q213-32 261-3Q208 2 170.50 22Q133 42 110 73.50Q87 105 76.50 145.50Q66 186 66 233Q66 288 80 350L156 710L269 710L192 350Q181 297 181 253Q181 220 188 191Q195 162 211 141Q227 120 253 108Q279 96 317 96Q369 96 408 118Q447 140 475.50 175.50Q504 211 522.50 256.50Q541 302 551 350L627 710L740 710L663 350Q648 281 620.50 219Q593 157 551 109Q509 61 452.50 31Q396 1 325-4Q279-31 258.50-53Q238-75 238-95Q238-127 286-130L250-188L250-188Z"  horiz-adv-x="721" vert-adv-y="1000"  />

      
      <glyph glyph-name="uni016E" unicode="&#x016E;" d="M384 829Q384 869 414 892.50Q444 916 488 916Q523 916 541.50 900.50Q560 885 560 857Q560 818 531 794Q502 770 457 770Q423 770 403.50 786Q384 802 384 829M480 880Q462 880 448 868Q434 856 434 837Q434 824 442.50 815Q451 806 465 806Q482 806 497 818.50Q512 831 512 850Q512 864 503 872Q494 880 480 880M296-5Q233-5 189 13.50Q145 32 118 64Q91 96 78.50 139.50Q66 183 66 233Q66 288 80 350L156 710L269 710L192 350Q181 297 181 253Q181 220 188 191Q195 162 211 141Q227 120 253 108Q279 96 317 96Q369 96 408 118Q447 140 475.50 175.50Q504 211 522.50 256.50Q541 302 551 350L627 710L740 710L663 350Q648 277 618 212.50Q588 148 542.50 99.50Q497 51 435.50 23Q374-5 296-5Z"  horiz-adv-x="721" vert-adv-y="1000"  />

      
      <glyph glyph-name="uni0168" unicode="&#x0168;" d="M296-5Q233-5 189 13.50Q145 32 118 64Q91 96 78.50 139.50Q66 183 66 233Q66 288 80 350L156 710L269 710L192 350Q181 297 181 253Q181 220 188 191Q195 162 211 141Q227 120 253 108Q279 96 317 96Q369 96 408 118Q447 140 475.50 175.50Q504 211 522.50 256.50Q541 302 551 350L627 710L740 710L663 350Q648 277 618 212.50Q588 148 542.50 99.50Q497 51 435.50 23Q374-5 296-5M521 801Q500 801 485 807.50Q470 814 458 822.50Q446 831 434 837.50Q422 844 406 844Q390 844 379.50 837Q369 830 362.50 821.50Q356 813 353.50 805Q351 797 351 796L288 796Q290 804 299 823Q308 842 324.50 861.50Q341 881 364 896Q387 911 417 911Q438 911 452 904Q466 897 478 889Q490 881 502 874Q514 867 531 867Q549 867 560.50 874Q572 881 579.50 890Q587 899 590.50 906.50Q594 914 594 916L656 916Q654 910 645 891Q636 872 619 852Q602 832 577.50 816.50Q553 801 521 801Z"  horiz-adv-x="721" vert-adv-y="1000"  />

      
      <glyph glyph-name="uni56" unicode="&#x56;" d="M91 710L210 710L287 141L605 710L724 710L305 0L209 0L91 710Z"  horiz-adv-x="648" vert-adv-y="1000"  />

      
      <glyph glyph-name="uni57" unicode="&#x57;" d="M88 710L209 710L292 130L445 391L397 707L502 707L532 466L665 707L770 707L588 391L629 130L958 710L1081 710L652 0L557 0L501 318L309 0L214 0L88 710Z"  horiz-adv-x="1002" vert-adv-y="1000"  />

      
      <glyph glyph-name="uni1E82" unicode="&#x1E82;" d="M602 788L532 806L608 916L713 916L602 788M88 710L209 710L292 130L445 391L397 707L502 707L532 466L665 707L770 707L588 391L629 130L958 710L1081 710L652 0L557 0L501 318L309 0L214 0L88 710Z"  horiz-adv-x="1002" vert-adv-y="1000"  />

      
      <glyph glyph-name="uni0174" unicode="&#x0174;" d="M466 821L585 916L665 916L743 821L679 793L612 856L518 793L466 821M88 710L209 710L292 130L445 391L397 707L502 707L532 466L665 707L770 707L588 391L629 130L958 710L1081 710L652 0L557 0L501 318L309 0L214 0L88 710Z"  horiz-adv-x="1002" vert-adv-y="1000"  />

      
      <glyph glyph-name="uni1E84" unicode="&#x1E84;" d="M462 802L486 912L577 912L554 802L462 802M634 802L657 912L748 912L725 802L634 802M88 710L209 710L292 130L445 391L397 707L502 707L532 466L665 707L770 707L588 391L629 130L958 710L1081 710L652 0L557 0L501 318L309 0L214 0L88 710Z"  horiz-adv-x="1002" vert-adv-y="1000"  />

      
      <glyph glyph-name="uni1E80" unicode="&#x1E80;" d="M88 710L209 710L292 130L445 391L397 707L502 707L532 466L665 707L770 707L588 391L629 130L958 710L1081 710L652 0L557 0L501 318L309 0L214 0L88 710M509 917L613 917L643 807L567 788L509 917Z"  horiz-adv-x="1002" vert-adv-y="1000"  />

      
      <glyph glyph-name="uni58" unicode="&#x58;" d="M258 350L88 710L212 710L335 430L577 710L700 710L378 350L541 0L418 0L301 270L69 0L-55 0L258 350Z"  horiz-adv-x="615" vert-adv-y="1000"  />

      
      <glyph glyph-name="uni59" unicode="&#x59;" d="M237 256L85 710L208 710L314 354L574 710L696 710L349 254L295 0L182 0L237 256Z"  horiz-adv-x="615" vert-adv-y="1000"  />

      
      <glyph glyph-name="unidd" unicode="&#xdd;" d="M237 256L85 710L208 710L314 354L574 710L696 710L349 254L295 0L182 0L237 256M413 788L343 806L419 916L524 916L413 788Z"  horiz-adv-x="615" vert-adv-y="1000"  />

      
      <glyph glyph-name="uni0176" unicode="&#x0176;" d="M237 256L85 710L208 710L314 354L574 710L696 710L349 254L295 0L182 0L237 256M266 821L385 916L465 916L543 821L479 793L412 856L318 793L266 821Z"  horiz-adv-x="615" vert-adv-y="1000"  />

      
      <glyph glyph-name="uni0178" unicode="&#x0178;" d="M237 256L85 710L208 710L314 354L574 710L696 710L349 254L295 0L182 0L237 256M275 802L299 912L390 912L367 802L275 802M447 802L470 912L561 912L538 802L447 802Z"  horiz-adv-x="615" vert-adv-y="1000"  />

      
      <glyph glyph-name="uni1EF2" unicode="&#x1EF2;" d="M237 256L85 710L208 710L314 354L574 710L696 710L349 254L295 0L182 0L237 256M327 917L431 917L461 807L385 788L327 917Z"  horiz-adv-x="615" vert-adv-y="1000"  />

      
      <glyph glyph-name="uni1EF8" unicode="&#x1EF8;" d="M237 256L85 710L208 710L314 354L574 710L696 710L349 254L295 0L182 0L237 256M461 801Q440 801 425 807.50Q410 814 398 822.50Q386 831 374 837.50Q362 844 346 844Q330 844 319.50 837Q309 830 302.50 821.50Q296 813 293.50 805Q291 797 291 796L228 796Q230 804 239 823Q248 842 264.50 861.50Q281 881 304 896Q327 911 357 911Q378 911 392 904Q406 897 418 889Q430 881 442 874Q454 867 471 867Q489 867 500.50 874Q512 881 519.50 890Q527 899 530.50 906.50Q534 914 534 916L596 916Q594 910 585 891Q576 872 559 852Q542 832 517.50 816.50Q493 801 461 801Z"  horiz-adv-x="615" vert-adv-y="1000"  />

      
      <glyph glyph-name="uni5a" unicode="&#x5a;" d="M-16 86L498 611L106 611L127 710L650 710L632 624L128 99L521 99L500 0L-35 0L-16 86Z"  horiz-adv-x="598" vert-adv-y="1000"  />

      
      <glyph glyph-name="uni0179" unicode="&#x0179;" d="M405 788L335 806L411 916L516 916L405 788M-16 86L498 611L106 611L127 710L650 710L632 624L128 99L521 99L500 0L-35 0L-16 86Z"  horiz-adv-x="598" vert-adv-y="1000"  />

      
      <glyph glyph-name="uni017D" unicode="&#x017D;" d="M274 888L338 916L405 853L499 916L551 888L432 793L352 793L274 888M-16 86L498 611L106 611L127 710L650 710L632 624L128 99L521 99L500 0L-35 0L-16 86Z"  horiz-adv-x="598" vert-adv-y="1000"  />

      
      <glyph glyph-name="uni017B" unicode="&#x017B;" d="M-16 86L498 611L106 611L127 710L650 710L632 624L128 99L521 99L500 0L-35 0L-16 86M347 801L372 916L470 916L446 801L347 801Z"  horiz-adv-x="598" vert-adv-y="1000"  />

      
      <glyph glyph-name="uni61" unicode="&#x61;" d="M205-10Q161-10 126.50 7Q92 24 68 53Q44 82 31.50 121.50Q19 161 19 206Q19 270 42.50 329Q66 388 106 433Q146 478 198 505Q250 532 307 532Q364 532 402.50 501.50Q441 471 457 424L478 522L589 522L505 130Q504 125 503.50 121.50Q503 118 503 115Q503 95 526 94L506 0Q492-2 480.50-3.50Q469-5 461-5Q396-5 396 47Q396 63 403 95Q365 44 311 17Q257-10 205-10M253 84Q273 84 295.50 92Q318 100 339.50 114Q361 128 379 147Q397 166 408 188L436 325Q433 349 422.50 369.50Q412 390 396 405.50Q380 421 361 429.50Q342 438 321 438Q283 438 249.50 419Q216 400 190.50 370Q165 340 150 301.50Q135 263 135 224Q135 194 143 168.50Q151 143 166.50 124.50Q182 106 204 95Q226 84 253 84Z"  horiz-adv-x="615" vert-adv-y="1000"  />

      
      <glyph glyph-name="unie1" unicode="&#xe1;" d="M205-10Q161-10 126.50 7Q92 24 68 53Q44 82 31.50 121.50Q19 161 19 206Q19 270 42.50 329Q66 388 106 433Q146 478 198 505Q250 532 307 532Q364 532 402.50 501.50Q441 471 457 424L478 522L589 522L505 130Q504 125 503.50 121.50Q503 118 503 115Q503 95 526 94L506 0Q492-2 480.50-3.50Q469-5 461-5Q396-5 396 47Q396 63 403 95Q365 44 311 17Q257-10 205-10M253 84Q273 84 295.50 92Q318 100 339.50 114Q361 128 379 147Q397 166 408 188L436 325Q433 349 422.50 369.50Q412 390 396 405.50Q380 421 361 429.50Q342 438 321 438Q283 438 249.50 419Q216 400 190.50 370Q165 340 150 301.50Q135 263 135 224Q135 194 143 168.50Q151 143 166.50 124.50Q182 106 204 95Q226 84 253 84M358 602L288 620L364 730L469 730L358 602Z"  horiz-adv-x="615" vert-adv-y="1000"  />

      
      <glyph glyph-name="uni0103" unicode="&#x0103;" d="M205-10Q161-10 126.50 7Q92 24 68 53Q44 82 31.50 121.50Q19 161 19 206Q19 270 42.50 329Q66 388 106 433Q146 478 198 505Q250 532 307 532Q364 532 402.50 501.50Q441 471 457 424L478 522L589 522L505 130Q504 125 503.50 121.50Q503 118 503 115Q503 95 526 94L506 0Q492-2 480.50-3.50Q469-5 461-5Q396-5 396 47Q396 63 403 95Q365 44 311 17Q257-10 205-10M253 84Q273 84 295.50 92Q318 100 339.50 114Q361 128 379 147Q397 166 408 188L436 325Q433 349 422.50 369.50Q412 390 396 405.50Q380 421 361 429.50Q342 438 321 438Q283 438 249.50 419Q216 400 190.50 370Q165 340 150 301.50Q135 263 135 224Q135 194 143 168.50Q151 143 166.50 124.50Q182 106 204 95Q226 84 253 84M344 659Q365 659 385 679Q405 699 414 730L475 730Q469 704 455.50 681.50Q442 659 423 642.50Q404 626 381 617Q358 608 333 608Q290 608 264.50 633.50Q239 659 239 701Q239 709 240 716Q241 723 243 730L304 730Q303 725 302.50 721Q302 717 302 712Q302 690 313.50 674.50Q325 659 344 659Z"  horiz-adv-x="615" vert-adv-y="1000"  />

      
      <glyph glyph-name="unie2" unicode="&#xe2;" d="M205-10Q161-10 126.50 7Q92 24 68 53Q44 82 31.50 121.50Q19 161 19 206Q19 270 42.50 329Q66 388 106 433Q146 478 198 505Q250 532 307 532Q364 532 402.50 501.50Q441 471 457 424L478 522L589 522L505 130Q504 125 503.50 121.50Q503 118 503 115Q503 95 526 94L506 0Q492-2 480.50-3.50Q469-5 461-5Q396-5 396 47Q396 63 403 95Q365 44 311 17Q257-10 205-10M253 84Q273 84 295.50 92Q318 100 339.50 114Q361 128 379 147Q397 166 408 188L436 325Q433 349 422.50 369.50Q412 390 396 405.50Q380 421 361 429.50Q342 438 321 438Q283 438 249.50 419Q216 400 190.50 370Q165 340 150 301.50Q135 263 135 224Q135 194 143 168.50Q151 143 166.50 124.50Q182 106 204 95Q226 84 253 84M208 635L327 730L407 730L485 635L421 607L354 670L260 607L208 635Z"  horiz-adv-x="615" vert-adv-y="1000"  />

      
      <glyph glyph-name="unie4" unicode="&#xe4;" d="M205-10Q161-10 126.50 7Q92 24 68 53Q44 82 31.50 121.50Q19 161 19 206Q19 270 42.50 329Q66 388 106 433Q146 478 198 505Q250 532 307 532Q364 532 402.50 501.50Q441 471 457 424L478 522L589 522L505 130Q504 125 503.50 121.50Q503 118 503 115Q503 95 526 94L506 0Q492-2 480.50-3.50Q469-5 461-5Q396-5 396 47Q396 63 403 95Q365 44 311 17Q257-10 205-10M253 84Q273 84 295.50 92Q318 100 339.50 114Q361 128 379 147Q397 166 408 188L436 325Q433 349 422.50 369.50Q412 390 396 405.50Q380 421 361 429.50Q342 438 321 438Q283 438 249.50 419Q216 400 190.50 370Q165 340 150 301.50Q135 263 135 224Q135 194 143 168.50Q151 143 166.50 124.50Q182 106 204 95Q226 84 253 84M211 615L235 725L326 725L303 615L211 615M383 615L406 725L497 725L474 615L383 615Z"  horiz-adv-x="615" vert-adv-y="1000"  />

      
      <glyph glyph-name="unie6" unicode="&#xe6;" d="M132-10Q66-10 29 28.50Q-8 67-8 125Q-8 167 11.50 203Q31 239 64.50 264.50Q98 290 143.50 304.50Q189 319 241 319Q273 319 302 314Q331 309 354 299Q360 322 368 339Q376 356 376 376Q376 410 351.50 432Q327 454 279 454Q240 454 199 438.50Q158 423 110 394L91 464Q203 532 307 532Q367 532 405.50 510Q444 488 461 447Q501 485 552 508.50Q603 532 661 532Q711 532 749 515Q787 498 813 468Q839 438 852.50 398Q866 358 866 313Q866 277 859.50 255.50Q853 234 849 225L448 225Q445 211 445 198Q445 140 479.50 105.50Q514 71 567 71Q588 71 609 76.50Q630 82 649 92.50Q668 103 684 118Q700 133 711 151L800 124Q781 95 754 70.50Q727 46 694 28Q661 10 623.50 0Q586-10 547-10Q477-10 429.50 20Q382 50 359 101Q336 71 306.50 50Q277 29 246 15.50Q215 2 185.50-4Q156-10 132-10M180 71Q201 71 225.50 78Q250 85 272.50 96.50Q295 108 313 123.50Q331 139 339 156Q336 168 336 185Q336 198 337.50 212Q339 226 341 238Q320 246 294.50 251Q269 256 246 256Q215 256 188 248Q161 240 141.50 225.50Q122 211 111 191Q100 171 100 147Q100 115 120 93Q140 71 180 71M755 295Q758 310 758 324Q758 381 726.50 416Q695 451 641 451Q611 451 582.50 439.50Q554 428 530 407Q506 386 488 357.50Q470 329 460 295L755 295Z"  horiz-adv-x="891" vert-adv-y="1000"  />

      
      <glyph glyph-name="uni01FD" unicode="&#x01FD;" d="M519 602L449 620L525 730L630 730L519 602M130-10Q64-10 27 28.50Q-10 67-10 125Q-10 167 9.50 203Q29 239 62.50 264.50Q96 290 141.50 304.50Q187 319 239 319Q271 319 300 314Q329 309 352 299Q358 322 366 339Q374 356 374 376Q374 410 349.50 432Q325 454 277 454Q238 454 197 438.50Q156 423 108 394L89 464Q201 532 305 532Q365 532 403.50 510Q442 488 459 447Q499 485 550 508.50Q601 532 659 532Q709 532 747 515Q785 498 811 468Q837 438 850.50 398Q864 358 864 313Q864 277 857.50 255.50Q851 234 847 225L446 225Q443 211 443 198Q443 140 477.50 105.50Q512 71 565 71Q586 71 607 76.50Q628 82 647 92.50Q666 103 682 118Q698 133 709 151L798 124Q779 95 752 70.50Q725 46 692 28Q659 10 621.50 0Q584-10 545-10Q475-10 427.50 20Q380 50 357 101Q334 71 304.50 50Q275 29 244 15.50Q213 2 183.50-4Q154-10 130-10M178 71Q199 71 223.50 78Q248 85 270.50 96.50Q293 108 311 123.50Q329 139 337 156Q334 168 334 185Q334 198 335.50 212Q337 226 339 238Q318 246 292.50 251Q267 256 244 256Q213 256 186 248Q159 240 139.50 225.50Q120 211 109 191Q98 171 98 147Q98 115 118 93Q138 71 178 71M753 295Q756 310 756 324Q756 381 724.50 416Q693 451 639 451Q609 451 580.50 439.50Q552 428 528 407Q504 386 486 357.50Q468 329 458 295L753 295Z"  horiz-adv-x="889" vert-adv-y="1000"  />

      
      <glyph glyph-name="unie0" unicode="&#xe0;" d="M205-10Q161-10 126.50 7Q92 24 68 53Q44 82 31.50 121.50Q19 161 19 206Q19 270 42.50 329Q66 388 106 433Q146 478 198 505Q250 532 307 532Q364 532 402.50 501.50Q441 471 457 424L478 522L589 522L505 130Q504 125 503.50 121.50Q503 118 503 115Q503 95 526 94L506 0Q492-2 480.50-3.50Q469-5 461-5Q396-5 396 47Q396 63 403 95Q365 44 311 17Q257-10 205-10M253 84Q273 84 295.50 92Q318 100 339.50 114Q361 128 379 147Q397 166 408 188L436 325Q433 349 422.50 369.50Q412 390 396 405.50Q380 421 361 429.50Q342 438 321 438Q283 438 249.50 419Q216 400 190.50 370Q165 340 150 301.50Q135 263 135 224Q135 194 143 168.50Q151 143 166.50 124.50Q182 106 204 95Q226 84 253 84M250 730L354 730L384 620L308 601L250 730Z"  horiz-adv-x="615" vert-adv-y="1000"  />

      
      <glyph glyph-name="uni0101" unicode="&#x0101;" d="M205-10Q161-10 126.50 7Q92 24 68 53Q44 82 31.50 121.50Q19 161 19 206Q19 270 42.50 329Q66 388 106 433Q146 478 198 505Q250 532 307 532Q364 532 402.50 501.50Q441 471 457 424L478 522L589 522L505 130Q504 125 503.50 121.50Q503 118 503 115Q503 95 526 94L506 0Q492-2 480.50-3.50Q469-5 461-5Q396-5 396 47Q396 63 403 95Q365 44 311 17Q257-10 205-10M253 84Q273 84 295.50 92Q318 100 339.50 114Q361 128 379 147Q397 166 408 188L436 325Q433 349 422.50 369.50Q412 390 396 405.50Q380 421 361 429.50Q342 438 321 438Q283 438 249.50 419Q216 400 190.50 370Q165 340 150 301.50Q135 263 135 224Q135 194 143 168.50Q151 143 166.50 124.50Q182 106 204 95Q226 84 253 84M216 642L230 712L513 712L498 642L216 642Z"  horiz-adv-x="615" vert-adv-y="1000"  />

      
      <glyph glyph-name="uni26" unicode="&#x26;" d="M401 82Q352 37 298 13.50Q244-10 190-10Q150-10 117.50 3Q85 16 62.50 39Q40 62 28 92.50Q16 123 16 159Q16 200 30.50 233.50Q45 267 69 295Q93 323 124.50 346.50Q156 370 191 392Q165 434 152.50 466Q140 498 140 528Q140 568 157.50 603Q175 638 205 664Q235 690 274.50 704.50Q314 719 357 719Q414 719 458 689.50Q502 660 522 603L446 550Q433 589 405 613Q377 637 343 637Q323 637 305 629.50Q287 622 273 609.50Q259 597 251 580.50Q243 564 243 546Q243 526 256 498Q269 470 304 420L426 243Q446 281 460.50 324Q475 367 483 416L662 416L647 334L557 334Q527 241 477 170L596 0L457 0L401 82M216 76Q252 76 288.50 94.50Q325 113 357 146L238 322Q184 288 153.50 253Q123 218 123 171Q123 125 150 100.50Q177 76 216 76Z"  horiz-adv-x="684" vert-adv-y="1000"  />

      
      <glyph glyph-name="uni0105" unicode="&#x0105;" d="M423-188Q381-181 361-162Q341-143 341-118Q341-89 364-60Q387-31 436-2Q396 7 396 47Q396 63 403 95Q365 44 311 17Q257-10 205-10Q161-10 126.50 7Q92 24 68 53Q44 82 31.50 121.50Q19 161 19 206Q19 270 42.50 329Q66 388 106 433Q146 478 198 505Q250 532 307 532Q364 532 402.50 501.50Q441 471 457 424L478 522L589 522L505 130Q504 125 503.50 121.50Q503 118 503 115Q503 95 526 94L506 0Q455-29 433-51.50Q411-74 411-95Q411-127 459-130L423-188M253 84Q273 84 295.50 92Q318 100 339.50 114Q361 128 379 147Q397 166 408 188L436 325Q433 349 422.50 369.50Q412 390 396 405.50Q380 421 361 429.50Q342 438 321 438Q283 438 249.50 419Q216 400 190.50 370Q165 340 150 301.50Q135 263 135 224Q135 194 143 168.50Q151 143 166.50 124.50Q182 106 204 95Q226 84 253 84Z"  horiz-adv-x="615" vert-adv-y="1000"  />

      
      <glyph glyph-name="uni02BC" unicode="&#x02BC;" d="M260 620L308 688L312 730L441 730L326 598L260 620Z"  horiz-adv-x="529" vert-adv-y="1000"  />

      
      <glyph glyph-name="unie5" unicode="&#xe5;" d="M205-10Q161-10 126.50 7Q92 24 68 53Q44 82 31.50 121.50Q19 161 19 206Q19 270 42.50 329Q66 388 106 433Q146 478 198 505Q250 532 307 532Q364 532 402.50 501.50Q441 471 457 424L478 522L589 522L505 130Q504 125 503.50 121.50Q503 118 503 115Q503 95 526 94L506 0Q492-2 480.50-3.50Q469-5 461-5Q396-5 396 47Q396 63 403 95Q365 44 311 17Q257-10 205-10M253 84Q273 84 295.50 92Q318 100 339.50 114Q361 128 379 147Q397 166 408 188L436 325Q433 349 422.50 369.50Q412 390 396 405.50Q380 421 361 429.50Q342 438 321 438Q283 438 249.50 419Q216 400 190.50 370Q165 340 150 301.50Q135 263 135 224Q135 194 143 168.50Q151 143 166.50 124.50Q182 106 204 95Q226 84 253 84M260 643Q260 683 290 706.50Q320 730 364 730Q399 730 417.50 714.50Q436 699 436 671Q436 632 407 608Q378 584 333 584Q299 584 279.50 600Q260 616 260 643M356 694Q338 694 324 682Q310 670 310 651Q310 638 318.50 629Q327 620 341 620Q358 620 373 632.50Q388 645 388 664Q388 678 379 686Q370 694 356 694Z"  horiz-adv-x="615" vert-adv-y="1000"  />

      
      <glyph glyph-name="uni01FB" unicode="&#x01FB;" d="M205-10Q161-10 126.50 7Q92 24 68 53Q44 82 31.50 121.50Q19 161 19 206Q19 270 42.50 329Q66 388 106 433Q146 478 198 505Q250 532 307 532Q364 532 402.50 501.50Q441 471 457 424L478 522L589 522L505 130Q504 125 503.50 121.50Q503 118 503 115Q503 95 526 94L506 0Q492-2 480.50-3.50Q469-5 461-5Q396-5 396 47Q396 63 403 95Q365 44 311 17Q257-10 205-10M253 84Q273 84 295.50 92Q318 100 339.50 114Q361 128 379 147Q397 166 408 188L436 325Q433 349 422.50 369.50Q412 390 396 405.50Q380 421 361 429.50Q342 438 321 438Q283 438 249.50 419Q216 400 190.50 370Q165 340 150 301.50Q135 263 135 224Q135 194 143 168.50Q151 143 166.50 124.50Q182 106 204 95Q226 84 253 84M392 758L322 776L398 886L503 886L392 758M258 643Q258 683 288 706.50Q318 730 362 730Q397 730 415.50 714.50Q434 699 434 671Q434 632 405 608Q376 584 331 584Q297 584 277.50 600Q258 616 258 643M354 694Q336 694 322 682Q308 670 308 651Q308 638 316.50 629Q325 620 339 620Q356 620 371 632.50Q386 645 386 664Q386 678 377 686Q368 694 354 694Z"  horiz-adv-x="615" vert-adv-y="1000"  />

      
      <glyph glyph-name="uni5e" unicode="&#x5e;" d="M49 303L247 710L340 710L537 303L445 303L294 615L139 303L49 303Z"  horiz-adv-x="572" vert-adv-y="1000"  />

      
      <glyph glyph-name="uni7e" unicode="&#x7e;" d="M45 232Q46 239 55.50 259Q65 279 83 300Q101 321 127.50 337.50Q154 354 189 354Q214 354 233.50 345.50Q253 337 270.50 326.50Q288 316 305.50 307.50Q323 299 344 299Q363 299 377.50 306.50Q392 314 401 323Q410 332 414.50 340Q419 348 419 350L481 350Q480 346 471 327Q462 308 443.50 287Q425 266 397.50 249Q370 232 333 232Q308 232 288 240.50Q268 249 250.50 259.50Q233 270 215.50 278.50Q198 287 179 287Q160 287 146.50 278.50Q133 270 124.50 260Q116 250 112 241.50Q108 233 108 232L45 232L45 232Z"  horiz-adv-x="529" vert-adv-y="1000"  />

      
      <glyph glyph-name="uni2a" unicode="&#x2a;" d="M126 530L183 597L122 619L148 669L209 640L221 716L281 716L261 640L336 669L340 619L269 597L298 530L248 500L221 571L163 500L126 530Z"  horiz-adv-x="329" vert-adv-y="1000"  />

      
      <glyph glyph-name="uni40" unicode="&#x40;" d="M573 36Q603 36 627 63Q651 90 668 130Q685 170 694 216Q703 262 703 300Q703 350 687 396.50Q671 443 639 478.50Q607 514 560 535.50Q513 557 452 557Q379 557 310.50 526.50Q242 496 188.50 443Q135 390 103 318Q71 246 71 164Q71 107 87.50 58.50Q104 10 134.50-25Q165-60 209.50-80Q254-100 310-100Q350-100 386.50-89.50Q423-79 464-62L469-106Q426-126 383.50-136Q341-146 300-146Q238-146 187-124Q136-102 99-62Q62-22 42 34Q22 90 22 159Q22 256 61 338Q100 420 162.50 478.50Q225 537 304 570Q383 603 464 603Q532 603 585.50 579.50Q639 556 676 516.50Q713 477 732.50 424Q752 371 752 313Q752 285 747 250Q742 215 732 178.50Q722 142 706.50 107Q691 72 669 44.50Q647 17 618.50 0.50Q590-16 555-16Q524-16 503.50-0.50Q483 15 483 50Q483 55 483 60Q483 65 485 70Q450 37 407.50 17.50Q365-2 321-2Q284-2 254.50 12.50Q225 27 204.50 52Q184 77 173 110.50Q162 144 162 182Q162 236 182.50 286.50Q203 337 237.50 375.50Q272 414 316 437Q360 460 408 460Q460 460 493 434Q526 408 539 369L555 450L617 450L545 107Q543 97 542 88.50Q541 80 541 74Q541 36 573 36M349 56Q372 56 394 64.50Q416 73 435 88Q454 103 469 122.50Q484 142 493 164L515 297Q502 348 472.50 373Q443 398 405 398Q375 398 344 382Q313 366 288 339Q263 312 247.50 275Q232 238 232 196Q232 166 240.50 140Q249 114 265 95.50Q281 77 302 66.50Q323 56 349 56Z"  horiz-adv-x="811" vert-adv-y="1000"  />

      
      <glyph glyph-name="unie3" unicode="&#xe3;" d="M205-10Q161-10 126.50 7Q92 24 68 53Q44 82 31.50 121.50Q19 161 19 206Q19 270 42.50 329Q66 388 106 433Q146 478 198 505Q250 532 307 532Q364 532 402.50 501.50Q441 471 457 424L478 522L589 522L505 130Q504 125 503.50 121.50Q503 118 503 115Q503 95 526 94L506 0Q492-2 480.50-3.50Q469-5 461-5Q396-5 396 47Q396 63 403 95Q365 44 311 17Q257-10 205-10M253 84Q273 84 295.50 92Q318 100 339.50 114Q361 128 379 147Q397 166 408 188L436 325Q433 349 422.50 369.50Q412 390 396 405.50Q380 421 361 429.50Q342 438 321 438Q283 438 249.50 419Q216 400 190.50 370Q165 340 150 301.50Q135 263 135 224Q135 194 143 168.50Q151 143 166.50 124.50Q182 106 204 95Q226 84 253 84M398 615Q377 615 362 621.50Q347 628 335 636.50Q323 645 311 651.50Q299 658 283 658Q267 658 256.50 651Q246 644 239.50 635.50Q233 627 230.50 619Q228 611 228 610L165 610Q167 618 176 637Q185 656 201.50 675.50Q218 695 241 710Q264 725 294 725Q315 725 329 718Q343 711 355 703Q367 695 379 688Q391 681 408 681Q426 681 437.50 688Q449 695 456.50 704Q464 713 467.50 720.50Q471 728 471 730L533 730Q531 724 522 705Q513 686 496 666Q479 646 454.50 630.50Q430 615 398 615Z"  horiz-adv-x="615" vert-adv-y="1000"  />

      
      <glyph glyph-name="uni62" unicode="&#x62;" d="M272-10Q212-10 173 18.50Q134 47 117 95L97 0L0 0L155 730L265 730L201 424Q239 473 289.50 502.50Q340 532 397 532Q439 532 471.50 515Q504 498 525.50 469Q547 440 558 401.50Q569 363 569 320Q569 253 544 193Q519 133 477.50 88Q436 43 382.50 16.50Q329-10 272-10M266 84Q302 84 335.50 102Q369 120 395.50 149.50Q422 179 437.50 218Q453 257 453 299Q453 327 446 352Q439 377 425 396Q411 415 390.50 426.50Q370 438 343 438Q320 438 297 429Q274 420 253 404.50Q232 389 213.50 368.50Q195 348 180 325L150 187Q153 143 185.50 113.50Q218 84 266 84Z"  horiz-adv-x="605" vert-adv-y="1000"  />

      
      <glyph glyph-name="uni5c" unicode="&#x5c;" d="M231 710L493 0L371 0L108 710L231 710Z"  horiz-adv-x="579" vert-adv-y="1000"  />

      
      <glyph glyph-name="uni7c" unicode="&#x7c;" d="M115-130L115 775L209 775L209-130L115-130Z"  horiz-adv-x="314" vert-adv-y="1000"  />

      
      <glyph glyph-name="uni7b" unicode="&#x7b;" d="M262 651L214 427Q210 410 198.50 392Q187 374 169 360Q187 340 187 309Q187 305 187 301.50Q187 298 186 293L136 58L188 58L170-31L40-31Q34-31 28.50-27Q23-23 23-12Q23-5 24-1L79 259Q80 264 80 274Q80 293 71.50 306Q63 319 48 322L65 400Q75 400 84.50 406Q94 412 102 421.50Q110 431 115.50 441.50Q121 452 123 461L175 710Q179 729 189 734.50Q199 740 204 740L334 740L314 651L262 651Z"  horiz-adv-x="285" vert-adv-y="1000"  />

      
      <glyph glyph-name="uni7d" unicode="&#x7d;" d="M121 651L140 740L269 740Q274 740 280 736Q286 732 286 719Q286 713 285 710L232 461Q230 453 230 448Q230 431 238.50 415.50Q247 400 264 400L247 322Q227 318 210.50 300.50Q194 283 189 259L134-1Q130-18 121-24.50Q112-31 105-31L-24-31L-5 58L47 58L97 293Q101 310 112.50 328Q124 346 141 360Q124 382 124 410Q124 415 124 418.50Q124 422 126 427L173 651L121 651Z"  horiz-adv-x="286" vert-adv-y="1000"  />

      
      <glyph glyph-name="uni5b" unicode="&#x5b;" d="M6-40L172 740L331 740L313 651L254 651L126 49L185 49L166-40L6-40Z"  horiz-adv-x="282" vert-adv-y="1000"  />

      
      <glyph glyph-name="uni5d" unicode="&#x5d;" d="M-28-40L-9 49L49 49L177 651L119 651L138 740L298 740L133-40L-28-40Z"  horiz-adv-x="283" vert-adv-y="1000"  />

      
      <glyph glyph-name="unia6" unicode="&#xa6;" d="M206 269L206-130L112-130L112 269L206 269M206 775L206 376L112 376L112 775L206 775Z"  horiz-adv-x="308" vert-adv-y="1000"  />

      
      <glyph glyph-name="uni2022" unicode="&#x2022;" d="M281 365Q281 342 271 321Q261 300 244 284Q227 268 205.50 258.50Q184 249 162 249Q128 249 106.50 272.50Q85 296 85 331Q85 354 95.50 375Q106 396 122.50 412Q139 428 160.50 437.50Q182 447 204 447Q239 447 260 423.50Q281 400 281 365Z"  horiz-adv-x="349" vert-adv-y="1000"  />

      
      <glyph glyph-name="uni63" unicode="&#x63;" d="M227-10Q177-10 138 7.50Q99 25 72.50 55Q46 85 32.50 125Q19 165 19 210Q19 273 43.50 331Q68 389 111.50 433.50Q155 478 213.50 505Q272 532 341 532Q419 532 467 496.50Q515 461 531 402L417 368Q406 401 380.50 419.50Q355 438 319 438Q283 438 249.50 421.50Q216 405 190 375.50Q164 346 148.50 307Q133 268 133 223Q133 193 141 167.50Q149 142 164 123.50Q179 105 199.50 94.50Q220 84 245 84Q264 84 283 89.50Q302 95 319.50 105Q337 115 351 128Q365 141 374 156L475 124Q457 95 430.50 70.50Q404 46 372 28Q340 10 303 0Q266-10 227-10Z"  horiz-adv-x="536" vert-adv-y="1000"  />

      
      <glyph glyph-name="uni0107" unicode="&#x0107;" d="M355 602L285 620L361 730L466 730L355 602M227-10Q177-10 138 7.50Q99 25 72.50 55Q46 85 32.50 125Q19 165 19 210Q19 273 43.50 331Q68 389 111.50 433.50Q155 478 213.50 505Q272 532 341 532Q419 532 467 496.50Q515 461 531 402L417 368Q406 401 380.50 419.50Q355 438 319 438Q283 438 249.50 421.50Q216 405 190 375.50Q164 346 148.50 307Q133 268 133 223Q133 193 141 167.50Q149 142 164 123.50Q179 105 199.50 94.50Q220 84 245 84Q264 84 283 89.50Q302 95 319.50 105Q337 115 351 128Q365 141 374 156L475 124Q457 95 430.50 70.50Q404 46 372 28Q340 10 303 0Q266-10 227-10Z"  horiz-adv-x="536" vert-adv-y="1000"  />

      
      <glyph glyph-name="uni010D" unicode="&#x010D;" d="M233 702L297 730L364 667L458 730L510 702L391 607L311 607L233 702M227-10Q177-10 138 7.50Q99 25 72.50 55Q46 85 32.50 125Q19 165 19 210Q19 273 43.50 331Q68 389 111.50 433.50Q155 478 213.50 505Q272 532 341 532Q419 532 467 496.50Q515 461 531 402L417 368Q406 401 380.50 419.50Q355 438 319 438Q283 438 249.50 421.50Q216 405 190 375.50Q164 346 148.50 307Q133 268 133 223Q133 193 141 167.50Q149 142 164 123.50Q179 105 199.50 94.50Q220 84 245 84Q264 84 283 89.50Q302 95 319.50 105Q337 115 351 128Q365 141 374 156L475 124Q457 95 430.50 70.50Q404 46 372 28Q340 10 303 0Q266-10 227-10Z"  horiz-adv-x="536" vert-adv-y="1000"  />

      
      <glyph glyph-name="unie7" unicode="&#xe7;" d="M119-126Q129-133 151-139.50Q173-146 198-146Q227-146 244-136.50Q261-127 261-105Q261-90 249-84Q237-78 218-78Q198-78 175-82Q152-86 139-90L197-8Q154-3 120.50 16Q87 35 64.50 64Q42 93 30.50 130.50Q19 168 19 210Q19 273 43.50 331Q68 389 111.50 433.50Q155 478 213.50 505Q272 532 341 532Q419 532 467 496.50Q515 461 531 402L417 368Q406 401 380.50 419.50Q355 438 319 438Q283 438 249.50 421.50Q216 405 190 375.50Q164 346 148.50 307Q133 268 133 223Q133 193 141 167.50Q149 142 164 123.50Q179 105 199.50 94.50Q220 84 245 84Q264 84 283 89.50Q302 95 319.50 105Q337 115 351 128Q365 141 374 156L475 124Q440 69 380 32.50Q320-4 247-9L217-45Q225-43 233.50-42Q242-41 249-41Q278-41 296.50-54Q315-67 315-94Q315-135 281.50-162Q248-189 181-189Q151-189 127-183Q103-177 86-169L119-126Z"  horiz-adv-x="536" vert-adv-y="1000"  />

      
      <glyph glyph-name="uni0109" unicode="&#x0109;" d="M224 635L343 730L423 730L501 635L437 607L370 670L276 607L224 635M227-10Q177-10 138 7.50Q99 25 72.50 55Q46 85 32.50 125Q19 165 19 210Q19 273 43.50 331Q68 389 111.50 433.50Q155 478 213.50 505Q272 532 341 532Q419 532 467 496.50Q515 461 531 402L417 368Q406 401 380.50 419.50Q355 438 319 438Q283 438 249.50 421.50Q216 405 190 375.50Q164 346 148.50 307Q133 268 133 223Q133 193 141 167.50Q149 142 164 123.50Q179 105 199.50 94.50Q220 84 245 84Q264 84 283 89.50Q302 95 319.50 105Q337 115 351 128Q365 141 374 156L475 124Q457 95 430.50 70.50Q404 46 372 28Q340 10 303 0Q266-10 227-10Z"  horiz-adv-x="536" vert-adv-y="1000"  />

      
      <glyph glyph-name="uni010B" unicode="&#x010B;" d="M227-10Q177-10 138 7.50Q99 25 72.50 55Q46 85 32.50 125Q19 165 19 210Q19 273 43.50 331Q68 389 111.50 433.50Q155 478 213.50 505Q272 532 341 532Q419 532 467 496.50Q515 461 531 402L417 368Q406 401 380.50 419.50Q355 438 319 438Q283 438 249.50 421.50Q216 405 190 375.50Q164 346 148.50 307Q133 268 133 223Q133 193 141 167.50Q149 142 164 123.50Q179 105 199.50 94.50Q220 84 245 84Q264 84 283 89.50Q302 95 319.50 105Q337 115 351 128Q365 141 374 156L475 124Q457 95 430.50 70.50Q404 46 372 28Q340 10 303 0Q266-10 227-10M307 615L332 730L430 730L406 615L307 615Z"  horiz-adv-x="536" vert-adv-y="1000"  />

      
      <glyph glyph-name="unia2" unicode="&#xa2;" d="M177-120L201-9Q160-6 127.50 14Q95 34 72.50 64.50Q50 95 38.50 133Q27 171 27 211Q27 266 48 319.50Q69 373 106.50 417.50Q144 462 197 492Q250 522 315 531L340 645L390 645L366 531Q434 529 479 495.50Q524 462 541 402L427 368Q418 399 396.50 415.50Q375 432 346 434L272 87Q287 89 303.50 94.50Q320 100 335.50 109Q351 118 364 130Q377 142 384 156L485 124Q465 91 435 65.50Q405 40 372.50 23.50Q340 7 308-1.50Q276-10 251-10L228-120L177-120M141 222Q141 176 162.50 139Q184 102 222 92L294 430Q261 424 233 403.50Q205 383 184.50 353.50Q164 324 152.50 289.50Q141 255 141 222Z"  horiz-adv-x="559" vert-adv-y="1000"  />

      
      <glyph glyph-name="uni3a" unicode="&#x3a;" d="M83 391L110 518L201 518L174 391L83 391M0 0L28 128L118 128L91 0L0 0Z"  horiz-adv-x="220" vert-adv-y="1000"  />

      
      <glyph glyph-name="uni2c" unicode="&#x2c;" d="M-11-97L34 6L-1 6L24 128L122 128L97 6L40-97L-11-97Z"  horiz-adv-x="218" vert-adv-y="1000"  />

      
      <glyph glyph-name="unia9" unicode="&#xa9;" d="M435-7Q355-7 286.50 20.50Q218 48 168.50 96.50Q119 145 91 211Q63 277 63 355Q63 432 91 498Q119 564 168.50 612Q218 660 286.50 687.50Q355 715 435 715Q516 715 585 687.50Q654 660 704.50 612Q755 564 783.50 498Q812 432 812 355Q812 277 783.50 211Q755 145 704.50 96.50Q654 48 585 20.50Q516-7 435-7M435 37Q504 37 564.50 60Q625 83 669 125Q713 167 738.50 225Q764 283 764 353Q764 421 739 479Q714 537 670 580Q626 623 566 647Q506 671 435 671Q365 671 305.50 647Q246 623 202.50 580Q159 537 134.50 479Q110 421 110 354Q110 287 134.50 229Q159 171 202.50 128.50Q246 86 305.50 61.50Q365 37 435 37M443 119Q391 119 346 136.50Q301 154 268 185.50Q235 217 216.50 260.50Q198 304 198 355Q198 399 213 441.50Q228 484 258 517.50Q288 551 333.50 571.50Q379 592 439 592Q514 592 569 559.50Q624 527 650 470L544 436Q535 454 522.50 466Q510 478 496 484.50Q482 491 467 494Q452 497 439 497Q408 497 384 485Q360 473 343.50 453.50Q327 434 318.50 408Q310 382 310 355Q310 321 322 294.50Q334 268 352.50 250Q371 232 394.50 222.50Q418 213 441 213Q473 213 503.50 229.50Q534 246 548 276L655 244Q645 221 626 198.50Q607 176 580 158.50Q553 141 518.50 130Q484 119 443 119Z"  horiz-adv-x="852" vert-adv-y="1000"  />

      
      <glyph glyph-name="uni64" unicode="&#x64;" d="M205-10Q161-10 126.50 7Q92 24 68 53Q44 82 31.50 121.50Q19 161 19 206Q19 270 42.50 329Q66 388 106 433Q146 478 198 505Q250 532 307 532Q364 532 402.50 501.50Q441 471 457 424L522 730L633 730L505 130Q504 125 503.50 121.50Q503 118 503 115Q503 95 526 94L506 0Q492-2 480.50-3.50Q469-5 461-5Q430-5 412.50 8.50Q395 22 395 46Q395 54 396.50 65Q398 76 403 95Q365 44 311 17Q257-10 205-10M253 84Q273 84 295.50 92Q318 100 339.50 114Q361 128 379 147Q397 166 408 188L436 325Q433 349 422.50 369.50Q412 390 396 405.50Q380 421 361 429.50Q342 438 321 438Q283 438 249.50 419Q216 400 190.50 370Q165 340 150 301.50Q135 263 135 224Q135 194 143 168.50Q151 143 166.50 124.50Q182 106 204 95Q226 84 253 84Z"  horiz-adv-x="614" vert-adv-y="1000"  />

      
      <glyph glyph-name="uni2020" unicode="&#x2020;" d="M71-130L145 221L20 221L41 321L166 321L263 775L368 775L271 321L396 321L375 221L250 221L176-130L71-130Z"  horiz-adv-x="429" vert-adv-y="1000"  />

      
      <glyph glyph-name="uni2021" unicode="&#x2021;" d="M74-130L127 123L2 123L23 222L148 222L172 334L47 334L68 433L193 433L266 775L371 775L298 433L422 433L401 334L277 334L253 222L378 222L357 123L232 123L179-130L74-130Z"  horiz-adv-x="434" vert-adv-y="1000"  />

      
      <glyph glyph-name="uni010F" unicode="&#x010F;" d="M654 620L730 730L834 730L720 598L654 620M205-10Q161-10 126.50 7Q92 24 68 53Q44 82 31.50 121.50Q19 161 19 206Q19 270 42.50 329Q66 388 106 433Q146 478 198 505Q250 532 307 532Q364 532 402.50 501.50Q441 471 457 424L522 730L633 730L505 130Q504 125 503.50 121.50Q503 118 503 115Q503 95 526 94L506 0Q492-2 480.50-3.50Q469-5 461-5Q430-5 412.50 8.50Q395 22 395 46Q395 54 396.50 65Q398 76 403 95Q365 44 311 17Q257-10 205-10M253 84Q273 84 295.50 92Q318 100 339.50 114Q361 128 379 147Q397 166 408 188L436 325Q433 349 422.50 369.50Q412 390 396 405.50Q380 421 361 429.50Q342 438 321 438Q283 438 249.50 419Q216 400 190.50 370Q165 340 150 301.50Q135 263 135 224Q135 194 143 168.50Q151 143 166.50 124.50Q182 106 204 95Q226 84 253 84Z"  horiz-adv-x="614" vert-adv-y="1000"  />

      
      <glyph glyph-name="uni0111" unicode="&#x0111;" d="M421 664L508 664L522 730L633 730L619 664L692 664L678 596L604 596L505 130Q504 125 503.50 121.50Q503 118 503 115Q503 95 526 94L506 0Q492-2 480.50-3.50Q469-5 461-5Q429-5 412.50 9Q396 23 396 46Q396 52 397 64.50Q398 77 403 95Q365 44 311 17Q257-10 205-10Q161-10 126.50 7Q92 24 68 53Q44 82 31.50 121.50Q19 161 19 206Q19 270 42.50 329Q66 388 106 433Q146 478 198 505Q250 532 307 532Q364 532 402.50 501.50Q441 471 457 424L493 596L407 596L421 664M253 84Q273 84 295.50 92Q318 100 339.50 114Q361 128 379 147Q397 166 408 188L436 325Q433 349 422.50 369.50Q412 390 396 405.50Q380 421 361 429.50Q342 438 321 438Q283 438 249.50 419Q216 400 190.50 370Q165 340 150 301.50Q135 263 135 224Q135 194 143 168.50Q151 143 166.50 124.50Q182 106 204 95Q226 84 253 84Z"  horiz-adv-x="614" vert-adv-y="1000"  />

      
      <glyph glyph-name="unib0" unicode="&#xb0;" d="M182 533Q149 533 128.50 554Q108 575 108 608Q108 630 117 650.50Q126 671 141.50 687.50Q157 704 178 714Q199 724 223 724Q258 724 278 702Q298 680 298 648Q298 624 288.50 603Q279 582 263.50 566.50Q248 551 227 542Q206 533 182 533M194 589Q211 589 226 603Q241 617 241 636Q241 651 233 659.50Q225 668 211 668Q194 668 179 654Q164 640 164 622Q164 607 172 598Q180 589 194 589Z"  horiz-adv-x="271" vert-adv-y="1000"  />

      
      <glyph glyph-name="unif7" unicode="&#xf7;" d="M214 411L214 526L308 526L308 411L214 411M214 58L214 172L308 172L308 58L214 58M59 248L59 336L462 336L462 248L59 248Z"  horiz-adv-x="527" vert-adv-y="1000"  />

      
      <glyph glyph-name="uni24" unicode="&#x24;" d="M537 543Q531 553 517 564.50Q503 576 483.50 586.50Q464 597 439.50 604.50Q415 612 388 614L344 408Q376 397 411.50 386Q447 375 477 357Q507 339 526.50 310Q546 281 546 236Q546 174 523 129.50Q500 85 461 55Q422 25 371 10Q320-5 264-7L242-112L191-112L214-5Q147 0 89 23.50Q31 47-11 89L62 185Q69 173 86 159Q103 145 126 132Q149 119 178.50 109Q208 99 241 95L285 302Q256 309 223 320.50Q190 332 162 350Q134 368 116 395Q98 422 98 461Q98 517 119.50 562Q141 607 177.50 639.50Q214 672 262.50 691Q311 710 366 714L388 815L439 815L417 714Q479 710 526.50 688Q574 666 607 635L537 543M420 202Q420 236 393 255.50Q366 275 319 291L278 94Q347 95 383.50 123.50Q420 152 420 202M222 499Q222 467 244 449.50Q266 432 310 418L352 614Q285 610 253.50 578.50Q222 547 222 499Z"  horiz-adv-x="603" vert-adv-y="1000"  />

      
      <glyph glyph-name="uni0131" unicode="&#x0131;" d="M112 523L222 523L110 0L0 0L112 523Z"  horiz-adv-x="239" vert-adv-y="1000"  />

      
      <glyph glyph-name="uni0237" unicode="&#x0237;" d="M-96-191Q-131-191-159.50-180Q-188-169-208-146L-143-72Q-134-84-119.50-89.50Q-105-95-88-95Q-61-95-36-73.50Q-11-52-4-19L111 523L222 523L108-11Q99-51 79-84Q59-117 31.50-141Q4-165-29-178Q-62-191-96-191Z"  horiz-adv-x="239" vert-adv-y="1000"  />

      
      <glyph glyph-name="uni65" unicode="&#x65;" d="M229-10Q179-10 140.50 7Q102 24 75 53.50Q48 83 34 123.50Q20 164 20 211Q20 275 44.50 333Q69 391 112.50 435Q156 479 215.50 505.50Q275 532 344 532Q425 532 473.50 495.50Q522 459 522 388Q522 224 229 224Q186 224 132 227L132 209Q132 180 139 155Q146 130 160 111Q174 92 196 81.50Q218 71 248 71Q291 71 331 92.50Q371 114 394 151L481 124Q462 94 434.50 69.50Q407 45 374 27.50Q341 10 304 0Q267-10 229-10M330 451Q294 451 264 438.50Q234 426 211 405Q188 384 172 356.50Q156 329 146 299Q192 296 231 296Q284 296 320 302.50Q356 309 378.50 320.50Q401 332 410.50 348.50Q420 365 420 385Q420 419 396 435Q372 451 330 451Z"  horiz-adv-x="545" vert-adv-y="1000"  />

      
      <glyph glyph-name="unie9" unicode="&#xe9;" d="M357 602L287 620L363 730L468 730L357 602M229-10Q179-10 140.50 7Q102 24 75 53.50Q48 83 34 123.50Q20 164 20 211Q20 275 44.50 333Q69 391 112.50 435Q156 479 215.50 505.50Q275 532 344 532Q425 532 473.50 495.50Q522 459 522 388Q522 224 229 224Q186 224 132 227L132 209Q132 180 139 155Q146 130 160 111Q174 92 196 81.50Q218 71 248 71Q291 71 331 92.50Q371 114 394 151L481 124Q462 94 434.50 69.50Q407 45 374 27.50Q341 10 304 0Q267-10 229-10M330 451Q294 451 264 438.50Q234 426 211 405Q188 384 172 356.50Q156 329 146 299Q192 296 231 296Q284 296 320 302.50Q356 309 378.50 320.50Q401 332 410.50 348.50Q420 365 420 385Q420 419 396 435Q372 451 330 451Z"  horiz-adv-x="545" vert-adv-y="1000"  />

      
      <glyph glyph-name="uni0115" unicode="&#x0115;" d="M229-10Q179-10 140.50 7Q102 24 75 53.50Q48 83 34 123.50Q20 164 20 211Q20 275 44.50 333Q69 391 112.50 435Q156 479 215.50 505.50Q275 532 344 532Q425 532 473.50 495.50Q522 459 522 388Q522 224 229 224Q186 224 132 227L132 209Q132 180 139 155Q146 130 160 111Q174 92 196 81.50Q218 71 248 71Q291 71 331 92.50Q371 114 394 151L481 124Q462 94 434.50 69.50Q407 45 374 27.50Q341 10 304 0Q267-10 229-10M330 451Q294 451 264 438.50Q234 426 211 405Q188 384 172 356.50Q156 329 146 299Q192 296 231 296Q284 296 320 302.50Q356 309 378.50 320.50Q401 332 410.50 348.50Q420 365 420 385Q420 419 396 435Q372 451 330 451M357 659Q378 659 398 679Q418 699 427 730L488 730Q482 704 468.50 681.50Q455 659 436 642.50Q417 626 394 617Q371 608 346 608Q303 608 277.50 633.50Q252 659 252 701Q252 709 253 716Q254 723 256 730L317 730Q316 725 315.50 721Q315 717 315 712Q315 690 326.50 674.50Q338 659 357 659Z"  horiz-adv-x="545" vert-adv-y="1000"  />

      
      <glyph glyph-name="uni011B" unicode="&#x011B;" d="M234 702L298 730L365 667L459 730L511 702L392 607L312 607L234 702M229-10Q179-10 140.50 7Q102 24 75 53.50Q48 83 34 123.50Q20 164 20 211Q20 275 44.50 333Q69 391 112.50 435Q156 479 215.50 505.50Q275 532 344 532Q425 532 473.50 495.50Q522 459 522 388Q522 224 229 224Q186 224 132 227L132 209Q132 180 139 155Q146 130 160 111Q174 92 196 81.50Q218 71 248 71Q291 71 331 92.50Q371 114 394 151L481 124Q462 94 434.50 69.50Q407 45 374 27.50Q341 10 304 0Q267-10 229-10M330 451Q294 451 264 438.50Q234 426 211 405Q188 384 172 356.50Q156 329 146 299Q192 296 231 296Q284 296 320 302.50Q356 309 378.50 320.50Q401 332 410.50 348.50Q420 365 420 385Q420 419 396 435Q372 451 330 451Z"  horiz-adv-x="545" vert-adv-y="1000"  />

      
      <glyph glyph-name="uniea" unicode="&#xea;" d="M227 635L346 730L426 730L504 635L440 607L373 670L279 607L227 635M229-10Q179-10 140.50 7Q102 24 75 53.50Q48 83 34 123.50Q20 164 20 211Q20 275 44.50 333Q69 391 112.50 435Q156 479 215.50 505.50Q275 532 344 532Q425 532 473.50 495.50Q522 459 522 388Q522 224 229 224Q186 224 132 227L132 209Q132 180 139 155Q146 130 160 111Q174 92 196 81.50Q218 71 248 71Q291 71 331 92.50Q371 114 394 151L481 124Q462 94 434.50 69.50Q407 45 374 27.50Q341 10 304 0Q267-10 229-10M330 451Q294 451 264 438.50Q234 426 211 405Q188 384 172 356.50Q156 329 146 299Q192 296 231 296Q284 296 320 302.50Q356 309 378.50 320.50Q401 332 410.50 348.50Q420 365 420 385Q420 419 396 435Q372 451 330 451Z"  horiz-adv-x="545" vert-adv-y="1000"  />

      
      <glyph glyph-name="unieb" unicode="&#xeb;" d="M223 615L247 725L338 725L315 615L223 615M395 615L418 725L509 725L486 615L395 615M229-10Q179-10 140.50 7Q102 24 75 53.50Q48 83 34 123.50Q20 164 20 211Q20 275 44.50 333Q69 391 112.50 435Q156 479 215.50 505.50Q275 532 344 532Q425 532 473.50 495.50Q522 459 522 388Q522 224 229 224Q186 224 132 227L132 209Q132 180 139 155Q146 130 160 111Q174 92 196 81.50Q218 71 248 71Q291 71 331 92.50Q371 114 394 151L481 124Q462 94 434.50 69.50Q407 45 374 27.50Q341 10 304 0Q267-10 229-10M330 451Q294 451 264 438.50Q234 426 211 405Q188 384 172 356.50Q156 329 146 299Q192 296 231 296Q284 296 320 302.50Q356 309 378.50 320.50Q401 332 410.50 348.50Q420 365 420 385Q420 419 396 435Q372 451 330 451Z"  horiz-adv-x="545" vert-adv-y="1000"  />

      
      <glyph glyph-name="uni0117" unicode="&#x0117;" d="M229-10Q179-10 140.50 7Q102 24 75 53.50Q48 83 34 123.50Q20 164 20 211Q20 275 44.50 333Q69 391 112.50 435Q156 479 215.50 505.50Q275 532 344 532Q425 532 473.50 495.50Q522 459 522 388Q522 224 229 224Q186 224 132 227L132 209Q132 180 139 155Q146 130 160 111Q174 92 196 81.50Q218 71 248 71Q291 71 331 92.50Q371 114 394 151L481 124Q462 94 434.50 69.50Q407 45 374 27.50Q341 10 304 0Q267-10 229-10M330 451Q294 451 264 438.50Q234 426 211 405Q188 384 172 356.50Q156 329 146 299Q192 296 231 296Q284 296 320 302.50Q356 309 378.50 320.50Q401 332 410.50 348.50Q420 365 420 385Q420 419 396 435Q372 451 330 451M308 615L333 730L431 730L407 615L308 615Z"  horiz-adv-x="545" vert-adv-y="1000"  />

      
      <glyph glyph-name="unie8" unicode="&#xe8;" d="M229-10Q179-10 140.50 7Q102 24 75 53.50Q48 83 34 123.50Q20 164 20 211Q20 275 44.50 333Q69 391 112.50 435Q156 479 215.50 505.50Q275 532 344 532Q425 532 473.50 495.50Q522 459 522 388Q522 224 229 224Q186 224 132 227L132 209Q132 180 139 155Q146 130 160 111Q174 92 196 81.50Q218 71 248 71Q291 71 331 92.50Q371 114 394 151L481 124Q462 94 434.50 69.50Q407 45 374 27.50Q341 10 304 0Q267-10 229-10M330 451Q294 451 264 438.50Q234 426 211 405Q188 384 172 356.50Q156 329 146 299Q192 296 231 296Q284 296 320 302.50Q356 309 378.50 320.50Q401 332 410.50 348.50Q420 365 420 385Q420 419 396 435Q372 451 330 451M276 730L380 730L410 620L334 601L276 730Z"  horiz-adv-x="545" vert-adv-y="1000"  />

      
      <glyph glyph-name="uni38" unicode="&#x38;" d="M222-8Q178-8 141 5.50Q104 19 77.50 43Q51 67 36.50 100.50Q22 134 22 173Q22 213 36.50 246Q51 279 74 305Q97 331 124 350Q151 369 177 380Q149 395 130.50 425.50Q112 456 112 494Q112 545 137.50 585Q163 625 202 653Q241 681 287.50 695.50Q334 710 376 710Q410 710 443 699.50Q476 689 502.50 669Q529 649 545 619Q561 589 561 550Q561 520 550 494Q539 468 521 446Q503 424 480 407Q457 390 433 380Q467 362 491 325Q515 288 515 238Q515 184 490 138.50Q465 93 424 60.50Q383 28 330.50 10Q278-8 222-8M245 91Q273 91 301 101.50Q329 112 352 131Q375 150 389.50 176Q404 202 404 234Q404 258 395 276.50Q386 295 371 307.50Q356 320 336 327Q316 334 295 334Q267 334 238.50 323.50Q210 313 187.50 294Q165 275 151 248.50Q137 222 137 191Q137 168 146 149.50Q155 131 170 118Q185 105 204.50 98Q224 91 245 91M314 418Q335 418 358.50 425.50Q382 433 401.50 447.50Q421 462 434 483.50Q447 505 447 533Q447 570 420 591Q393 612 355 612Q331 612 307 604Q283 596 264.50 581Q246 566 234.50 545Q223 524 223 498Q223 478 231 463.50Q239 449 251.50 438.50Q264 428 280.50 423Q297 418 314 418Z"  horiz-adv-x="579" vert-adv-y="1000"  />

      
      <glyph glyph-name="uni2088" unicode="&#x2088;" d="M310 53Q310 23 293.50-3Q277-29 250-47.50Q223-66 188-76.50Q153-87 116-87Q85-87 59-78.50Q33-70 14.50-55.50Q-4-41-14-21.50Q-24-2-24 21Q-24 45-15 63.50Q-6 82 9 96.50Q24 111 43.50 121.50Q63 132 83 140Q61 149 46 166Q31 183 31 209Q31 236 47 258.50Q63 281 88.50 297Q114 313 145 322Q176 331 205 331Q229 331 252.50 324.50Q276 318 294 305.50Q312 293 323 275.50Q334 258 334 236Q334 201 307.50 176.50Q281 152 246 140Q274 127 292 105.50Q310 84 310 53M242 52Q242 65 235 75.50Q228 86 216 93.50Q204 101 189 105Q174 109 158 109Q138 109 118 103.50Q98 98 82 88.50Q66 79 56 65Q46 51 46 35Q46 22 53.50 12Q61 2 73-5.50Q85-13 100.50-17Q116-21 132-21Q151-21 171-15.50Q191-10 206.50-0.50Q222 9 232 22.50Q242 36 242 52M98 209Q98 188 120.50 176Q143 164 170 164Q185 164 202 168Q219 172 233 179.50Q247 187 256 197.50Q265 208 265 222Q265 243 243 255Q221 267 192 267Q156 267 127 251.50Q98 236 98 209Z"  horiz-adv-x="399" vert-adv-y="1000"  />

      
      <glyph glyph-name="uni2078" unicode="&#x2078;" d="M410 534Q410 504 393.50 478Q377 452 350 433.50Q323 415 288.50 404.50Q254 394 217 394Q154 394 116 425Q78 456 78 502Q78 526 87 544.50Q96 563 111 577Q126 591 145 601.50Q164 612 184 620Q163 629 148 646.50Q133 664 133 690Q133 717 149 739.50Q165 762 190.50 778Q216 794 246.50 803Q277 812 306 812Q330 812 353 805.50Q376 799 394 786.50Q412 774 423 756.50Q434 739 434 717Q434 682 408.50 657.50Q383 633 347 620Q376 608 393 586Q410 564 410 534M344 533Q344 559 318 574.50Q292 590 259 590Q238 590 218 584.50Q198 579 182.50 569.50Q167 560 157 546.50Q147 533 147 517Q147 504 154.50 493.50Q162 483 174 475.50Q186 468 201.50 464Q217 460 233 460Q252 460 272 465.50Q292 471 308 480.50Q324 490 334 503.50Q344 517 344 533M199 691Q199 680 205.50 671.50Q212 663 222 657.50Q232 652 245 649Q258 646 271 646Q287 646 303.50 650Q320 654 334 661Q348 668 357 678.50Q366 689 366 703Q366 724 344 736Q322 748 293 748Q275 748 258 744Q241 740 228 732.50Q215 725 207 714.50Q199 704 199 691Z"  horiz-adv-x="397" vert-adv-y="1000"  />

      
      <glyph glyph-name="uni2026" unicode="&#x2026;" d="M-3 0L24 128L116 128L88 0L-3 0M162 0L189 128L280 128L253 0L162 0M326 0L353 128L445 128L417 0L326 0Z"  horiz-adv-x="541" vert-adv-y="1000"  />

      
      </font>
</defs>
</svg>
