<?xml version="1.0" standalone="no"?>
  <!DOCTYPE svg PUBLIC "-//W3C//DTD SVG 1.1//EN" "http://www.w3.org/Graphics/SVG/1.1/DTD/svg11.dtd" >
  <svg>
  <metadata>
  Created by font-carrier
  </metadata>
  <defs>
  <font id="Raleway-Italic" horiz-adv-x="1286" vert-adv-y="1286" >
    <font-face
      
      font-family="Raleway"
      
      font-weight="400"
      
      font-stretch="normal"
      
      units-per-em="1000"
      
      ascent="940"
      
      descent="-234"
      
    />
      <missing-glyph />

      

      
      <glyph glyph-name="uni41" unicode="&#x41;" d="M386 710L446 710L574 0L500 0L461 222L162 222L30 0L-45 0L386 710M457 277L399 628L188 277L457 277Z"  horiz-adv-x="651" vert-adv-y="1000"  />

      
      <glyph glyph-name="unic6" unicode="&#xc6;" d="M503 710L962 710L948 648L577 648L524 393L843 393L829 331L510 331L453 62L832 62L819 0L371 0L418 222L174 222L-5 0L-81 0L503 710M427 284L500 626L219 284L427 284Z"  horiz-adv-x="923" vert-adv-y="1000"  />

      
      <glyph glyph-name="uni01FC" unicode="&#x01FC;" d="M573 807L531 824L607 917L678 917L573 807M503 710L962 710L948 648L577 648L524 393L843 393L829 331L510 331L453 62L832 62L819 0L371 0L418 222L174 222L-5 0L-81 0L503 710M427 284L500 626L219 284L427 284Z"  horiz-adv-x="923" vert-adv-y="1000"  />

      
      <glyph glyph-name="unib4" unicode="&#xb4;" d="M74 620L32 637L108 730L179 730L74 620Z"  horiz-adv-x="212" vert-adv-y="1000"  />

      
      <glyph glyph-name="unic1" unicode="&#xc1;" d="M386 710L446 710L574 0L500 0L461 222L162 222L30 0L-45 0L386 710M457 277L399 628L188 277L457 277M431 807L389 824L465 917L536 917L431 807Z"  horiz-adv-x="651" vert-adv-y="1000"  />

      
      <glyph glyph-name="uni0102" unicode="&#x0102;" d="M386 710L446 710L574 0L500 0L461 222L162 222L30 0L-45 0L386 710M457 277L399 628L188 277L457 277M438 851Q458 851 478 870Q498 889 507 917L547 917Q542 896 531 877.50Q520 859 504.50 845.50Q489 832 470 824Q451 816 431 816Q396 816 375 838Q354 860 354 894Q354 905 357 917L399 917Q397 907 397 902Q397 881 408.50 866Q420 851 438 851Z"  horiz-adv-x="651" vert-adv-y="1000"  />

      
      <glyph glyph-name="uni02D8" unicode="&#x02D8;" d="M143 664Q163 664 183 683Q203 702 212 730L252 730Q247 709 236 690.50Q225 672 209.50 658.50Q194 645 175 637Q156 629 136 629Q101 629 80 651Q59 673 59 707Q59 718 62 730L104 730Q102 720 102 715Q102 694 113.50 679Q125 664 143 664Z"  horiz-adv-x="270" vert-adv-y="1000"  />

      
      <glyph glyph-name="unic2" unicode="&#xc2;" d="M386 710L446 710L574 0L500 0L461 222L162 222L30 0L-45 0L386 710M457 277L399 628L188 277L457 277M322 832L435 917L485 917L560 832L518 811L450 874L356 811L322 832Z"  horiz-adv-x="651" vert-adv-y="1000"  />

      
      <glyph glyph-name="uni02C6" unicode="&#x02C6;" d="M57 645L170 730L220 730L295 645L253 624L185 687L91 624L57 645Z"  horiz-adv-x="316" vert-adv-y="1000"  />

      
      <glyph glyph-name="unic4" unicode="&#xc4;" d="M386 710L446 710L574 0L500 0L461 222L162 222L30 0L-45 0L386 710M457 277L399 628L188 277L457 277M328 820L349 914L407 914L386 820L328 820M472 820L492 914L549 914L530 820L472 820Z"  horiz-adv-x="651" vert-adv-y="1000"  />

      
      <glyph glyph-name="unia8" unicode="&#xa8;" d="M63 633L84 727L142 727L121 633L63 633M207 633L227 727L284 727L265 633L207 633Z"  horiz-adv-x="319" vert-adv-y="1000"  />

      
      <glyph glyph-name="unic0" unicode="&#xc0;" d="M386 710L446 710L574 0L500 0L461 222L162 222L30 0L-45 0L386 710M457 277L399 628L188 277L457 277M354 917L424 917L462 824L413 807L354 917Z"  horiz-adv-x="651" vert-adv-y="1000"  />

      
      <glyph glyph-name="uni60" unicode="&#x60;" d="M67 730L137 730L175 637L126 620L67 730Z"  horiz-adv-x="213" vert-adv-y="1000"  />

      
      <glyph glyph-name="uni0100" unicode="&#x0100;" d="M386 710L446 710L574 0L500 0L461 222L162 222L30 0L-45 0L386 710M457 277L399 628L188 277L457 277M304 849L314 896L589 896L579 849L304 849Z"  horiz-adv-x="651" vert-adv-y="1000"  />

      
      <glyph glyph-name="uniaf" unicode="&#xaf;" d="M72 662L82 709L357 709L347 662L72 662Z"  horiz-adv-x="378" vert-adv-y="1000"  />

      
      <glyph glyph-name="uni0104" unicode="&#x0104;" d="M491-175Q461-168 446-152Q431-136 431-114Q431-86 453.50-59Q476-32 526 0L500 0L461 222L162 222L30 0L-45 0L386 710L446 710L574 0Q519-32 497-55Q475-78 475-101Q475-131 517-137L491-175M457 277L399 628L188 277L457 277Z"  horiz-adv-x="651" vert-adv-y="1000"  />

      
      <glyph glyph-name="uni02DB" unicode="&#x02DB;" d="M89-175Q59-168 44-152Q29-136 29-114Q29-82 58-51.50Q87-21 153 17L172 0Q117-32 95-55Q73-78 73-101Q73-131 115-137L89-175L89-175Z"  horiz-adv-x="230" vert-adv-y="1000"  />

      
      <glyph glyph-name="unic5" unicode="&#xc5;" d="M386 710L446 710L574 0L500 0L461 222L162 222L30 0L-45 0L386 710M457 277L399 628L188 277L457 277M372 839Q372 874 398 895.50Q424 917 459 917Q486 917 501.50 902.50Q517 888 517 864Q517 830 492 808Q467 786 430 786Q403 786 387.50 800.50Q372 815 372 839M453 890Q435 890 420 877Q405 864 405 844Q405 831 413.50 822Q422 813 436 813Q453 813 469 826Q485 839 485 859Q485 873 476 881.50Q467 890 453 890Z"  horiz-adv-x="651" vert-adv-y="1000"  />

      
      <glyph glyph-name="uni02DA" unicode="&#x02DA;" d="M66 652Q66 687 92 708.50Q118 730 153 730Q180 730 195.50 715.50Q211 701 211 677Q211 643 186 621Q161 599 124 599Q97 599 81.50 613.50Q66 628 66 652M147 703Q129 703 114 690Q99 677 99 657Q99 644 107.50 635Q116 626 130 626Q147 626 163 639Q179 652 179 672Q179 686 170 694.50Q161 703 147 703Z"  horiz-adv-x="236" vert-adv-y="1000"  />

      
      <glyph glyph-name="uni01FA" unicode="&#x01FA;" d="M455 812Q475 808 486 794.50Q497 781 497 761Q497 737 484 718.50Q471 700 449 691L574 0L500 0L461 222L162 222L30 0L-45 0L375 692Q352 706 352 736Q352 771 378 792.50Q404 814 439 814Q443 814 446 813.50Q449 813 453 813L413 828L489 918L560 918L455 812M457 277L399 628L188 277L457 277M433 787Q415 787 400 774Q385 761 385 741Q385 728 393.50 719Q402 710 416 710Q433 710 449 723Q465 736 465 756Q465 770 456 778.50Q447 787 433 787Z"  horiz-adv-x="651" vert-adv-y="1000"  />

      
      <glyph glyph-name="unic3" unicode="&#xc3;" d="M386 710L446 710L574 0L500 0L461 222L162 222L30 0L-45 0L386 710M457 277L399 628L188 277L457 277M495 825Q474 825 459.50 831Q445 837 433 844.50Q421 852 409 858.50Q397 865 382 865Q367 865 356 858Q345 851 338.50 842.50Q332 834 328.50 826.50Q325 819 325 817L283 817Q284 822 291 837.50Q298 853 311 869Q324 885 344 897.50Q364 910 391 910Q411 910 424.50 903.50Q438 897 450 889Q462 881 474 874.50Q486 868 504 868Q522 868 534.50 875Q547 882 554 891Q561 900 564.50 907.50Q568 915 568 917L610 917Q609 912 602 897Q595 882 581 866Q567 850 546 837.50Q525 825 495 825Z"  horiz-adv-x="651" vert-adv-y="1000"  />

      
      <glyph glyph-name="uni02DC" unicode="&#x02DC;" d="M256 638Q235 638 220.50 644Q206 650 194 657.50Q182 665 170 671.50Q158 678 143 678Q128 678 117 671Q106 664 99.50 655.50Q93 647 89.50 639.50Q86 632 86 630L44 630Q45 635 52 650.50Q59 666 72 682Q85 698 105 710.50Q125 723 152 723Q172 723 185.50 716.50Q199 710 211 702Q223 694 235 687.50Q247 681 265 681Q283 681 295.50 688Q308 695 315 704Q322 713 325.50 720.50Q329 728 329 730L371 730Q370 725 363 710Q356 695 342 679Q328 663 307 650.50Q286 638 256 638Z"  horiz-adv-x="387" vert-adv-y="1000"  />

      
      <glyph glyph-name="uni42" unicode="&#x42;" d="M175 710L501 710Q531 710 553.50 697.50Q576 685 591 665Q606 645 613.50 619Q621 593 621 565Q621 533 611 502.50Q601 472 583 445.50Q565 419 539.50 398Q514 377 484 364Q529 349 552.50 310Q576 271 576 220Q576 172 556 132Q536 92 503.50 62.50Q471 33 429 16.50Q387 0 342 0L24 0L175 710M355 61Q384 61 411.50 74.50Q439 88 460 110.50Q481 133 494 161.50Q507 190 507 221Q507 243 501 263Q495 283 483.50 298Q472 313 456 321.50Q440 330 419 330L163 330L106 61L355 61M405 387Q433 387 459 400.50Q485 414 505 436Q525 458 537 486.50Q549 515 549 546Q549 589 527 619Q505 649 466 649L231 649L175 387L405 387Z"  horiz-adv-x="641" vert-adv-y="1000"  />

      
      <glyph glyph-name="uni43" unicode="&#x43;" d="M294-6Q235-6 189 19.50Q143 45 111.50 87Q80 129 63.50 183Q47 237 47 294Q47 367 77.50 441.50Q108 516 162 576.50Q216 637 290 675.50Q364 714 452 714Q543 714 597.50 671Q652 628 669 559L606 525Q597 560 579.50 584Q562 608 539 623Q516 638 489 644.50Q462 651 435 651Q365 651 306.50 618.50Q248 586 206 534.50Q164 483 140.50 420Q117 357 117 297Q117 248 130.50 204.50Q144 161 169 128Q194 95 230 76Q266 57 311 57Q339 57 370.50 64.50Q402 72 433 88.50Q464 105 493 129.50Q522 154 545 189L597 159Q572 119 536.50 88.50Q501 58 460 37Q419 16 376 5Q333-6 294-6Z"  horiz-adv-x="656" vert-adv-y="1000"  />

      
      <glyph glyph-name="uni0106" unicode="&#x0106;" d="M472 807L430 824L506 917L577 917L472 807M294-6Q235-6 189 19.50Q143 45 111.50 87Q80 129 63.50 183Q47 237 47 294Q47 367 77.50 441.50Q108 516 162 576.50Q216 637 290 675.50Q364 714 452 714Q543 714 597.50 671Q652 628 669 559L606 525Q597 560 579.50 584Q562 608 539 623Q516 638 489 644.50Q462 651 435 651Q365 651 306.50 618.50Q248 586 206 534.50Q164 483 140.50 420Q117 357 117 297Q117 248 130.50 204.50Q144 161 169 128Q194 95 230 76Q266 57 311 57Q339 57 370.50 64.50Q402 72 433 88.50Q464 105 493 129.50Q522 154 545 189L597 159Q572 119 536.50 88.50Q501 58 460 37Q419 16 376 5Q333-6 294-6Z"  horiz-adv-x="656" vert-adv-y="1000"  />

      
      <glyph glyph-name="uni010C" unicode="&#x010C;" d="M376 897L419 917L486 854L580 917L614 897L502 811L452 811L376 897M294-6Q235-6 189 19.50Q143 45 111.50 87Q80 129 63.50 183Q47 237 47 294Q47 367 77.50 441.50Q108 516 162 576.50Q216 637 290 675.50Q364 714 452 714Q543 714 597.50 671Q652 628 669 559L606 525Q597 560 579.50 584Q562 608 539 623Q516 638 489 644.50Q462 651 435 651Q365 651 306.50 618.50Q248 586 206 534.50Q164 483 140.50 420Q117 357 117 297Q117 248 130.50 204.50Q144 161 169 128Q194 95 230 76Q266 57 311 57Q339 57 370.50 64.50Q402 72 433 88.50Q464 105 493 129.50Q522 154 545 189L597 159Q572 119 536.50 88.50Q501 58 460 37Q419 16 376 5Q333-6 294-6Z"  horiz-adv-x="656" vert-adv-y="1000"  />

      
      <glyph glyph-name="uni02C7" unicode="&#x02C7;" d="M67 710L110 730L177 667L271 730L305 710L193 624L143 624L67 710Z"  horiz-adv-x="316" vert-adv-y="1000"  />

      
      <glyph glyph-name="unic7" unicode="&#xc7;" d="M183-126Q194-133 215.50-138.50Q237-144 262-144Q326-144 326-101Q326-85 314.50-79Q303-73 285-73Q265-73 242-77.50Q219-82 205-87L264-4Q211 1 170 28Q129 55 100.50 96Q72 137 57.50 188.50Q43 240 43 294Q43 367 73.50 441.50Q104 516 158 576.50Q212 637 286 675.50Q360 714 448 714Q539 714 593.50 671Q648 628 665 559L602 525Q593 560 575.50 584Q558 608 535 623Q512 638 485 644.50Q458 651 431 651Q361 651 302.50 618.50Q244 586 202 534.50Q160 483 136.50 420Q113 357 113 297Q113 248 126.50 204.50Q140 161 165 128Q190 95 226 76Q262 57 307 57Q335 57 366.50 64.50Q398 72 429 88.50Q460 105 489 129.50Q518 154 541 189L593 159Q569 121 535 91Q501 61 462 40Q423 19 381.50 7.50Q340-4 302-5L266-51Q275-47 285-46Q295-45 303-45Q332-45 348-57.50Q364-70 364-94Q364-132 334.50-154Q305-176 249-176Q222-176 199-170.50Q176-165 159-157L183-126Z"  horiz-adv-x="652" vert-adv-y="1000"  />

      
      <glyph glyph-name="unib8" unicode="&#xb8;" d="M11-126Q22-133 43.50-138.50Q65-144 90-144Q154-144 154-101Q154-85 142.50-79Q131-73 113-73Q93-73 70-77.50Q47-82 33-87L109 18L139 5L94-51Q103-47 113-46Q123-45 131-45Q160-45 176-57.50Q192-70 192-94Q192-132 162.50-154Q133-176 77-176Q50-176 27-170.50Q4-165-13-157L11-126Z"  horiz-adv-x="270" vert-adv-y="1000"  />

      
      <glyph glyph-name="uni0108" unicode="&#x0108;" d="M367 832L480 917L530 917L605 832L563 811L495 874L401 811L367 832M294-6Q235-6 189 19.50Q143 45 111.50 87Q80 129 63.50 183Q47 237 47 294Q47 367 77.50 441.50Q108 516 162 576.50Q216 637 290 675.50Q364 714 452 714Q543 714 597.50 671Q652 628 669 559L606 525Q597 560 579.50 584Q562 608 539 623Q516 638 489 644.50Q462 651 435 651Q365 651 306.50 618.50Q248 586 206 534.50Q164 483 140.50 420Q117 357 117 297Q117 248 130.50 204.50Q144 161 169 128Q194 95 230 76Q266 57 311 57Q339 57 370.50 64.50Q402 72 433 88.50Q464 105 493 129.50Q522 154 545 189L597 159Q572 119 536.50 88.50Q501 58 460 37Q419 16 376 5Q333-6 294-6Z"  horiz-adv-x="656" vert-adv-y="1000"  />

      
      <glyph glyph-name="uni010A" unicode="&#x010A;" d="M294-6Q235-6 189 19.50Q143 45 111.50 87Q80 129 63.50 183Q47 237 47 294Q47 367 77.50 441.50Q108 516 162 576.50Q216 637 290 675.50Q364 714 452 714Q543 714 597.50 671Q652 628 669 559L606 525Q597 560 579.50 584Q562 608 539 623Q516 638 489 644.50Q462 651 435 651Q365 651 306.50 618.50Q248 586 206 534.50Q164 483 140.50 420Q117 357 117 297Q117 248 130.50 204.50Q144 161 169 128Q194 95 230 76Q266 57 311 57Q339 57 370.50 64.50Q402 72 433 88.50Q464 105 493 129.50Q522 154 545 189L597 159Q572 119 536.50 88.50Q501 58 460 37Q419 16 376 5Q333-6 294-6M452 820L473 917L535 917L514 820L452 820Z"  horiz-adv-x="656" vert-adv-y="1000"  />

      
      <glyph glyph-name="uni02D9" unicode="&#x02D9;" d="M51 633L72 730L134 730L113 633L51 633Z"  horiz-adv-x="156" vert-adv-y="1000"  />

      
      <glyph glyph-name="uni44" unicode="&#x44;" d="M175 710L405 710Q471 710 520 689Q569 668 601 631Q633 594 648.50 544.50Q664 495 664 438Q664 344 633 263.50Q602 183 547 124.50Q492 66 417 33Q342 0 254 0L24 0L175 710M267 62Q342 62 402.50 92Q463 122 505 172.50Q547 223 569.50 289Q592 355 592 427Q592 475 579.50 516Q567 557 541.50 586Q516 615 478.50 631.50Q441 648 391 648L231 648L106 62L267 62Z"  horiz-adv-x="690" vert-adv-y="1000"  />

      
      <glyph glyph-name="uni010E" unicode="&#x010E;" d="M326 897L369 917L436 854L530 917L564 897L452 811L402 811L326 897M175 710L405 710Q471 710 520 689Q569 668 601 631Q633 594 648.50 544.50Q664 495 664 438Q664 344 633 263.50Q602 183 547 124.50Q492 66 417 33Q342 0 254 0L24 0L175 710M267 62Q342 62 402.50 92Q463 122 505 172.50Q547 223 569.50 289Q592 355 592 427Q592 475 579.50 516Q567 557 541.50 586Q516 615 478.50 631.50Q441 648 391 648L231 648L106 62L267 62Z"  horiz-adv-x="690" vert-adv-y="1000"  />

      
      <glyph glyph-name="uni0110" unicode="&#x0110;" d="M55 384L112 384L182 710L412 710Q478 710 527 689Q576 668 608 631Q640 594 655.50 544.50Q671 495 671 438Q671 344 640 263.50Q609 183 554 124.50Q499 66 424 33Q349 0 261 0L31 0L101 330L43 330L55 384M274 62Q349 62 409.50 92Q470 122 512 172.50Q554 223 576.50 289Q599 355 599 427Q599 475 586.50 516Q574 557 548.50 586Q523 615 485.50 631.50Q448 648 398 648L238 648L181 384L342 384L331 330L170 330L113 62L274 62Z"  horiz-adv-x="697" vert-adv-y="1000"  />

      
      <glyph glyph-name="uni45" unicode="&#x45;" d="M175 710L620 710L607 648L231 648L176 392L504 392L492 333L164 333L106 62L491 62L478 0L24 0L175 710Z"  horiz-adv-x="582" vert-adv-y="1000"  />

      
      <glyph glyph-name="unic9" unicode="&#xc9;" d="M422 807L380 824L456 917L527 917L422 807M175 710L620 710L607 648L231 648L176 392L504 392L492 333L164 333L106 62L491 62L478 0L24 0L175 710Z"  horiz-adv-x="582" vert-adv-y="1000"  />

      
      <glyph glyph-name="uni0114" unicode="&#x0114;" d="M175 710L620 710L607 648L231 648L176 392L504 392L492 333L164 333L106 62L491 62L478 0L24 0L175 710M420 851Q440 851 460 870Q480 889 489 917L529 917Q524 896 513 877.50Q502 859 486.50 845.50Q471 832 452 824Q433 816 413 816Q378 816 357 838Q336 860 336 894Q336 905 339 917L381 917Q379 907 379 902Q379 881 390.50 866Q402 851 420 851Z"  horiz-adv-x="582" vert-adv-y="1000"  />

      
      <glyph glyph-name="uni011A" unicode="&#x011A;" d="M313 897L356 917L423 854L517 917L551 897L439 811L389 811L313 897M175 710L620 710L607 648L231 648L176 392L504 392L492 333L164 333L106 62L491 62L478 0L24 0L175 710Z"  horiz-adv-x="582" vert-adv-y="1000"  />

      
      <glyph glyph-name="unica" unicode="&#xca;" d="M313 832L426 917L476 917L551 832L509 811L441 874L347 811L313 832M175 710L620 710L607 648L231 648L176 392L504 392L492 333L164 333L106 62L491 62L478 0L24 0L175 710Z"  horiz-adv-x="582" vert-adv-y="1000"  />

      
      <glyph glyph-name="unicb" unicode="&#xcb;" d="M320 820L341 914L399 914L378 820L320 820M464 820L484 914L541 914L522 820L464 820M175 710L620 710L607 648L231 648L176 392L504 392L492 333L164 333L106 62L491 62L478 0L24 0L175 710Z"  horiz-adv-x="582" vert-adv-y="1000"  />

      
      <glyph glyph-name="uni0116" unicode="&#x0116;" d="M175 710L620 710L607 648L231 648L176 392L504 392L492 333L164 333L106 62L491 62L478 0L24 0L175 710M392 820L413 917L475 917L454 820L392 820Z"  horiz-adv-x="582" vert-adv-y="1000"  />

      
      <glyph glyph-name="unic8" unicode="&#xc8;" d="M175 710L620 710L607 648L231 648L176 392L504 392L492 333L164 333L106 62L491 62L478 0L24 0L175 710M356 917L426 917L464 824L415 807L356 917Z"  horiz-adv-x="582" vert-adv-y="1000"  />

      
      <glyph glyph-name="uni0112" unicode="&#x0112;" d="M175 710L620 710L607 648L231 648L176 392L504 392L492 333L164 333L106 62L491 62L478 0L24 0L175 710M289 849L299 896L574 896L564 849L289 849Z"  horiz-adv-x="582" vert-adv-y="1000"  />

      
      <glyph glyph-name="uni014A" unicode="&#x014A;" d="M396-181Q365-181 339-172Q313-163 296-142L339-96Q350-110 367-115Q384-120 402-120Q418-120 435.50-113Q453-106 468-93.50Q483-81 494-64Q505-47 509-27L517 9L216 579L93 0L24 0L175 710L228 710L539 122L664 709L734 709L578-25Q570-60 551.50-88.50Q533-117 507.50-137.50Q482-158 453-169.50Q424-181 396-181Z"  horiz-adv-x="736" vert-adv-y="1000"  />

      
      <glyph glyph-name="uni0118" unicode="&#x0118;" d="M175 710L620 710L607 648L231 648L176 392L504 392L492 333L164 333L106 62L491 62L478 0L282 0Q227-32 205-55Q183-78 183-101Q183-131 225-137L199-175Q169-168 154-152Q139-136 139-114Q139-86 161.50-59Q184-32 234 0L24 0L175 710Z"  horiz-adv-x="582" vert-adv-y="1000"  />

      
      <glyph glyph-name="unid0" unicode="&#xd0;" d="M55 384L112 384L182 710L412 710Q478 710 527 689Q576 668 608 631Q640 594 655.50 544.50Q671 495 671 438Q671 344 640 263.50Q609 183 554 124.50Q499 66 424 33Q349 0 261 0L31 0L101 330L43 330L55 384M274 62Q349 62 409.50 92Q470 122 512 172.50Q554 223 576.50 289Q599 355 599 427Q599 475 586.50 516Q574 557 548.50 586Q523 615 485.50 631.50Q448 648 398 648L238 648L181 384L342 384L331 330L170 330L113 62L274 62Z"  horiz-adv-x="697" vert-adv-y="1000"  />

      
      <glyph glyph-name="uni1EBC" unicode="&#x1EBC;" d="M175 710L620 710L607 648L231 648L176 392L504 392L492 333L164 333L106 62L491 62L478 0L24 0L175 710M474 825Q453 825 438.50 831Q424 837 412 844.50Q400 852 388 858.50Q376 865 361 865Q346 865 335 858Q324 851 317.50 842.50Q311 834 307.50 826.50Q304 819 304 817L262 817Q263 822 270 837.50Q277 853 290 869Q303 885 323 897.50Q343 910 370 910Q390 910 403.50 903.50Q417 897 429 889Q441 881 453 874.50Q465 868 483 868Q501 868 513.50 875Q526 882 533 891Q540 900 543.50 907.50Q547 915 547 917L589 917Q588 912 581 897Q574 882 560 866Q546 850 525 837.50Q504 825 474 825Z"  horiz-adv-x="582" vert-adv-y="1000"  />

      
      <glyph glyph-name="uni20AC" unicode="&#x20AC;" d="M155 416Q174 474 210.50 528Q247 582 296.50 623Q346 664 407.50 689Q469 714 539 714Q630 714 684.50 671Q739 628 756 559L693 525Q684 560 666.50 584Q649 608 626 623Q603 638 576 644.50Q549 651 522 651Q469 651 422.50 631.50Q376 612 338 580Q300 548 271.50 505Q243 462 226 416L547 416L520 373L213 373Q206 342 204 311L490 311L463 268L205 268Q209 224 224 185.50Q239 147 263.50 118.50Q288 90 322 73.50Q356 57 398 57Q426 57 457.50 64.50Q489 72 520 88.50Q551 105 580 129.50Q609 154 633 189L684 159Q659 119 623.50 88.50Q588 58 547 37Q506 16 463 5Q420-6 381-6Q325-6 281 16.50Q237 39 205.50 77Q174 115 156 164.50Q138 214 135 268L26 268L54 311L134 311Q136 342 143 373L75 373L102 416L155 416Z"  horiz-adv-x="763" vert-adv-y="1000"  />

      
      <glyph glyph-name="uni46" unicode="&#x46;" d="M175 710L617 710L604 648L231 648L176 387L491 387L478 329L163 329L93 0L24 0L175 710Z"  horiz-adv-x="572" vert-adv-y="1000"  />

      
      <glyph glyph-name="uni47" unicode="&#x47;" d="M532 103Q417-5 295-5Q237-5 191 19.50Q145 44 113 85.50Q81 127 64 180.50Q47 234 47 292Q47 372 80 448Q113 524 168.50 583.50Q224 643 295.50 679Q367 715 445 715Q494 715 532 703.50Q570 692 598 671.50Q626 651 643.50 622.50Q661 594 670 560L608 524Q590 590 543.50 621Q497 652 430 652Q366 652 309 620.50Q252 589 209.50 538Q167 487 142 423.50Q117 360 117 296Q117 247 131 204Q145 161 170.50 128.50Q196 96 232 77Q268 58 313 58Q370 58 428 86.50Q486 115 547 176L573 295L425 295L436 349L644 349L570 0L510 0L532 103Z"  horiz-adv-x="687" vert-adv-y="1000"  />

      
      <glyph glyph-name="uni011E" unicode="&#x011E;" d="M532 103Q417-5 295-5Q237-5 191 19.50Q145 44 113 85.50Q81 127 64 180.50Q47 234 47 292Q47 372 80 448Q113 524 168.50 583.50Q224 643 295.50 679Q367 715 445 715Q494 715 532 703.50Q570 692 598 671.50Q626 651 643.50 622.50Q661 594 670 560L608 524Q590 590 543.50 621Q497 652 430 652Q366 652 309 620.50Q252 589 209.50 538Q167 487 142 423.50Q117 360 117 296Q117 247 131 204Q145 161 170.50 128.50Q196 96 232 77Q268 58 313 58Q370 58 428 86.50Q486 115 547 176L573 295L425 295L436 349L644 349L570 0L510 0L532 103M467 851Q487 851 507 870Q527 889 536 917L576 917Q571 896 560 877.50Q549 859 533.50 845.50Q518 832 499 824Q480 816 460 816Q425 816 404 838Q383 860 383 894Q383 905 386 917L428 917Q426 907 426 902Q426 881 437.50 866Q449 851 467 851Z"  horiz-adv-x="687" vert-adv-y="1000"  />

      
      <glyph glyph-name="uni011C" unicode="&#x011C;" d="M351 832L464 917L514 917L589 832L547 811L479 874L385 811L351 832M532 103Q417-5 295-5Q237-5 191 19.50Q145 44 113 85.50Q81 127 64 180.50Q47 234 47 292Q47 372 80 448Q113 524 168.50 583.50Q224 643 295.50 679Q367 715 445 715Q494 715 532 703.50Q570 692 598 671.50Q626 651 643.50 622.50Q661 594 670 560L608 524Q590 590 543.50 621Q497 652 430 652Q366 652 309 620.50Q252 589 209.50 538Q167 487 142 423.50Q117 360 117 296Q117 247 131 204Q145 161 170.50 128.50Q196 96 232 77Q268 58 313 58Q370 58 428 86.50Q486 115 547 176L573 295L425 295L436 349L644 349L570 0L510 0L532 103Z"  horiz-adv-x="687" vert-adv-y="1000"  />

      
      <glyph glyph-name="uni0122" unicode="&#x0122;" d="M225-199L257-125L237-125L254-49L315-49L299-125L259-199L225-199M532 103Q417-5 295-5Q237-5 191 19.50Q145 44 113 85.50Q81 127 64 180.50Q47 234 47 292Q47 372 80 448Q113 524 168.50 583.50Q224 643 295.50 679Q367 715 445 715Q494 715 532 703.50Q570 692 598 671.50Q626 651 643.50 622.50Q661 594 670 560L608 524Q590 590 543.50 621Q497 652 430 652Q366 652 309 620.50Q252 589 209.50 538Q167 487 142 423.50Q117 360 117 296Q117 247 131 204Q145 161 170.50 128.50Q196 96 232 77Q268 58 313 58Q370 58 428 86.50Q486 115 547 176L573 295L425 295L436 349L644 349L570 0L510 0L532 103Z"  horiz-adv-x="687" vert-adv-y="1000"  />

      
      <glyph glyph-name="uniF6C3" unicode="&#xF6C3;" d="M16-199L48-125L28-125L45-49L106-49L90-125L50-199L16-199Z"  horiz-adv-x="149" vert-adv-y="1000"  />

      
      <glyph glyph-name="uni0120" unicode="&#x0120;" d="M532 103Q417-5 295-5Q237-5 191 19.50Q145 44 113 85.50Q81 127 64 180.50Q47 234 47 292Q47 372 80 448Q113 524 168.50 583.50Q224 643 295.50 679Q367 715 445 715Q494 715 532 703.50Q570 692 598 671.50Q626 651 643.50 622.50Q661 594 670 560L608 524Q590 590 543.50 621Q497 652 430 652Q366 652 309 620.50Q252 589 209.50 538Q167 487 142 423.50Q117 360 117 296Q117 247 131 204Q145 161 170.50 128.50Q196 96 232 77Q268 58 313 58Q370 58 428 86.50Q486 115 547 176L573 295L425 295L436 349L644 349L570 0L510 0L532 103M440 820L461 917L523 917L502 820L440 820Z"  horiz-adv-x="687" vert-adv-y="1000"  />

      
      <glyph glyph-name="uni48" unicode="&#x48;" d="M175 710L244 710L177 394L572 394L639 710L709 710L558 0L488 0L559 332L164 332L93 0L24 0L175 710Z"  horiz-adv-x="709" vert-adv-y="1000"  />

      
      <glyph glyph-name="uni0126" unicode="&#x0126;" d="M107 589L154 589L180 710L250 710L224 589L619 589L645 710L714 710L688 589L736 589L727 550L680 550L563 0L494 0L564 332L169 332L99 0L29 0L146 550L99 550L107 589M578 394L611 550L216 550L183 394L578 394Z"  horiz-adv-x="719" vert-adv-y="1000"  />

      
      <glyph glyph-name="uni0124" unicode="&#x0124;" d="M346 832L459 917L509 917L584 832L542 811L474 874L380 811L346 832M175 710L244 710L177 394L572 394L639 710L709 710L558 0L488 0L559 332L164 332L93 0L24 0L175 710Z"  horiz-adv-x="709" vert-adv-y="1000"  />

      
      <glyph glyph-name="uni49" unicode="&#x49;" d="M175 709L244 709L93 0L24 0L175 709Z"  horiz-adv-x="245" vert-adv-y="1000"  />

      
      <glyph glyph-name="uni0132" unicode="&#x0132;" d="M175 709L244 709L93 0L24 0L175 709M345-11Q260-11 208 33L239 89Q256 74 286.50 63Q317 52 358 52Q409 52 443.50 71.50Q478 91 502 129Q526 167 542.50 222.50Q559 278 574 349L651 709L721 709L644 349Q627 268 606 201.50Q585 135 551.50 88Q518 41 468.50 15Q419-11 345-11Z"  horiz-adv-x="713" vert-adv-y="1000"  />

      
      <glyph glyph-name="uni4a" unicode="&#x4a;" d="M100-11Q15-11-37 33L-6 89Q11 74 41.50 63Q72 52 113 52Q164 52 198.50 71.50Q233 91 257 129Q281 167 297.50 222.50Q314 278 329 349L406 709L476 709L399 349Q382 268 361 201.50Q340 135 306.50 88Q273 41 223.50 15Q174-11 100-11Z"  horiz-adv-x="468" vert-adv-y="1000"  />

      
      <glyph glyph-name="unicd" unicode="&#xcd;" d="M175 709L244 709L93 0L24 0L175 709M223 807L181 824L257 917L328 917L223 807Z"  horiz-adv-x="245" vert-adv-y="1000"  />

      
      <glyph glyph-name="uni012C" unicode="&#x012C;" d="M175 709L244 709L93 0L24 0L175 709M227 851Q247 851 267 870Q287 889 296 917L336 917Q331 896 320 877.50Q309 859 293.50 845.50Q278 832 259 824Q240 816 220 816Q185 816 164 838Q143 860 143 894Q143 905 146 917L188 917Q186 907 186 902Q186 881 197.50 866Q209 851 227 851Z"  horiz-adv-x="245" vert-adv-y="1000"  />

      
      <glyph glyph-name="unice" unicode="&#xce;" d="M175 709L244 709L93 0L24 0L175 709M115 832L228 917L278 917L353 832L311 811L243 874L149 811L115 832Z"  horiz-adv-x="245" vert-adv-y="1000"  />

      
      <glyph glyph-name="unicf" unicode="&#xcf;" d="M175 709L244 709L93 0L24 0L175 709M130 820L151 914L209 914L188 820L130 820M274 820L294 914L351 914L332 820L274 820Z"  horiz-adv-x="245" vert-adv-y="1000"  />

      
      <glyph glyph-name="uni0130" unicode="&#x0130;" d="M175 709L244 709L93 0L24 0L175 709M200 820L221 917L283 917L262 820L200 820Z"  horiz-adv-x="245" vert-adv-y="1000"  />

      
      <glyph glyph-name="unicc" unicode="&#xcc;" d="M175 709L244 709L93 0L24 0L175 709M163 917L233 917L271 824L222 807L163 917Z"  horiz-adv-x="245" vert-adv-y="1000"  />

      
      <glyph glyph-name="uni012A" unicode="&#x012A;" d="M175 709L244 709L93 0L24 0L175 709M101 849L111 896L386 896L376 849L101 849Z"  horiz-adv-x="245" vert-adv-y="1000"  />

      
      <glyph glyph-name="uni012E" unicode="&#x012E;" d="M175 709L244 709L93 0Q38-32 16-55Q-6-78-6-101Q-6-131 36-137L10-175Q-20-168-35-152Q-50-136-50-114Q-50-86-27.50-59Q-5-32 45 0L24 0L175 709Z"  horiz-adv-x="245" vert-adv-y="1000"  />

      
      <glyph glyph-name="uni0128" unicode="&#x0128;" d="M175 709L244 709L93 0L24 0L175 709M291 825Q270 825 255.50 831Q241 837 229 844.50Q217 852 205 858.50Q193 865 178 865Q163 865 152 858Q141 851 134.50 842.50Q128 834 124.50 826.50Q121 819 121 817L79 817Q80 822 87 837.50Q94 853 107 869Q120 885 140 897.50Q160 910 187 910Q207 910 220.50 903.50Q234 897 246 889Q258 881 270 874.50Q282 868 300 868Q318 868 330.50 875Q343 882 350 891Q357 900 360.50 907.50Q364 915 364 917L406 917Q405 912 398 897Q391 882 377 866Q363 850 342 837.50Q321 825 291 825Z"  horiz-adv-x="245" vert-adv-y="1000"  />

      
      <glyph glyph-name="uni0134" unicode="&#x0134;" d="M345 832L458 917L508 917L583 832L541 811L473 874L379 811L345 832M100-11Q15-11-37 33L-6 89Q11 74 41.50 63Q72 52 113 52Q164 52 198.50 71.50Q233 91 257 129Q281 167 297.50 222.50Q314 278 329 349L406 709L476 709L399 349Q382 268 361 201.50Q340 135 306.50 88Q273 41 223.50 15Q174-11 100-11Z"  horiz-adv-x="468" vert-adv-y="1000"  />

      
      <glyph glyph-name="uni4b" unicode="&#x4b;" d="M175 709L244 709L156 297L611 710L689 710L347 398L552 0L474 0L295 357L140 218L93 0L24 0L175 709Z"  horiz-adv-x="615" vert-adv-y="1000"  />

      
      <glyph glyph-name="uni0136" unicode="&#x0136;" d="M195-199L227-125L207-125L224-49L285-49L269-125L229-199L195-199M175 709L244 709L156 297L611 710L689 710L347 398L552 0L474 0L295 357L140 218L93 0L24 0L175 709Z"  horiz-adv-x="615" vert-adv-y="1000"  />

      
      <glyph glyph-name="uni4c" unicode="&#x4c;" d="M175 710L244 710L106 62L494 62L481 0L24 0L175 710Z"  horiz-adv-x="557" vert-adv-y="1000"  />

      
      <glyph glyph-name="uni0139" unicode="&#x0139;" d="M235 807L193 824L269 917L340 917L235 807M175 710L244 710L106 62L494 62L481 0L24 0L175 710Z"  horiz-adv-x="557" vert-adv-y="1000"  />

      
      <glyph glyph-name="uni013D" unicode="&#x013D;" d="M298 637L374 730L446 730L340 620L298 637M175 710L244 710L106 62L494 62L481 0L24 0L175 710Z"  horiz-adv-x="557" vert-adv-y="1000"  />

      
      <glyph glyph-name="uni013B" unicode="&#x013B;" d="M185-199L217-125L197-125L214-49L275-49L259-125L219-199L185-199M175 710L244 710L106 62L494 62L481 0L24 0L175 710Z"  horiz-adv-x="557" vert-adv-y="1000"  />

      
      <glyph glyph-name="uni013F" unicode="&#x013F;" d="M175 710L244 710L106 62L494 62L481 0L24 0L175 710M329 348L352 460L410 460L387 348L329 348Z"  horiz-adv-x="557" vert-adv-y="1000"  />

      
      <glyph glyph-name="unib7" unicode="&#xb7;" d="M52 246L75 358L133 358L110 246L52 246Z"  horiz-adv-x="186" vert-adv-y="1000"  />

      
      <glyph glyph-name="uni0141" unicode="&#x0141;" d="M12 269L102 335L182 710L252 710L185 396L357 522L370 483L173 338L114 62L501 62L488 0L31 0L90 277L25 229L12 269Z"  horiz-adv-x="564" vert-adv-y="1000"  />

      
      <glyph glyph-name="uni4d" unicode="&#x4d;" d="M175 710L247 710L404 224L768 710L840 710L689 0L619 0L743 583L405 132L364 132L218 583L93 0L24 0L175 710Z"  horiz-adv-x="840" vert-adv-y="1000"  />

      
      <glyph glyph-name="uni4e" unicode="&#x4e;" d="M175 710L229 710L545 119L670 709L739 709L588 0L529 0L216 580L93 0L24 0L175 710Z"  horiz-adv-x="740" vert-adv-y="1000"  />

      
      <glyph glyph-name="uni0143" unicode="&#x0143;" d="M480 807L438 824L514 917L585 917L480 807M175 710L229 710L545 119L670 709L739 709L588 0L529 0L216 580L93 0L24 0L175 710Z"  horiz-adv-x="740" vert-adv-y="1000"  />

      
      <glyph glyph-name="uni0147" unicode="&#x0147;" d="M372 897L415 917L482 854L576 917L610 897L498 811L448 811L372 897M175 710L229 710L545 119L670 709L739 709L588 0L529 0L216 580L93 0L24 0L175 710Z"  horiz-adv-x="740" vert-adv-y="1000"  />

      
      <glyph glyph-name="uni0145" unicode="&#x0145;" d="M239-199L271-125L251-125L268-49L329-49L313-125L273-199L239-199M175 710L229 710L545 119L670 709L739 709L588 0L529 0L216 580L93 0L24 0L175 710Z"  horiz-adv-x="740" vert-adv-y="1000"  />

      
      <glyph glyph-name="uni1E44" unicode="&#x1E44;" d="M450 820L471 917L533 917L512 820L450 820M175 710L229 710L545 119L670 709L739 709L588 0L529 0L216 580L93 0L24 0L175 710Z"  horiz-adv-x="740" vert-adv-y="1000"  />

      
      <glyph glyph-name="unid1" unicode="&#xd1;" d="M175 710L229 710L545 119L670 709L739 709L588 0L529 0L216 580L93 0L24 0L175 710M542 825Q521 825 506.50 831Q492 837 480 844.50Q468 852 456 858.50Q444 865 429 865Q414 865 403 858Q392 851 385.50 842.50Q379 834 375.50 826.50Q372 819 372 817L330 817Q331 822 338 837.50Q345 853 358 869Q371 885 391 897.50Q411 910 438 910Q458 910 471.50 903.50Q485 897 497 889Q509 881 521 874.50Q533 868 551 868Q569 868 581.50 875Q594 882 601 891Q608 900 611.50 907.50Q615 915 615 917L657 917Q656 912 649 897Q642 882 628 866Q614 850 593 837.50Q572 825 542 825Z"  horiz-adv-x="740" vert-adv-y="1000"  />

      
      <glyph glyph-name="uni4f" unicode="&#x4f;" d="M296-5Q236-5 189.50 19.50Q143 44 111 84.50Q79 125 62.50 178Q46 231 46 288Q46 369 80 446Q114 523 170.50 583Q227 643 299.50 679Q372 715 450 715Q510 715 556 690Q602 665 633.50 624Q665 583 681.50 530Q698 477 698 420Q698 339 664.50 262.50Q631 186 575 126.50Q519 67 446.50 31Q374-5 296-5M310 58Q376 58 433.50 90Q491 122 534.50 173.50Q578 225 603 288.50Q628 352 628 415Q628 462 615 505Q602 548 577.50 580.50Q553 613 517 632Q481 651 436 651Q370 651 312 619Q254 587 210.50 536Q167 485 142 421.50Q117 358 117 294Q117 247 129.50 204Q142 161 167 128.50Q192 96 227.50 77Q263 58 310 58Z"  horiz-adv-x="722" vert-adv-y="1000"  />

      
      <glyph glyph-name="uni0152" unicode="&#x0152;" d="M297-5Q237-5 190 19.50Q143 44 111 84.50Q79 125 62.50 178Q46 231 46 288Q46 369 80 446Q114 523 170.50 583Q227 643 299.50 679Q372 715 450 715Q493 715 528 700.50Q563 686 589.50 661Q616 636 633 602Q650 568 658 530L696 710L1137 710L1123 648L752 648L699 393L1018 393L1004 331L685 331L628 62L1007 62L994 0L545 0L584 180Q559 141 527 107Q495 73 457.50 48Q420 23 379.50 9Q339-5 297-5M309 58Q375 58 432.50 90Q490 122 533.50 173.50Q577 225 602 288.50Q627 352 627 415Q627 462 614 505Q601 548 576.50 580.50Q552 613 516.50 632.50Q481 652 436 652Q370 652 312 620Q254 588 210.50 537Q167 486 142 422Q117 358 117 294Q117 247 129.50 204Q142 161 166.50 128.50Q191 96 227 77Q263 58 309 58Z"  horiz-adv-x="1098" vert-adv-y="1000"  />

      
      <glyph glyph-name="unid3" unicode="&#xd3;" d="M471 807L429 824L505 917L576 917L471 807M296-5Q236-5 189.50 19.50Q143 44 111 84.50Q79 125 62.50 178Q46 231 46 288Q46 369 80 446Q114 523 170.50 583Q227 643 299.50 679Q372 715 450 715Q510 715 556 690Q602 665 633.50 624Q665 583 681.50 530Q698 477 698 420Q698 339 664.50 262.50Q631 186 575 126.50Q519 67 446.50 31Q374-5 296-5M310 58Q376 58 433.50 90Q491 122 534.50 173.50Q578 225 603 288.50Q628 352 628 415Q628 462 615 505Q602 548 577.50 580.50Q553 613 517 632Q481 651 436 651Q370 651 312 619Q254 587 210.50 536Q167 485 142 421.50Q117 358 117 294Q117 247 129.50 204Q142 161 167 128.50Q192 96 227.50 77Q263 58 310 58Z"  horiz-adv-x="722" vert-adv-y="1000"  />

      
      <glyph glyph-name="uni014E" unicode="&#x014E;" d="M296-5Q236-5 189.50 19.50Q143 44 111 84.50Q79 125 62.50 178Q46 231 46 288Q46 369 80 446Q114 523 170.50 583Q227 643 299.50 679Q372 715 450 715Q510 715 556 690Q602 665 633.50 624Q665 583 681.50 530Q698 477 698 420Q698 339 664.50 262.50Q631 186 575 126.50Q519 67 446.50 31Q374-5 296-5M310 58Q376 58 433.50 90Q491 122 534.50 173.50Q578 225 603 288.50Q628 352 628 415Q628 462 615 505Q602 548 577.50 580.50Q553 613 517 632Q481 651 436 651Q370 651 312 619Q254 587 210.50 536Q167 485 142 421.50Q117 358 117 294Q117 247 129.50 204Q142 161 167 128.50Q192 96 227.50 77Q263 58 310 58M472 851Q492 851 512 870Q532 889 541 917L581 917Q576 896 565 877.50Q554 859 538.50 845.50Q523 832 504 824Q485 816 465 816Q430 816 409 838Q388 860 388 894Q388 905 391 917L433 917Q431 907 431 902Q431 881 442.50 866Q454 851 472 851Z"  horiz-adv-x="722" vert-adv-y="1000"  />

      
      <glyph glyph-name="unid4" unicode="&#xd4;" d="M362 832L475 917L525 917L600 832L558 811L490 874L396 811L362 832M296-5Q236-5 189.50 19.50Q143 44 111 84.50Q79 125 62.50 178Q46 231 46 288Q46 369 80 446Q114 523 170.50 583Q227 643 299.50 679Q372 715 450 715Q510 715 556 690Q602 665 633.50 624Q665 583 681.50 530Q698 477 698 420Q698 339 664.50 262.50Q631 186 575 126.50Q519 67 446.50 31Q374-5 296-5M310 58Q376 58 433.50 90Q491 122 534.50 173.50Q578 225 603 288.50Q628 352 628 415Q628 462 615 505Q602 548 577.50 580.50Q553 613 517 632Q481 651 436 651Q370 651 312 619Q254 587 210.50 536Q167 485 142 421.50Q117 358 117 294Q117 247 129.50 204Q142 161 167 128.50Q192 96 227.50 77Q263 58 310 58Z"  horiz-adv-x="722" vert-adv-y="1000"  />

      
      <glyph glyph-name="unid6" unicode="&#xd6;" d="M372 820L393 914L451 914L430 820L372 820M516 820L536 914L593 914L574 820L516 820M296-5Q236-5 189.50 19.50Q143 44 111 84.50Q79 125 62.50 178Q46 231 46 288Q46 369 80 446Q114 523 170.50 583Q227 643 299.50 679Q372 715 450 715Q510 715 556 690Q602 665 633.50 624Q665 583 681.50 530Q698 477 698 420Q698 339 664.50 262.50Q631 186 575 126.50Q519 67 446.50 31Q374-5 296-5M310 58Q376 58 433.50 90Q491 122 534.50 173.50Q578 225 603 288.50Q628 352 628 415Q628 462 615 505Q602 548 577.50 580.50Q553 613 517 632Q481 651 436 651Q370 651 312 619Q254 587 210.50 536Q167 485 142 421.50Q117 358 117 294Q117 247 129.50 204Q142 161 167 128.50Q192 96 227.50 77Q263 58 310 58Z"  horiz-adv-x="722" vert-adv-y="1000"  />

      
      <glyph glyph-name="unid2" unicode="&#xd2;" d="M296-5Q236-5 189.50 19.50Q143 44 111 84.50Q79 125 62.50 178Q46 231 46 288Q46 369 80 446Q114 523 170.50 583Q227 643 299.50 679Q372 715 450 715Q510 715 556 690Q602 665 633.50 624Q665 583 681.50 530Q698 477 698 420Q698 339 664.50 262.50Q631 186 575 126.50Q519 67 446.50 31Q374-5 296-5M310 58Q376 58 433.50 90Q491 122 534.50 173.50Q578 225 603 288.50Q628 352 628 415Q628 462 615 505Q602 548 577.50 580.50Q553 613 517 632Q481 651 436 651Q370 651 312 619Q254 587 210.50 536Q167 485 142 421.50Q117 358 117 294Q117 247 129.50 204Q142 161 167 128.50Q192 96 227.50 77Q263 58 310 58M422 917L492 917L530 824L481 807L422 917Z"  horiz-adv-x="722" vert-adv-y="1000"  />

      
      <glyph glyph-name="uni0150" unicode="&#x0150;" d="M405 807L372 824L445 917L508 917L405 807M526 807L494 824L567 917L629 917L526 807M296-5Q236-5 189.50 19.50Q143 44 111 84.50Q79 125 62.50 178Q46 231 46 288Q46 369 80 446Q114 523 170.50 583Q227 643 299.50 679Q372 715 450 715Q510 715 556 690Q602 665 633.50 624Q665 583 681.50 530Q698 477 698 420Q698 339 664.50 262.50Q631 186 575 126.50Q519 67 446.50 31Q374-5 296-5M310 58Q376 58 433.50 90Q491 122 534.50 173.50Q578 225 603 288.50Q628 352 628 415Q628 462 615 505Q602 548 577.50 580.50Q553 613 517 632Q481 651 436 651Q370 651 312 619Q254 587 210.50 536Q167 485 142 421.50Q117 358 117 294Q117 247 129.50 204Q142 161 167 128.50Q192 96 227.50 77Q263 58 310 58Z"  horiz-adv-x="722" vert-adv-y="1000"  />

      
      <glyph glyph-name="uni02DD" unicode="&#x02DD;" d="M75 620L42 637L115 730L178 730L75 620M196 620L164 637L237 730L299 730L196 620Z"  horiz-adv-x="312" vert-adv-y="1000"  />

      
      <glyph glyph-name="uni014C" unicode="&#x014C;" d="M343 849L353 896L628 896L618 849L343 849M296-5Q236-5 189.50 19.50Q143 44 111 84.50Q79 125 62.50 178Q46 231 46 288Q46 369 80 446Q114 523 170.50 583Q227 643 299.50 679Q372 715 450 715Q510 715 556 690Q602 665 633.50 624Q665 583 681.50 530Q698 477 698 420Q698 339 664.50 262.50Q631 186 575 126.50Q519 67 446.50 31Q374-5 296-5M310 58Q376 58 433.50 90Q491 122 534.50 173.50Q578 225 603 288.50Q628 352 628 415Q628 462 615 505Q602 548 577.50 580.50Q553 613 517 632Q481 651 436 651Q370 651 312 619Q254 587 210.50 536Q167 485 142 421.50Q117 358 117 294Q117 247 129.50 204Q142 161 167 128.50Q192 96 227.50 77Q263 58 310 58Z"  horiz-adv-x="722" vert-adv-y="1000"  />

      
      <glyph glyph-name="uni01EA" unicode="&#x01EA;" d="M236-176Q206-169 191-153Q176-137 176-115Q176-87 198-60.50Q220-34 268-3Q214 3 173 28.50Q132 54 103.50 94Q75 134 60.50 184Q46 234 46 288Q46 369 80 446Q114 523 170.50 583Q227 643 299.50 679Q372 715 450 715Q510 715 556 690Q602 665 633.50 624Q665 583 681.50 530Q698 477 698 420Q698 342 666 267Q634 192 580.50 133Q527 74 457.50 37Q388 0 313-4Q261-35 240.50-57Q220-79 220-102Q220-132 262-138L236-176M310 58Q376 58 433.50 90Q491 122 534.50 173.50Q578 225 603 288.50Q628 352 628 415Q628 462 615 505Q602 548 577.50 580.50Q553 613 517 632Q481 651 436 651Q370 651 312 619Q254 587 210.50 536Q167 485 142 421.50Q117 358 117 294Q117 247 129.50 204Q142 161 167 128.50Q192 96 227.50 77Q263 58 310 58Z"  horiz-adv-x="722" vert-adv-y="1000"  />

      
      <glyph glyph-name="unid8" unicode="&#xd8;" d="M713 710L637 620Q667 578 682.50 526.50Q698 475 698 420Q698 339 664.50 262.50Q631 186 575 126.50Q519 67 446.50 31Q374-5 296-5Q252-5 215.50 8Q179 21 150 44L113 0L36 0L109 86Q78 127 62 179Q46 231 46 288Q46 369 80 446Q114 523 170.50 583Q227 643 299.50 679Q372 715 450 715Q495 715 531.50 701Q568 687 597 663L637 710L713 710M117 294Q117 251 127 212.50Q137 174 157 143L551 608Q528 628 499.50 639.50Q471 651 436 651Q370 651 312 619Q254 587 210.50 536Q167 485 142 421.50Q117 358 117 294M310 58Q376 58 433.50 90Q491 122 534.50 173.50Q578 225 603 288.50Q628 352 628 415Q628 457 618 494.50Q608 532 589 563L196 98Q219 79 247 68.50Q275 58 310 58Z"  horiz-adv-x="722" vert-adv-y="1000"  />

      
      <glyph glyph-name="uni2f" unicode="&#x2f;" d="M651 710L51 0L-26 0L575 710L651 710Z"  horiz-adv-x="599" vert-adv-y="1000"  />

      
      <glyph glyph-name="uni01FE" unicode="&#x01FE;" d="M713 710L637 620Q667 578 682.50 526.50Q698 475 698 420Q698 339 664.50 262.50Q631 186 575 126.50Q519 67 446.50 31Q374-5 296-5Q252-5 215.50 8Q179 21 150 44L113 0L36 0L109 86Q78 127 62 179Q46 231 46 288Q46 369 80 446Q114 523 170.50 583Q227 643 299.50 679Q372 715 450 715Q495 715 531.50 701Q568 687 597 663L637 710L713 710M117 294Q117 251 127 212.50Q137 174 157 143L551 608Q528 628 499.50 639.50Q471 651 436 651Q370 651 312 619Q254 587 210.50 536Q167 485 142 421.50Q117 358 117 294M310 58Q376 58 433.50 90Q491 122 534.50 173.50Q578 225 603 288.50Q628 352 628 415Q628 457 618 494.50Q608 532 589 563L196 98Q219 79 247 68.50Q275 58 310 58M472 807L430 824L506 917L577 917L472 807Z"  horiz-adv-x="722" vert-adv-y="1000"  />

      
      <glyph glyph-name="unid5" unicode="&#xd5;" d="M296-5Q236-5 189.50 19.50Q143 44 111 84.50Q79 125 62.50 178Q46 231 46 288Q46 369 80 446Q114 523 170.50 583Q227 643 299.50 679Q372 715 450 715Q510 715 556 690Q602 665 633.50 624Q665 583 681.50 530Q698 477 698 420Q698 339 664.50 262.50Q631 186 575 126.50Q519 67 446.50 31Q374-5 296-5M310 58Q376 58 433.50 90Q491 122 534.50 173.50Q578 225 603 288.50Q628 352 628 415Q628 462 615 505Q602 548 577.50 580.50Q553 613 517 632Q481 651 436 651Q370 651 312 619Q254 587 210.50 536Q167 485 142 421.50Q117 358 117 294Q117 247 129.50 204Q142 161 167 128.50Q192 96 227.50 77Q263 58 310 58M532 825Q511 825 496.50 831Q482 837 470 844.50Q458 852 446 858.50Q434 865 419 865Q404 865 393 858Q382 851 375.50 842.50Q369 834 365.50 826.50Q362 819 362 817L320 817Q321 822 328 837.50Q335 853 348 869Q361 885 381 897.50Q401 910 428 910Q448 910 461.50 903.50Q475 897 487 889Q499 881 511 874.50Q523 868 541 868Q559 868 571.50 875Q584 882 591 891Q598 900 601.50 907.50Q605 915 605 917L647 917Q646 912 639 897Q632 882 618 866Q604 850 583 837.50Q562 825 532 825Z"  horiz-adv-x="722" vert-adv-y="1000"  />

      
      <glyph glyph-name="uni50" unicode="&#x50;" d="M175 710L455 710Q492 710 521.50 694.50Q551 679 571 653Q591 627 602 593.50Q613 560 613 525Q613 477 593 430Q573 383 539 345.50Q505 308 460 285Q415 262 365 262L149 262L93 0L24 0L175 710M374 324Q408 324 439 341Q470 358 492.50 385.50Q515 413 528.50 448Q542 483 542 519Q542 546 534.50 569.50Q527 593 513 610.50Q499 628 479.50 638Q460 648 437 648L231 648L162 324L374 324Z"  horiz-adv-x="599" vert-adv-y="1000"  />

      
      <glyph glyph-name="uni51" unicode="&#x51;" d="M495 59Q449 29 399 12Q349-5 296-5Q236-5 189.50 19.50Q143 44 111 84.50Q79 125 62.50 178Q46 231 46 288Q46 369 80 446Q114 523 170.50 583Q227 643 300 679Q373 715 451 715Q511 715 557 690Q603 665 634.50 624Q666 583 682 530Q698 477 698 420Q698 374 686.50 329Q675 284 654.50 242.50Q634 201 605.50 163.50Q577 126 542 96L601 0L531 0L495 59M310 58Q352 58 391 71.50Q430 85 465 109L400 218L469 218L511 148Q565 201 596.50 272Q628 343 628 415Q628 462 615 505Q602 548 577.50 580.50Q553 613 517 632.50Q481 652 436 652Q370 652 312 620Q254 588 210.50 537Q167 486 142 422Q117 358 117 294Q117 247 129.50 204Q142 161 167 128.50Q192 96 227.50 77Q263 58 310 58Z"  horiz-adv-x="721" vert-adv-y="1000"  />

      
      <glyph glyph-name="uni52" unicode="&#x52;" d="M24 0L175 710L460 710Q497 710 527 694.50Q557 679 577 653Q597 627 608 593.50Q619 560 619 525Q619 482 603 440.50Q587 399 560 365Q533 331 496.50 306.50Q460 282 419 274L526 0L447 0L345 262L149 262L93 0L24 0M381 324Q415 324 445.50 341Q476 358 498.50 385.50Q521 413 534 447.50Q547 482 547 517Q547 544 539.50 567.50Q532 591 518.50 609Q505 627 485.50 637.50Q466 648 443 648L231 648L162 324L381 324Z"  horiz-adv-x="628" vert-adv-y="1000"  />

      
      <glyph glyph-name="uni0154" unicode="&#x0154;" d="M404 809L362 826L438 919L509 919L404 809M24 0L175 710L460 710Q497 710 527 694.50Q557 679 577 653Q597 627 608 593.50Q619 560 619 525Q619 482 603 440.50Q587 399 560 365Q533 331 496.50 306.50Q460 282 419 274L526 0L447 0L345 262L149 262L93 0L24 0M381 324Q415 324 445.50 341Q476 358 498.50 385.50Q521 413 534 447.50Q547 482 547 517Q547 544 539.50 567.50Q532 591 518.50 609Q505 627 485.50 637.50Q466 648 443 648L231 648L162 324L381 324Z"  horiz-adv-x="628" vert-adv-y="1000"  />

      
      <glyph glyph-name="uni0158" unicode="&#x0158;" d="M318 899L361 919L428 856L522 919L556 899L444 813L394 813L318 899M24 0L175 710L460 710Q497 710 527 694.50Q557 679 577 653Q597 627 608 593.50Q619 560 619 525Q619 482 603 440.50Q587 399 560 365Q533 331 496.50 306.50Q460 282 419 274L526 0L447 0L345 262L149 262L93 0L24 0M381 324Q415 324 445.50 341Q476 358 498.50 385.50Q521 413 534 447.50Q547 482 547 517Q547 544 539.50 567.50Q532 591 518.50 609Q505 627 485.50 637.50Q466 648 443 648L231 648L162 324L381 324Z"  horiz-adv-x="628" vert-adv-y="1000"  />

      
      <glyph glyph-name="uni0156" unicode="&#x0156;" d="M183-199L215-125L195-125L212-49L273-49L257-125L217-199L183-199M24 0L175 710L460 710Q497 710 527 694.50Q557 679 577 653Q597 627 608 593.50Q619 560 619 525Q619 482 603 440.50Q587 399 560 365Q533 331 496.50 306.50Q460 282 419 274L526 0L447 0L345 262L149 262L93 0L24 0M381 324Q415 324 445.50 341Q476 358 498.50 385.50Q521 413 534 447.50Q547 482 547 517Q547 544 539.50 567.50Q532 591 518.50 609Q505 627 485.50 637.50Q466 648 443 648L231 648L162 324L381 324Z"  horiz-adv-x="628" vert-adv-y="1000"  />

      
      <glyph glyph-name="uni53" unicode="&#x53;" d="M241-6Q82-6-9 97L38 154Q65 113 121.50 84.50Q178 56 256 56Q347 56 400 93.50Q453 131 453 202Q453 228 441.50 246.50Q430 265 407.50 279.50Q385 294 353 304.50Q321 315 279 326Q236 337 202.50 349.50Q169 362 146 379Q123 396 111 419.50Q99 443 99 475Q99 531 121.50 575.50Q144 620 183 651Q222 682 274.50 698.50Q327 715 388 715Q455 715 504.50 693.50Q554 672 587 633L542 577Q522 611 478 632Q434 653 374 653Q322 653 284.50 641Q247 629 222.50 608Q198 587 186.50 558.50Q175 530 175 497Q175 473 185 456Q195 439 215 426.50Q235 414 265 404.50Q295 395 335 385Q379 374 415 361.50Q451 349 476.50 330.50Q502 312 516 286Q530 260 530 223Q530 166 507.50 123Q485 80 446 51.50Q407 23 354.50 8.50Q302-6 241-6Z"  horiz-adv-x="585" vert-adv-y="1000"  />

      
      <glyph glyph-name="uni015A" unicode="&#x015A;" d="M407 823L365 840L441 933L512 933L407 823M241-6Q82-6-9 97L38 154Q65 113 121.50 84.50Q178 56 256 56Q347 56 400 93.50Q453 131 453 202Q453 228 441.50 246.50Q430 265 407.50 279.50Q385 294 353 304.50Q321 315 279 326Q236 337 202.50 349.50Q169 362 146 379Q123 396 111 419.50Q99 443 99 475Q99 531 121.50 575.50Q144 620 183 651Q222 682 274.50 698.50Q327 715 388 715Q455 715 504.50 693.50Q554 672 587 633L542 577Q522 611 478 632Q434 653 374 653Q322 653 284.50 641Q247 629 222.50 608Q198 587 186.50 558.50Q175 530 175 497Q175 473 185 456Q195 439 215 426.50Q235 414 265 404.50Q295 395 335 385Q379 374 415 361.50Q451 349 476.50 330.50Q502 312 516 286Q530 260 530 223Q530 166 507.50 123Q485 80 446 51.50Q407 23 354.50 8.50Q302-6 241-6Z"  horiz-adv-x="585" vert-adv-y="1000"  />

      
      <glyph glyph-name="uni0160" unicode="&#x0160;" d="M305 913L348 933L415 870L509 933L543 913L431 827L381 827L305 913M241-6Q82-6-9 97L38 154Q65 113 121.50 84.50Q178 56 256 56Q347 56 400 93.50Q453 131 453 202Q453 228 441.50 246.50Q430 265 407.50 279.50Q385 294 353 304.50Q321 315 279 326Q236 337 202.50 349.50Q169 362 146 379Q123 396 111 419.50Q99 443 99 475Q99 531 121.50 575.50Q144 620 183 651Q222 682 274.50 698.50Q327 715 388 715Q455 715 504.50 693.50Q554 672 587 633L542 577Q522 611 478 632Q434 653 374 653Q322 653 284.50 641Q247 629 222.50 608Q198 587 186.50 558.50Q175 530 175 497Q175 473 185 456Q195 439 215 426.50Q235 414 265 404.50Q295 395 335 385Q379 374 415 361.50Q451 349 476.50 330.50Q502 312 516 286Q530 260 530 223Q530 166 507.50 123Q485 80 446 51.50Q407 23 354.50 8.50Q302-6 241-6Z"  horiz-adv-x="585" vert-adv-y="1000"  />

      
      <glyph glyph-name="uni015C" unicode="&#x015C;" d="M298 848L411 933L461 933L536 848L494 827L426 890L332 827L298 848M241-6Q82-6-9 97L38 154Q65 113 121.50 84.50Q178 56 256 56Q347 56 400 93.50Q453 131 453 202Q453 228 441.50 246.50Q430 265 407.50 279.50Q385 294 353 304.50Q321 315 279 326Q236 337 202.50 349.50Q169 362 146 379Q123 396 111 419.50Q99 443 99 475Q99 531 121.50 575.50Q144 620 183 651Q222 682 274.50 698.50Q327 715 388 715Q455 715 504.50 693.50Q554 672 587 633L542 577Q522 611 478 632Q434 653 374 653Q322 653 284.50 641Q247 629 222.50 608Q198 587 186.50 558.50Q175 530 175 497Q175 473 185 456Q195 439 215 426.50Q235 414 265 404.50Q295 395 335 385Q379 374 415 361.50Q451 349 476.50 330.50Q502 312 516 286Q530 260 530 223Q530 166 507.50 123Q485 80 446 51.50Q407 23 354.50 8.50Q302-6 241-6Z"  horiz-adv-x="585" vert-adv-y="1000"  />

      
      <glyph glyph-name="uni54" unicode="&#x54;" d="M328 648L90 648L103 710L650 710L637 648L398 648L260 0L191 0L328 648Z"  horiz-adv-x="582" vert-adv-y="1000"  />

      
      <glyph glyph-name="uni0166" unicode="&#x0166;" d="M86 405L294 405L346 648L107 648L120 710L667 710L654 648L415 648L363 405L571 405L563 366L354 366L277 0L208 0L286 366L78 366L86 405Z"  horiz-adv-x="617" vert-adv-y="1000"  />

      
      <glyph glyph-name="uni0164" unicode="&#x0164;" d="M291 897L334 917L401 854L495 917L529 897L417 811L367 811L291 897M328 648L90 648L103 710L650 710L637 648L398 648L260 0L191 0L328 648Z"  horiz-adv-x="582" vert-adv-y="1000"  />

      
      <glyph glyph-name="unide" unicode="&#xde;" d="M175 710L244 710L214 569L407 569Q444 569 473.50 553.50Q503 538 523.50 512Q544 486 554.50 453Q565 420 565 384Q565 336 545 289Q525 242 491.50 204.50Q458 167 413 144Q368 121 317 121L119 121L93 0L24 0L175 710M328 184Q362 184 392.50 201Q423 218 446 246Q469 274 482 308Q495 342 495 377Q495 404 487.50 427.50Q480 451 466 468.50Q452 486 433 496.50Q414 507 390 507L201 507L132 184L328 184Z"  horiz-adv-x="579" vert-adv-y="1000"  />

      
      <glyph glyph-name="uni55" unicode="&#x55;" d="M298-5Q236-5 193 13.50Q150 32 124 64Q98 96 86.50 138.50Q75 181 75 230Q75 287 89 352L165 710L234 710L158 352Q152 323 148.50 295.50Q145 268 145 242Q145 203 153.50 169.50Q162 136 181.50 111.50Q201 87 232.50 72.50Q264 58 310 58Q373 58 420.50 83.50Q468 109 501.50 150.50Q535 192 556 245Q577 298 588 352L664 710L733 710L658 352Q643 280 614 215Q585 150 540.50 101.50Q496 53 436 24Q376-5 298-5Z"  horiz-adv-x="724" vert-adv-y="1000"  />

      
      <glyph glyph-name="unida" unicode="&#xda;" d="M458 807L416 824L492 917L563 917L458 807M298-5Q236-5 193 13.50Q150 32 124 64Q98 96 86.50 138.50Q75 181 75 230Q75 287 89 352L165 710L234 710L158 352Q152 323 148.50 295.50Q145 268 145 242Q145 203 153.50 169.50Q162 136 181.50 111.50Q201 87 232.50 72.50Q264 58 310 58Q373 58 420.50 83.50Q468 109 501.50 150.50Q535 192 556 245Q577 298 588 352L664 710L733 710L658 352Q643 280 614 215Q585 150 540.50 101.50Q496 53 436 24Q376-5 298-5Z"  horiz-adv-x="724" vert-adv-y="1000"  />

      
      <glyph glyph-name="uni016C" unicode="&#x016C;" d="M298-5Q236-5 193 13.50Q150 32 124 64Q98 96 86.50 138.50Q75 181 75 230Q75 287 89 352L165 710L234 710L158 352Q152 323 148.50 295.50Q145 268 145 242Q145 203 153.50 169.50Q162 136 181.50 111.50Q201 87 232.50 72.50Q264 58 310 58Q373 58 420.50 83.50Q468 109 501.50 150.50Q535 192 556 245Q577 298 588 352L664 710L733 710L658 352Q643 280 614 215Q585 150 540.50 101.50Q496 53 436 24Q376-5 298-5M467 851Q487 851 507 870Q527 889 536 917L576 917Q571 896 560 877.50Q549 859 533.50 845.50Q518 832 499 824Q480 816 460 816Q425 816 404 838Q383 860 383 894Q383 905 386 917L428 917Q426 907 426 902Q426 881 437.50 866Q449 851 467 851Z"  horiz-adv-x="724" vert-adv-y="1000"  />

      
      <glyph glyph-name="unidb" unicode="&#xdb;" d="M352 832L465 917L515 917L590 832L548 811L480 874L386 811L352 832M298-5Q236-5 193 13.50Q150 32 124 64Q98 96 86.50 138.50Q75 181 75 230Q75 287 89 352L165 710L234 710L158 352Q152 323 148.50 295.50Q145 268 145 242Q145 203 153.50 169.50Q162 136 181.50 111.50Q201 87 232.50 72.50Q264 58 310 58Q373 58 420.50 83.50Q468 109 501.50 150.50Q535 192 556 245Q577 298 588 352L664 710L733 710L658 352Q643 280 614 215Q585 150 540.50 101.50Q496 53 436 24Q376-5 298-5Z"  horiz-adv-x="724" vert-adv-y="1000"  />

      
      <glyph glyph-name="unidc" unicode="&#xdc;" d="M365 820L386 914L444 914L423 820L365 820M509 820L529 914L586 914L567 820L509 820M298-5Q236-5 193 13.50Q150 32 124 64Q98 96 86.50 138.50Q75 181 75 230Q75 287 89 352L165 710L234 710L158 352Q152 323 148.50 295.50Q145 268 145 242Q145 203 153.50 169.50Q162 136 181.50 111.50Q201 87 232.50 72.50Q264 58 310 58Q373 58 420.50 83.50Q468 109 501.50 150.50Q535 192 556 245Q577 298 588 352L664 710L733 710L658 352Q643 280 614 215Q585 150 540.50 101.50Q496 53 436 24Q376-5 298-5Z"  horiz-adv-x="724" vert-adv-y="1000"  />

      
      <glyph glyph-name="unid9" unicode="&#xd9;" d="M298-5Q236-5 193 13.50Q150 32 124 64Q98 96 86.50 138.50Q75 181 75 230Q75 287 89 352L165 710L234 710L158 352Q152 323 148.50 295.50Q145 268 145 242Q145 203 153.50 169.50Q162 136 181.50 111.50Q201 87 232.50 72.50Q264 58 310 58Q373 58 420.50 83.50Q468 109 501.50 150.50Q535 192 556 245Q577 298 588 352L664 710L733 710L658 352Q643 280 614 215Q585 150 540.50 101.50Q496 53 436 24Q376-5 298-5M409 917L479 917L517 824L468 807L409 917Z"  horiz-adv-x="724" vert-adv-y="1000"  />

      
      <glyph glyph-name="uni0170" unicode="&#x0170;" d="M298-5Q236-5 193 13.50Q150 32 124 64Q98 96 86.50 138.50Q75 181 75 230Q75 287 89 352L165 710L234 710L158 352Q152 323 148.50 295.50Q145 268 145 242Q145 203 153.50 169.50Q162 136 181.50 111.50Q201 87 232.50 72.50Q264 58 310 58Q373 58 420.50 83.50Q468 109 501.50 150.50Q535 192 556 245Q577 298 588 352L664 710L733 710L658 352Q643 280 614 215Q585 150 540.50 101.50Q496 53 436 24Q376-5 298-5M390 807L357 824L430 917L493 917L390 807M511 807L479 824L552 917L614 917L511 807Z"  horiz-adv-x="724" vert-adv-y="1000"  />

      
      <glyph glyph-name="uni016A" unicode="&#x016A;" d="M298-5Q236-5 193 13.50Q150 32 124 64Q98 96 86.50 138.50Q75 181 75 230Q75 287 89 352L165 710L234 710L158 352Q152 323 148.50 295.50Q145 268 145 242Q145 203 153.50 169.50Q162 136 181.50 111.50Q201 87 232.50 72.50Q264 58 310 58Q373 58 420.50 83.50Q468 109 501.50 150.50Q535 192 556 245Q577 298 588 352L664 710L733 710L658 352Q643 280 614 215Q585 150 540.50 101.50Q496 53 436 24Q376-5 298-5M336 849L346 896L621 896L611 849L336 849Z"  horiz-adv-x="724" vert-adv-y="1000"  />

      
      <glyph glyph-name="uni0172" unicode="&#x0172;" d="M238-176Q208-169 193-153Q178-137 178-115Q178-87 199.50-61Q221-35 269-4Q215 0 178 20Q141 40 118 71.50Q95 103 85 143.50Q75 184 75 230Q75 287 89 352L165 710L234 710L158 352Q152 323 148.50 295.50Q145 268 145 242Q145 203 153.50 169.50Q162 136 181.50 111.50Q201 87 232.50 72.50Q264 58 310 58Q373 58 420.50 83.50Q468 109 501.50 150.50Q535 192 556 245Q577 298 588 352L664 710L733 710L658 352Q643 282 615.50 218.50Q588 155 545.50 106.50Q503 58 445.50 28.50Q388-1 315-4Q263-35 242.50-57Q222-79 222-102Q222-132 264-138L238-176L238-176Z"  horiz-adv-x="724" vert-adv-y="1000"  />

      
      <glyph glyph-name="uni016E" unicode="&#x016E;" d="M403 839Q403 874 429 895.50Q455 917 490 917Q517 917 532.50 902.50Q548 888 548 864Q548 830 523 808Q498 786 461 786Q434 786 418.50 800.50Q403 815 403 839M484 890Q466 890 451 877Q436 864 436 844Q436 831 444.50 822Q453 813 467 813Q484 813 500 826Q516 839 516 859Q516 873 507 881.50Q498 890 484 890M298-5Q236-5 193 13.50Q150 32 124 64Q98 96 86.50 138.50Q75 181 75 230Q75 287 89 352L165 710L234 710L158 352Q152 323 148.50 295.50Q145 268 145 242Q145 203 153.50 169.50Q162 136 181.50 111.50Q201 87 232.50 72.50Q264 58 310 58Q373 58 420.50 83.50Q468 109 501.50 150.50Q535 192 556 245Q577 298 588 352L664 710L733 710L658 352Q643 280 614 215Q585 150 540.50 101.50Q496 53 436 24Q376-5 298-5Z"  horiz-adv-x="724" vert-adv-y="1000"  />

      
      <glyph glyph-name="uni0168" unicode="&#x0168;" d="M298-5Q236-5 193 13.50Q150 32 124 64Q98 96 86.50 138.50Q75 181 75 230Q75 287 89 352L165 710L234 710L158 352Q152 323 148.50 295.50Q145 268 145 242Q145 203 153.50 169.50Q162 136 181.50 111.50Q201 87 232.50 72.50Q264 58 310 58Q373 58 420.50 83.50Q468 109 501.50 150.50Q535 192 556 245Q577 298 588 352L664 710L733 710L658 352Q643 280 614 215Q585 150 540.50 101.50Q496 53 436 24Q376-5 298-5M525 825Q504 825 489.50 831Q475 837 463 844.50Q451 852 439 858.50Q427 865 412 865Q397 865 386 858Q375 851 368.50 842.50Q362 834 358.50 826.50Q355 819 355 817L313 817Q314 822 321 837.50Q328 853 341 869Q354 885 374 897.50Q394 910 421 910Q441 910 454.50 903.50Q468 897 480 889Q492 881 504 874.50Q516 868 534 868Q552 868 564.50 875Q577 882 584 891Q591 900 594.50 907.50Q598 915 598 917L640 917Q639 912 632 897Q625 882 611 866Q597 850 576 837.50Q555 825 525 825Z"  horiz-adv-x="724" vert-adv-y="1000"  />

      
      <glyph glyph-name="uni56" unicode="&#x56;" d="M97 710L170 710L276 87L645 710L718 710L288 0L226 0L97 710Z"  horiz-adv-x="648" vert-adv-y="1000"  />

      
      <glyph glyph-name="uni57" unicode="&#x57;" d="M95 710L170 710L278 81L473 402L420 705L486 705L526 453L675 705L741 705L559 402L618 81L992 710L1069 710L632 0L572 0L506 351L290 0L229 0L95 710Z"  horiz-adv-x="997" vert-adv-y="1000"  />

      
      <glyph glyph-name="uni1E82" unicode="&#x1E82;" d="M589 807L547 824L623 917L694 917L589 807M95 710L170 710L278 81L473 402L420 705L486 705L526 453L675 705L741 705L559 402L618 81L992 710L1069 710L632 0L572 0L506 351L290 0L229 0L95 710Z"  horiz-adv-x="997" vert-adv-y="1000"  />

      
      <glyph glyph-name="uni0174" unicode="&#x0174;" d="M486 832L599 917L649 917L724 832L682 811L614 874L520 811L486 832M95 710L170 710L278 81L473 402L420 705L486 705L526 453L675 705L741 705L559 402L618 81L992 710L1069 710L632 0L572 0L506 351L290 0L229 0L95 710Z"  horiz-adv-x="997" vert-adv-y="1000"  />

      
      <glyph glyph-name="uni1E84" unicode="&#x1E84;" d="M493 820L514 914L572 914L551 820L493 820M637 820L657 914L714 914L695 820L637 820M95 710L170 710L278 81L473 402L420 705L486 705L526 453L675 705L741 705L559 402L618 81L992 710L1069 710L632 0L572 0L506 351L290 0L229 0L95 710Z"  horiz-adv-x="997" vert-adv-y="1000"  />

      
      <glyph glyph-name="uni1E80" unicode="&#x1E80;" d="M95 710L170 710L278 81L473 402L420 705L486 705L526 453L675 705L741 705L559 402L618 81L992 710L1069 710L632 0L572 0L506 351L290 0L229 0L95 710M528 917L598 917L636 824L587 807L528 917Z"  horiz-adv-x="997" vert-adv-y="1000"  />

      
      <glyph glyph-name="uni58" unicode="&#x58;" d="M274 350L92 710L171 710L324 400L608 710L685 710L350 350L526 0L449 0L302 300L28 0L-51 0L274 350Z"  horiz-adv-x="604" vert-adv-y="1000"  />

      
      <glyph glyph-name="uni59" unicode="&#x59;" d="M257 266L91 710L168 710L305 328L605 710L681 710L325 264L269 0L200 0L257 266Z"  horiz-adv-x="607" vert-adv-y="1000"  />

      
      <glyph glyph-name="unidd" unicode="&#xdd;" d="M257 266L91 710L168 710L305 328L605 710L681 710L325 264L269 0L200 0L257 266M395 807L353 824L429 917L500 917L395 807Z"  horiz-adv-x="607" vert-adv-y="1000"  />

      
      <glyph glyph-name="uni0176" unicode="&#x0176;" d="M257 266L91 710L168 710L305 328L605 710L681 710L325 264L269 0L200 0L257 266M285 832L398 917L448 917L523 832L481 811L413 874L319 811L285 832Z"  horiz-adv-x="607" vert-adv-y="1000"  />

      
      <glyph glyph-name="uni0178" unicode="&#x0178;" d="M257 266L91 710L168 710L305 328L605 710L681 710L325 264L269 0L200 0L257 266M305 820L326 914L384 914L363 820L305 820M449 820L469 914L526 914L507 820L449 820Z"  horiz-adv-x="607" vert-adv-y="1000"  />

      
      <glyph glyph-name="uni1EF2" unicode="&#x1EF2;" d="M257 266L91 710L168 710L305 328L605 710L681 710L325 264L269 0L200 0L257 266M339 917L409 917L447 824L398 807L339 917Z"  horiz-adv-x="607" vert-adv-y="1000"  />

      
      <glyph glyph-name="uni1EF8" unicode="&#x1EF8;" d="M257 266L91 710L168 710L305 328L605 710L681 710L325 264L269 0L200 0L257 266M454 825Q433 825 418.50 831Q404 837 392 844.50Q380 852 368 858.50Q356 865 341 865Q326 865 315 858Q304 851 297.50 842.50Q291 834 287.50 826.50Q284 819 284 817L242 817Q243 822 250 837.50Q257 853 270 869Q283 885 303 897.50Q323 910 350 910Q370 910 383.50 903.50Q397 897 409 889Q421 881 433 874.50Q445 868 463 868Q481 868 493.50 875Q506 882 513 891Q520 900 523.50 907.50Q527 915 527 917L569 917Q568 912 561 897Q554 882 540 866Q526 850 505 837.50Q484 825 454 825Z"  horiz-adv-x="607" vert-adv-y="1000"  />

      
      <glyph glyph-name="uni5a" unicode="&#x5a;" d="M-24 55L556 648L110 648L123 710L651 710L639 655L65 62L512 62L499 0L-36 0L-24 55Z"  horiz-adv-x="596" vert-adv-y="1000"  />

      
      <glyph glyph-name="uni0179" unicode="&#x0179;" d="M390 807L348 824L424 917L495 917L390 807M-24 55L556 648L110 648L123 710L651 710L639 655L65 62L512 62L499 0L-36 0L-24 55Z"  horiz-adv-x="596" vert-adv-y="1000"  />

      
      <glyph glyph-name="uni017D" unicode="&#x017D;" d="M296 897L339 917L406 854L500 917L534 897L422 811L372 811L296 897M-24 55L556 648L110 648L123 710L651 710L639 655L65 62L512 62L499 0L-36 0L-24 55Z"  horiz-adv-x="596" vert-adv-y="1000"  />

      
      <glyph glyph-name="uni017B" unicode="&#x017B;" d="M-24 55L556 648L110 648L123 710L651 710L639 655L65 62L512 62L499 0L-36 0L-24 55M370 820L391 917L453 917L432 820L370 820Z"  horiz-adv-x="596" vert-adv-y="1000"  />

      
      <glyph glyph-name="uni61" unicode="&#x61;" d="M210-10Q166-10 132 7.50Q98 25 74 55Q50 85 37.50 124.50Q25 164 25 208Q25 270 49 328Q73 386 113 431Q153 476 205 503Q257 530 314 530Q377 530 418 495.50Q459 461 476 412L500 521L568 521L476 89Q474 81 474 76Q474 60 493 60L480 0Q472-1 465-2Q458-3 453-3Q430-1 418.50 9.50Q407 20 407 37Q407 45 409.50 58Q412 71 418 101Q378 50 321.50 20Q265-10 210-10M238 50Q263 50 292 60Q321 70 347.50 87.50Q374 105 395.50 128.50Q417 152 427 179L460 340Q457 367 444 390.50Q431 414 412 431.50Q393 449 369 459.50Q345 470 319 470Q274 470 233.50 447.50Q193 425 162.50 389Q132 353 114 308Q96 263 96 218Q96 183 106 152.50Q116 122 135 99.50Q154 77 180 63.50Q206 50 238 50Z"  horiz-adv-x="598" vert-adv-y="1000"  />

      
      <glyph glyph-name="unie1" unicode="&#xe1;" d="M210-10Q166-10 132 7.50Q98 25 74 55Q50 85 37.50 124.50Q25 164 25 208Q25 270 49 328Q73 386 113 431Q153 476 205 503Q257 530 314 530Q377 530 418 495.50Q459 461 476 412L500 521L568 521L476 89Q474 81 474 76Q474 60 493 60L480 0Q472-1 465-2Q458-3 453-3Q430-1 418.50 9.50Q407 20 407 37Q407 45 409.50 58Q412 71 418 101Q378 50 321.50 20Q265-10 210-10M238 50Q263 50 292 60Q321 70 347.50 87.50Q374 105 395.50 128.50Q417 152 427 179L460 340Q457 367 444 390.50Q431 414 412 431.50Q393 449 369 459.50Q345 470 319 470Q274 470 233.50 447.50Q193 425 162.50 389Q132 353 114 308Q96 263 96 218Q96 183 106 152.50Q116 122 135 99.50Q154 77 180 63.50Q206 50 238 50M350 620L308 637L384 730L455 730L350 620Z"  horiz-adv-x="598" vert-adv-y="1000"  />

      
      <glyph glyph-name="uni0103" unicode="&#x0103;" d="M210-10Q166-10 132 7.50Q98 25 74 55Q50 85 37.50 124.50Q25 164 25 208Q25 270 49 328Q73 386 113 431Q153 476 205 503Q257 530 314 530Q377 530 418 495.50Q459 461 476 412L500 521L568 521L476 89Q474 81 474 76Q474 60 493 60L480 0Q472-1 465-2Q458-3 453-3Q430-1 418.50 9.50Q407 20 407 37Q407 45 409.50 58Q412 71 418 101Q378 50 321.50 20Q265-10 210-10M238 50Q263 50 292 60Q321 70 347.50 87.50Q374 105 395.50 128.50Q417 152 427 179L460 340Q457 367 444 390.50Q431 414 412 431.50Q393 449 369 459.50Q345 470 319 470Q274 470 233.50 447.50Q193 425 162.50 389Q132 353 114 308Q96 263 96 218Q96 183 106 152.50Q116 122 135 99.50Q154 77 180 63.50Q206 50 238 50M352 664Q372 664 392 683Q412 702 421 730L461 730Q456 709 445 690.50Q434 672 418.50 658.50Q403 645 384 637Q365 629 345 629Q310 629 289 651Q268 673 268 707Q268 718 271 730L313 730Q311 720 311 715Q311 694 322.50 679Q334 664 352 664Z"  horiz-adv-x="598" vert-adv-y="1000"  />

      
      <glyph glyph-name="unie2" unicode="&#xe2;" d="M210-10Q166-10 132 7.50Q98 25 74 55Q50 85 37.50 124.50Q25 164 25 208Q25 270 49 328Q73 386 113 431Q153 476 205 503Q257 530 314 530Q377 530 418 495.50Q459 461 476 412L500 521L568 521L476 89Q474 81 474 76Q474 60 493 60L480 0Q472-1 465-2Q458-3 453-3Q430-1 418.50 9.50Q407 20 407 37Q407 45 409.50 58Q412 71 418 101Q378 50 321.50 20Q265-10 210-10M238 50Q263 50 292 60Q321 70 347.50 87.50Q374 105 395.50 128.50Q417 152 427 179L460 340Q457 367 444 390.50Q431 414 412 431.50Q393 449 369 459.50Q345 470 319 470Q274 470 233.50 447.50Q193 425 162.50 389Q132 353 114 308Q96 263 96 218Q96 183 106 152.50Q116 122 135 99.50Q154 77 180 63.50Q206 50 238 50M236 645L349 730L399 730L474 645L432 624L364 687L270 624L236 645Z"  horiz-adv-x="598" vert-adv-y="1000"  />

      
      <glyph glyph-name="unie4" unicode="&#xe4;" d="M210-10Q166-10 132 7.50Q98 25 74 55Q50 85 37.50 124.50Q25 164 25 208Q25 270 49 328Q73 386 113 431Q153 476 205 503Q257 530 314 530Q377 530 418 495.50Q459 461 476 412L500 521L568 521L476 89Q474 81 474 76Q474 60 493 60L480 0Q472-1 465-2Q458-3 453-3Q430-1 418.50 9.50Q407 20 407 37Q407 45 409.50 58Q412 71 418 101Q378 50 321.50 20Q265-10 210-10M238 50Q263 50 292 60Q321 70 347.50 87.50Q374 105 395.50 128.50Q417 152 427 179L460 340Q457 367 444 390.50Q431 414 412 431.50Q393 449 369 459.50Q345 470 319 470Q274 470 233.50 447.50Q193 425 162.50 389Q132 353 114 308Q96 263 96 218Q96 183 106 152.50Q116 122 135 99.50Q154 77 180 63.50Q206 50 238 50M250 633L271 727L329 727L308 633L250 633M394 633L414 727L471 727L452 633L394 633Z"  horiz-adv-x="598" vert-adv-y="1000"  />

      
      <glyph glyph-name="unie6" unicode="&#xe6;" d="M134-10Q101-10 75.50 0.50Q50 11 32 29Q14 47 5 71Q-4 95-4 123Q-4 164 15 198Q34 232 67 257Q100 282 144.50 295.50Q189 309 240 309Q273 309 304.50 303.50Q336 298 362 289Q370 315 380 335.50Q390 356 394 380Q394 423 365.50 451Q337 479 283 479Q245 479 202 463Q159 447 111 417L98 462Q154 496 203.50 513Q253 530 301 530Q361 530 399 503Q437 476 448 426Q490 473 544.50 501.50Q599 530 660 530Q706 530 742.50 513.50Q779 497 804.50 468Q830 439 844 400Q858 361 858 316Q858 284 852.50 264.50Q847 245 843 236L416 236Q415 228 414.50 219.50Q414 211 414 202Q414 167 424.50 137.50Q435 108 454.50 87Q474 66 501 54Q528 42 561 42Q585 42 610 49Q635 56 657.50 68Q680 80 699 97.50Q718 115 731 136L787 120Q769 91 743 67.50Q717 44 685.50 26.50Q654 9 619-0.50Q584-10 548-10Q482-10 435.50 21.50Q389 53 367 105Q344 74 314 52Q284 30 252 16.50Q220 3 189-3.50Q158-10 134-10M161 42Q188 42 218 50.50Q248 59 275.50 74Q303 89 323.50 108.50Q344 128 352 150Q348 166 348 191Q348 205 349.50 219.50Q351 234 353 246Q328 256 299 261Q270 266 242 266Q203 266 170.50 256.50Q138 247 114 230Q90 213 76.50 189Q63 165 63 136Q63 98 87 70Q111 42 161 42M789 282Q791 292 791.50 302.50Q792 313 792 322Q792 389 754.50 433Q717 477 648 477Q610 477 575 462.50Q540 448 510.50 422Q481 396 458.50 360Q436 324 425 282L789 282Z"  horiz-adv-x="887" vert-adv-y="1000"  />

      
      <glyph glyph-name="uni01FD" unicode="&#x01FD;" d="M501 620L459 637L535 730L606 730L501 620M133-10Q100-10 74.50 0.50Q49 11 31 29Q13 47 4 71Q-5 95-5 123Q-5 164 14 198Q33 232 66 257Q99 282 143.50 295.50Q188 309 239 309Q272 309 303.50 303.50Q335 298 361 289Q369 315 379 335.50Q389 356 393 380Q393 423 364.50 451Q336 479 282 479Q244 479 201 463Q158 447 110 417L97 462Q153 496 202.50 513Q252 530 300 530Q360 530 398 503Q436 476 447 426Q489 473 543.50 501.50Q598 530 659 530Q705 530 741.50 513.50Q778 497 803.50 468Q829 439 843 400Q857 361 857 316Q857 284 851.50 264.50Q846 245 842 236L415 236Q414 228 413.50 219.50Q413 211 413 202Q413 167 423.50 137.50Q434 108 453.50 87Q473 66 500 54Q527 42 560 42Q584 42 609 49Q634 56 656.50 68Q679 80 698 97.50Q717 115 730 136L786 120Q768 91 742 67.50Q716 44 684.50 26.50Q653 9 618-0.50Q583-10 547-10Q481-10 434.50 21.50Q388 53 366 105Q343 74 313 52Q283 30 251 16.50Q219 3 188-3.50Q157-10 133-10M160 42Q187 42 217 50.50Q247 59 274.50 74Q302 89 322.50 108.50Q343 128 351 150Q347 166 347 191Q347 205 348.50 219.50Q350 234 352 246Q327 256 298 261Q269 266 241 266Q202 266 169.50 256.50Q137 247 113 230Q89 213 75.50 189Q62 165 62 136Q62 98 86 70Q110 42 160 42M788 282Q790 292 790.50 302.50Q791 313 791 322Q791 389 753.50 433Q716 477 647 477Q609 477 574 462.50Q539 448 509.50 422Q480 396 457.50 360Q435 324 424 282L788 282Z"  horiz-adv-x="885" vert-adv-y="1000"  />

      
      <glyph glyph-name="unie0" unicode="&#xe0;" d="M210-10Q166-10 132 7.50Q98 25 74 55Q50 85 37.50 124.50Q25 164 25 208Q25 270 49 328Q73 386 113 431Q153 476 205 503Q257 530 314 530Q377 530 418 495.50Q459 461 476 412L500 521L568 521L476 89Q474 81 474 76Q474 60 493 60L480 0Q472-1 465-2Q458-3 453-3Q430-1 418.50 9.50Q407 20 407 37Q407 45 409.50 58Q412 71 418 101Q378 50 321.50 20Q265-10 210-10M238 50Q263 50 292 60Q321 70 347.50 87.50Q374 105 395.50 128.50Q417 152 427 179L460 340Q457 367 444 390.50Q431 414 412 431.50Q393 449 369 459.50Q345 470 319 470Q274 470 233.50 447.50Q193 425 162.50 389Q132 353 114 308Q96 263 96 218Q96 183 106 152.50Q116 122 135 99.50Q154 77 180 63.50Q206 50 238 50M281 730L351 730L389 637L340 620L281 730Z"  horiz-adv-x="598" vert-adv-y="1000"  />

      
      <glyph glyph-name="uni0101" unicode="&#x0101;" d="M210-10Q166-10 132 7.50Q98 25 74 55Q50 85 37.50 124.50Q25 164 25 208Q25 270 49 328Q73 386 113 431Q153 476 205 503Q257 530 314 530Q377 530 418 495.50Q459 461 476 412L500 521L568 521L476 89Q474 81 474 76Q474 60 493 60L480 0Q472-1 465-2Q458-3 453-3Q430-1 418.50 9.50Q407 20 407 37Q407 45 409.50 58Q412 71 418 101Q378 50 321.50 20Q265-10 210-10M238 50Q263 50 292 60Q321 70 347.50 87.50Q374 105 395.50 128.50Q417 152 427 179L460 340Q457 367 444 390.50Q431 414 412 431.50Q393 449 369 459.50Q345 470 319 470Q274 470 233.50 447.50Q193 425 162.50 389Q132 353 114 308Q96 263 96 218Q96 183 106 152.50Q116 122 135 99.50Q154 77 180 63.50Q206 50 238 50M229 662L239 709L514 709L504 662L229 662Z"  horiz-adv-x="598" vert-adv-y="1000"  />

      
      <glyph glyph-name="uni26" unicode="&#x26;" d="M408 104Q359 50 302 20Q245-10 185-10Q148-10 117.50 2.50Q87 15 65 36.50Q43 58 30.50 88.50Q18 119 18 155Q18 195 32.50 229.50Q47 264 72 293.50Q97 323 131.50 349Q166 375 207 400Q177 446 164 478.50Q151 511 151 540Q151 577 168 609.50Q185 642 213.50 666.50Q242 691 279.50 705Q317 719 358 719Q412 719 454 691Q496 663 517 614L470 572Q454 614 421.50 640Q389 666 347 666Q321 666 297 656.50Q273 647 255 631Q237 615 226 594Q215 573 215 550Q215 527 228 496.50Q241 466 276 415L420 209Q446 253 464.50 305Q483 357 494 416L654 416L642 361L543 361Q527 304 504.50 253.50Q482 203 453 161L566 0L480 0L408 104M199 46Q247 46 292.50 73.50Q338 101 378 149L236 356Q166 312 125.50 266.50Q85 221 85 163Q85 108 117.50 77Q150 46 199 46Z"  horiz-adv-x="671" vert-adv-y="1000"  />

      
      <glyph glyph-name="uni0105" unicode="&#x0105;" d="M397-175Q367-168 352-152Q337-136 337-114Q337-85 360-58Q383-31 434 1Q407 10 407 37Q407 45 409.50 58Q412 71 418 101Q378 50 321.50 20Q265-10 210-10Q166-10 132 7.50Q98 25 74 55Q50 85 37.50 124.50Q25 164 25 208Q25 270 49 328Q73 386 113 431Q153 476 205 503Q257 530 314 530Q377 530 418 495.50Q459 461 476 412L500 521L568 521L476 89Q474 81 474 76Q474 60 493 60L480 0Q425-32 403-55Q381-78 381-101Q381-131 423-137L397-175M238 50Q263 50 292 60Q321 70 347.50 87.50Q374 105 395.50 128.50Q417 152 427 179L460 340Q457 367 444 390.50Q431 414 412 431.50Q393 449 369 459.50Q345 470 319 470Q274 470 233.50 447.50Q193 425 162.50 389Q132 353 114 308Q96 263 96 218Q96 183 106 152.50Q116 122 135 99.50Q154 77 180 63.50Q206 50 238 50Z"  horiz-adv-x="598" vert-adv-y="1000"  />

      
      <glyph glyph-name="uni02BC" unicode="&#x02BC;" d="M282 637L330 696L336 730L429 730L323 620L282 637Z"  horiz-adv-x="536" vert-adv-y="1000"  />

      
      <glyph glyph-name="unie5" unicode="&#xe5;" d="M210-10Q166-10 132 7.50Q98 25 74 55Q50 85 37.50 124.50Q25 164 25 208Q25 270 49 328Q73 386 113 431Q153 476 205 503Q257 530 314 530Q377 530 418 495.50Q459 461 476 412L500 521L568 521L476 89Q474 81 474 76Q474 60 493 60L480 0Q472-1 465-2Q458-3 453-3Q430-1 418.50 9.50Q407 20 407 37Q407 45 409.50 58Q412 71 418 101Q378 50 321.50 20Q265-10 210-10M238 50Q263 50 292 60Q321 70 347.50 87.50Q374 105 395.50 128.50Q417 152 427 179L460 340Q457 367 444 390.50Q431 414 412 431.50Q393 449 369 459.50Q345 470 319 470Q274 470 233.50 447.50Q193 425 162.50 389Q132 353 114 308Q96 263 96 218Q96 183 106 152.50Q116 122 135 99.50Q154 77 180 63.50Q206 50 238 50M283 652Q283 687 309 708.50Q335 730 370 730Q397 730 412.50 715.50Q428 701 428 677Q428 643 403 621Q378 599 341 599Q314 599 298.50 613.50Q283 628 283 652M364 703Q346 703 331 690Q316 677 316 657Q316 644 324.50 635Q333 626 347 626Q364 626 380 639Q396 652 396 672Q396 686 387 694.50Q378 703 364 703Z"  horiz-adv-x="598" vert-adv-y="1000"  />

      
      <glyph glyph-name="uni01FB" unicode="&#x01FB;" d="M210-10Q166-10 132 7.50Q98 25 74 55Q50 85 37.50 124.50Q25 164 25 208Q25 270 49 328Q73 386 113 431Q153 476 205 503Q257 530 314 530Q377 530 418 495.50Q459 461 476 412L500 521L568 521L476 89Q474 81 474 76Q474 60 493 60L480 0Q472-1 465-2Q458-3 453-3Q430-1 418.50 9.50Q407 20 407 37Q407 45 409.50 58Q412 71 418 101Q378 50 321.50 20Q265-10 210-10M238 50Q263 50 292 60Q321 70 347.50 87.50Q374 105 395.50 128.50Q417 152 427 179L460 340Q457 367 444 390.50Q431 414 412 431.50Q393 449 369 459.50Q345 470 319 470Q274 470 233.50 447.50Q193 425 162.50 389Q132 353 114 308Q96 263 96 218Q96 183 106 152.50Q116 122 135 99.50Q154 77 180 63.50Q206 50 238 50M377 770L335 787L411 880L482 880L377 770M283 652Q283 687 309 708.50Q335 730 370 730Q397 730 412.50 715.50Q428 701 428 677Q428 643 403 621Q378 599 341 599Q314 599 298.50 613.50Q283 628 283 652M364 703Q346 703 331 690Q316 677 316 657Q316 644 324.50 635Q333 626 347 626Q364 626 380 639Q396 652 396 672Q396 686 387 694.50Q378 703 364 703Z"  horiz-adv-x="598" vert-adv-y="1000"  />

      
      <glyph glyph-name="uni5e" unicode="&#x5e;" d="M52 303L250 710L308 710L505 303L445 303L279 646L110 303L52 303Z"  horiz-adv-x="541" vert-adv-y="1000"  />

      
      <glyph glyph-name="uni7e" unicode="&#x7e;" d="M51 241Q52 246 60.50 262.50Q69 279 84 297Q99 315 121 329.50Q143 344 172 344Q194 344 212.50 335Q231 326 248 315Q265 304 282 295Q299 286 319 286Q338 286 352 293.50Q366 301 375.50 310Q385 319 389.50 327.50Q394 336 394 338L436 338Q436 336 428 320.50Q420 305 404 287.50Q388 270 364.50 255.50Q341 241 310 241Q286 241 267 250Q248 259 231 270Q214 281 198 290Q182 299 164 299Q147 299 134 290Q121 281 112 270.50Q103 260 98.50 251Q94 242 94 241L51 241L51 241Z"  horiz-adv-x="492" vert-adv-y="1000"  />

      
      <glyph glyph-name="uni2a" unicode="&#x2a;" d="M135 546L189 608L129 630L147 666L208 640L221 713L262 713L244 640L317 666L319 630L249 608L278 546L242 524L216 589L161 524L135 546Z"  horiz-adv-x="313" vert-adv-y="1000"  />

      
      <glyph glyph-name="uni40" unicode="&#x40;" d="M560 21Q592 21 619 49Q646 77 665.50 119Q685 161 695.50 210Q706 259 706 301Q706 354 689 402.50Q672 451 639.50 488Q607 525 559.50 547Q512 569 451 569Q377 569 307 537Q237 505 182 449.50Q127 394 93.50 320Q60 246 60 162Q60 103 77.50 53Q95 3 127-33.50Q159-70 205.50-91Q252-112 309-112Q349-112 385.50-102Q422-92 461-74L466-106Q424-126 381.50-136Q339-146 299-146Q239-146 188.50-123.50Q138-101 101.50-60.50Q65-20 45 36Q25 92 25 159Q25 222 43 279.50Q61 337 91.50 386.50Q122 436 164 476Q206 516 254.50 544Q303 572 355 587.50Q407 603 459 603Q525 603 577 579.50Q629 556 665.50 515.50Q702 475 721.50 422Q741 369 741 311Q741 268 730 211.50Q719 155 695.50 104.50Q672 54 635.50 19Q599-16 548-16Q519-16 502-1.50Q485 13 485 48Q485 54 485 61Q485 68 487 76Q454 44 410 23.50Q366 3 321 3Q286 3 257.50 17Q229 31 209 55.50Q189 80 178.50 112.50Q168 145 168 183Q168 236 188 285.50Q208 335 241.50 372.50Q275 410 318.50 432.50Q362 455 409 455Q460 455 494 429.50Q528 404 543 362L561 450L606 450L531 99Q528 85 527 75.50Q526 66 526 60Q526 21 560 21M341 44Q365 44 389.50 53Q414 62 436 77.50Q458 93 474.50 113Q491 133 500 156L529 310Q514 363 481.50 388Q449 413 407 413Q372 413 338 395.50Q304 378 277 348.50Q250 319 233 279.50Q216 240 216 195Q216 162 225.50 134.50Q235 107 252 86.50Q269 66 291.50 55Q314 44 341 44Z"  horiz-adv-x="803" vert-adv-y="1000"  />

      
      <glyph glyph-name="unie3" unicode="&#xe3;" d="M210-10Q166-10 132 7.50Q98 25 74 55Q50 85 37.50 124.50Q25 164 25 208Q25 270 49 328Q73 386 113 431Q153 476 205 503Q257 530 314 530Q377 530 418 495.50Q459 461 476 412L500 521L568 521L476 89Q474 81 474 76Q474 60 493 60L480 0Q472-1 465-2Q458-3 453-3Q430-1 418.50 9.50Q407 20 407 37Q407 45 409.50 58Q412 71 418 101Q378 50 321.50 20Q265-10 210-10M238 50Q263 50 292 60Q321 70 347.50 87.50Q374 105 395.50 128.50Q417 152 427 179L460 340Q457 367 444 390.50Q431 414 412 431.50Q393 449 369 459.50Q345 470 319 470Q274 470 233.50 447.50Q193 425 162.50 389Q132 353 114 308Q96 263 96 218Q96 183 106 152.50Q116 122 135 99.50Q154 77 180 63.50Q206 50 238 50M406 638Q385 638 370.50 644Q356 650 344 657.50Q332 665 320 671.50Q308 678 293 678Q278 678 267 671Q256 664 249.50 655.50Q243 647 239.50 639.50Q236 632 236 630L194 630Q195 635 202 650.50Q209 666 222 682Q235 698 255 710.50Q275 723 302 723Q322 723 335.50 716.50Q349 710 361 702Q373 694 385 687.50Q397 681 415 681Q433 681 445.50 688Q458 695 465 704Q472 713 475.50 720.50Q479 728 479 730L521 730Q520 725 513 710Q506 695 492 679Q478 663 457 650.50Q436 638 406 638Z"  horiz-adv-x="598" vert-adv-y="1000"  />

      
      <glyph glyph-name="uni62" unicode="&#x62;" d="M254-10Q191-10 149.50 21.50Q108 53 91 101L69 0L9 0L164 730L232 730L164 412Q209 465 262 497.50Q315 530 375 530Q419 530 452 512Q485 494 507 464.50Q529 435 540 396.50Q551 358 551 317Q551 252 525.50 192.50Q500 133 458.50 88Q417 43 363.50 16.50Q310-10 254-10M252 50Q295 50 336 71.50Q377 93 409 128.50Q441 164 460 210Q479 256 479 305Q479 337 470 367Q461 397 444 420Q427 443 401.50 456.50Q376 470 343 470Q315 470 288 459.50Q261 449 236.50 432Q212 415 190 391.50Q168 368 149 343L113 170Q114 144 126 122Q138 100 156.50 84Q175 68 200 59Q225 50 252 50Z"  horiz-adv-x="592" vert-adv-y="1000"  />

      
      <glyph glyph-name="uni5c" unicode="&#x5c;" d="M184 710L446 0L370 0L107 710L184 710Z"  horiz-adv-x="534" vert-adv-y="1000"  />

      
      <glyph glyph-name="uni7c" unicode="&#x7c;" d="M119-130L119 775L179 775L179-130L119-130Z"  horiz-adv-x="288" vert-adv-y="1000"  />

      
      <glyph glyph-name="uni7b" unicode="&#x7b;" d="M233 683L177 422Q175 410 165.50 392Q156 374 138 360Q146 351 149 339Q152 327 152 315Q152 310 152 306Q152 302 151 298L93 26L145 26L133-31L40-31Q34-31 29-27Q24-23 24-12Q24-5 25-1L85 280Q86 285 86 296Q86 311 79.50 322Q73 333 59 335L70 387Q80 387 88.50 393Q97 399 103.50 407Q110 415 114 424.50Q118 434 119 440L176 710Q180 729 189.50 734.50Q199 740 204 740L297 740L285 683L233 683Z"  horiz-adv-x="251" vert-adv-y="1000"  />

      
      <glyph glyph-name="uni7d" unicode="&#x7d;" d="M129 683L140 740L233 740Q237 740 243.50 736Q250 732 250 719Q250 713 249 710L191 440Q189 432 189 427Q189 413 195 400Q201 387 217 387L206 335Q187 333 174 316.50Q161 300 157 280L98-1Q94-18 85-24.50Q76-31 69-31L-24-31L-12 26L41 26L99 298Q101 309 110.50 327.50Q120 346 137 360Q129 370 126 381.50Q123 393 123 404Q123 412 125 422L181 683L129 683Z"  horiz-adv-x="250" vert-adv-y="1000"  />

      
      <glyph glyph-name="uni5b" unicode="&#x5b;" d="M14-40L180 740L296 740L284 683L231 683L89 17L143 17L131-40L14-40Z"  horiz-adv-x="251" vert-adv-y="1000"  />

      
      <glyph glyph-name="uni5d" unicode="&#x5d;" d="M-25-40L-13 17L40 17L182 683L129 683L141 740L257 740L92-40L-25-40Z"  horiz-adv-x="250" vert-adv-y="1000"  />

      
      <glyph glyph-name="unia6" unicode="&#xa6;" d="M176 277L176-130L116-130L116 277L176 277M176 775L176 368L116 368L116 775L176 775Z"  horiz-adv-x="282" vert-adv-y="1000"  />

      
      <glyph glyph-name="uni2022" unicode="&#x2022;" d="M266 361Q266 340 257 321Q248 302 233 287.50Q218 273 198.50 264.50Q179 256 159 256Q129 256 110 277Q91 298 91 330Q91 351 100 370Q109 389 124 403.50Q139 418 158 426.50Q177 435 197 435Q229 435 247.50 413.50Q266 392 266 361Z"  horiz-adv-x="341" vert-adv-y="1000"  />

      
      <glyph glyph-name="uni63" unicode="&#x63;" d="M223-10Q177-10 140 7.50Q103 25 77.50 55Q52 85 38.50 125Q25 165 25 210Q25 273 50 331Q75 389 117.50 433.50Q160 478 216.50 504Q273 530 337 530Q408 530 453.50 496.50Q499 463 513 406L443 385Q431 425 399 447.50Q367 470 322 470Q278 470 237.50 450Q197 430 165 396Q133 362 114 316Q95 270 95 219Q95 183 105 152.50Q115 122 133 99Q151 76 176.50 63Q202 50 233 50Q257 50 281.50 57Q306 64 328 76.50Q350 89 367.50 105Q385 121 394 139L457 119Q441 91 416 67.50Q391 44 360 26.50Q329 9 294-0.50Q259-10 223-10Z"  horiz-adv-x="526" vert-adv-y="1000"  />

      
      <glyph glyph-name="uni0107" unicode="&#x0107;" d="M338 620L296 637L372 730L443 730L338 620M223-10Q177-10 140 7.50Q103 25 77.50 55Q52 85 38.50 125Q25 165 25 210Q25 273 50 331Q75 389 117.50 433.50Q160 478 216.50 504Q273 530 337 530Q408 530 453.50 496.50Q499 463 513 406L443 385Q431 425 399 447.50Q367 470 322 470Q278 470 237.50 450Q197 430 165 396Q133 362 114 316Q95 270 95 219Q95 183 105 152.50Q115 122 133 99Q151 76 176.50 63Q202 50 233 50Q257 50 281.50 57Q306 64 328 76.50Q350 89 367.50 105Q385 121 394 139L457 119Q441 91 416 67.50Q391 44 360 26.50Q329 9 294-0.50Q259-10 223-10Z"  horiz-adv-x="526" vert-adv-y="1000"  />

      
      <glyph glyph-name="uni010D" unicode="&#x010D;" d="M251 710L294 730L361 667L455 730L489 710L377 624L327 624L251 710M223-10Q177-10 140 7.50Q103 25 77.50 55Q52 85 38.50 125Q25 165 25 210Q25 273 50 331Q75 389 117.50 433.50Q160 478 216.50 504Q273 530 337 530Q408 530 453.50 496.50Q499 463 513 406L443 385Q431 425 399 447.50Q367 470 322 470Q278 470 237.50 450Q197 430 165 396Q133 362 114 316Q95 270 95 219Q95 183 105 152.50Q115 122 133 99Q151 76 176.50 63Q202 50 233 50Q257 50 281.50 57Q306 64 328 76.50Q350 89 367.50 105Q385 121 394 139L457 119Q441 91 416 67.50Q391 44 360 26.50Q329 9 294-0.50Q259-10 223-10Z"  horiz-adv-x="526" vert-adv-y="1000"  />

      
      <glyph glyph-name="unie7" unicode="&#xe7;" d="M119-126Q130-133 151.50-138.50Q173-144 198-144Q262-144 262-101Q262-85 250.50-79Q239-73 221-73Q201-73 178-77.50Q155-82 141-87L197-8Q156-4 124.50 15Q93 34 70.50 63Q48 92 36.50 130Q25 168 25 210Q25 273 50 331Q75 389 117.50 433.50Q160 478 216.50 504Q273 530 337 530Q408 530 453.50 496.50Q499 463 513 406L443 385Q431 425 399 447.50Q367 470 322 470Q278 470 237.50 450Q197 430 165 396Q133 362 114 316Q95 270 95 219Q95 183 105 152.50Q115 122 133 99Q151 76 176.50 63Q202 50 233 50Q257 50 281.50 57Q306 64 328 76.50Q350 89 367.50 105Q385 121 394 139L457 119Q441 92 417.50 69Q394 46 365 29.50Q336 13 303 2.50Q270-8 235-9L202-51Q211-47 221-46Q231-45 239-45Q268-45 284-57.50Q300-70 300-94Q300-132 270.50-154Q241-176 185-176Q158-176 135-170.50Q112-165 95-157L119-126Z"  horiz-adv-x="526" vert-adv-y="1000"  />

      
      <glyph glyph-name="uni0109" unicode="&#x0109;" d="M243 645L356 730L406 730L481 645L439 624L371 687L277 624L243 645M223-10Q177-10 140 7.50Q103 25 77.50 55Q52 85 38.50 125Q25 165 25 210Q25 273 50 331Q75 389 117.50 433.50Q160 478 216.50 504Q273 530 337 530Q408 530 453.50 496.50Q499 463 513 406L443 385Q431 425 399 447.50Q367 470 322 470Q278 470 237.50 450Q197 430 165 396Q133 362 114 316Q95 270 95 219Q95 183 105 152.50Q115 122 133 99Q151 76 176.50 63Q202 50 233 50Q257 50 281.50 57Q306 64 328 76.50Q350 89 367.50 105Q385 121 394 139L457 119Q441 91 416 67.50Q391 44 360 26.50Q329 9 294-0.50Q259-10 223-10Z"  horiz-adv-x="526" vert-adv-y="1000"  />

      
      <glyph glyph-name="uni010B" unicode="&#x010B;" d="M223-10Q177-10 140 7.50Q103 25 77.50 55Q52 85 38.50 125Q25 165 25 210Q25 273 50 331Q75 389 117.50 433.50Q160 478 216.50 504Q273 530 337 530Q408 530 453.50 496.50Q499 463 513 406L443 385Q431 425 399 447.50Q367 470 322 470Q278 470 237.50 450Q197 430 165 396Q133 362 114 316Q95 270 95 219Q95 183 105 152.50Q115 122 133 99Q151 76 176.50 63Q202 50 233 50Q257 50 281.50 57Q306 64 328 76.50Q350 89 367.50 105Q385 121 394 139L457 119Q441 91 416 67.50Q391 44 360 26.50Q329 9 294-0.50Q259-10 223-10M327 633L348 730L410 730L389 633L327 633Z"  horiz-adv-x="526" vert-adv-y="1000"  />

      
      <glyph glyph-name="unia2" unicode="&#xa2;" d="M176-120L200-9Q159-6 127 14Q95 34 73.50 64.50Q52 95 40.50 133Q29 171 29 211Q29 267 50.50 321.50Q72 376 110.50 420Q149 464 201 493.50Q253 523 314 529L339 645L375 645L350 529Q420 527 461 494.50Q502 462 518 406L448 385Q435 426 406 446Q377 466 337 468L249 51Q267 52 289.50 59Q312 66 333.50 77Q355 88 372.50 104Q390 120 399 139L462 119Q444 87 416 62.50Q388 38 356.50 22Q325 6 293-2Q261-10 236-10L212-120L176-120M99 218Q99 188 107 160.50Q115 133 129.50 110.50Q144 88 165 73Q186 58 213 54L300 466Q257 462 220 438Q183 414 156 378.50Q129 343 114 300.50Q99 258 99 218Z"  horiz-adv-x="540" vert-adv-y="1000"  />

      
      <glyph glyph-name="uni3a" unicode="&#x3a;" d="M88 420L109 518L167 518L146 420L88 420M-1 0L21 98L78 98L57 0L-1 0Z"  horiz-adv-x="185" vert-adv-y="1000"  />

      
      <glyph glyph-name="uni2c" unicode="&#x2c;" d="M4-81L39 3L16 3L36 98L101 98L81 3L39-81L4-81Z"  horiz-adv-x="222" vert-adv-y="1000"  />

      
      <glyph glyph-name="unia9" unicode="&#xa9;" d="M433-7Q354-7 286.50 20.50Q219 48 170 96.50Q121 145 93.50 211Q66 277 66 355Q66 432 93.50 498Q121 564 170 612Q219 660 286.50 687.50Q354 715 433 715Q512 715 579.50 687.50Q647 660 696.50 612Q746 564 774 498Q802 432 802 355Q802 277 774 211Q746 145 696.50 96.50Q647 48 579.50 20.50Q512-7 433-7M433 26Q503 26 564 50Q625 74 670 117Q715 160 741 220Q767 280 767 353Q767 424 742 484Q717 544 672 588Q627 632 566 657Q505 682 433 682Q361 682 300 657Q239 632 194.50 588.50Q150 545 125 484.50Q100 424 100 354Q100 284 125 224Q150 164 194.50 120Q239 76 300 51Q361 26 433 26M440 123Q395 123 352.50 139.50Q310 156 278 186Q246 216 226.50 259Q207 302 207 355Q207 397 221 439Q235 481 263 514Q291 547 333.50 568Q376 589 434 589Q500 589 551.50 560.50Q603 532 626 478L561 457Q551 479 535.50 493Q520 507 502 515Q484 523 466.50 526Q449 529 434 529Q394 529 364.50 513.50Q335 498 315.50 473.50Q296 449 286.50 417.50Q277 386 277 355Q277 314 292 281.50Q307 249 330 227Q353 205 381.50 193.50Q410 182 437 182Q455 182 475 187.50Q495 193 513 202.50Q531 212 545.50 226Q560 240 568 258L633 239Q626 221 609.50 200.50Q593 180 568 162.50Q543 145 510.50 134Q478 123 440 123Z"  horiz-adv-x="845" vert-adv-y="1000"  />

      
      <glyph glyph-name="uni64" unicode="&#x64;" d="M211-10Q167-10 132.50 7.50Q98 25 74 55Q50 85 37.50 124.50Q25 164 25 208Q25 270 49 328Q73 386 113 431Q153 476 205.50 503Q258 530 315 530Q377 530 418 495.50Q459 461 476 412L544 730L612 730L476 89Q474 79 474 77Q474 60 493 60L480 0Q472-1 466.50-1.50Q461-2 456-2Q432-2 419.50 9.50Q407 21 407 38Q407 45 409 57.50Q411 70 418 101Q378 50 321.50 20Q265-10 211-10M239 50Q263 50 291.50 60Q320 70 347 87.50Q374 105 395.50 128.50Q417 152 427 179L460 340Q457 367 444 390.50Q431 414 412 432Q393 450 369 460Q345 470 320 470Q275 470 234 447.50Q193 425 162.50 389.50Q132 354 114 309Q96 264 96 219Q96 184 106 153.50Q116 123 135 100Q154 77 180 63.50Q206 50 239 50Z"  horiz-adv-x="598" vert-adv-y="1000"  />

      
      <glyph glyph-name="uni2020" unicode="&#x2020;" d="M74-130L152 240L27 240L40 302L165 302L266 775L331 775L230 302L355 302L342 240L217 240L139-130L74-130Z"  horiz-adv-x="395" vert-adv-y="1000"  />

      
      <glyph glyph-name="uni2021" unicode="&#x2021;" d="M75-130L136 159L11 159L24 222L149 222L173 332L48 332L61 395L186 395L267 775L332 775L251 395L376 395L362 332L238 332L214 222L339 222L326 159L201 159L140-130L75-130Z"  horiz-adv-x="396" vert-adv-y="1000"  />

      
      <glyph glyph-name="uni010F" unicode="&#x010F;" d="M636 637L712 730L784 730L678 620L636 637M211-10Q167-10 132.50 7.50Q98 25 74 55Q50 85 37.50 124.50Q25 164 25 208Q25 270 49 328Q73 386 113 431Q153 476 205.50 503Q258 530 315 530Q377 530 418 495.50Q459 461 476 412L544 730L612 730L476 89Q474 79 474 77Q474 60 493 60L480 0Q472-1 466.50-1.50Q461-2 456-2Q432-2 419.50 9.50Q407 21 407 38Q407 45 409 57.50Q411 70 418 101Q378 50 321.50 20Q265-10 211-10M239 50Q263 50 291.50 60Q320 70 347 87.50Q374 105 395.50 128.50Q417 152 427 179L460 340Q457 367 444 390.50Q431 414 412 432Q393 450 369 460Q345 470 320 470Q275 470 234 447.50Q193 425 162.50 389.50Q132 354 114 309Q96 264 96 219Q96 184 106 153.50Q116 123 135 100Q154 77 180 63.50Q206 50 239 50Z"  horiz-adv-x="598" vert-adv-y="1000"  />

      
      <glyph glyph-name="uni0111" unicode="&#x0111;" d="M429 656L528 656L544 730L612 730L596 656L671 656L662 610L586 610L476 89Q474 79 474 77Q474 60 493 60L480 0Q472-1 466.50-1.50Q461-2 456-2Q432-2 419.50 9.50Q407 21 407 38Q407 45 409 57.50Q411 70 418 101Q378 50 321.50 20Q265-10 211-10Q167-10 132.50 7.50Q98 25 74 55Q50 85 37.50 124.50Q25 164 25 208Q25 270 49 328Q73 386 113 431Q153 476 205.50 503Q258 530 315 530Q377 530 418 495.50Q459 461 476 412L518 610L419 610L429 656M239 50Q263 50 291.50 60Q320 70 347 87.50Q374 105 395.50 128.50Q417 152 427 179L460 340Q457 367 444 390.50Q431 414 412 432Q393 450 369 460Q345 470 320 470Q275 470 234 447.50Q193 425 162.50 389.50Q132 354 114 309Q96 264 96 219Q96 184 106 153.50Q116 123 135 100Q154 77 180 63.50Q206 50 239 50Z"  horiz-adv-x="598" vert-adv-y="1000"  />

      
      <glyph glyph-name="unib0" unicode="&#xb0;" d="M181 558Q152 558 134.50 576Q117 594 117 623Q117 642 125 660Q133 678 146.50 692Q160 706 178 715Q196 724 217 724Q246 724 263.50 705Q281 686 281 657Q281 637 273 619Q265 601 251 587.50Q237 574 219 566Q201 558 181 558M190 597Q208 597 225 612.50Q242 628 242 649Q242 666 233 675Q224 684 209 684Q189 684 173 669Q157 654 157 633Q157 616 166 606.50Q175 597 190 597Z"  horiz-adv-x="259" vert-adv-y="1000"  />

      
      <glyph glyph-name="unif7" unicode="&#xf7;" d="M234 399L234 490L293 490L293 399L234 399M234 74L234 164L293 164L293 74L234 74M62 254L62 311L465 311L465 254L62 254Z"  horiz-adv-x="537" vert-adv-y="1000"  />

      
      <glyph glyph-name="uni24" unicode="&#x24;" d="M546 577Q526 609 485.50 630Q445 651 388 653L332 386Q377 376 414.50 363.50Q452 351 478.50 332Q505 313 519.50 286.50Q534 260 534 223Q534 167 512.50 124.50Q491 82 453 53.50Q415 25 363.50 10Q312-5 253-6L232-103L196-103L217-5Q77 4-5 97L42 154Q66 117 116 89.50Q166 62 233 57L290 324Q245 336 210 349Q175 362 151 379Q127 396 115 419.50Q103 443 103 475Q103 528 123.50 571Q144 614 180 644.50Q216 675 264.50 693Q313 711 369 714L391 815L427 815L406 715Q468 713 513.50 691.50Q559 670 591 633L546 577M457 202Q457 248 421 272.50Q385 297 317 317L261 56Q352 56 404.50 93.50Q457 131 457 202M179 497Q179 454 210 432Q241 410 304 393L359 652Q264 647 221.50 604Q179 561 179 497Z"  horiz-adv-x="594" vert-adv-y="1000"  />

      
      <glyph glyph-name="uni0131" unicode="&#x0131;" d="M119 521L187 521L77 0L9 0L119 521Z"  horiz-adv-x="213" vert-adv-y="1000"  />

      
      <glyph glyph-name="uni0237" unicode="&#x0237;" d="M-110-181Q-142-181-167.50-172Q-193-163-210-142L-168-96Q-157-110-139.50-115Q-122-120-104-120Q-88-120-70.50-113Q-53-106-38-93.50Q-23-81-12-64Q-1-47 3-27L119 521L187 521L71-23Q64-58 45.50-87Q27-116 2-137Q-23-158-52.50-169.50Q-82-181-110-181Z"  horiz-adv-x="213" vert-adv-y="1000"  />

      
      <glyph glyph-name="uni65" unicode="&#x65;" d="M226-10Q178-10 140.50 7Q103 24 77.50 54Q52 84 38.50 124Q25 164 25 210Q25 272 49 329.50Q73 387 115 431.50Q157 476 214.50 503Q272 530 339 530Q373 530 403.50 521Q434 512 456.50 494.50Q479 477 492 450.50Q505 424 505 390Q505 313 437 274Q369 235 227 235Q199 235 166.50 236Q134 237 96 240Q95 232 94.50 225Q94 218 94 211Q94 177 103 146.50Q112 116 130 92.50Q148 69 175 55.50Q202 42 238 42Q262 42 287 49Q312 56 334.50 68.50Q357 81 376 99Q395 117 408 139L464 122Q446 93 420 68.50Q394 44 362.50 26.50Q331 9 296.50-0.50Q262-10 226-10M332 477Q287 477 250 461Q213 445 184 419Q155 393 135 359Q115 325 105 289Q141 287 171.50 285.50Q202 284 230 284Q289 284 330 292Q371 300 396 314Q421 328 432 348Q443 368 443 391Q443 436 410 456.50Q377 477 332 477Z"  horiz-adv-x="534" vert-adv-y="1000"  />

      
      <glyph glyph-name="unie9" unicode="&#xe9;" d="M340 620L298 637L374 730L445 730L340 620M226-10Q178-10 140.50 7Q103 24 77.50 54Q52 84 38.50 124Q25 164 25 210Q25 272 49 329.50Q73 387 115 431.50Q157 476 214.50 503Q272 530 339 530Q373 530 403.50 521Q434 512 456.50 494.50Q479 477 492 450.50Q505 424 505 390Q505 313 437 274Q369 235 227 235Q199 235 166.50 236Q134 237 96 240Q95 232 94.50 225Q94 218 94 211Q94 177 103 146.50Q112 116 130 92.50Q148 69 175 55.50Q202 42 238 42Q262 42 287 49Q312 56 334.50 68.50Q357 81 376 99Q395 117 408 139L464 122Q446 93 420 68.50Q394 44 362.50 26.50Q331 9 296.50-0.50Q262-10 226-10M332 477Q287 477 250 461Q213 445 184 419Q155 393 135 359Q115 325 105 289Q141 287 171.50 285.50Q202 284 230 284Q289 284 330 292Q371 300 396 314Q421 328 432 348Q443 368 443 391Q443 436 410 456.50Q377 477 332 477Z"  horiz-adv-x="534" vert-adv-y="1000"  />

      
      <glyph glyph-name="uni0115" unicode="&#x0115;" d="M226-10Q178-10 140.50 7Q103 24 77.50 54Q52 84 38.50 124Q25 164 25 210Q25 272 49 329.50Q73 387 115 431.50Q157 476 214.50 503Q272 530 339 530Q373 530 403.50 521Q434 512 456.50 494.50Q479 477 492 450.50Q505 424 505 390Q505 313 437 274Q369 235 227 235Q199 235 166.50 236Q134 237 96 240Q95 232 94.50 225Q94 218 94 211Q94 177 103 146.50Q112 116 130 92.50Q148 69 175 55.50Q202 42 238 42Q262 42 287 49Q312 56 334.50 68.50Q357 81 376 99Q395 117 408 139L464 122Q446 93 420 68.50Q394 44 362.50 26.50Q331 9 296.50-0.50Q262-10 226-10M332 477Q287 477 250 461Q213 445 184 419Q155 393 135 359Q115 325 105 289Q141 287 171.50 285.50Q202 284 230 284Q289 284 330 292Q371 300 396 314Q421 328 432 348Q443 368 443 391Q443 436 410 456.50Q377 477 332 477M357 664Q377 664 397 683Q417 702 426 730L466 730Q461 709 450 690.50Q439 672 423.50 658.50Q408 645 389 637Q370 629 350 629Q315 629 294 651Q273 673 273 707Q273 718 276 730L318 730Q316 720 316 715Q316 694 327.50 679Q339 664 357 664Z"  horiz-adv-x="534" vert-adv-y="1000"  />

      
      <glyph glyph-name="uni011B" unicode="&#x011B;" d="M252 710L295 730L362 667L456 730L490 710L378 624L328 624L252 710M226-10Q178-10 140.50 7Q103 24 77.50 54Q52 84 38.50 124Q25 164 25 210Q25 272 49 329.50Q73 387 115 431.50Q157 476 214.50 503Q272 530 339 530Q373 530 403.50 521Q434 512 456.50 494.50Q479 477 492 450.50Q505 424 505 390Q505 313 437 274Q369 235 227 235Q199 235 166.50 236Q134 237 96 240Q95 232 94.50 225Q94 218 94 211Q94 177 103 146.50Q112 116 130 92.50Q148 69 175 55.50Q202 42 238 42Q262 42 287 49Q312 56 334.50 68.50Q357 81 376 99Q395 117 408 139L464 122Q446 93 420 68.50Q394 44 362.50 26.50Q331 9 296.50-0.50Q262-10 226-10M332 477Q287 477 250 461Q213 445 184 419Q155 393 135 359Q115 325 105 289Q141 287 171.50 285.50Q202 284 230 284Q289 284 330 292Q371 300 396 314Q421 328 432 348Q443 368 443 391Q443 436 410 456.50Q377 477 332 477Z"  horiz-adv-x="534" vert-adv-y="1000"  />

      
      <glyph glyph-name="uniea" unicode="&#xea;" d="M246 645L359 730L409 730L484 645L442 624L374 687L280 624L246 645M226-10Q178-10 140.50 7Q103 24 77.50 54Q52 84 38.50 124Q25 164 25 210Q25 272 49 329.50Q73 387 115 431.50Q157 476 214.50 503Q272 530 339 530Q373 530 403.50 521Q434 512 456.50 494.50Q479 477 492 450.50Q505 424 505 390Q505 313 437 274Q369 235 227 235Q199 235 166.50 236Q134 237 96 240Q95 232 94.50 225Q94 218 94 211Q94 177 103 146.50Q112 116 130 92.50Q148 69 175 55.50Q202 42 238 42Q262 42 287 49Q312 56 334.50 68.50Q357 81 376 99Q395 117 408 139L464 122Q446 93 420 68.50Q394 44 362.50 26.50Q331 9 296.50-0.50Q262-10 226-10M332 477Q287 477 250 461Q213 445 184 419Q155 393 135 359Q115 325 105 289Q141 287 171.50 285.50Q202 284 230 284Q289 284 330 292Q371 300 396 314Q421 328 432 348Q443 368 443 391Q443 436 410 456.50Q377 477 332 477Z"  horiz-adv-x="534" vert-adv-y="1000"  />

      
      <glyph glyph-name="unieb" unicode="&#xeb;" d="M253 633L274 727L332 727L311 633L253 633M397 633L417 727L474 727L455 633L397 633M226-10Q178-10 140.50 7Q103 24 77.50 54Q52 84 38.50 124Q25 164 25 210Q25 272 49 329.50Q73 387 115 431.50Q157 476 214.50 503Q272 530 339 530Q373 530 403.50 521Q434 512 456.50 494.50Q479 477 492 450.50Q505 424 505 390Q505 313 437 274Q369 235 227 235Q199 235 166.50 236Q134 237 96 240Q95 232 94.50 225Q94 218 94 211Q94 177 103 146.50Q112 116 130 92.50Q148 69 175 55.50Q202 42 238 42Q262 42 287 49Q312 56 334.50 68.50Q357 81 376 99Q395 117 408 139L464 122Q446 93 420 68.50Q394 44 362.50 26.50Q331 9 296.50-0.50Q262-10 226-10M332 477Q287 477 250 461Q213 445 184 419Q155 393 135 359Q115 325 105 289Q141 287 171.50 285.50Q202 284 230 284Q289 284 330 292Q371 300 396 314Q421 328 432 348Q443 368 443 391Q443 436 410 456.50Q377 477 332 477Z"  horiz-adv-x="534" vert-adv-y="1000"  />

      
      <glyph glyph-name="uni0117" unicode="&#x0117;" d="M226-10Q178-10 140.50 7Q103 24 77.50 54Q52 84 38.50 124Q25 164 25 210Q25 272 49 329.50Q73 387 115 431.50Q157 476 214.50 503Q272 530 339 530Q373 530 403.50 521Q434 512 456.50 494.50Q479 477 492 450.50Q505 424 505 390Q505 313 437 274Q369 235 227 235Q199 235 166.50 236Q134 237 96 240Q95 232 94.50 225Q94 218 94 211Q94 177 103 146.50Q112 116 130 92.50Q148 69 175 55.50Q202 42 238 42Q262 42 287 49Q312 56 334.50 68.50Q357 81 376 99Q395 117 408 139L464 122Q446 93 420 68.50Q394 44 362.50 26.50Q331 9 296.50-0.50Q262-10 226-10M332 477Q287 477 250 461Q213 445 184 419Q155 393 135 359Q115 325 105 289Q141 287 171.50 285.50Q202 284 230 284Q289 284 330 292Q371 300 396 314Q421 328 432 348Q443 368 443 391Q443 436 410 456.50Q377 477 332 477M327 633L348 730L410 730L389 633L327 633Z"  horiz-adv-x="534" vert-adv-y="1000"  />

      
      <glyph glyph-name="unie8" unicode="&#xe8;" d="M226-10Q178-10 140.50 7Q103 24 77.50 54Q52 84 38.50 124Q25 164 25 210Q25 272 49 329.50Q73 387 115 431.50Q157 476 214.50 503Q272 530 339 530Q373 530 403.50 521Q434 512 456.50 494.50Q479 477 492 450.50Q505 424 505 390Q505 313 437 274Q369 235 227 235Q199 235 166.50 236Q134 237 96 240Q95 232 94.50 225Q94 218 94 211Q94 177 103 146.50Q112 116 130 92.50Q148 69 175 55.50Q202 42 238 42Q262 42 287 49Q312 56 334.50 68.50Q357 81 376 99Q395 117 408 139L464 122Q446 93 420 68.50Q394 44 362.50 26.50Q331 9 296.50-0.50Q262-10 226-10M332 477Q287 477 250 461Q213 445 184 419Q155 393 135 359Q115 325 105 289Q141 287 171.50 285.50Q202 284 230 284Q289 284 330 292Q371 300 396 314Q421 328 432 348Q443 368 443 391Q443 436 410 456.50Q377 477 332 477M296 730L366 730L404 637L355 620L296 730Z"  horiz-adv-x="534" vert-adv-y="1000"  />

      
      <glyph glyph-name="uni38" unicode="&#x38;" d="M217-8Q173-8 137 5.50Q101 19 76 42.50Q51 66 37.50 98Q24 130 24 167Q24 209 40.50 243.50Q57 278 82.50 305Q108 332 139 350.50Q170 369 200 380Q165 397 142 429Q119 461 119 504Q119 553 143 591Q167 629 203.50 655.50Q240 682 285 696Q330 710 372 710Q406 710 438 700Q470 690 495 671Q520 652 535 623.50Q550 595 550 559Q550 526 537.50 498.50Q525 471 504 448.50Q483 426 456.50 408.50Q430 391 402 380Q445 363 473.50 323Q502 283 502 229Q502 176 477.50 132.50Q453 89 413 58Q373 27 322 9.50Q271-8 217-8M233 53Q267 53 302.50 65.50Q338 78 367 101Q396 124 414.50 156Q433 188 433 227Q433 256 421 279Q409 302 389.50 318Q370 334 345 342.50Q320 351 294 351Q260 351 224.50 338.50Q189 326 160.50 303Q132 280 113.50 248Q95 216 95 177Q95 148 106.50 125Q118 102 137.50 86Q157 70 182 61.50Q207 53 233 53M307 405Q334 405 364.50 414.50Q395 424 420.50 442.50Q446 461 462.50 487.50Q479 514 479 548Q479 572 469.50 590.50Q460 609 443.50 621.50Q427 634 405 641Q383 648 358 648Q327 648 296.50 638Q266 628 241.50 609.50Q217 591 202 565Q187 539 187 507Q187 483 197.50 464Q208 445 225 432Q242 419 263.50 412Q285 405 307 405Z"  horiz-adv-x="570" vert-adv-y="1000"  />

      
      </font>
</defs>
</svg>
